<?xml version="1.0" encoding="UTF-8" standalone="no"?>
<!-- Created with Inkscape (http://www.inkscape.org/) -->

<svg
   xmlns:dc="http://purl.org/dc/elements/1.1/"
   xmlns:cc="http://creativecommons.org/ns#"
   xmlns:rdf="http://www.w3.org/1999/02/22-rdf-syntax-ns#"
   xmlns:svg="http://www.w3.org/2000/svg"
   xmlns="http://www.w3.org/2000/svg"
   version="1.1"
   width="577.85156"
   height="257.38281"
   id="svg2">
  <title
     id="title3045">Logos: the famous Greek word logos as SVG image</title>
  <metadata
     id="metadata7">
    <rdf:RDF>
      <cc:Work
         rdf:about="">
        <dc:format>image/svg+xml</dc:format>
        <dc:type
           rdf:resource="http://purl.org/dc/dcmitype/StillImage" />
        <dc:title>Logos: the famous Greek word logos as SVG image</dc:title>
        <dc:date>2011-02-11</dc:date>
        <dc:creator>
          <cc:Agent>
            <dc:title>Roman Eisele</dc:title>
          </cc:Agent>
        </dc:creator>
        <dc:rights>
          <cc:Agent>
            <dc:title>Roman Eisele</dc:title>
          </cc:Agent>
        </dc:rights>
        <dc:publisher>
          <cc:Agent>
            <dc:title>Roman Eisele</dc:title>
          </cc:Agent>
        </dc:publisher>
        <dc:description>The famous Greek word logos as SVG image. I don't know if someone still needs this in the times of Unicode, but if you need it here it is ...</dc:description>
        <cc:license
           rdf:resource="http://creativecommons.org/licenses/publicdomain/" />
      </cc:Work>
      <cc:License
         rdf:about="http://creativecommons.org/licenses/publicdomain/">
        <cc:permits
           rdf:resource="http://creativecommons.org/ns#Reproduction" />
        <cc:permits
           rdf:resource="http://creativecommons.org/ns#Distribution" />
        <cc:permits
           rdf:resource="http://creativecommons.org/ns#DerivativeWorks" />
      </cc:License>
    </rdf:RDF>
  </metadata>
  <g
     transform="translate(-5.65625,-14.256981)"
     style="fill:#000000;fill-opacity:1;fill-rule:evenodd;stroke:none">
    <path
       d="M 81.828125,131.79605 62.84375,175.62418 c -5.156275,12.03126 -8.398459,19.25782 -9.726563,21.67968 -1.250019,2.42188 -2.343767,3.90625 -3.28125,4.45313 -0.859391,0.46875 -3.046888,0.70312 -6.5625,0.70312 -5.07813,0 -7.61719,-0.74218 -7.617187,-2.22656 -3e-6,-2.65624 13.749983,-32.30465 41.25,-88.94531 -4.140665,-18.906141 -7.695349,-31.132692 -10.664063,-36.679689 -2.96878,-5.546742 -6.679714,-8.320176 -11.132812,-8.320312 -4.609393,1.36e-4 -8.867201,3.437632 -12.773438,10.3125 l -1.875,3.398437 -1.640625,-2.460937 c 4.84374,-18.046733 11.054671,-27.070161 18.632813,-27.070313 5.31247,1.52e-4 9.648403,3.320461 13.007812,9.960938 3.359335,6.64076 8.007767,24.41418 13.945313,53.320316 6.562442,31.95318 12.499936,52.38284 17.8125,61.28906 5.31243,8.82814 10.66398,13.2422 16.05469,13.24219 1.79679,1e-5 3.39835,-0.42968 4.80469,-1.28907 1.40615,-0.85936 4.33584,-4.96091 8.78906,-12.30468 l 2.10937,2.8125 c -3.75009,12.50001 -6.91415,20.23438 -9.49218,23.20312 -2.50009,2.89062 -5.39072,4.33594 -8.67188,4.33594 -6.0157,0 -11.9532,-5.625 -17.8125,-16.875 -5.859434,-11.24998 -11.250054,-30.03902 -16.171875,-56.36719" />
    <path
       d="m 193.74219,106.36636 c 14.68742,1e-4 26.6796,4.64853 35.97656,13.94532 9.37489,9.29694 14.06239,20.85943 14.0625,34.6875 -1.1e-4,13.20316 -4.68761,24.84377 -14.0625,34.92187 -9.37509,10 -21.79695,15 -37.26563,15 -15.00004,0 -27.07034,-4.53125 -36.21093,-13.59375 -9.06252,-9.1406 -13.59376,-21.13278 -13.59375,-35.97656 -1e-5,-8.51557 2.42186,-16.99212 7.26562,-25.42969 4.92186,-8.51554 11.3281,-14.57022 19.21875,-18.16406 7.96871,-3.59366 16.17183,-5.39053 24.60938,-5.39063 m 4.21875,5.39063 c -12.10943,9e-5 -21.79692,6.52352 -29.0625,19.57031 -7.18753,12.96881 -10.78128,25.27348 -10.78125,36.91406 -3e-5,9.6094 2.73435,17.18752 8.20312,22.73438 5.46871,5.46875 12.49996,8.20313 21.09375,8.20312 11.79681,1e-5 21.40618,-5.8203 28.82813,-17.46093 7.42178,-11.71872 11.13272,-24.14058 11.13281,-37.26563 -9e-5,-10.62493 -2.85165,-18.71086 -8.55469,-24.25781 -5.62508,-5.62491 -12.57819,-8.43741 -20.85937,-8.4375" />
    <path
       d="m 181.4375,87.499176 14.53125,-25.195312 c 4.21872,-7.343603 8.3984,-12.656098 12.53906,-15.9375 1.71871,-1.406093 3.59371,-2.109217 5.625,-2.109375 2.10933,1.58e-4 3.78902,0.703282 5.03906,2.109375 1.24995,1.406404 1.87495,3.047028 1.875,4.921875 -5e-5,1.718899 -0.54692,3.593897 -1.64062,5.625 -1.0938,1.953268 -3.71098,4.609515 -7.85156,7.96875 l -27.53907,22.617187 -1.28906,0.117188 -1.28906,-0.117188"  />
    <path
       d="m 255.61719,131.09293 -2.46094,-1.64063 c 6.32812,-15.39054 12.3828,-23.08584 18.16406,-23.08594 7.10935,1e-4 14.10153,11.05478 20.97656,33.16407 6.95308,22.10941 11.4062,40.42971 13.35938,54.96093 9.92181,-16.79685 15.82024,-28.90621 17.69531,-36.32812 1.87493,-7.49995 2.81243,-14.02338 2.8125,-19.57031 -7e-5,-3.59369 -0.46882,-7.73431 -1.40625,-12.42188 -0.78132,-3.82804 -1.17194,-6.64054 -1.17187,-8.4375 -7e-5,-7.57803 3.32023,-11.36709 9.96093,-11.36719 3.35929,1e-4 6.01554,1.64072 7.96875,4.92188 1.95304,3.20321 2.9296,7.22664 2.92969,12.07031 -9e-5,11.40632 -8.75008,31.7188 -26.25,60.9375 -6.01568,10.07813 -9.5313,16.17188 -10.54687,18.28125 l 1.64062,11.25 c 1.87494,11.48435 2.81244,20.27341 2.8125,26.36719 -6e-5,14.29682 -3.2813,21.44525 -9.84375,21.44531 -6.56254,-6e-5 -9.84379,-6.36724 -9.84375,-19.10156 -4e-5,-11.7969 3.00777,-24.8047 9.02344,-39.02344 -2.73442,-16.48436 -6.52348,-31.67966 -11.36719,-45.58594 -4.76566,-13.90619 -8.71096,-22.85149 -11.83594,-26.83593 -3.04689,-3.9843 -6.21095,-5.97649 -9.49218,-5.97657 -3.28127,8e-5 -7.65626,1.99227 -13.125,5.97657" />
    <path
       d="m 410.30469,106.36636 c 14.68742,1e-4 26.6796,4.64853 35.97656,13.94532 9.37489,9.29694 14.06239,20.85943 14.0625,34.6875 -1.1e-4,13.20316 -4.68761,24.84377 -14.0625,34.92187 -9.37509,10 -21.79695,15 -37.26563,15 -15.00004,0 -27.07034,-4.53125 -36.21093,-13.59375 -9.06252,-9.1406 -13.59376,-21.13278 -13.59375,-35.97656 -10e-6,-8.51557 2.42186,-16.99212 7.26562,-25.42969 4.92186,-8.51554 11.3281,-14.57022 19.21875,-18.16406 7.96871,-3.59366 16.17183,-5.39053 24.60938,-5.39063 m 4.21875,5.39063 c -12.10943,9e-5 -21.79692,6.52352 -29.0625,19.57031 -7.18753,12.96881 -10.78128,25.27348 -10.78125,36.91406 -3e-5,9.6094 2.73435,17.18752 8.20312,22.73438 5.46871,5.46875 12.49996,8.20313 21.09375,8.20312 11.79681,1e-5 21.40618,-5.8203 28.82813,-17.46093 7.42178,-11.71872 11.13272,-24.14058 11.13281,-37.26563 -9e-5,-10.62493 -2.85165,-18.71086 -8.55469,-24.25781 -5.62508,-5.62491 -12.57819,-8.43741 -20.85937,-8.4375" />
    <path
       d="m 531.24219,188.16324 c 7.26555,1e-5 12.57805,2.10939 15.9375,6.32812 3.43742,4.21876 5.15616,9.45313 5.15625,15.70313 -9e-5,8.04686 -2.81258,14.60935 -8.4375,19.6875 -5.54695,5.15622 -12.26569,7.73434 -20.15625,7.73437 -3.98443,-3e-5 -7.07036,-0.85941 -9.25782,-2.57812 -2.10941,-1.64066 -3.1641,-3.59378 -3.16406,-5.85938 -4e-5,-1.95315 0.74215,-3.59377 2.22656,-4.92187 1.48433,-1.32815 3.28121,-1.99221 5.39063,-1.99219 1.95307,-2e-5 4.5312,0.78123 7.73437,2.34375 3.51557,1.79685 6.36713,2.69529 8.55469,2.69531 3.28118,-2e-5 6.01556,-1.25002 8.20313,-3.75 2.18742,-2.42189 3.28117,-5.4297 3.28125,-9.02343 -8e-5,-6.64063 -4.53133,-9.96094 -13.59375,-9.96094 l -9.96094,0.11719 c -13.98441,-1e-5 -25.03909,-4.45313 -33.16406,-13.35938 -8.12502,-8.90623 -12.18751,-20.70309 -12.1875,-35.39062 -10e-6,-14.45307 4.49217,-26.32806 13.47656,-35.625 8.98434,-9.29679 20.62496,-13.94522 34.92187,-13.94532 6.95307,1e-4 13.24212,1.28916 18.86719,3.86719 5.62492,2.50009 8.43742,6.05477 8.4375,10.66406 -8e-5,2.57821 -0.85946,4.68758 -2.57812,6.32813 -1.71883,1.56257 -3.82821,2.34382 -6.32813,2.34375 -3.67194,7e-5 -7.57819,-2.07024 -11.71875,-6.21094 -3.90631,-3.82804 -8.71099,-5.7421 -14.41406,-5.74219 -10.39066,9e-5 -18.82816,3.67196 -25.3125,11.01563 -6.48439,7.34382 -9.72658,16.21099 -9.72656,26.60156 -2e-5,9.53129 3.00779,17.46097 9.02343,23.78906 6.09373,6.25002 15.5859,9.37502 28.47657,9.375 l 10.3125,-0.23437" />
  </g>
</svg>
