<svg xmlns="http://www.w3.org/2000/svg" xmlns:xlink="http://www.w3.org/1999/xlink" width="1104" height="166"><defs><path id="a" d="M0 165.724h1103.901V0H0z"/></defs><g fill="none" fill-rule="evenodd"><path fill="#757575" d="M787.518 108.89c0 8.022-2.945 14.464-8.832 19.328-5.975 4.78-13.229 7.168-21.76 7.168-7.596 0-14.295-2.218-20.096-6.656-5.805-4.436-9.815-10.495-12.033-18.176l11.264-4.607c.769 2.731 1.834 5.206 3.2 7.423 1.365 2.22 2.965 4.119 4.8 5.697a21.703 21.703 0 0 0 6.08 3.711c2.219.896 4.565 1.344 7.04 1.344 5.376 0 9.771-1.385 13.185-4.16 3.412-2.772 5.12-6.464 5.12-11.072 0-3.84-1.409-7.124-4.225-9.855-2.644-2.645-7.596-5.205-14.847-7.681-7.34-2.644-11.904-4.436-13.697-5.376-9.727-4.947-14.591-12.243-14.591-21.888 0-6.74 2.688-12.5 8.063-17.28 5.46-4.777 12.16-7.168 20.098-7.168 6.995 0 13.054 1.792 18.174 5.376 5.12 3.5 8.533 7.894 10.241 13.184l-11.009 4.608c-1.024-3.411-3.052-6.25-6.078-8.512-3.033-2.26-6.721-3.391-11.073-3.391-4.609 0-8.493 1.279-11.649 3.839-3.158 2.39-4.736 5.504-4.736 9.344 0 3.158 1.236 5.888 3.713 8.193 2.73 2.303 8.66 5.036 17.792 8.191 9.3 3.158 15.935 7.02 19.904 11.584 3.968 4.566 5.952 10.177 5.952 16.832zm34.002 25.473c-5.12 0-9.366-1.578-12.736-4.736-3.37-3.157-5.1-7.552-5.184-13.185V81.37h-11.008V70.619H803.6v-19.2h11.775v19.2h15.361V81.37h-15.36v31.23c0 4.184.81 7.022 2.432 8.514 1.62 1.493 3.456 2.239 5.504 2.239.938 0 1.856-.105 2.752-.32.895-.211 1.727-.49 2.496-.831l3.712 10.496c-3.072 1.107-6.656 1.664-10.752 1.664m27.704-20.224c0 3.072 1.299 5.632 3.903 7.681 2.603 2.048 5.652 3.071 9.152 3.071 4.949 0 9.365-1.834 13.248-5.504 3.883-3.668 5.824-7.977 5.824-12.928-3.67-2.9-8.79-4.352-15.36-4.352-4.78 0-8.767 1.152-11.968 3.456-3.2 2.305-4.8 5.164-4.8 8.576m15.232-45.567c8.705 0 15.572 2.325 20.609 6.975 5.033 4.653 7.552 11.03 7.552 19.136v38.656H881.35v-8.704h-.512c-4.863 7.168-11.35 10.752-19.456 10.752-6.911 0-12.694-2.048-17.344-6.144-4.651-4.096-6.975-9.216-6.975-15.36 0-6.483 2.45-11.647 7.359-15.488 4.906-3.84 11.456-5.76 19.649-5.76 6.996 0 12.756 1.28 17.279 3.84v-2.688c0-4.096-1.621-7.572-4.863-10.432-3.244-2.858-7.041-4.287-11.393-4.287-6.572 0-11.775 2.773-15.615 8.32l-10.37-6.529c5.718-8.192 14.165-12.287 25.345-12.287m65.032 65.792c-5.12 0-9.366-1.578-12.736-4.736-3.37-3.157-5.1-7.552-5.184-13.185V81.37h-11.008V70.619h11.008v-19.2h11.775v19.2h15.361V81.37h-15.36v31.23c0 4.184.81 7.022 2.432 8.514 1.62 1.493 3.456 2.239 5.504 2.239.938 0 1.856-.105 2.752-.32.895-.211 1.727-.49 2.496-.831l3.712 10.496c-3.072 1.107-6.656 1.664-10.752 1.664"/><mask id="b" fill="#fff"><use xlink:href="#a"/></mask><path fill="#757575" d="M951.076 133.338h11.775v-62.72h-11.775v62.72zm14.206-84.351c0 2.303-.811 4.267-2.431 5.887-1.622 1.622-3.584 2.432-5.888 2.432s-4.269-.81-5.888-2.432c-1.623-1.62-2.432-3.584-2.432-5.887 0-2.305.809-4.267 2.432-5.889 1.619-1.62 3.584-2.432 5.888-2.432s4.266.812 5.888 2.432c1.62 1.622 2.431 3.584 2.431 5.889zm20.973 52.991c0 6.742 1.96 12.204 5.888 16.385 3.924 4.18 8.788 6.27 14.59 6.27 5.803 0 10.668-2.09 14.594-6.27 3.924-4.181 5.887-9.643 5.887-16.385 0-6.655-1.963-12.073-5.887-16.256-4.012-4.265-8.877-6.4-14.593-6.4-5.717 0-10.582 2.135-14.591 6.4-3.927 4.183-5.888 9.6-5.888 16.256m-11.776 0c0-9.642 3.028-17.62 9.088-23.936 6.143-6.314 13.866-9.471 23.167-9.471 9.3 0 16.98 3.157 23.04 9.47 6.145 6.317 9.217 14.295 9.217 23.937 0 9.729-3.072 17.708-9.216 23.937-6.061 6.315-13.741 9.47-23.041 9.47-9.301 0-17.024-3.155-23.167-9.47-6.06-6.315-9.088-14.292-9.088-23.937m73.871-31.36h11.264v8.705h.51c1.793-3.072 4.545-5.633 8.257-7.681 3.713-2.047 7.573-3.072 11.584-3.072 7.68 0 13.588 2.198 17.729 6.593 4.137 4.395 6.208 10.645 6.208 18.752v39.424h-11.777V94.682c-.255-10.24-5.42-15.36-15.488-15.36-4.693 0-8.62 1.9-11.775 5.695-3.158 3.8-4.737 8.343-4.737 13.633v34.689h-11.775v-62.72zM283.448 82.904c0-28.93 24.321-52.482 53.251-52.482 16.001 0 27.394 6.272 35.97 14.464l-10.113 10.113c-6.144-5.761-14.464-10.241-25.857-10.241-21.12 0-37.634 17.025-37.634 38.146 0 21.12 16.513 38.146 37.634 38.146 13.696 0 21.505-5.504 26.497-10.497 4.097-4.096 6.784-9.984 7.81-18.048h-34.307V78.168h48.258c.512 2.56.768 5.632.768 8.96 0 10.753-2.944 24.066-12.417 33.538-9.215 9.6-20.993 14.72-36.609 14.72-28.93 0-53.25-23.552-53.25-52.482m141.277 39.17c-10.241 0-19.073-8.448-19.073-20.481 0-12.161 8.832-20.481 19.073-20.481 10.24 0 19.072 8.32 19.072 20.48 0 12.034-8.832 20.482-19.072 20.482m0-54.274c-18.689 0-33.922 14.208-33.922 33.793 0 19.457 15.233 33.794 33.922 33.794 18.688 0 33.921-14.337 33.921-33.794 0-19.585-15.233-33.793-33.921-33.793m74 54.274c-10.24 0-19.074-8.448-19.074-20.481 0-12.161 8.834-20.481 19.074-20.481 10.24 0 19.072 8.32 19.072 20.48 0 12.034-8.832 20.482-19.072 20.482m0-54.274c-18.69 0-33.923 14.208-33.923 33.793 0 19.457 15.233 33.794 33.923 33.794 18.688 0 33.922-14.337 33.922-33.794 0-19.585-15.235-33.793-33.923-33.793m73.806 54.274c-10.24 0-18.817-8.576-18.817-20.353 0-11.904 8.577-20.61 18.817-20.61 10.112 0 18.05 8.706 18.05 20.61 0 11.777-7.938 20.353-18.05 20.353zm17.024-52.227v5.505h-.51c-3.329-3.968-9.73-7.552-17.794-7.552-16.897 0-32.386 14.848-32.386 33.92 0 18.946 15.49 33.667 32.386 33.667 8.064 0 14.465-3.584 17.793-7.681h.511v4.865c0 12.928-6.912 19.84-18.048 19.84-9.088 0-14.72-6.528-17.025-12.032l-12.929 5.376c3.712 8.96 13.57 19.969 29.954 19.969 17.41 0 32.13-10.24 32.13-35.201V69.847h-14.082zm24.322 63.491h14.849V34.005h-14.849zm54.403-52.482c5.888 0 10.88 2.944 12.544 7.168l-30.209 12.545c-.385-13.057 10.112-19.713 17.664-19.713m1.152 41.218c-7.552 0-12.928-3.456-16.384-10.24l45.186-18.69-1.536-3.84c-2.816-7.552-11.393-21.505-28.93-21.505-17.409 0-31.873 13.697-31.873 33.794 0 18.945 14.336 33.793 33.537 33.793 15.49 0 24.45-9.472 28.161-14.976l-11.52-7.68c-3.84 5.632-9.088 9.344-16.64 9.344" mask="url(#b)"/><g mask="url(#b)"><path fill="#34A853" d="M84.43 132.866l38.47 7.5v.001l-6.157 24.638c-.142.568.555.961.968.547l38.575-38.56a.577.577 0 0 0-.313-.976l-38.47-7.5 6.157-24.639c.142-.568-.555-.96-.968-.547l-38.574 38.56a.577.577 0 0 0 .312.976"/><path fill="#FBBC05" d="M117.364 0v25.93c38.56 0 73.653 15.751 99.04 41.017l18.323-18.322C204.649 18.701 163.04 0 117.364 0"/><path fill="#EA4335" d="M117.363 0C71.686 0 30.077 18.701 0 48.625l18.323 18.322c25.387-25.266 60.48-41.017 99.04-41.017V0z"/><path fill="#4285F4" d="M117.364 51.552c-31.451 0-60.205 12.86-80.855 33.563l18.314 18.332C70.832 87.49 93.029 77.48 117.363 77.48c24.337 0 46.533 10.009 62.542 25.966l18.314-18.332c-20.65-20.703-49.404-33.563-80.855-33.563"/></g></g></svg>