<?xml version="1.0" encoding="UTF-8" standalone="no"?>
<svg
   xmlns:dc="http://purl.org/dc/elements/1.1/"
   xmlns:cc="http://creativecommons.org/ns#"
   xmlns:rdf="http://www.w3.org/1999/02/22-rdf-syntax-ns#"
   xmlns:svg="http://www.w3.org/2000/svg"
   xmlns="http://www.w3.org/2000/svg"
   viewBox="0 0 2283.1333 420.664"
   height="420.664"
   width="2283.1333"
   xml:space="preserve"
   id="svg2"
   version="1.1"><metadata
     id="metadata8"><rdf:RDF><cc:Work
         rdf:about=""><dc:format>image/svg+xml</dc:format><dc:type
           rdf:resource="http://purl.org/dc/dcmitype/StillImage" /></cc:Work></rdf:RDF></metadata><defs
     id="defs6"><clipPath
       id="clipPath14"
       clipPathUnits="userSpaceOnUse"><path
         id="path12"
         d="M 0,0 H 1712.35 V 315.5 H 0 Z" /></clipPath></defs><g
     clip-path="url(#clipPath14)"
     transform="matrix(1.3333333,0,0,-1.3333333,0,420.664)"
     id="g10"><g
       transform="scale(0.1)"
       id="g16"><path
         id="path18"
         style="fill:#fd2a25;fill-opacity:1;fill-rule:nonzero;stroke:none"
         d="m 3320.37,1020.44 c -237.75,0 -442.74,196.12 -442.74,475.37 0,282.24 204.99,475.36 442.74,475.36 237.61,0 442.61,-193.12 442.61,-475.36 0,-279.25 -205,-475.37 -442.61,-475.37 m 0,1259.73 c -433.74,0 -787.36,-329.88 -787.36,-784.36 0,-451.62 353.62,-784.228 787.36,-784.228 433.74,0 787.22,332.608 787.22,784.228 0,454.48 -353.48,784.36 -787.22,784.36" /><path
         id="path20"
         style="fill:#ffb900;fill-opacity:1;fill-rule:nonzero;stroke:none"
         d="m 5037.45,1020.44 c -237.63,0 -442.61,196.12 -442.61,475.37 0,282.24 204.98,475.36 442.61,475.36 237.6,0 442.6,-193.12 442.6,-475.36 0,-279.25 -205,-475.37 -442.6,-475.37 m 0,1259.73 c -433.75,0 -787.24,-329.88 -787.24,-784.36 0,-451.62 353.49,-784.228 787.24,-784.228 433.73,0 787.21,332.608 787.21,784.228 0,454.48 -353.48,784.36 -787.21,784.36" /><path
         id="path22"
         style="fill:#2584fc;fill-opacity:1;fill-rule:nonzero;stroke:none"
         d="m 6748.65,1020.44 c -237.75,0 -436.74,199.13 -436.74,472.36 0,276.38 198.99,478.37 436.74,478.37 234.61,0 418.86,-201.99 418.86,-478.37 0,-273.23 -184.25,-472.36 -418.86,-472.36 m 395.12,1084.35 h -11.88 c -77.25,92.12 -225.88,175.38 -412.99,175.38 -392.12,0 -751.6,-344.62 -751.6,-787.37 0,-439.6 359.48,-781.218 751.6,-781.218 187.11,0 335.74,83.117 412.99,178.25 h 11.88 V 776.82 c 0,-299.98 -160.51,-460.347 -418.87,-460.347 -211,0 -341.75,151.488 -395.11,279.238 L 6029.67,470.832 C 6115.79,262.973 6344.53,7.48047 6724.9,7.48047 c 403.99,0 745.6,237.60953 745.6,816.96853 V 2232.53 h -326.73" /><path
         id="path24"
         style="fill:#fd2a25;fill-opacity:1;fill-rule:nonzero;stroke:none"
         d="m 8970.7,1977.04 c 136.76,0 252.49,-68.24 291.12,-166.37 l -701.11,-291.12 c -8.87,302.99 234.75,457.49 409.99,457.49 m 26.76,-956.6 c -175.25,0 -300,80.25 -380.25,237.75 l 1048.73,433.74 -35.62,89.12 c -65.37,175.24 -264.5,499.11 -671.5,499.11 -403.97,0 -739.72,-318 -739.72,-784.36 0,-439.6 332.74,-784.218 778.36,-784.218 359.49,0 567.49,219.738 653.59,347.488 l -267.35,178.24 c -89.13,-130.61 -211,-216.87 -386.24,-216.87" /><path
         id="path26"
         style="fill:#00ac47;fill-opacity:1;fill-rule:nonzero;stroke:none"
         d="m 7708.11,759.078 h 344.621 v 2305.31 H 7708.11 Z" /><path
         id="path28"
         style="fill:#2584fc;fill-opacity:1;fill-rule:nonzero;stroke:none"
         d="m 1276.43,2039.41 v -332.74 h 796.22 c -23.88,-187.11 -86.25,-323.73 -181.24,-418.86 -115.87,-115.88 -297.12,-243.62 -614.98,-243.62 -490.106,0 -873.344,395.11 -873.344,885.36 0,490.24 383.238,885.35 873.344,885.35 264.36,0 457.48,-104 600.11,-237.75 l 234.75,234.75 c -199.14,190.12 -463.5,335.61 -834.86,335.61 -671.356,0 -1235.8441,-546.61 -1235.8441,-1217.96 0,-671.36 564.4881,-1217.968 1235.8441,-1217.968 362.5,0 635.72,118.738 849.59,341.618 219.87,219.87 288.25,528.72 288.25,778.35 0,77.25 -6,148.49 -17.88,207.86" /><path
         id="path30"
         style="fill:#5e6369;fill-opacity:1;fill-rule:nonzero;stroke:none"
         d="M 11161,1682.88 V 759.047 h -276.9 V 2913.64 H 12142 v -264.81 h -981 v -707.17 h 884.7 v -258.78" /><path
         id="path32"
         style="fill:#5e6369;fill-opacity:1;fill-rule:nonzero;stroke:none"
         d="m 12636.9,759.051 h -276.859 v 1474.51 h 276.859 z m 57.2,1983.059 c 0,-54.16 -19.1,-100.34 -57.2,-138.42 -38.1,-38.14 -84.2,-57.17 -138.4,-57.17 -54.1,0 -100.3,19.03 -138.4,57.17 -38.1,38.08 -57.2,84.26 -57.2,138.42 0,54.17 19.1,100.29 57.2,138.42 38.1,38.09 84.3,57.18 138.4,57.18 54.2,0 100.3,-19.09 138.4,-57.18 38.1,-38.13 57.2,-84.25 57.2,-138.42" /><path
         id="path34"
         style="fill:#5e6369;fill-opacity:1;fill-rule:nonzero;stroke:none"
         d="m 13659.4,963.672 c 132.4,0 243.7,50.128 334,150.458 90.3,98.27 135.4,225.7 135.4,382.16 0,154.47 -45.1,281.84 -135.4,382.17 -90.3,100.3 -201.6,150.46 -334,150.46 -134.4,0 -246.7,-50.16 -337,-150.46 -88.3,-100.33 -132.4,-227.7 -132.4,-382.17 0,-156.46 44.1,-284.87 132.4,-385.18 90.3,-98.29 202.6,-147.438 337,-147.438 m 45.2,-252.758 c -108.4,0 -207.2,23.09 -296.5,69.211 -89.3,46.109 -157.9,107.277 -206.1,183.547 h -12 V 759.055 h -264.8 V 2913.64 h 276.8 v -680.09 l -12,-204.63 h 12 c 48.2,76.23 116.8,137.4 206.1,183.57 89.3,46.12 188.1,69.21 296.5,69.21 194.5,0 359,-76.27 493.4,-228.69 138.5,-154.52 207.7,-340.04 207.7,-556.72 0,-218.66 -69.2,-404.27 -207.7,-556.688 -134.4,-152.477 -298.9,-228.688 -493.4,-228.688" /><path
         id="path36"
         style="fill:#5e6369;fill-opacity:1;fill-rule:nonzero;stroke:none"
         d="m 14862.5,1673.84 h 845.6 c -8,102.31 -49.7,187.04 -124.9,254.29 -75.2,67.19 -176,100.8 -302.4,100.8 -104.3,0 -194.1,-32.11 -269.3,-96.29 -75.3,-64.23 -124.9,-150.47 -149,-258.8 m 442.4,-962.922 c -216.7,0 -395.3,74.191 -535.7,222.66 -140.4,148.452 -210.6,336.012 -210.6,562.722 0,224.65 68.1,411.75 204.6,561.22 136.4,149.43 310.9,224.19 523.6,224.19 218.6,0 392.7,-70.73 522.1,-212.15 129.4,-141.43 194.1,-339.57 194.1,-594.31 l -3,-30.09 h -1158.6 c 4,-144.47 52.2,-260.83 144.5,-349.09 92.2,-88.29 202.6,-132.402 331,-132.402 176.5,0 314.9,88.272 415.3,264.822 l 246.7,-120.37 c -66.2,-124.409 -158,-221.69 -275.3,-291.882 -117.4,-70.218 -250.3,-105.32 -398.7,-105.32" /><g
         transform="scale(1.04803)"
         id="g38"><path
           id="path40"
           style="fill:#5e6369;fill-opacity:1;fill-rule:nonzero;stroke:none"
           d="M 15694.2,724.261 H 15430 V 2131.19 h 252.7 v -229.71 h 11.5 c 26.7,74.66 81.8,138.27 165.1,190.94 83.2,52.62 165,78.96 245.4,78.96 76.6,0 141.7,-11.48 195.3,-34.45 l -80.4,-255.54 c -32.6,13.35 -84.3,20.09 -155.1,20.09 -99.5,0 -186.1,-40.19 -259.8,-120.59 -73.7,-80.39 -110.5,-174.22 -110.5,-281.39" /></g></g></g></svg>