<svg xmlns="http://www.w3.org/2000/svg" viewBox="0 0 339.664 69.579"><polygon fill="#212121" points="171.578,34.819 171.578,38.563 195.287,64.269 202.773,64.269 175.446,34.819"/><polygon fill="#212121" points="164.216,34.819 136.888,64.269 144.374,64.269 168.084,38.563 168.084,34.819"/><polygon fill="#212121" points="195.412,1.877 171.703,27.582 171.703,31.326 175.571,31.326 202.897,1.877"/><polygon fill="#212121" points="136.888,1.877 164.216,31.326 168.084,31.326 168.084,27.582 144.374,1.877"/><rect x="264.916" y="1.877" fill="#212121" width="5.739" height="62.392"/><path fill="#212121" d="M211.509,1.877V43.68c0.373,14.6,8.359,22.461,23.584,22.461c9.482,0,19.217-5.365,26.328-11.729v-6.49
			c-7.735,7.486-16.846,13.229-26.328,13.229c-10.732,0-17.844-5.989-17.844-17.471V1.877H211.509z"/><path fill="#212121" d="M35.562,0.005c-9.732,0-19.215,5.49-26.328,11.854v6.488C16.971,10.86,25.83,4.996,35.562,4.996
			c10.606,0,17.721,5.99,17.721,17.47v41.803h5.739V22.466C58.772,7.865,50.912,0.005,35.562,0.005L35.562,0.005z"/><rect y="1.877" fill="#212121" width="5.74" height="62.392"/><path fill="#212121" d="M311.087,0c-11.356,0-26.955,4.532-26.955,17.887c0,14.089,17.097,15.873,27.953,17.342
			c6.738,0.98,21.836,2.26,21.836,13.042c0,10.659-14.226,12.866-22.211,12.866c-10.607,0-24.086-4.045-24.832-16.908h-5.615
			c0.874,16.047,16.097,21.93,30.447,21.93c10.107,0,27.953-3.062,27.953-17.888c0-14.212-16.6-16.615-26.83-18.086
			c-8.985-1.104-22.961-2.496-22.961-12.298c0-9.801,12.854-12.753,21.215-12.753c10.48,0,22.461,4.178,22.461,15.694h5.738
			C339.287,5.88,324.062,0,311.087,0L311.087,0z"/><path fill="#212121" d="M80.86,31.326v0.624v0.873h52.035v-3.369c-0.251-17.096-12.729-29.449-30.199-29.449
			c-15.992,0-30.277,13.104-31.035,30.213l-0.011-0.007c0,0-0.176,2.124,0.001,4.854c0.007,0.094,0.014,0.173,0.021,0.245
			c0.923,18.416,13.873,30.707,31.648,30.83c10.979,0,20.838-3.494,28.325-11.354l-3.12-3.619
			c-6.737,6.613-15.473,9.983-25.205,9.983c-14.85,0-26.081-10.981-26.081-27.703v-2.496c0-14.849,12.229-25.955,25.456-25.955
			c14.475,0,23.459,10.108,24.584,23.085H81.233C80.985,28.955,80.86,30.452,80.86,31.326z"/></svg>
