<?xml version="1.0" encoding="utf-8"?>
<!-- Generator: Adobe Illustrator 22.1.0, SVG Export Plug-In . SVG Version: 6.00 Build 0)  -->
<svg version="1.1" id="Layer_1" xmlns="http://www.w3.org/2000/svg" xmlns:xlink="http://www.w3.org/1999/xlink" x="0px" y="0px"
	 viewBox="0 0 287.9 200" width="379.407432716" height="263.56890081" style="enable-background:new 0 0 287.9 200;" xml:space="preserve">
<style type="text/css">
	.st0{fill:#648094;}
	.st1{fill:#005D97;}
	.st2{fill:url(#SVGID_1_);}
	.st3{fill:url(#SVGID_2_);}
	.st4{fill:url(#SVGID_3_);}
	.st5{fill:url(#SVGID_4_);}
	.st6{fill:url(#SVGID_5_);}
	.st7{fill:url(#SVGID_6_);}
	.st8{fill:url(#SVGID_7_);}
	.st9{fill:url(#SVGID_8_);}
	.st10{fill:url(#SVGID_9_);}
	.st11{fill:url(#SVGID_10_);}
	.st12{fill:url(#SVGID_11_);}
	.st13{fill:url(#SVGID_12_);}
	.st14{fill:url(#SVGID_13_);}
	.st15{fill:url(#SVGID_14_);}
</style>
<title>Asset 2</title>
<g id="Layer_2_1_">
	<g id="Layer_1-2">
		<polyline class="st0" points="0,126.9 5.2,126.9 8.9,140.8 9,140.8 12.9,126.9 18.1,126.9 22.1,140.8 22.1,140.8 25.8,126.9 
			31,126.9 25,146 19.6,146 15.6,132.4 15.5,132.4 11.5,146 6.1,146 0,126.9 		"/>
		<rect x="36.3" y="126.9" class="st0" width="5.2" height="19.1"/>
		<path class="st0" d="M49.2,126.9h12.9c5.5,0,6.8,3.2,6.8,5.8c0,4.1-2.2,6.5-6.4,6.5h-8.1v6.8h-5.2V126.9 M54.4,135.7H60
			c1.6,0,3.5-0.1,3.5-2.6s-1.5-2.7-3-2.7h-6.1V135.7z"/>
		<path class="st0" d="M86.3,126.4c10.3,0,12,6.1,12,10.1s-1.6,10.1-12,10.1s-11.9-6.1-11.9-10.1S76,126.4,86.3,126.4 M86.3,142.9
			c4.7,0,6.4-3.5,6.4-6.4s-1.7-6.4-6.4-6.4s-6.4,3.5-6.4,6.4S81.6,142.9,86.3,142.9z"/>
		<polyline class="st1" points="48.3,156.6 49.3,156.6 46.2,165.9 45.1,165.9 42.2,157.9 42.2,157.9 39.4,165.9 38.3,165.9 
			35.2,156.6 36.3,156.6 38.9,164.6 38.9,164.6 41.7,156.6 42.9,156.6 45.6,164.6 45.7,164.6 48.3,156.6 		"/>
		<path class="st1" d="M57.5,156.3c2.7,0,5.1,1.6,5.1,4.9s-2.4,4.9-5.1,4.9s-5.1-1.6-5.1-4.9S54.8,156.3,57.5,156.3 M57.5,165.2
			c2.2,0,4-1.8,3.9-4s-1.8-4-4-3.9c-2.2,0-3.9,1.8-4,4c-0.1,2.1,1.5,3.9,3.5,4C57.1,165.2,57.3,165.2,57.5,165.2z"/>
		<path class="st1" d="M66.7,156.6h5.1c1.6,0,3.1,0.6,3.1,2.5c0,1.1-0.8,2.1-1.8,2.3l0,0c1.3,0.2,1.6,1.1,1.7,2.6
			c0,0.7,0.1,1.3,0.3,1.9H74c-0.2-0.6-0.3-1.3-0.2-1.9c0-1.6-0.7-2.2-2.3-2.2h-3.8v4.1h-1L66.7,156.6 M67.7,160.9h4.1
			c1.1,0,2-0.4,2-1.8s-1-1.6-1.9-1.6h-4.2V160.9z"/>
		<polyline class="st1" points="79,156.6 79.9,156.6 79.9,165 85.9,165 85.9,165.9 79,165.9 79,156.6 		"/>
		<path class="st1" d="M89.4,156.6H94c2.7,0,4.2,1.7,4.2,4.7c0,2.6-1.4,4.7-4,4.7h-4.8V156.6 M90.4,165H94c1.7,0,3.2-0.9,3.2-3.8
			c0-2.5-1-3.8-3.2-3.8h-3.6L90.4,165z"/>
		<rect x="36.3" y="173.5" class="st1" width="2" height="9.3"/>
		<polyline class="st1" points="42.8,173.5 45.1,173.5 50.7,180.5 50.7,180.5 50.7,173.5 52.6,173.5 52.6,182.8 50.4,182.8 
			44.7,175.8 44.7,175.8 44.7,182.8 42.8,182.8 42.8,173.5 		"/>
		<polyline class="st1" points="59.7,175 56.2,175 56.2,173.5 65.2,173.5 65.2,175 61.7,175 61.7,182.8 59.7,182.8 59.7,175 		"/>
		<polyline class="st1" points="68.8,173.5 77,173.5 77,175 70.8,175 70.8,177.3 76.7,177.3 76.7,178.8 70.8,178.8 70.8,181.4 
			77.1,181.4 77.1,182.8 68.8,182.8 68.8,173.5 		"/>
		<polyline class="st1" points="81.2,173.5 83.2,173.5 83.2,181.3 88.9,181.3 88.9,182.8 81.2,182.8 81.2,173.5 		"/>
		<polyline class="st1" points="92.6,173.5 94.6,173.5 94.6,181.3 100.3,181.3 100.3,182.8 92.6,182.8 92.6,173.5 		"/>
		<polyline class="st1" points="104,173.5 112.2,173.5 112.2,175 106,175 106,177.3 112,177.3 112,178.8 106,178.8 106,181.4 
			112.3,181.4 112.3,182.8 104,182.8 104,173.5 		"/>
		<path class="st1" d="M124.2,176.9c-0.2-1.4-1.4-2.2-3-2.2c-1.8,0-3.2,1.2-3.2,3.6c-0.1,1.7,1.3,3.2,3,3.3c0.1,0,0.2,0,0.3,0
			c1.4,0.1,2.7-0.9,2.9-2.4h2.1c-0.3,1.9-1.5,3.8-5.4,3.8c-2.6,0.2-4.8-1.7-5-4.3c0-0.2,0-0.4,0-0.6c0-2.6,1.6-4.9,5.3-4.9
			c3.2,0,4.9,1.7,5.1,3.7L124.2,176.9"/>
		<polyline class="st1" points="133.1,175 129.6,175 129.6,173.5 138.6,173.5 138.6,175 135.1,175 135.1,182.8 133.1,182.8 
			133.1,175 		"/>
		<path class="st1" d="M142.1,173.5h2v5.3c0,1.3,0.1,2.9,2.6,2.9s2.6-1.6,2.6-2.9v-5.3h2v5.3c0,1.5,0,4.3-4.6,4.3s-4.6-2.7-4.6-4.3
			L142.1,173.5"/>
		<path class="st1" d="M158.9,173.5h2.4l4.2,9.3h-2.2l-1-2.3h-4.4l-1,2.3h-2.1L158.9,173.5 M161.6,179.1l-1.6-3.9l-1.6,3.9H161.6z"
			/>
		<polyline class="st1" points="168.9,173.5 170.9,173.5 170.9,181.3 176.6,181.3 176.6,182.8 168.9,182.8 168.9,173.5 		"/>
		<path class="st1" d="M187.6,173.5h5.8c2.3,0,3.1,1.4,3.1,2.9c0.1,1.5-1.2,2.8-2.7,2.9c-0.1,0-0.2,0-0.3,0h-3.8v3.6h-2L187.6,173.5
			 M189.6,177.8h3.2c1.1,0,1.7-0.3,1.7-1.4s-0.8-1.4-1.6-1.4h-3.3V177.8z"/>
		<path class="st1" d="M200.5,173.5h5.9c2.4,0,3.2,1.1,3.2,2.5c0.1,1-0.6,1.9-1.6,2.2l0,0c1.1,0.2,1.4,1.2,1.4,2.5
			c0,0.7,0.1,1.4,0.4,2h-2.1c-0.2-0.4-0.3-0.9-0.2-1.4c0-1.3-0.2-2.3-1.6-2.3h-3.4v3.7h-2L200.5,173.5 M205.9,177.6
			c1.1,0,1.7-0.3,1.7-1.4s-0.6-1.3-1.7-1.3h-3.4v2.7L205.9,177.6z"/>
		<path class="st1" d="M213.3,178.2c0-2.6,1.6-4.9,5.5-4.9s5.5,2.3,5.5,4.9s-1.6,4.9-5.5,4.9S213.3,180.8,213.3,178.2 M222.3,178.2
			c0-1.9-1.5-3.5-3.5-3.5c-1.9,0-3.5,1.5-3.5,3.5c0,1.9,1.5,3.5,3.5,3.5c0,0,0,0,0,0c1.8,0.1,3.3-1.2,3.5-2.9
			C222.4,178.5,222.4,178.3,222.3,178.2L222.3,178.2z"/>
		<path class="st1" d="M228.4,173.5h5.8c2.3,0,3.1,1.4,3.1,2.9c0.1,1.5-1.1,2.8-2.7,2.9c-0.1,0-0.2,0-0.3,0h-3.9v3.6h-2L228.4,173.5
			 M230.4,177.8h3.2c1.1,0,1.7-0.3,1.7-1.4s-0.8-1.4-1.6-1.4h-3.3V177.8z"/>
		<polyline class="st1" points="241.3,173.5 249.5,173.5 249.5,175 243.3,175 243.3,177.3 249.2,177.3 249.2,178.8 243.3,178.8 
			243.3,181.4 249.6,181.4 249.6,182.8 241.3,182.8 241.3,173.5 		"/>
		<path class="st1" d="M253.7,173.5h5.9c2.4,0,3.2,1.1,3.2,2.5c0.1,1-0.6,1.9-1.6,2.2l0,0c1.1,0.2,1.4,1.2,1.4,2.5
			c0,0.7,0.1,1.4,0.4,2h-2.1c-0.2-0.4-0.3-0.9-0.2-1.4c0-1.3-0.2-2.3-1.6-2.3h-3.4v3.7h-2L253.7,173.5 M259.1,177.6
			c1.1,0,1.7-0.3,1.7-1.4s-0.6-1.3-1.7-1.3h-3.4v2.7L259.1,177.6z"/>
		<polyline class="st1" points="269.6,175 266.1,175 266.1,173.5 275.1,173.5 275.1,175 271.6,175 271.6,182.8 269.6,182.8 
			269.6,175 		"/>
		<polyline class="st1" points="281.8,179.3 277.7,173.5 280.1,173.5 282.8,177.6 285.5,173.5 287.9,173.5 283.8,179.3 283.8,182.8 
			281.8,182.8 281.8,179.3 		"/>
		<path class="st1" d="M40.5,190.2c2.7,0,5.1,1.6,5.1,4.9s-2.4,4.9-5.1,4.9s-5.1-1.6-5.1-4.9S37.8,190.2,40.5,190.2 M40.5,199.1
			c2.2,0,4-1.8,4-4s-1.8-4-4-4s-4,1.8-4,4S38.3,199.1,40.5,199.1z"/>
		<path class="st1" d="M49.7,190.4h5.1c1.6,0,3,0.6,3,2.5c0,1.1-0.8,2-1.8,2.3l0,0c1.3,0.2,1.6,1.1,1.7,2.6c0,0.7,0.1,1.3,0.3,1.9
			h-1c-0.2-0.6-0.3-1.3-0.2-1.9c0-1.6-0.7-2.2-2.3-2.2h-3.8v4.1h-1L49.7,190.4 M50.7,194.7h4.1c1.1,0,2-0.4,2-1.8s-1-1.6-1.9-1.6
			h-4.2V194.7z"/>
		<path class="st1" d="M70.6,198L70.6,198c-0.8,1.3-2.3,2.1-3.9,2c-2.5,0.2-4.7-1.6-4.9-4.1c0-0.3,0-0.5,0-0.8
			c-0.1-2.6,1.9-4.8,4.5-4.9c0.2,0,0.3,0,0.5,0c2.6,0,4.3,1.5,4.5,3.2h-1c-0.4-1.6-1.8-2.3-3.5-2.3c-2-0.2-3.8,1.3-4,3.3
			c0,0.2,0,0.5,0,0.7c0,2.5,1.3,4,3.8,4c2.8,0,3.7-1.6,4-3.3h-3.5V195h4.3v4.8h-0.8L70.6,198"/>
		<path class="st1" d="M82.2,196.9h-5l-1.3,2.8h-1l4.3-9.3h1.1l4.3,9.3h-1.1L82.2,196.9 M79.7,191.4l-2.1,4.6h4.2L79.7,191.4z"/>
		<polyline class="st1" points="88,190.4 89.1,190.4 95.7,198.4 95.7,198.4 95.7,190.4 96.7,190.4 96.7,199.8 95.6,199.8 89,191.8 
			88.9,191.8 88.9,199.8 88,199.8 88,190.4 		"/>
		<rect x="101.2" y="190.4" class="st1" width="1" height="9.3"/>
		<polyline class="st1" points="105.8,198.9 112.8,191.3 106.3,191.3 106.3,190.4 114.1,190.4 114.1,191.3 107.1,198.9 114.2,198.9 
			114.2,199.8 105.8,199.8 105.8,198.9 		"/>
		<path class="st1" d="M124.2,196.9h-5l-1.3,2.8h-1l4.3-9.3h1.1l4.3,9.3h-1.1L124.2,196.9 M121.7,191.4l-2.1,4.6h4.2L121.7,191.4z"
			/>
		<polyline class="st1" points="132,191.3 128.3,191.3 128.3,190.4 136.7,190.4 136.7,191.3 133,191.3 133,199.8 132,199.8 
			132,191.3 		"/>
		<rect x="140.3" y="190.4" class="st1" width="1" height="9.3"/>
		<path class="st1" d="M150.5,190.2c2.7,0,5.1,1.6,5.1,4.9s-2.4,4.9-5.1,4.9s-5.1-1.6-5.1-4.9S147.8,190.2,150.5,190.2 M150.5,199.1
			c2.2,0,4-1.9,3.9-4.1c0-2.2-1.9-4-4.1-3.9c-2.2,0-3.9,1.8-3.9,4c-0.1,2.1,1.5,3.9,3.5,4C150.1,199.1,150.3,199.1,150.5,199.1z"/>
		<polyline class="st1" points="159.6,190.4 160.8,190.4 167.3,198.4 167.4,198.4 167.4,190.4 168.3,190.4 168.3,199.8 167.2,199.8 
			160.6,191.8 160.6,191.8 160.6,199.8 159.6,199.8 159.6,190.4 		"/>
		
			<linearGradient id="SVGID_1_" gradientUnits="userSpaceOnUse" x1="96.49" y1="195.5" x2="72.97" y2="195.5" gradientTransform="matrix(1 0 0 -1 0 202)">
			<stop  offset="0.18" style="stop-color:#75BEE9"/>
			<stop  offset="0.3" style="stop-color:#4A96C7"/>
			<stop  offset="0.46" style="stop-color:#2976AC"/>
			<stop  offset="0.64" style="stop-color:#0F5D97"/>
		</linearGradient>
		<path class="st2" d="M96.2,13h0.2C93.1,8,84.7,3.6,73,0v1.7C85.1,4.8,93.4,8.7,96.2,13z"/>
		
			<linearGradient id="SVGID_2_" gradientUnits="userSpaceOnUse" x1="96.53" y1="183.2" x2="73.01" y2="183.2" gradientTransform="matrix(1 0 0 -1 0 202)">
			<stop  offset="0.18" style="stop-color:#75BEE9"/>
			<stop  offset="0.3" style="stop-color:#4A96C7"/>
			<stop  offset="0.46" style="stop-color:#2976AC"/>
			<stop  offset="0.64" style="stop-color:#0F5D97"/>
		</linearGradient>
		<path class="st3" d="M96.3,25.3h0.2c-3.3-5-11.8-9.4-23.5-13V14C85.1,17.1,93.4,21,96.3,25.3z"/>
		
			<linearGradient id="SVGID_3_" gradientUnits="userSpaceOnUse" x1="96.53" y1="171.04" x2="73.01" y2="171.04" gradientTransform="matrix(1 0 0 -1 0 202)">
			<stop  offset="0.18" style="stop-color:#75BEE9"/>
			<stop  offset="0.3" style="stop-color:#4A96C7"/>
			<stop  offset="0.46" style="stop-color:#2976AC"/>
			<stop  offset="0.64" style="stop-color:#0F5D97"/>
		</linearGradient>
		<path class="st4" d="M96.3,37.5h0.2c-3.3-5-11.8-9.4-23.5-13v1.7C85.1,29.3,93.4,33.1,96.3,37.5z"/>
		
			<linearGradient id="SVGID_4_" gradientUnits="userSpaceOnUse" x1="96.53" y1="158.86" x2="73.01" y2="158.86" gradientTransform="matrix(1 0 0 -1 0 202)">
			<stop  offset="0.18" style="stop-color:#75BEE9"/>
			<stop  offset="0.3" style="stop-color:#4A96C7"/>
			<stop  offset="0.46" style="stop-color:#2976AC"/>
			<stop  offset="0.64" style="stop-color:#0F5D97"/>
		</linearGradient>
		<path class="st5" d="M96.3,49.6h0.2c-3.3-5-11.8-9.4-23.5-13v1.7C85.1,41.4,93.4,45.3,96.3,49.6z"/>
		
			<linearGradient id="SVGID_5_" gradientUnits="userSpaceOnUse" x1="96.53" y1="146.69" x2="73.01" y2="146.69" gradientTransform="matrix(1 0 0 -1 0 202)">
			<stop  offset="0.18" style="stop-color:#75BEE9"/>
			<stop  offset="0.3" style="stop-color:#4A96C7"/>
			<stop  offset="0.46" style="stop-color:#2976AC"/>
			<stop  offset="0.64" style="stop-color:#0F5D97"/>
		</linearGradient>
		<path class="st6" d="M96.3,61.8h0.2c-3.3-5-11.8-9.4-23.5-13v1.7C85.1,53.6,93.4,57.5,96.3,61.8z"/>
		
			<linearGradient id="SVGID_6_" gradientUnits="userSpaceOnUse" x1="96.53" y1="134.5" x2="73" y2="134.5" gradientTransform="matrix(1 0 0 -1 0 202)">
			<stop  offset="0.18" style="stop-color:#75BEE9"/>
			<stop  offset="0.3" style="stop-color:#4A96C7"/>
			<stop  offset="0.46" style="stop-color:#2976AC"/>
			<stop  offset="0.64" style="stop-color:#0F5D97"/>
		</linearGradient>
		<path class="st7" d="M96.3,74h0.2c-3.3-5-11.8-9.4-23.5-13v1.7C85.1,65.8,93.4,69.6,96.3,74z"/>
		
			<linearGradient id="SVGID_7_" gradientUnits="userSpaceOnUse" x1="96.53" y1="122.35" x2="73.01" y2="122.35" gradientTransform="matrix(1 0 0 -1 0 202)">
			<stop  offset="0.18" style="stop-color:#75BEE9"/>
			<stop  offset="0.3" style="stop-color:#4A96C7"/>
			<stop  offset="0.46" style="stop-color:#2976AC"/>
			<stop  offset="0.64" style="stop-color:#0F5D97"/>
		</linearGradient>
		<path class="st8" d="M96.3,86.2h0.2c-3.3-5-11.8-9.4-23.5-13v1.7C85.1,77.9,93.4,81.8,96.3,86.2z"/>
		
			<linearGradient id="SVGID_8_" gradientUnits="userSpaceOnUse" x1="97.95" y1="100.23" x2="36.26" y2="100.23" gradientTransform="matrix(1 0 0 -1 0 202)">
			<stop  offset="0.18" style="stop-color:#75BEE9"/>
			<stop  offset="0.3" style="stop-color:#4A96C7"/>
			<stop  offset="0.46" style="stop-color:#2976AC"/>
			<stop  offset="0.64" style="stop-color:#0F5D97"/>
		</linearGradient>
		<path class="st9" d="M96.4,86.3c0.6,1,1,2.1,1,3.2c0,9.7-25,18.1-61.2,22.2v5.7c34.9-4.7,59.5-14.1,61.7-25v-3.1
			c-0.2-1.2-0.7-2.3-1.4-3.3L96.4,86.3z"/>
		
			<linearGradient id="SVGID_9_" gradientUnits="userSpaceOnUse" x1="97.95" y1="112.4" x2="36.26" y2="112.4" gradientTransform="matrix(1 0 0 -1 0 202)">
			<stop  offset="0.18" style="stop-color:#75BEE9"/>
			<stop  offset="0.3" style="stop-color:#4A96C7"/>
			<stop  offset="0.46" style="stop-color:#2976AC"/>
			<stop  offset="0.64" style="stop-color:#0F5D97"/>
		</linearGradient>
		<path class="st10" d="M96.4,74.1c0.6,1,1,2.1,1,3.2c0,9.7-25,18.1-61.2,22.2v5.7c34.9-4.7,59.5-14.1,61.7-25v-3
			c-0.2-1.2-0.7-2.3-1.4-3.3L96.4,74.1z"/>
		
			<linearGradient id="SVGID_10_" gradientUnits="userSpaceOnUse" x1="97.96" y1="124.58" x2="36.27" y2="124.58" gradientTransform="matrix(1 0 0 -1 0 202)">
			<stop  offset="0.18" style="stop-color:#75BEE9"/>
			<stop  offset="0.3" style="stop-color:#4A96C7"/>
			<stop  offset="0.46" style="stop-color:#2976AC"/>
			<stop  offset="0.64" style="stop-color:#0F5D97"/>
		</linearGradient>
		<path class="st11" d="M96.4,61.9c0.6,1,1,2.1,1,3.2c0,9.7-25,18.1-61.2,22.2v5.7C71.2,88.4,95.8,79,98,68.1V65
			c-0.2-1.2-0.7-2.3-1.4-3.2L96.4,61.9z"/>
		
			<linearGradient id="SVGID_11_" gradientUnits="userSpaceOnUse" x1="97.96" y1="136.735" x2="36.27" y2="136.735" gradientTransform="matrix(1 0 0 -1 0 202)">
			<stop  offset="0.18" style="stop-color:#75BEE9"/>
			<stop  offset="0.3" style="stop-color:#4A96C7"/>
			<stop  offset="0.46" style="stop-color:#2976AC"/>
			<stop  offset="0.64" style="stop-color:#0F5D97"/>
		</linearGradient>
		<path class="st12" d="M96.4,49.8c0.6,1,1,2.1,1,3.2c0,9.7-25,18.1-61.2,22.3v5.7c34.9-4.7,59.5-14.1,61.7-25v-3
			c-0.2-1.2-0.7-2.3-1.4-3.3L96.4,49.8z"/>
		
			<linearGradient id="SVGID_12_" gradientUnits="userSpaceOnUse" x1="97.95" y1="148.905" x2="36.26" y2="148.905" gradientTransform="matrix(1 0 0 -1 0 202)">
			<stop  offset="0.18" style="stop-color:#75BEE9"/>
			<stop  offset="0.3" style="stop-color:#4A96C7"/>
			<stop  offset="0.46" style="stop-color:#2976AC"/>
			<stop  offset="0.64" style="stop-color:#0F5D97"/>
		</linearGradient>
		<path class="st13" d="M96.4,37.6c0.6,1,1,2.1,1,3.2c0,9.7-25,18.1-61.2,22.2v5.7c34.9-4.7,59.5-14.1,61.7-25v-3.1
			c-0.2-1.2-0.7-2.3-1.4-3.2L96.4,37.6z"/>
		
			<linearGradient id="SVGID_13_" gradientUnits="userSpaceOnUse" x1="97.94" y1="173.185" x2="36.25" y2="173.185" gradientTransform="matrix(1 0 0 -1 0 202)">
			<stop  offset="0.18" style="stop-color:#75BEE9"/>
			<stop  offset="0.3" style="stop-color:#4A96C7"/>
			<stop  offset="0.46" style="stop-color:#2976AC"/>
			<stop  offset="0.64" style="stop-color:#0F5D97"/>
		</linearGradient>
		<path class="st14" d="M96.5,13.3c0.6,0.9,0.9,2,0.9,3.1c0,9.7-25,18.1-61.2,22.2v5.7c34.9-4.7,59.5-14.1,61.7-25v-3
			c-0.2-1.1-0.7-2.2-1.3-3.1L96.5,13.3z"/>
		
			<linearGradient id="SVGID_14_" gradientUnits="userSpaceOnUse" x1="97.96" y1="161.07" x2="36.27" y2="161.07" gradientTransform="matrix(1 0 0 -1 0 202)">
			<stop  offset="0.18" style="stop-color:#75BEE9"/>
			<stop  offset="0.3" style="stop-color:#4A96C7"/>
			<stop  offset="0.46" style="stop-color:#2976AC"/>
			<stop  offset="0.64" style="stop-color:#0F5D97"/>
		</linearGradient>
		<path class="st15" d="M96.4,25.4c0.6,1,1,2.1,1,3.2c0,9.7-25,18.1-61.2,22.2v5.7c34.9-4.7,59.5-14.1,61.7-25v-3.1
			c-0.2-1.2-0.7-2.3-1.4-3.2L96.4,25.4z"/>
	</g>
</g>
</svg>
