<?xml version="1.0" encoding="UTF-8" standalone="no"?>
<!-- Created with Inkscape (http://www.inkscape.org/) -->

<svg
   xmlns:dc="http://purl.org/dc/elements/1.1/"
   xmlns:cc="http://creativecommons.org/ns#"
   xmlns:rdf="http://www.w3.org/1999/02/22-rdf-syntax-ns#"
   xmlns:svg="http://www.w3.org/2000/svg"
   xmlns="http://www.w3.org/2000/svg"
   xmlns:sodipodi="http://sodipodi.sourceforge.net/DTD/sodipodi-0.dtd"
   xmlns:inkscape="http://www.inkscape.org/namespaces/inkscape"
   width="197.7153mm"
   height="34.588425mm"
   viewBox="0 0 700.56603 122.55741"
   id="svg2"
   version="1.1"
   inkscape:version="0.91 r13725"
   sodipodi:docname="Google AdWords.svg">
  <title
     id="title4277">Google AdWords</title>
  <defs
     id="defs4" />
  <sodipodi:namedview
     id="base"
     pagecolor="#ffffff"
     bordercolor="#666666"
     borderopacity="1.0"
     inkscape:pageopacity="0.0"
     inkscape:pageshadow="2"
     inkscape:zoom="0.7"
     inkscape:cx="384.4691"
     inkscape:cy="16.923324"
     inkscape:document-units="px"
     inkscape:current-layer="layer1"
     showgrid="false"
     fit-margin-top="0"
     fit-margin-left="0"
     fit-margin-right="0"
     fit-margin-bottom="0"
     inkscape:window-width="1366"
     inkscape:window-height="705"
     inkscape:window-x="-8"
     inkscape:window-y="-8"
     inkscape:window-maximized="1" />
  <metadata
     id="metadata7">
    <rdf:RDF>
      <cc:Work
         rdf:about="">
        <dc:format>image/svg+xml</dc:format>
        <dc:type
           rdf:resource="http://purl.org/dc/dcmitype/StillImage" />
        <dc:title>Google AdWords</dc:title>
        <cc:license
           rdf:resource="http://creativecommons.org/licenses/by-sa/3.0/" />
        <dc:date>14/11/2016</dc:date>
        <dc:creator>
          <cc:Agent>
            <dc:title>Google, Inc.</dc:title>
          </cc:Agent>
        </dc:creator>
        <dc:publisher>
          <cc:Agent>
            <dc:title>CMetalCore</dc:title>
          </cc:Agent>
        </dc:publisher>
        <dc:source>https://shopify-ecommerce-university.s3.amazonaws.com/production/assets/asset/attachment/1087/google-adwords-transparent.png</dc:source>
      </cc:Work>
      <cc:License
         rdf:about="http://creativecommons.org/licenses/by-sa/3.0/">
        <cc:permits
           rdf:resource="http://creativecommons.org/ns#Reproduction" />
        <cc:permits
           rdf:resource="http://creativecommons.org/ns#Distribution" />
        <cc:requires
           rdf:resource="http://creativecommons.org/ns#Notice" />
        <cc:requires
           rdf:resource="http://creativecommons.org/ns#Attribution" />
        <cc:permits
           rdf:resource="http://creativecommons.org/ns#DerivativeWorks" />
        <cc:requires
           rdf:resource="http://creativecommons.org/ns#ShareAlike" />
      </cc:License>
    </rdf:RDF>
  </metadata>
  <g
     inkscape:label="Capa 1"
     inkscape:groupmode="layer"
     id="layer1"
     transform="translate(-91.739405,-277.22686)">
    <g
       id="g4261">
      <g
         transform="matrix(0.10893992,0,0,0.10893992,117.0504,302.25131)"
         id="g4167">
        <g
           id="g4147"
           transform="translate(44.446712,-1208.1424)">
          <path
             inkscape:connector-curvature="0"
             style="fill:#fefefe;fill-opacity:0"
             d="m -276.78574,1540.9337 0,-562.50005 562.5,0 562.5,0 0,562.50005 0,562.5 -562.5,0 -562.5,0 0,-562.5 z"
             id="path4163" />
          <path
             style="fill:#4285f5;fill-opacity:1"
             d="m -274.28574,2100.4643 c 0,-0.744 371.162875,-1114.76763 372.6853,-1118.59315 l 1.368,-3.4375 187.03585,0.0354 187.03585,0.0354 14.70693,44.65215 c 8.08881,24.5586 92.04193,276.8864 186.5625,560.7284 94.52056,283.8419 171.85557,516.2951 171.85557,516.5625 0,0.2674 -64.99246,0.4862 -144.4277,0.4862 -155.36904,0 -151.11487,0.1593 -171.1973,-6.4121 -34.81236,-11.3912 -65.0688,-37.3396 -82.17035,-70.4705 -4.12777,-7.9968 -160.95465,-475.8386 -160.95465,-480.1557 0,-3.9322 -2.33746,-1.2297 -4.73618,5.4758 -1.41412,3.9531 -36.68261,109.5625 -78.3744,234.6875 -41.69178,125.125 -77.49806,231.1562 -79.5695,235.625 -13.83726,29.8514 -38.402708,54.4642 -68.084133,68.2153 -16.269625,7.5375 -18.301599,8.1909 -34.860787,11.2088 -8.383538,1.5278 -33.186113,1.8227 -153.4375,1.8241 -78.89062,10e-4 -143.4375,-0.2095 -143.4375,-0.4676 z"
             id="path4157"
             inkscape:connector-curvature="0" />
          <path
             style="fill:#0f9e59;fill-opacity:1"
             d="m 551.34708,2099.4638 c -45.67773,-8.7097 -84.50393,-38.1932 -103.4148,-78.5301 -4.81596,-10.2725 -159.71802,-475.3706 -159.71802,-479.5582 0,-2.6001 180.3682,-546.13458 183.69736,-553.56685 0.61592,-1.375 1.37673,-3.34375 1.6907,-4.375 0.50745,-1.66667 0.65124,-1.66667 1.29412,0 0.39778,1.03125 60.65277,181.87505 133.89997,401.87505 73.24721,220 156.72503,470.7153 185.50626,557.1452 28.78123,86.4298 52.02923,157.4454 51.66222,157.8125 -1.21892,1.2189 -288.11495,0.4373 -294.6178,-0.8026 z"
             id="path4153"
             inkscape:connector-curvature="0" />
          <path
             style="fill:#0a6e3d;fill-opacity:1"
             d="m 467.38916,2050.6212 c -16.63774,-20.7586 -20.26199,-29.0559 -44.08954,-100.9375 -11.05288,-33.3438 -45.96872,-138.3453 -77.59076,-233.3367 -31.62203,-94.9914 -57.4946,-173.9171 -57.4946,-175.3904 0,-2.3234 180.71374,-546.48709 183.69736,-553.14795 0.61592,-1.375 1.39781,-3.34375 1.73755,-4.375 0.33975,-1.03125 0.66213,240.42185 0.7164,536.56255 0.0543,296.1406 -0.0844,538.4375 -0.30805,538.4375 -0.22371,0 -3.22447,-3.5157 -6.66836,-7.8125 z"
             id="path4151"
             inkscape:connector-curvature="0" />
        </g>
      </g>
      <g
         transform="matrix(0.39254131,0,0,0.39254131,345.60088,96.872038)"
         id="g4252">
        <path
           inkscape:connector-curvature="0"
           id="path4243"
           style="fill:#4286f5;fill-opacity:1"
           d="m 148.37904,659.85744 c 12.33683,-3.59959 19.56739,-14.20346 19.56739,-28.69624 0,-8.88711 -2.41961,-15.87751 -7.30378,-21.101 -14.2392,-15.22851 -38.42726,-8.6475 -44.45752,12.09587 -2.47095,8.49976 -2.467,9.14851 0.11225,18.4254 2.309,8.305 9.60516,16.9091 15.3991,18.1596 1.71875,0.37095 4.25,1.15876 5.625,1.75068 3.47875,1.49757 3.81771,1.47813 11.05761,-0.63431 z m -22.37898,67.06969 c -12.96139,-4.234 -24.67737,-14.21238 -30.817989,-26.24739 -1.76185,-3.45303 -0.873525,-4.16704 10.729039,-8.62346 8.17075,-3.13831 10.78532,-3.48654 10.78532,-1.43648 0,2.97633 7.77405,10.97088 13.10503,13.47673 10.66421,5.01277 24.68772,2.00654 31.34303,-6.71904 3.07067,-4.02585 5.80597,-14.73264 5.30627,-20.77035 l -0.26552,-3.20812 -5.0569,3.52517 c -7.1937,5.01474 -19.08792,7.22045 -28.80691,5.34208 -11.62724,-2.2472 -18.98979,-6.11952 -26.78809,-14.08917 -8.235219,-8.41617 -11.780882,-15.23417 -14.363244,-27.61925 -5.1726,-24.8079 10.571554,-51.35208 35.136214,-59.23867 12.48042,-4.0069 29.97908,-1.42689 37.36158,5.50862 l 2.83773,2.6659 0.40791,-3.56576 0.4079,-3.56576 11.25,0 11.25,0 0.36521,50 c 0.3837,52.53209 -0.1874,59.71347 -5.63729,70.8862 -5.39625,11.06276 -15.86072,19.77499 -28.7128,23.90492 -8.11466,2.6076 -21.47151,2.50635 -29.83649,-0.22617 z" />
        <path
           inkscape:connector-curvature="0"
           id="path4239"
           style="fill:#ea4235;fill-opacity:1"
           d="m -65.468217,655.87978 c 9.676538,-6.70584 14.400113,-21.28146 10.9864,-33.90094 -2.845013,-10.51715 -14.946538,-20.24166 -25.189425,-20.24166 -16.521588,0 -28.540268,12.19599 -28.604878,29.02686 -0.0515,13.41673 8.25416,25.7908 19.203915,28.61069 7.101675,1.82889 18.3182,0.16811 23.603988,-3.49495 z m -25.063762,26.34136 c -19.797001,-3.52833 -34.158991,-16.44894 -40.924181,-36.81702 -3.125,-9.4085 -2.08375,-25.70404 2.23215,-34.93309 9.2912,-19.86813 26.96313,-31.27271 48.350656,-31.20311 40.752775,0.13261 64.859275,41.51548 45.711012,78.47067 -5.475787,10.56799 -21.111225,21.83654 -33.446762,24.1053 -11.03565,2.02968 -12.50905,2.05503 -21.922875,0.37725 z" />
        <path
           id="path4235"
           style="fill:#ea4235;fill-opacity:1"
           d="m 262.93073,626.3305 c 4.61599,-2.05357 2.91172,-1.49599 3.72313,-1.51786 0.81141,-0.0219 6.01399,-2.26296 10.47003,-4.32546 4.45605,-2.0625 8.99529,-3.75 10.08722,-3.75 1.09193,0 -5.33611,2.76828 -5.33611,2.22315 0,-0.54514 10.41862,-5.2582 14.20408,-6.54493 6.69006,-2.27402 6.8213,-2.40725 4.69045,-4.76182 -6.29681,-6.9579 -19.02565,-8.34499 -27.49814,-2.99654 -6.869,4.33621 -12.34674,11.69883 -13.40499,18.01764 -0.94937,5.66872 -1.40586,5.64453 3.06433,3.65582 z m 13.1407,55.86975 c -19.76317,-4.63772 -32.71932,-17.11806 -39.27963,-37.8371 -1.77821,-5.61602 -1.71868,-21.92102 0.1005,-27.53722 7.66539,-23.66428 25.08369,-37.58875 47.02023,-37.58875 12.52505,0 22.87032,4.25318 31.85635,13.09686 6.4251,6.32334 14.67751,20.14518 14.67751,24.58315 0,2.87036 -1.49637,3.73729 -16.875,9.77645 -12.36717,4.85658 -18.3352,7.303 -28.125,11.52904 -1.71875,0.74194 -4.25,1.80551 -5.625,2.36349 -1.375,0.55797 -5.03125,2.09743 -8.125,3.42101 -3.09375,1.32357 -6.41258,2.64807 -7.37518,2.94331 -3.00437,0.92149 7.33272,10.57574 13.00018,12.14144 11.13867,3.07717 20.94037,0.96046 28.70817,-6.19964 2.92677,-2.69781 5.89575,-4.90511 6.59771,-4.90511 2.11875,0 17.7745,10.52407 17.79762,11.96387 0.0428,2.66013 -10.93041,12.6869 -18.18362,16.61542 -6.6522,3.60298 -21.90384,7.88975 -26.79488,7.53122 -1.03125,-0.0756 -5.25,-0.92944 -9.375,-1.89744 z"
           inkscape:connector-curvature="0"
           sodipodi:nodetypes="scsssssssscssssssssssssscsscc" />
        <path
           style="fill:#4185f4;fill-opacity:1"
           d="m -228.92857,681.6764 c -15.25618,-2.43827 -29.98212,-10.51368 -42.86094,-23.50412 -9.04017,-9.11851 -14.98352,-18.75406 -19.96456,-32.36721 -3.16697,-8.65531 -3.09381,-37.18639 0.11781,-45.94289 10.15375,-27.68421 29.59087,-46.26002 57.08269,-54.55317 8.73566,-2.63519 36.51179,-2.26557 44.375,0.5905 11.92133,4.33005 26.51635,12.76206 30.59366,17.67491 1.49388,1.80001 0.73215,3.02461 -6.28578,10.10548 -4.39212,4.4315 -8.28315,8.05659 -8.64677,8.05575 -0.36361,-8.3e-4 -2.29687,-1.4083 -4.29615,-3.12767 -10.35657,-8.9067 -30.26967,-13.6173 -45.35433,-10.72891 -17.17809,3.28922 -31.42531,14.16748 -39.42912,30.10555 -4.00576,7.97672 -6.60689,8.44073 -6.60689,25.00256 0,15.73471 2.75417,17.36329 5.91115,24.10106 1.86217,3.97433 6.59183,10.58728 10.51035,14.69544 14.29921,14.99122 35.19974,20.88871 55.19439,15.57415 11.21759,-2.98163 16.02315,-5.54685 23.02454,-12.29056 6.12271,-5.89737 10.11266,-13.20543 11.52895,-21.11654 l 0.83451,-4.66146 -25.36426,-0.33854 -25.36425,-0.33855 0,-11.6721 0,-11.67211 36.25,0.10387 c 19.9375,0.0571 36.59423,0.1065 37.01494,0.10963 0.42071,0.004 1.37011,3.01917 2.10979,6.70227 2.78448,13.86501 -2.32524,34.86548 -12.13103,49.85726 -8.0762,12.34748 -16.72104,19.01159 -35.1187,27.07224 -7.63061,3.34324 -29.94556,4.66955 -43.125,2.56319 z"
           id="path4233"
           inkscape:connector-curvature="0"
           sodipodi:nodetypes="cssssssscssssssssscccccscssscc" />
        <path
           id="path4229"
           style="fill:#fabc05;fill-opacity:1"
           d="m 39.575658,659.04566 c 5.816212,-1.45679 13.619656,-8.7832 16.480025,-15.47257 1.146014,-2.68011 2.989014,-7.83832 2.716828,-12.99224 -0.388645,-7.35911 -1.952407,-12.59014 -3.493878,-14.45719 -6.512076,-7.88752 -9.922113,-10.77912 -14.699588,-12.46471 -10.699937,-3.77515 -20.657562,-1.70999 -28.708787,5.95406 -15.7418501,14.98488 -9.7027001,42.80523 10.7991,49.74778 5.874937,1.98944 7.852562,1.95257 16.9063,-0.31513 z m -21.56685,22.66014 c -13.2735376,-2.80061 -27.1386001,-13.35761 -33.4269,-25.45159 -10.477663,-20.15117 -7.81545,-43.51856 6.8012499,-59.69749 20.8535251,-23.08236 57.6149751,-23.07198 78.8581131,0.0222 18.276299,19.86888 16.381437,55.93604 -3.848526,73.2535 -9.642874,8.25459 -19.02985,11.97215 -31.672299,12.54332 -6.13195,0.27702 -13.652188,-0.0245 -16.711638,-0.66999 z"
           inkscape:connector-curvature="0"
           sodipodi:nodetypes="sssssssscssssscc" />
        <path
           inkscape:connector-curvature="0"
           style="fill:#34a853;fill-opacity:1"
           d="m 202.94643,604.2372 0,-76.34053 12.1875,0.35776 12.1875,0.35777 0,75.625 0,75.625 -12.1875,0.35776 -12.1875,0.35776 0,-76.34052 z"
           id="path4213" />
        <path
           inkscape:connector-curvature="0"
           id="path4203"
           style="fill:#7f7f7f;fill-opacity:1"
           d="m 911.41218,635.69442 c -0.18738,-23.60478 -0.24912,-43.01103 -0.13725,-43.125 0.1125,-0.114 3.90875,-0.0186 8.4375,0.21194 l 8.234,0.41915 0,5.3248 0,5.3248 5.0025,-4.75877 c 6.30612,-5.99883 14.82787,-8.69904 24.35187,-7.71608 3.83288,0.39559 7.18838,1.07439 7.45663,1.50844 0.26825,0.43405 -1.02475,4.0534 -2.87337,8.04301 l -3.36126,7.25384 -8.10075,0.22327 c -9.38587,0.2587 -12.9785,2.19328 -18.28425,9.84587 l -3.56637,5.14388 0,27.2051 0,27.2051 -8.40925,0.40422 -8.40938,0.40421 -0.34062,-42.91778 z M 742.25113,677.3622 c -2.54443,-8.58214 -18.56631,-57.82053 -19.11691,-58.75 -0.40725,-0.6875 -0.89049,-2.09375 -1.07384,-3.125 -0.18336,-1.03125 -2.79185,-9.4531 -5.79665,-18.71521 l -5.46328,-16.84023 -10.75412,33.09023 c -5.91476,18.19961 -13.13192,40.26208 -16.03815,49.02771 l -5.28403,15.9375 -10.74786,0 c -9.39355,0 -10.76888,-0.2793 -10.91481,-2.21653 -0.0919,-1.21907 -4.2014,-16.5472 -9.13236,-34.0625 -4.93096,-17.51528 -9.77667,-34.93972 -10.76822,-38.72097 -4.82633,-18.40493 -18.27198,-66.17007 -19.79262,-70.3125 l -1.72074,-4.6875 11.14945,0 c 6.13219,0 11.16268,0.42187 11.17887,0.9375 0.0161,0.51562 1.09433,4.875 2.39591,9.6875 9.64383,35.65769 23.3487,86.80891 25.61039,95.58672 1.50027,5.82271 3.0401,10.04146 3.42183,9.375 0.38174,-0.66645 7.59981,-22.02422 16.04015,-47.46172 8.44035,-25.4375 15.55469,-46.8125 15.80965,-47.5 0.27142,-0.73189 4.32377,-1.08029 9.77662,-0.84055 l 9.31305,0.40946 15.9308,47.98206 c 8.76193,26.39014 16.13251,47.78035 16.37906,47.5338 0.44301,-0.443 8.57172,-32.01268 22.47129,-87.27227 l 7.15293,-28.4375 10.92852,0 c 10.81571,0 10.9175,0.029 9.86272,2.8125 -0.58617,1.54687 -4.82763,17.15625 -9.42544,34.6875 -4.59782,17.53125 -9.11958,34.40625 -10.04836,37.5 -0.92877,3.09375 -5.78837,21.19631 -10.79913,40.2279 l -9.11043,34.6029 -10.53185,0.3971 c -6.29219,0.23725 -10.68103,-0.10613 -10.90244,-0.8529 z M 468.64879,617.11305 c -0.44831,-1.16829 -5.62755,-15.37141 -11.50941,-31.5625 -5.88186,-16.1911 -11.12759,-29.90006 -11.65715,-30.46438 -0.84811,-0.90376 -10.85588,25.05425 -11.66989,30.26924 -0.17227,1.10374 -0.67469,2.58476 -1.11646,3.29118 -1.17381,1.87697 -10.99945,28.2379 -10.99945,29.51012 0,0.59426 10.74767,1.08049 23.88374,1.08049 21.96152,0 23.81814,-0.17095 23.06862,-2.12415 z m -90.69223,60.24915 c 0.006,-0.6875 5.12642,-14.75 11.37861,-31.25 6.25219,-16.5 13.77178,-36.46875 16.71022,-44.375 7.95955,-21.41616 20.4658,-54.57553 23.88838,-63.33819 1.65696,-4.24226 3.01266,-8.32039 3.01266,-9.0625 0,-0.86998 4.171,-1.34931 11.74126,-1.34931 10.02505,0 11.8655,0.31975 12.59119,2.1875 3.30975,8.51855 45.47314,120.33636 48.19454,127.8125 1.87693,5.15625 4.3262,11.55307 5.44281,14.21515 1.11661,2.66209 2.0302,5.05271 2.0302,5.3125 0,0.2598 -5.02209,0.47235 -11.16019,0.47235 l -11.16019,0 -2.69001,-7.1875 c -1.47951,-3.95313 -4.68204,-12.95313 -7.11674,-20 l -4.42671,-12.8125 -30.9947,0 -30.99469,0 -1.99266,5.3125 c -1.09595,2.92187 -4.38896,11.96957 -7.3178,20.10599 l -5.32516,14.79348 -10.91101,0.20652 c -6.58436,0.12462 -10.90665,-0.28917 -10.90001,-1.04349 z m 719.10074,2.98124 c -11.9368,-1.4516 -21.9202,-8.47083 -27.68,-19.4616 -2.2143,-4.2252 -1.8163,-4.96901 3.878,-7.2474 2.9198,-1.1683 5.6722,-2.71224 6.1165,-3.43097 0.4875,-0.78878 1.7276,-0.17761 3.1286,1.54189 10.5881,12.99506 12.9715,14.31169 24.4097,13.48431 6.9309,-0.50133 8.0807,-0.99082 11.253,-4.79076 6.8745,-8.23452 1.9523,-13.49482 -17.3655,-18.5585 -21.6703,-5.68035 -30.3512,-12.97472 -30.3512,-25.50369 0,-10.24962 3.7869,-16.14977 13.5439,-21.10218 7.5965,-3.85576 9.0801,-4.16194 20.1408,-4.15637 10.6167,0.005 12.6683,0.38903 18.5078,3.46107 6.8687,3.61357 15.5805,13.74203 14.4204,16.76537 -0.3437,0.8955 -1.0777,1.34838 -1.6309,1.00639 -0.5534,-0.34199 -3.7171,0.54024 -7.0305,1.96051 -4.031,1.72794 -6.1785,2.11963 -6.4904,1.18386 -0.6996,-2.09853 -5.3695,-6.22608 -9.4781,-8.37711 -4.8986,-2.56474 -15.9544,-1.63339 -20.4724,1.72463 -2.1225,1.5776 -3.5277,3.93207 -3.7665,6.31082 -0.5562,5.5407 3.6481,8.18409 19.225,12.0873 19.2989,4.83584 23.91,7.55358 28.6384,16.8791 3.3445,6.59636 2.1962,18.46897 -2.3645,24.44841 -7.4965,9.82852 -19.887,13.81126 -36.6321,11.77492 z m -77.8074,-15.67949 c 6.1169,-1.22336 15.6066,-10.96226 17.4601,-17.91844 2.0135,-7.55674 1.7236,-18.89797 -0.6304,-24.6661 -2.488,-6.09661 -11.1483,-13.79802 -17.4131,-15.48492 -16.4853,-4.43907 -32.36007,9.32632 -32.45732,28.14465 -0.0488,9.43846 2.0825,15.88056 7.17138,21.67646 6.62634,7.54703 15.39574,10.3431 25.86934,8.24835 z m -16.6502,15.78811 c -11.92189,-2.03122 -23.28589,-11.59545 -29.48427,-24.81489 -2.90475,-6.19493 -3.294,-8.57896 -3.294,-20.17629 0,-12.34569 0.25213,-13.66331 4.115,-21.51003 4.47538,-9.09078 10.87038,-15.43975 20.1655,-20.02023 4.59625,-2.26493 7.80617,-2.81307 16.34447,-2.79105 11.4149,0.0295 18.2341,2.46812 24.5429,8.77682 l 2.9571,2.95714 0,-24.21153 0,-24.21152 8.2476,-0.41916 c 4.5363,-0.23053 8.4583,-0.0761 8.7155,0.34308 0.2573,0.41924 0.3428,28.46971 0.1899,62.3344 l -0.278,61.57215 -8.125,-0.02 c -6.9664,-0.0171 -8.0685,-0.32336 -7.7289,-2.14733 0.2706,-1.45333 -0.1255,-1.83147 -1.25,-1.19352 -1.3236,0.7509 -1.34,0.60406 -0.084,-0.74956 0.8593,-0.92585 1.5625,-3.02029 1.5625,-4.65429 0,-2.91546 -0.059,-2.90033 -3.1824,0.81114 -6.5735,7.8122 -21.119,12.21952 -33.4143,10.12467 z M 867.54208,661.52811 c 2.65196,-1.75497 6.4997,-5.61144 8.55055,-8.56991 3.25684,-4.69823 3.78362,-6.67444 4.16191,-15.61344 0.35894,-8.48194 -0.0144,-11.1115 -2.1802,-15.35686 -7.09517,-13.90769 -20.63947,-19.57658 -33.527,-14.03251 -11.61404,4.99622 -17.0247,13.92871 -17.05536,28.15677 -0.0279,12.92398 5.84631,22.57714 16.70445,27.45081 6.47896,2.9081 17.30185,1.96475 23.34565,-2.03486 z m -21.82444,18.78249 c -11.95396,-1.92739 -21.60536,-8.44333 -28.37217,-19.15489 -5.58345,-8.83833 -7.3149,-16.22767 -6.66955,-28.46391 1.56816,-29.7337 26.62874,-48.03541 55.77949,-40.73571 14.16703,3.5476 25.77352,15.28927 29.7024,30.04815 3.31512,12.45378 1.5275,27.98815 -4.371,37.98555 -1.44064,2.44161 -2.24137,5.09923 -1.77943,5.90584 0.46193,0.8066 0.4132,1.08317 -0.10825,0.61462 -0.52147,-0.46855 -3.9299,1.57677 -7.57428,4.54515 -9.99919,8.14446 -23.04287,11.44221 -36.60717,9.2552 z M 576.35073,661.19256 c 2.98099,-1.97272 6.42469,-5.91787 8.50984,-9.74897 2.911,-5.34848 3.49778,-7.92539 3.47448,-15.25837 -0.0351,-11.06494 -2.57511,-17.3888 -9.4517,-23.53247 -10.54566,-9.4217 -23.15982,-9.39093 -33.31785,0.0812 -6.25076,5.82874 -8.99111,12.25392 -9.09476,21.32409 -0.16149,14.13308 5.32161,24.23276 15.83996,29.17665 6.99488,3.28775 17.31005,2.41147 24.04003,-2.04222 z m -23.3372,19.04159 C 540.50278,678.31 529.50341,669.2609 523.11539,655.63717 c -2.83447,-6.04502 -3.29396,-8.68146 -3.29396,-18.89997 0,-15.64949 3.53215,-25.57526 12.07099,-33.921 9.21353,-9.00517 15.82652,-11.70942 28.55401,-11.67659 11.69727,0.0301 18.76354,2.66733 24.96875,9.31839 l 3.15625,3.38302 -0.625,-24.71356 -0.625,-24.71355 8.5996,-0.40085 c 4.96512,-0.23145 8.80069,0.12743 9.07539,0.84914 0.26169,0.6875 0.32936,28.73813 0.1504,62.33472 l -0.32539,61.08474 -8.125,-0.009 -8.125,-0.009 0.44395,-5.38393 0.44394,-5.38394 -4.75544,4.17532 c -8.86555,7.78406 -18.97935,10.5164 -31.69035,8.56147 z" />
      </g>
    </g>
  </g>
</svg>
