<?xml version="1.0" encoding="utf-8"?>
<!-- Generator: Adobe Illustrator 23.0.2, SVG Export Plug-In . SVG Version: 6.00 Build 0)  -->
<svg version="1.1" id="Standard_product_icon" xmlns="http://www.w3.org/2000/svg" xmlns:xlink="http://www.w3.org/1999/xlink"
	 x="0px" y="0px" width="192px" height="192px" viewBox="0 0 192 192" enable-background="new 0 0 192 192" xml:space="preserve">
<rect id="bounding_box_1_" fill="none" width="192" height="192"/>
<g id="art_layer">
	<g>
		<g>
			<path fill="#BDC1C6" d="M108.93,128.87L66.85,184h21.63c3.65,0.03,7.12-1.59,9.37-4.52l38.51-50.34l-27.42-0.25L108.93,128.87z"
				/>
			<path fill="#BDC1C6" d="M18.97,144c-3.59-0.03-6.98,1.58-9.2,4.58L8,150.97l11.48,2.82l6.64,9.36L40.23,144H18.97z"/>
			<path fill="#DADCE0" d="M88.38,184c-3.64-0.03-7.05-1.65-9.24-4.59l-22.62-30.53c-2.19-2.95-5.6-4.84-9.24-4.88H20
				c3.64,0.03,7.05,1.68,9.24,4.62l22.62,30.53c2.19,2.95,5.6,4.81,9.24,4.85H88.38z"/>
		</g>
		<g>
			<path fill="#4285F4" d="M20.01,77.97c0.08-1.36,0.39-2.71,0.94-3.98c0.65-1.5,1.61-2.89,2.89-4.06l64.14-58.81
				C90.24,9.04,93.11,8,95.99,8l3.98,36.03L95.99,72l-31.96,8.07L20.01,77.97z"/>
			<path fill="#669DF6" d="M171.97,77.97c-0.08-1.36-0.39-2.71-0.94-3.98c-0.65-1.5-1.61-2.89-2.89-4.06l-64.14-58.81
				C101.74,9.04,98.87,8,96,8v64l36.16,8.07L171.97,77.97z"/>
			<path fill="#5BB974" d="M171.98,77.97L171.98,77.97l-36.77-3.22L96,72l-4,24c0,0,4,23.27,4,24c0,0.54,15.98,3.9,15.98,3.9
				l29.3-1.14l6.08-7.92l22.19-28.94C171.36,83.56,172.15,80.73,171.98,77.97z"/>
			<path fill="#34A853" d="M20.02,77.97c-0.17,2.76,0.62,5.59,2.43,7.94l22.19,28.94l6.08,7.92l25.23,1.33L96,120V93.97V72
				L20.02,77.97z"/>
			<path fill="#FBBC04" d="M96,120c-2.29,0-45.29,2.77-45.29,2.77l35.88,46.78c2.37,3.1,5.89,4.64,9.41,4.64l4.06-34.15
				C100.06,140.05,96.95,120,96,120z"/>
			<path fill="#FCC934" d="M96,174.19c3.52,0,7.04-1.55,9.41-4.64l35.88-46.78L96,120V174.19z"/>
		</g>
	</g>
</g>
<g>
</g>
<g>
</g>
<g>
</g>
</svg>
