<?xml version="1.0" encoding="UTF-8" standalone="no"?>
<!-- Created with Inkscape (http://www.inkscape.org/) -->

<svg
   width="1080"
   height="1080"
   viewBox="0 0 1080 1080"
   version="1.1"
   id="svg1"
   xml:space="preserve"
   inkscape:version="1.4.4 (dcaf3e7d9e, 2026-05-05)"
   sodipodi:docname="Seanpm2001-WorldDB_Logo1.svg"
   inkscape:export-filename="Seanpm2001-WorldDB_Logo1"
   inkscape:export-xdpi="96"
   inkscape:export-ydpi="96"
   xmlns:inkscape="http://www.inkscape.org/namespaces/inkscape"
   xmlns:sodipodi="http://sodipodi.sourceforge.net/DTD/sodipodi-0.dtd"
   xmlns:xlink="http://www.w3.org/1999/xlink"
   xmlns="http://www.w3.org/2000/svg"
   xmlns:svg="http://www.w3.org/2000/svg"><sodipodi:namedview
     id="namedview1"
     pagecolor="#ffffff"
     bordercolor="#111111"
     borderopacity="1"
     inkscape:showpageshadow="0"
     inkscape:pageopacity="0"
     inkscape:pagecheckerboard="1"
     inkscape:deskcolor="#d1d1d1"
     inkscape:document-units="px"
     inkscape:zoom="0.55455504"
     inkscape:cx="510.31905"
     inkscape:cy="583.35057"
     inkscape:window-width="1920"
     inkscape:window-height="1097"
     inkscape:window-x="0"
     inkscape:window-y="0"
     inkscape:window-maximized="1"
     inkscape:current-layer="layer1" /><defs
     id="defs1"><linearGradient
       id="linearGradient3879"><stop
         id="stop3881"
         style="stop-color:#cccc00;stop-opacity:1"
         offset="0" /><stop
         id="stop3883"
         style="stop-color:#666600;stop-opacity:1"
         offset="1" /></linearGradient><linearGradient
       id="linearGradient3846"><stop
         id="stop3848"
         style="stop-color:#ffffff;stop-opacity:1"
         offset="0" /><stop
         id="stop3850"
         style="stop-color:#00cc00;stop-opacity:1"
         offset="1" /></linearGradient><linearGradient
       id="linearGradient3783"><stop
         id="stop3785"
         style="stop-color:#ffffff;stop-opacity:1"
         offset="0" /><stop
         id="stop3787"
         style="stop-color:#0000cc;stop-opacity:1"
         offset="1" /></linearGradient><linearGradient
       id="linearGradient3737"><stop
         id="stop3739"
         style="stop-color:#ffffff;stop-opacity:1"
         offset="0" /><stop
         id="stop3741"
         style="stop-color:#cc0000;stop-opacity:1"
         offset="1" /></linearGradient><radialGradient
       fx="0.30000001"
       fy="0.30000001"
       id="blueSphere"
       gradientUnits="objectBoundingBox"><stop
         id="stop13"
         style="stop-color:#ffffff;stop-opacity:1"
         offset="0" /><stop
         id="stop15"
         style="stop-color:#0000aa;stop-opacity:1"
         offset="0.40000001" /><stop
         id="stop17"
         style="stop-color:#000077;stop-opacity:1"
         offset="1" /></radialGradient><circle
       cx="0"
       cy="0"
       r="80"
       id="blue3DCircle"
       style="fill:url(#blueSphere)" /><radialGradient
       fx="0.30000001"
       fy="0.30000001"
       id="blueSphere-1"
       gradientUnits="objectBoundingBox"><stop
         id="stop13-7"
         style="stop-color:#ffffff;stop-opacity:1"
         offset="0" /><stop
         id="stop15-4"
         style="stop-color:#0000aa;stop-opacity:1"
         offset="0.40000001" /><stop
         id="stop17-0"
         style="stop-color:#000077;stop-opacity:1"
         offset="1" /></radialGradient><radialGradient
       fx="0.30000001"
       fy="0.30000001"
       id="blueSphere-8"
       gradientUnits="objectBoundingBox"><stop
         id="stop13-8"
         style="stop-color:#ffffff;stop-opacity:1"
         offset="0" /><stop
         id="stop15-2"
         style="stop-color:#0000aa;stop-opacity:1"
         offset="0.40000001" /><stop
         id="stop17-4"
         style="stop-color:#000077;stop-opacity:1"
         offset="1" /></radialGradient><radialGradient
       fx="0.30000001"
       fy="0.30000001"
       id="blueSphere-17"
       gradientUnits="objectBoundingBox"><stop
         id="stop13-1"
         style="stop-color:#ffffff;stop-opacity:1"
         offset="0" /><stop
         id="stop15-1"
         style="stop-color:#0000aa;stop-opacity:1"
         offset="0.40000001" /><stop
         id="stop17-5"
         style="stop-color:#000077;stop-opacity:1"
         offset="1" /></radialGradient><radialGradient
       cx="593.11322"
       cy="49.048164"
       r="141.83899"
       fx="593.11322"
       fy="49.048164"
       id="radialGradient3743"
       xlink:href="#linearGradient3737"
       gradientUnits="userSpaceOnUse"
       gradientTransform="matrix(-0.1900672,0.58121471,-0.77741209,-0.25422728,744.37897,-301.96863)" /><radialGradient
       cx="593.11322"
       cy="49.048164"
       r="141.83899"
       fx="593.11322"
       fy="49.048164"
       id="radialGradient3743-1"
       xlink:href="#linearGradient3737-2"
       gradientUnits="userSpaceOnUse"
       gradientTransform="matrix(-0.1900672,0.58121471,-0.77741209,-0.25422728,744.37897,-301.96863)" /><linearGradient
       id="linearGradient3737-2"><stop
         id="stop3739-1"
         style="stop-color:#ffffff;stop-opacity:1"
         offset="0" /><stop
         id="stop3741-4"
         style="stop-color:#ff0000;stop-opacity:1"
         offset="1" /></linearGradient><radialGradient
       cx="593.11322"
       cy="49.048164"
       r="141.83899"
       fx="593.11322"
       fy="49.048164"
       id="radialGradient3762"
       xlink:href="#linearGradient3783"
       gradientUnits="userSpaceOnUse"
       gradientTransform="matrix(-0.1900672,0.58121471,-0.77741209,-0.25422728,744.37897,-301.96863)" /><radialGradient
       cx="593.11322"
       cy="49.048164"
       r="141.83899"
       fx="593.11322"
       fy="49.048164"
       id="radialGradient3762-8"
       xlink:href="#linearGradient3783-2"
       gradientUnits="userSpaceOnUse"
       gradientTransform="matrix(-0.1900672,0.58121471,-0.77741209,-0.25422728,744.37897,-301.96863)" /><linearGradient
       id="linearGradient3783-2"><stop
         id="stop3785-4"
         style="stop-color:#ffffff;stop-opacity:1"
         offset="0" /><stop
         id="stop3787-5"
         style="stop-color:#0000ff;stop-opacity:1"
         offset="1" /></linearGradient><radialGradient
       cx="593.11322"
       cy="49.048164"
       r="141.83899"
       fx="593.11322"
       fy="49.048164"
       id="radialGradient3762-9"
       xlink:href="#linearGradient3783-2"
       gradientUnits="userSpaceOnUse"
       gradientTransform="matrix(-0.1900672,0.58121471,-0.77741209,-0.25422728,744.37897,-301.96863)" /><radialGradient
       cx="593.11322"
       cy="49.048164"
       r="141.83899"
       fx="593.11322"
       fy="49.048164"
       id="radialGradient3806-6"
       xlink:href="#linearGradient3846"
       gradientUnits="userSpaceOnUse"
       gradientTransform="matrix(-0.1900672,0.58121471,-0.77741209,-0.25422728,744.37897,-301.96863)" /><radialGradient
       cx="553.78998"
       cy="483.40543"
       r="328.55579"
       fx="553.78998"
       fy="483.40543"
       id="radialGradient3885"
       xlink:href="#linearGradient3879"
       gradientUnits="userSpaceOnUse"
       gradientTransform="matrix(0.73201948,-0.26664816,0.15697755,0.43094475,-40.270545,565.56051)" /><radialGradient
       cx="553.78998"
       cy="483.40543"
       r="328.55579"
       fx="553.78998"
       fy="483.40543"
       id="radialGradient4006"
       xlink:href="#linearGradient3879"
       gradientUnits="userSpaceOnUse"
       gradientTransform="matrix(0.73201948,-0.26664816,0.15697755,0.43094475,-40.270545,565.56051)" /><radialGradient
       cx="553.78998"
       cy="483.40543"
       r="328.55579"
       fx="553.78998"
       fy="483.40543"
       id="radialGradient4013"
       xlink:href="#linearGradient3879"
       gradientUnits="userSpaceOnUse"
       gradientTransform="matrix(0.73201948,-0.26664816,0.15697755,0.43094475,-40.270545,565.56051)" /><radialGradient
       cx="553.78998"
       cy="483.40543"
       r="328.55579"
       fx="553.78998"
       fy="483.40543"
       id="radialGradient4016"
       xlink:href="#linearGradient3879"
       gradientUnits="userSpaceOnUse"
       gradientTransform="matrix(0.73201948,-0.26664816,0.15697755,0.43094475,-40.270545,565.56051)" /><radialGradient
       cx="553.78998"
       cy="483.40543"
       r="328.55579"
       fx="553.78998"
       fy="483.40543"
       id="radialGradient4025"
       xlink:href="#linearGradient3879"
       gradientUnits="userSpaceOnUse"
       gradientTransform="matrix(0.73201948,-0.26664816,0.15697755,0.43094475,-40.270545,565.56051)" /><radialGradient
       cx="593.11322"
       cy="49.048164"
       r="141.83899"
       fx="593.11322"
       fy="49.048164"
       id="radialGradient4027"
       xlink:href="#linearGradient3737"
       gradientUnits="userSpaceOnUse"
       gradientTransform="matrix(-0.1900672,0.58121471,-0.77741209,-0.25422728,744.37897,-301.96863)" /><radialGradient
       cx="593.11322"
       cy="49.048164"
       r="141.83899"
       fx="593.11322"
       fy="49.048164"
       id="radialGradient4029"
       xlink:href="#linearGradient3783"
       gradientUnits="userSpaceOnUse"
       gradientTransform="matrix(-0.1900672,0.58121471,-0.77741209,-0.25422728,744.37897,-301.96863)" /><radialGradient
       cx="593.11322"
       cy="49.048164"
       r="141.83899"
       fx="593.11322"
       fy="49.048164"
       id="radialGradient4031"
       xlink:href="#linearGradient3846"
       gradientUnits="userSpaceOnUse"
       gradientTransform="matrix(-0.1900672,0.58121471,-0.77741209,-0.25422728,744.37897,-301.96863)" /><radialGradient
       cx="553.78998"
       cy="483.40543"
       r="328.55579"
       fx="553.78998"
       fy="483.40543"
       id="radialGradient4025-7"
       xlink:href="#linearGradient3879"
       gradientUnits="userSpaceOnUse"
       gradientTransform="matrix(0.73201948,-0.26664816,0.15697755,0.43094475,-40.270545,565.56051)" /><radialGradient
       cx="593.11322"
       cy="49.048164"
       r="141.83899"
       fx="593.11322"
       fy="49.048164"
       id="radialGradient4027-7"
       xlink:href="#linearGradient3737"
       gradientUnits="userSpaceOnUse"
       gradientTransform="matrix(-0.1900672,0.58121471,-0.77741209,-0.25422728,744.37897,-301.96863)" /><radialGradient
       cx="593.11322"
       cy="49.048164"
       r="141.83899"
       fx="593.11322"
       fy="49.048164"
       id="radialGradient4029-9"
       xlink:href="#linearGradient3783"
       gradientUnits="userSpaceOnUse"
       gradientTransform="matrix(-0.1900672,0.58121471,-0.77741209,-0.25422728,744.37897,-301.96863)" /><radialGradient
       cx="593.11322"
       cy="49.048164"
       r="141.83899"
       fx="593.11322"
       fy="49.048164"
       id="radialGradient4031-0"
       xlink:href="#linearGradient3846"
       gradientUnits="userSpaceOnUse"
       gradientTransform="matrix(-0.1900672,0.58121471,-0.77741209,-0.25422728,744.37897,-301.96863)" /><radialGradient
       cx="553.78998"
       cy="483.40543"
       r="328.55579"
       fx="553.78998"
       fy="483.40543"
       id="radialGradient4025-6"
       xlink:href="#linearGradient3879"
       gradientUnits="userSpaceOnUse"
       gradientTransform="matrix(0.73201948,-0.26664816,0.15697755,0.43094475,-40.270545,565.56051)" /><radialGradient
       cx="593.11322"
       cy="49.048164"
       r="141.83899"
       fx="593.11322"
       fy="49.048164"
       id="radialGradient4027-8"
       xlink:href="#linearGradient3737"
       gradientUnits="userSpaceOnUse"
       gradientTransform="matrix(-0.1900672,0.58121471,-0.77741209,-0.25422728,744.37897,-301.96863)" /><radialGradient
       cx="593.11322"
       cy="49.048164"
       r="141.83899"
       fx="593.11322"
       fy="49.048164"
       id="radialGradient4029-1"
       xlink:href="#linearGradient3783"
       gradientUnits="userSpaceOnUse"
       gradientTransform="matrix(-0.1900672,0.58121471,-0.77741209,-0.25422728,744.37897,-301.96863)" /><radialGradient
       cx="593.11322"
       cy="49.048164"
       r="141.83899"
       fx="593.11322"
       fy="49.048164"
       id="radialGradient4031-5"
       xlink:href="#linearGradient3846"
       gradientUnits="userSpaceOnUse"
       gradientTransform="matrix(-0.1900672,0.58121471,-0.77741209,-0.25422728,744.37897,-301.96863)" /><radialGradient
       cx="553.78998"
       cy="483.40543"
       r="328.55579"
       fx="553.78998"
       fy="483.40543"
       id="radialGradient4025-5"
       xlink:href="#linearGradient3879"
       gradientUnits="userSpaceOnUse"
       gradientTransform="matrix(0.73201948,-0.26664816,0.15697755,0.43094475,-40.270545,565.56051)" /><radialGradient
       cx="593.11322"
       cy="49.048164"
       r="141.83899"
       fx="593.11322"
       fy="49.048164"
       id="radialGradient4027-83"
       xlink:href="#linearGradient3737"
       gradientUnits="userSpaceOnUse"
       gradientTransform="matrix(-0.1900672,0.58121471,-0.77741209,-0.25422728,744.37897,-301.96863)" /><radialGradient
       cx="593.11322"
       cy="49.048164"
       r="141.83899"
       fx="593.11322"
       fy="49.048164"
       id="radialGradient4029-95"
       xlink:href="#linearGradient3783"
       gradientUnits="userSpaceOnUse"
       gradientTransform="matrix(-0.1900672,0.58121471,-0.77741209,-0.25422728,744.37897,-301.96863)" /><radialGradient
       cx="593.11322"
       cy="49.048164"
       r="141.83899"
       fx="593.11322"
       fy="49.048164"
       id="radialGradient4031-4"
       xlink:href="#linearGradient3846"
       gradientUnits="userSpaceOnUse"
       gradientTransform="matrix(-0.1900672,0.58121471,-0.77741209,-0.25422728,744.37897,-301.96863)" /><linearGradient
       id="linearGradient4518"
       y2="-18.785"
       gradientUnits="userSpaceOnUse"
       x2="120.47"
       gradientTransform="translate(279.89,2.7372)"
       y1="134.65"
       x1="120.47"
       inkscape:collect="always"><stop
         id="stop3730-2-1"
         style="stop-color:#555753"
         offset="0" /><stop
         id="stop3732-7-5"
         style="stop-color:#555753;stop-opacity:0"
         offset="1" /></linearGradient><filter
       id="filter4319-5"
       color-interpolation-filters="sRGB"
       inkscape:collect="always"
       x="-0.071386976"
       y="-0.040299142"
       width="1.142774"
       height="1.0805983"><feGaussianBlur
         id="feGaussianBlur4321-8"
         stdDeviation="2.7328125"
         inkscape:collect="always" /></filter><linearGradient
       id="linearGradient4515"
       y2="92.125"
       gradientUnits="userSpaceOnUse"
       x2="149.48"
       gradientTransform="translate(279.89,2.7372)"
       y1="92.125"
       x1="90.754"
       inkscape:collect="always"><stop
         id="stop3789-7-4"
         style="stop-color:#d3d7cf"
         offset="0" /><stop
         id="stop3795-80-7"
         style="stop-color:#888a85"
         offset=".44984" /><stop
         id="stop3805-20-2"
         style="stop-color:#888a85"
         offset=".54769" /><stop
         id="stop3791-8-1"
         style="stop-color:#d3d7cf"
         offset="1" /></linearGradient><linearGradient
       id="linearGradient4512"
       y2="77.953"
       gradientUnits="userSpaceOnUse"
       x2="219.33"
       gradientTransform="matrix(1,0,0,12,198.39,-879.55)"
       y1="81.496"
       x1="178.92"
       inkscape:collect="always"><stop
         id="stop3819-2-9"
         style="stop-color:#eeeeec"
         offset="0" /><stop
         id="stop3821-0-0"
         style="stop-color:#888a85"
         offset="1" /></linearGradient><linearGradient
       id="linearGradient4509"
       y2="79.781"
       gradientUnits="userSpaceOnUse"
       x2="159.37"
       gradientTransform="matrix(1.0454,0,0,13.713,189.11,-1017.1)"
       y1="79.781"
       x1="244.11"
       inkscape:collect="always"><stop
         id="stop4307-3"
         style="stop-color:#888a85"
         offset="0" /><stop
         id="stop4317-5"
         style="stop-color:#414544"
         offset=".36219" /><stop
         id="stop4313-0"
         style="stop-color:#2e3436"
         offset=".52191" /><stop
         id="stop4315-7"
         style="stop-color:#414544"
         offset=".68181" /><stop
         id="stop4309-6"
         style="stop-color:#888a85"
         offset="1" /></linearGradient><linearGradient
       id="linearGradient4506"
       y2="92.125"
       gradientUnits="userSpaceOnUse"
       x2="149.48"
       gradientTransform="translate(279.89,-36.691)"
       y1="92.125"
       x1="90.754"
       inkscape:collect="always"><stop
         id="stop3789-7-0-3"
         style="stop-color:#d3d7cf"
         offset="0" /><stop
         id="stop3795-80-0-6"
         style="stop-color:#888a85"
         offset=".44984" /><stop
         id="stop3805-20-7-4"
         style="stop-color:#888a85"
         offset=".54769" /><stop
         id="stop3791-8-2-4"
         style="stop-color:#d3d7cf"
         offset="1" /></linearGradient><linearGradient
       id="linearGradient4503"
       y2="77.953"
       gradientUnits="userSpaceOnUse"
       x2="219.33"
       gradientTransform="matrix(1,0,0,12,198.39,-918.97)"
       y1="81.496"
       x1="178.92"
       inkscape:collect="always"><stop
         id="stop3819-2-2-5"
         style="stop-color:#eeeeec"
         offset="0" /><stop
         id="stop3821-0-1-5"
         style="stop-color:#888a85"
         offset="1" /></linearGradient><linearGradient
       id="linearGradient4624"
       y2="79.781"
       gradientUnits="userSpaceOnUse"
       x2="159.37"
       gradientTransform="matrix(1.0454,0,0,13.713,183.57,-1074.9)"
       y1="79.781"
       x1="244.11"
       inkscape:collect="always"><stop
         id="stop4307-3-5"
         style="stop-color:#888a85"
         offset="0" /><stop
         id="stop4317-5-6"
         style="stop-color:#414544"
         offset=".36219" /><stop
         id="stop4313-0-0"
         style="stop-color:#2e3436"
         offset=".52191" /><stop
         id="stop4315-7-5"
         style="stop-color:#414544"
         offset=".68181" /><stop
         id="stop4309-6-9"
         style="stop-color:#888a85"
         offset="1" /></linearGradient><linearGradient
       id="linearGradient4626"
       y2="92.125"
       gradientUnits="userSpaceOnUse"
       x2="149.48"
       gradientTransform="translate(274.35,-94.497)"
       y1="92.125"
       x1="90.754"
       inkscape:collect="always"><stop
         id="stop3789-7-0-3-1"
         style="stop-color:#d3d7cf"
         offset="0" /><stop
         id="stop3795-80-0-6-1"
         style="stop-color:#888a85"
         offset=".44984" /><stop
         id="stop3805-20-7-4-9"
         style="stop-color:#888a85"
         offset=".54769" /><stop
         id="stop3791-8-2-4-9"
         style="stop-color:#d3d7cf"
         offset="1" /></linearGradient><linearGradient
       id="linearGradient4628"
       y2="77.953"
       gradientUnits="userSpaceOnUse"
       x2="219.33"
       gradientTransform="matrix(1,0,0,12,192.86,-976.78)"
       y1="81.496"
       x1="178.92"
       inkscape:collect="always"><stop
         id="stop3819-2-2-5-0"
         style="stop-color:#eeeeec"
         offset="0" /><stop
         id="stop3821-0-1-5-4"
         style="stop-color:#888a85"
         offset="1" /></linearGradient><linearGradient
       id="linearGradient4630"
       y2="79.724"
       gradientUnits="userSpaceOnUse"
       x2="240.94"
       gradientTransform="matrix(1.0454,0,0,13.713,183.57,-1114.4)"
       y1="78.837"
       x1="162.99"
       inkscape:collect="always"><stop
         id="stop3833-2-6-7-6"
         style="stop-color:#d3d7cf"
         offset="0" /><stop
         id="stop3835-7-4-3-6"
         style="stop-color:#888a85"
         offset="1" /></linearGradient></defs><g
     inkscape:label="Layer 1"
     inkscape:groupmode="layer"
     id="layer1"><g
       id="g1"
       transform="matrix(1.9363236,0,0,1.5815574,-84.702994,-29.457542)"><g
         transform="matrix(0.37892905,0,0,0.44363202,32.527191,40.073553)"
         id="g4018"><path
           d="M 306.50673,50.239857 C 421.13701,278.88675 -29.336458,450.81747 65.770589,646.70686 144.03366,748.56228 238.10857,724.36558 382.73974,707.28139 488.74638,705.92316 567.28705,752.57341 656.17505,691.47213 761.77868,600.48788 669.40175,455.12003 597.8662,354.44273 533.67066,248.8094 380.48931,224.17489 415.59001,30.41391"
           id="path3864"
           style="fill:url(#radialGradient4025);fill-opacity:1;stroke:#000000;stroke-width:1px;stroke-linecap:butt;stroke-linejoin:miter;stroke-opacity:1" /><path
           d="m 788.43219,75.118652 a 140.33899,127.66949 0 1 1 -280.67798,0 140.33899,127.66949 0 1 1 280.67798,0 z"
           transform="translate(-259.02455,279.20088)"
           id="path2947"
           style="fill:url(#radialGradient4027);fill-opacity:1;stroke:none" /><path
           d="m 788.43219,75.118652 a 140.33899,127.66949 0 1 1 -280.67798,0 140.33899,127.66949 0 1 1 280.67798,0 z"
           transform="translate(-102.03662,505.93086)"
           id="path2947-9"
           style="fill:url(#radialGradient4029);fill-opacity:1;stroke:none" /><path
           d="m 788.43219,75.118652 a 140.33899,127.66949 0 1 1 -280.67798,0 140.33899,127.66949 0 1 1 280.67798,0 z"
           transform="translate(-434.17122,502.03255)"
           id="path2947-9-9"
           style="fill:url(#radialGradient4031);fill-opacity:1;stroke:none" /><path
           d="m 198.46929,314.48652 c 27.7916,-48.47232 73.63147,-162.93574 122.18484,-131.88793 86.16365,55.09797 21.18265,69.45835 -10.61661,-5.42645 101.0683,-37.48299 118.42015,-6.67117 103.78719,-43.51061 -38.03324,-27.08731 -69.60111,35.95826 -95.43397,40.70722 -100.31605,-18.4353 -19.98378,-127.470779 -14.84742,3.02186 -64.90037,71.51852 -27.58571,80.98244 -71.99579,134.3394"
           id="path3989"
           style="fill:none;stroke:#000000;stroke-width:6;stroke-linecap:butt;stroke-linejoin:miter;stroke-miterlimit:4;stroke-dasharray:none;stroke-opacity:1" /></g><g
         transform="matrix(0.37892905,0,0,0.44363202,313.137,12.288545)"
         id="g4018-2"><path
           d="M 306.50673,50.239857 C 421.13701,278.88675 -29.336458,450.81747 65.770589,646.70686 144.03366,748.56228 238.10857,724.36558 382.73974,707.28139 488.74638,705.92316 567.28705,752.57341 656.17505,691.47213 761.77868,600.48788 669.40175,455.12003 597.8662,354.44273 533.67066,248.8094 380.48931,224.17489 415.59001,30.41391"
           id="path3864-5"
           style="fill:url(#radialGradient4025-7);fill-opacity:1;stroke:#000000;stroke-width:1px;stroke-linecap:butt;stroke-linejoin:miter;stroke-opacity:1" /><path
           d="m 788.43219,75.118652 a 140.33899,127.66949 0 1 1 -280.67798,0 140.33899,127.66949 0 1 1 280.67798,0 z"
           transform="translate(-259.02455,279.20088)"
           id="path2947-5"
           style="fill:url(#radialGradient4027-7);fill-opacity:1;stroke:none" /><path
           d="m 788.43219,75.118652 a 140.33899,127.66949 0 1 1 -280.67798,0 140.33899,127.66949 0 1 1 280.67798,0 z"
           transform="translate(-102.03662,505.93086)"
           id="path2947-9-2"
           style="fill:url(#radialGradient4029-9);fill-opacity:1;stroke:none" /><path
           d="m 788.43219,75.118652 a 140.33899,127.66949 0 1 1 -280.67798,0 140.33899,127.66949 0 1 1 280.67798,0 z"
           transform="translate(-434.17122,502.03255)"
           id="path2947-9-9-1"
           style="fill:url(#radialGradient4031-0);fill-opacity:1;stroke:none" /><path
           d="m 198.46929,314.48652 c 27.7916,-48.47232 73.63147,-162.93574 122.18484,-131.88793 86.16365,55.09797 21.18265,69.45835 -10.61661,-5.42645 101.0683,-37.48299 118.42015,-6.67117 103.78719,-43.51061 -38.03324,-27.08731 -69.60111,35.95826 -95.43397,40.70722 -100.31605,-18.4353 -19.98378,-127.470779 -14.84742,3.02186 -64.90037,71.51852 -27.58571,80.98244 -71.99579,134.3394"
           id="path3989-4"
           style="fill:none;stroke:#000000;stroke-width:6;stroke-linecap:butt;stroke-linejoin:miter;stroke-miterlimit:4;stroke-dasharray:none;stroke-opacity:1" /></g><g
         transform="matrix(0.37892905,0,0,0.44363202,31.97217,373.3924)"
         id="g4018-1"><path
           d="M 306.50673,50.239857 C 421.13701,278.88675 -29.336458,450.81747 65.770589,646.70686 144.03366,748.56228 238.10857,724.36558 382.73974,707.28139 488.74638,705.92316 567.28705,752.57341 656.17505,691.47213 761.77868,600.48788 669.40175,455.12003 597.8662,354.44273 533.67066,248.8094 380.48931,224.17489 415.59001,30.41391"
           id="path3864-4"
           style="fill:url(#radialGradient4025-6);fill-opacity:1;stroke:#000000;stroke-width:1px;stroke-linecap:butt;stroke-linejoin:miter;stroke-opacity:1" /><path
           d="m 788.43219,75.118652 a 140.33899,127.66949 0 1 1 -280.67798,0 140.33899,127.66949 0 1 1 280.67798,0 z"
           transform="translate(-259.02455,279.20088)"
           id="path2947-99"
           style="fill:url(#radialGradient4027-8);fill-opacity:1;stroke:none" /><path
           d="m 788.43219,75.118652 a 140.33899,127.66949 0 1 1 -280.67798,0 140.33899,127.66949 0 1 1 280.67798,0 z"
           transform="translate(-102.03662,505.93086)"
           id="path2947-9-0"
           style="fill:url(#radialGradient4029-1);fill-opacity:1;stroke:none" /><path
           d="m 788.43219,75.118652 a 140.33899,127.66949 0 1 1 -280.67798,0 140.33899,127.66949 0 1 1 280.67798,0 z"
           transform="translate(-434.17122,502.03255)"
           id="path2947-9-9-3"
           style="fill:url(#radialGradient4031-5);fill-opacity:1;stroke:none" /><path
           d="m 198.46929,314.48652 c 27.7916,-48.47232 73.63147,-162.93574 122.18484,-131.88793 86.16365,55.09797 21.18265,69.45835 -10.61661,-5.42645 101.0683,-37.48299 118.42015,-6.67117 103.78719,-43.51061 -38.03324,-27.08731 -69.60111,35.95826 -95.43397,40.70722 -100.31605,-18.4353 -19.98378,-127.470779 -14.84742,3.02186 -64.90037,71.51852 -27.58571,80.98244 -71.99579,134.3394"
           id="path3989-0"
           style="fill:none;stroke:#000000;stroke-width:6;stroke-linecap:butt;stroke-linejoin:miter;stroke-miterlimit:4;stroke-dasharray:none;stroke-opacity:1" /></g><g
         transform="matrix(0.37892905,0,0,0.44363202,317.27177,348.58373)"
         id="g4018-5"><path
           d="M 306.50673,50.239857 C 421.13701,278.88675 -29.336458,450.81747 65.770589,646.70686 144.03366,748.56228 238.10857,724.36558 382.73974,707.28139 488.74638,705.92316 567.28705,752.57341 656.17505,691.47213 761.77868,600.48788 669.40175,455.12003 597.8662,354.44273 533.67066,248.8094 380.48931,224.17489 415.59001,30.41391"
           id="path3864-2"
           style="fill:url(#radialGradient4025-5);fill-opacity:1;stroke:#000000;stroke-width:1px;stroke-linecap:butt;stroke-linejoin:miter;stroke-opacity:1" /><path
           d="m 788.43219,75.118652 a 140.33899,127.66949 0 1 1 -280.67798,0 140.33899,127.66949 0 1 1 280.67798,0 z"
           transform="translate(-259.02455,279.20088)"
           id="path2947-3"
           style="fill:url(#radialGradient4027-83);fill-opacity:1;stroke:none" /><path
           d="m 788.43219,75.118652 a 140.33899,127.66949 0 1 1 -280.67798,0 140.33899,127.66949 0 1 1 280.67798,0 z"
           transform="translate(-102.03662,505.93086)"
           id="path2947-9-24"
           style="fill:url(#radialGradient4029-95);fill-opacity:1;stroke:none" /><path
           d="m 788.43219,75.118652 a 140.33899,127.66949 0 1 1 -280.67798,0 140.33899,127.66949 0 1 1 280.67798,0 z"
           transform="translate(-434.17122,502.03255)"
           id="path2947-9-9-6"
           style="fill:url(#radialGradient4031-4);fill-opacity:1;stroke:none" /><path
           d="m 198.46929,314.48652 c 27.7916,-48.47232 73.63147,-162.93574 122.18484,-131.88793 86.16365,55.09797 21.18265,69.45835 -10.61661,-5.42645 101.0683,-37.48299 118.42015,-6.67117 103.78719,-43.51061 -38.03324,-27.08731 -69.60111,35.95826 -95.43397,40.70722 -100.31605,-18.4353 -19.98378,-127.470779 -14.84742,3.02186 -64.90037,71.51852 -27.58571,80.98244 -71.99579,134.3394"
           id="path3989-6"
           style="fill:none;stroke:#000000;stroke-width:6;stroke-linecap:butt;stroke-linejoin:miter;stroke-miterlimit:4;stroke-dasharray:none;stroke-opacity:1" /></g></g><g
       id="g4668"
       transform="matrix(6.7189125,0,0,4.4731916,-2164.7017,318.91427)"><path
         id="path3726-7-0"
         sodipodi:nodetypes="csccsssccsc"
         style="fill:url(#linearGradient4518);filter:url(#filter4319-5)"
         d="m 400.36,-25.513 c -12.201,0 -23.277,2.4394 -31.594,6.5938 -8.3172,4.1544 -14.344,10.35 -14.344,18.062 v 113.44 c 0,7.713 6.0265,13.908 14.344,18.062 8.3172,4.1544 19.392,6.5938 31.594,6.5938 12.201,0 23.277,-2.4394 31.594,-6.5938 8.3172,-4.1544 14.344,-10.35 14.344,-18.062 v -113.44 c 0,-7.713 -6.0265,-13.908 -14.344,-18.062 -8.3172,-4.1544 -19.392,-6.5938 -31.594,-6.5938 z" /><path
         id="path2832-8-8"
         style="fill:url(#linearGradient4515)"
         d="m 400.36,55.893 c -23.483,0 -42.531,9.5085 -42.531,21.25 v 35.437 c 0,11.741 19.048,21.25 42.531,21.25 23.483,0 42.531,-9.5085 42.531,-21.25 V 77.143 c 0,-11.741 -19.048,-21.25 -42.531,-21.25 z" /><path
         id="path2832-7-7-81"
         style="fill:url(#linearGradient4512)"
         d="m 442.88,77.147 c 0,11.741 -19.037,21.26 -42.52,21.26 -23.483,0 -42.52,-9.5184 -42.52,-21.26 0,-11.741 19.037,-21.26 42.52,-21.26 23.483,0 42.52,9.5184 42.52,21.26 z" /><path
         id="path2832-7-0-8-5"
         style="fill:url(#linearGradient4509)"
         d="m 440.98,76.133 c 0,11.181 -18.242,20.246 -40.744,20.246 -22.502,0 -40.744,-9.0644 -40.744,-20.246 0,-11.181 18.242,-20.246 40.744,-20.246 22.502,0 40.744,9.0644 40.744,20.246 z" /><path
         id="path2832-8-9-2"
         style="fill:url(#linearGradient4506)"
         d="m 400.36,16.465 c -23.483,0 -42.531,9.5085 -42.531,21.25 v 35.438 c 0,11.741 19.048,21.25 42.531,21.25 23.483,0 42.531,-9.5085 42.531,-21.25 V 37.715 c 0,-11.741 -19.048,-21.25 -42.531,-21.25 z" /><path
         id="path2832-7-7-8-3"
         style="fill:url(#linearGradient4503)"
         d="m 442.88,37.718 c 0,11.741 -19.037,21.26 -42.52,21.26 -23.483,0 -42.52,-9.5184 -42.52,-21.26 0,-11.741 19.037,-21.26 42.52,-21.26 23.483,0 42.52,9.5184 42.52,21.26 z" /><g
         id="g4618"
         transform="translate(5.5278,18.378)"><path
           id="path2832-7-0-8-5-4"
           style="fill:url(#linearGradient4624)"
           d="m 435.44,18.326 c 0,11.181 -18.242,20.246 -40.744,20.246 -22.502,0 -40.744,-9.0644 -40.744,-20.246 0,-11.181 18.242,-20.246 40.744,-20.246 22.502,0 40.744,9.0644 40.744,20.246 z" /><path
           id="path2832-8-9-2-6"
           style="fill:url(#linearGradient4626)"
           d="m 394.82,-41.341 c -23.483,0 -42.531,9.5085 -42.531,21.25 v 35.438 c 0,11.741 19.048,21.25 42.531,21.25 23.483,0 42.531,-9.5085 42.531,-21.25 v -35.438 c 0,-11.741 -19.048,-21.25 -42.531,-21.25 z" /><path
           id="path2832-7-7-8-3-3"
           style="fill:url(#linearGradient4628)"
           d="m 437.34,-20.088 c 0,11.741 -19.037,21.26 -42.52,21.26 -23.483,0 -42.52,-9.5184 -42.52,-21.26 0,-11.741 19.037,-21.26 42.52,-21.26 23.483,0 42.52,9.5184 42.52,21.26 z" /><path
           id="path2832-7-0-8-3-2-4"
           style="fill:url(#linearGradient4630)"
           d="m 435.44,-21.102 c 0,11.181 -18.242,20.246 -40.744,20.246 -22.502,0 -40.744,-9.0644 -40.744,-20.246 0,-11.181 18.242,-20.246 40.744,-20.246 22.502,0 40.744,9.0644 40.744,20.246 z" /></g></g><text
       xml:space="preserve"
       style="font-style:normal;font-variant:normal;font-weight:normal;font-stretch:normal;font-size:107.324px;font-family:Ubuntu;-inkscape-font-specification:Ubuntu;writing-mode:lr-tb;direction:ltr;fill:#0073cc;stroke-width:8.94372"
       x="467.24332"
       y="356.0304"
       id="text2"
       transform="scale(0.67731295,1.4764224)"><tspan
         sodipodi:role="line"
         id="tspan2"
         x="467.24332"
         y="356.0304"
         style="stroke-width:8.94372">Seanpm2001</tspan><tspan
         sodipodi:role="line"
         x="467.24332"
         y="490.18539"
         id="tspan3"
         style="stroke-width:8.94372">   WorldDB</tspan></text></g><style
     type="text/css"
     id="style8" /></svg>
