<?xml version="1.0" encoding="UTF-8"?>
<svg width="535" height="600" version="1.1" xmlns="http://www.w3.org/2000/svg">
 <path d="m450.09 503.52c47.44-51.702 70.868-124.6 62.38-194.25-5.1854-42.544-21.673-83.321-45.072-119.23-23.4-35.908-53.585-67.086-86.892-94.058-38.932-31.526-83.272-57.916-132.27-68.384-38.44-8.2129-80.887-11.082-116.48 5.5978-35.593 16.68-60.545 51.137-78.828 85.936-23.301 44.349-31.393 95.309-32.072 145.4-0.58203 42.855 4.0659 86.001 16.691 126.96 12.625 40.958 33.414 79.718 62.793 110.92 48.099 51.091 119.11 79.728 189.2 76.347 30.313-1.4615 60.339-8.6426 88.034-21.056 27.258-13.341 51.99-31.823 72.508-54.184z" fill="#fff" stroke="#000"/>
 <path d="m230.69 26.449a135.78 100.3 26.984 0 0-45.678 39.272 135.78 100.3 26.984 0 0 75.492 150.99 135.78 100.3 26.984 0 0 166.51-27.768 135.78 100.3 26.984 0 0 7.8287-41.264c-16.597-18.734-34.942-35.972-54.404-51.728-38.932-31.528-83.266-57.918-132.26-68.385-4.2919-0.9171-8.6205-1.6662-12.958-2.3299a135.78 100.3 26.984 0 0-4.5309 1.215zm-194.9 134.7c-10.298 33.203-14.508 68.464-14.982 103.35-0.58194 42.855 4.0653 85.999 16.69 126.96 1.265 4.1038 2.6723 8.1704 4.1016 12.224a100.3 135.78 12.794 0 0 54.369-90.728 100.3 135.78 12.794 0 0-60.177-151.8zm223.49 144.22a116.78 116.78 0 0 0-56.194 155.3 116.78 116.78 0 0 0 155.31 56.18 116.78 116.78 0 0 0 56.185-155.3 116.78 116.78 0 0 0-155.3-56.185z" fill="#6fb92c"/>
 <path d="m450.09 503.52c47.44-51.702 70.868-124.6 62.38-194.25-5.1854-42.544-21.673-83.321-45.072-119.23-23.4-35.908-53.585-67.086-86.892-94.058-38.932-31.526-83.272-57.916-132.27-68.384-38.44-8.2129-80.887-11.082-116.48 5.5978-35.593 16.68-60.545 51.137-78.828 85.936-23.301 44.349-31.393 95.309-32.072 145.4-0.58203 42.855 4.0659 86.001 16.691 126.96 12.625 40.958 33.414 79.718 62.793 110.92 48.099 51.091 119.11 79.728 189.2 76.347 30.313-1.4615 60.339-8.6426 88.034-21.056 27.258-13.341 51.99-31.823 72.508-54.184z" fill="none" stroke="#000" stroke-width="22"/>
</svg>
