<?xml version="1.0" encoding="UTF-8" standalone="no"?>
<!-- Created with Inkscape (http://www.inkscape.org/) -->

<svg
   width="1920"
   height="1080"
   viewBox="0 0 1920 1080"
   version="1.1"
   id="svg1"
   xml:space="preserve"
   inkscape:version="1.4.4 (dcaf3e7d9e, 2026-05-05)"
   sodipodi:docname="Facebook-Flag_V1_2026.09.12.svg"
   xmlns:inkscape="http://www.inkscape.org/namespaces/inkscape"
   xmlns:sodipodi="http://sodipodi.sourceforge.net/DTD/sodipodi-0.dtd"
   xmlns="http://www.w3.org/2000/svg"
   xmlns:svg="http://www.w3.org/2000/svg"><sodipodi:namedview
     id="namedview1"
     pagecolor="#ffffff"
     bordercolor="#111111"
     borderopacity="1"
     inkscape:showpageshadow="0"
     inkscape:pageopacity="0"
     inkscape:pagecheckerboard="1"
     inkscape:deskcolor="#d1d1d1"
     inkscape:document-units="px"
     inkscape:zoom="0.39212963"
     inkscape:cx="961.41676"
     inkscape:cy="539.36246"
     inkscape:window-width="1920"
     inkscape:window-height="1097"
     inkscape:window-x="0"
     inkscape:window-y="0"
     inkscape:window-maximized="1"
     inkscape:current-layer="layer1" /><defs
     id="defs1" /><g
     inkscape:label="Layer 1"
     inkscape:groupmode="layer"
     id="layer1"><rect
       style="opacity:0.872478;fill:#0000ff;stroke-width:0"
       id="rect1"
       width="2055.4426"
       height="1221.5348"
       x="-66.304604"
       y="-71.404961" /><g
       id="g1"
       transform="matrix(4.4470137,0,0,4.2600171,10.831688,-5.8826564)"><path
         id="rect1942_1_"
         inkscape:export-xdpi="7.7063322"
         inkscape:export-ydpi="7.7063322"
         inkscape:export-filename="C:\Documents and Settings\Molumen\Desktop\path3511111.png"
         fill="#0037c1"
         d="M 209.018,10.505 H 44.983 c -19.599,0 -35.487,15.888 -35.487,35.487 v 164.015 c 0,19.599 15.888,35.486 35.487,35.486 h 164.033 c 19.604,0 35.487,-15.888 37.487,-34.819 V 46.66 C 244.504,26.394 228.615,10.505 209.018,10.505 Z" /><path
         fill="url(#SVGID_1_)"
         d="M 209.018,10.505 H 44.983 c -19.599,0 -35.487,15.889 -35.487,35.487 v 69.409 c 36.33,14.751 76.046,22.896 117.671,22.896 42.263,0 82.558,-8.395 119.336,-23.576 V 46.66 C 244.504,26.394 228.615,10.505 209.018,10.505 Z"
         id="path2" /><g
         id="layer1-3"
         transform="translate(-373.642,-318.344)"
         inkscape:label="Layer 1">
	<g
   id="Layer_3"
   transform="matrix(1.7982054,0,0,1.8129643,376.63343,326.35613)">
		<path
   id="path3336"
   fill="#ffffff"
   d="M 93.376,117.012 H 72.203 V 65.767 H 61.625 V 48.107 H 72.203 V 37.504 c 0,-14.407 5.973,-22.974 22.943,-22.974 h 14.128 v 17.662 h -8.831 c -6.606,0 -7.043,2.468 -7.043,7.074 l -0.024,8.839 h 15.998 l -1.871,17.66 H 93.376 Z" />
	</g>
</g><g
         id="g4">
	
		<linearGradient
   id="SVGID_2_"
   gradientUnits="userSpaceOnUse"
   x1="93.999496"
   y1="1308.001"
   x2="93.999496"
   y2="1415.5118"
   gradientTransform="translate(34,-1170)">
		<stop
   offset="0"
   style="stop-color:#000000;stop-opacity:0.15"
   id="stop3" />
		<stop
   offset="0.6626"
   style="stop-color:#000000;stop-opacity:0"
   id="stop4" />
	</linearGradient>
	<path
   fill="url(#SVGID_2_)"
   d="m 9.496,115.401 v 94.605 c 0,19.6 15.888,35.486 35.487,35.486 h 164.033 c 19.604,0 35.488,-15.889 37.488,-34.819 V 114.721 C 209.725,129.902 169.43,138.297 127.167,138.297 85.542,138.298 45.825,130.152 9.496,115.401 Z"
   id="path4"
   style="fill:url(#SVGID_2_)" />
</g><path
         fill="none"
         stroke="#0037c1"
         stroke-width="2"
         stroke-miterlimit="10"
         d="M 246.503,114.721 V 46.66 C 244.504,26.394 228.615,10.505 209.018,10.505 H 44.982 c -19.599,0 -35.486,15.889 -35.486,35.487 v 69.409"
         id="path5" /><g
         id="g8">
	<g
   id="g7">
		<g
   id="g6">
			<path
   fill="none"
   stroke="#002c99"
   stroke-width="2"
   stroke-miterlimit="10"
   d="m 9.496,115.401 v 94.605 c 0,19.6 15.888,35.486 35.486,35.486 h 164.034 c 19.604,0 35.487,-15.889 37.487,-34.819 v -95.952"
   id="path6" />
		</g>
	</g>
</g></g></g></svg>
