<?xml version="1.0" encoding="UTF-8" standalone="no"?>
<!-- Created with Inkscape (http://www.inkscape.org/) -->

<svg
   width="1920px"
   height="1080px"
   viewBox="0 0 1920 1080"
   version="1.1"
   id="SVGRoot"
   sodipodi:docname="Matrix_ProgrammingLanguage_Wide1.svg"
   xml:space="preserve"
   inkscape:version="1.2.1 (ef4d3fba62, 2022-07-19, custom)"
   xmlns:inkscape="http://www.inkscape.org/namespaces/inkscape"
   xmlns:sodipodi="http://sodipodi.sourceforge.net/DTD/sodipodi-0.dtd"
   xmlns="http://www.w3.org/2000/svg"
   xmlns:svg="http://www.w3.org/2000/svg"><sodipodi:namedview
     id="namedview14"
     pagecolor="#ffffff"
     bordercolor="#666666"
     borderopacity="1.0"
     inkscape:showpageshadow="2"
     inkscape:pageopacity="0.0"
     inkscape:pagecheckerboard="0"
     inkscape:deskcolor="#d1d1d1"
     inkscape:document-units="px"
     showgrid="false"
     inkscape:zoom="0.4460299"
     inkscape:cx="1260.0052"
     inkscape:cy="244.37824"
     inkscape:window-width="1920"
     inkscape:window-height="967"
     inkscape:window-x="0"
     inkscape:window-y="0"
     inkscape:window-maximized="1"
     inkscape:current-layer="layer1" /><defs
     id="defs9" /><g
     inkscape:label="Layer 1"
     inkscape:groupmode="layer"
     id="layer1"><g
       transform="matrix(1.2651083,0,0,1.3004113,234.82956,-536.37686)"
       id="layer1-3"><path
         d="m 296.37182,742.15229 c -29.65888,25.50109 -184.28798,-4.83557 -88.97665,76.50328 35.2026,25.7783 27.16716,166.01024 105.60781,77.33487 l 73.17707,-106.43938 c -68.75183,60.53807 -87.1485,22.04434 -89.80823,-47.39877 z"
         id="path3359"
         style="fill:#2a7fff;fill-opacity:1;fill-rule:evenodd;stroke:none" /><path
         d="M -120,632.36218 V 1176.3622 M -60,632.36218 V 1176.3622 M 0,632.36218 V 1176.3622 M 60,632.36218 V 1176.3622 M 120,632.36218 V 1176.3622 M 180,632.36218 V 1176.3622 M 240,632.36218 V 1176.3622 M 300,632.36218 V 1176.3622 M 360,632.36218 V 1176.3622 M 420,632.36218 V 1176.3622 M -120,632.36218 h 544 m -544,60 h 544 m -544,60 h 544 m -544,60 h 544 m -544,60 h 544 m -544,60 h 544 m -544,60 h 544 m -544,60.00002 h 544 m -544,60 h 544 m -544,60 h 544"
         id="path3860"
         style="fill:none;stroke:#2a7fff;stroke-width:8pt;stroke-linecap:butt;stroke-linejoin:miter;stroke-opacity:1" /><path
         d="M -120,632.36218 H 420 V 1172.3622 H -120 Z"
         id="rect3862"
         style="fill:none;stroke:#2a7fff;stroke-width:10;stroke-linejoin:miter;stroke-miterlimit:4;stroke-dashoffset:17.71;stroke-opacity:1" /><path
         d="M -5,927.36218 H 125 V 1057.3622 H -5 Z"
         id="rect3361"
         style="fill:#2a7fff;fill-opacity:1;stroke:none" /><path
         d="m 444.55773,587.04734 c -44.48832,38.25164 -276.43197,-7.25335 -133.46497,114.75493 52.8039,38.66744 40.75074,249.01535 158.41171,116.0023 L 579.27008,658.1455 C 476.14233,748.9526 448.54733,691.21201 444.55773,587.04734 Z"
         id="path4147"
         style="fill:#2ca02c;fill-opacity:0.686275;fill-rule:evenodd;stroke:none" /><path
         d="M -180,422.36218 V 1238.3622 M -90,422.36218 V 1238.3622 M 0,422.36218 V 1238.3622 M 90,422.36218 V 1238.3622 M 180,422.36218 V 1238.3622 M 270,422.36218 V 1238.3622 M 360,422.36218 V 1238.3622 M 450,422.36218 V 1238.3622 M 540,422.36218 V 1238.3622 M 630,422.36218 V 1238.3622 M -180,422.36218 h 816 m -816,90 h 816 m -816,90 h 816 m -816,90 h 816 m -816,90 h 816 m -816,90 h 816 m -816,90 h 816 m -816,90.00002 h 816 m -816,90 h 816 m -816,90 h 816"
         id="path4149"
         style="fill:none;stroke:#2ca02c;stroke-width:12pt;stroke-linecap:butt;stroke-linejoin:miter;stroke-opacity:0.686275" /><path
         d="M -180,422.36218 H 630 V 1232.3622 H -180 Z"
         id="rect4151"
         style="fill:none;stroke:#2ca02c;stroke-width:15;stroke-linejoin:miter;stroke-miterlimit:4;stroke-dashoffset:17.71;stroke-opacity:0.686275" /><path
         d="m -7.5,864.86218 h 195 v 195.00002 h -195 z"
         id="rect4153"
         style="fill:#2ca02c;fill-opacity:0.686275;stroke:none" /><path
         d="m 259.60921,640.72504 c 0,4.18419 -3.39196,7.57614 -7.57614,7.57614 -4.18419,0 -7.57615,-3.39195 -7.57615,-7.57614 0,-4.18419 3.39196,-7.57615 7.57615,-7.57615 4.18418,0 7.57614,3.39196 7.57614,7.57615 z"
         transform="translate(-252.033,411.637)"
         id="path3209"
         style="fill:#000000;fill-opacity:1;stroke:none" /></g><text
       xml:space="preserve"
       style="font-style:normal;font-weight:normal;font-size:106.327px;line-height:1.25;font-family:sans-serif;fill:#000000;fill-opacity:1;stroke:none;stroke-width:2.65819"
       x="1065.4508"
       y="414.88602"
       id="text520"
       transform="scale(0.98269125,1.0176136)"><tspan
         sodipodi:role="line"
         id="tspan518"
         x="1065.4508"
         y="414.88602"
         style="stroke-width:2.65819">Matrix</tspan><tspan
         sodipodi:role="line"
         x="1065.4508"
         y="547.79474"
         id="tspan522"
         style="stroke-width:2.65819">Programming</tspan><tspan
         sodipodi:role="line"
         x="1065.4508"
         y="680.70355"
         id="tspan524"
         style="stroke-width:2.65819">Language</tspan></text><rect
       style="fill:#00ff00"
       id="rect628"
       width="898.48236"
       height="147.91084"
       x="1036.2954"
       y="0.58677399" /><rect
       style="fill:#00ff00"
       id="rect630"
       width="909.7713"
       height="178.04651"
       x="1037.6267"
       y="910.31421" /></g></svg>
