<?xml version="1.0" encoding="UTF-8" standalone="no"?>
<!DOCTYPE svg PUBLIC "-//W3C//DTD SVG 1.1//EN" "http://www.w3.org/Graphics/SVG/1.1/DTD/svg11.dtd">
<svg
    xmlns:svg="http://www.w3.org/2000/svg"
    xmlns="http://www.w3.org/2000/svg"
    version="1.1"
    width="288.344006989"
    height="346.807970952" viewBox="0 0 319.10001 383.79999"
    id="svg2877">
  <defs id="defs2879">
    <clipPath id="clipPath2735">
      <path
          d="m 0,0 467.7,0 0,623.6 L 0,623.6 0,0 z"
          id="path2737"
      />
    </clipPath>
  </defs>
  <rect
      width="318.70001"
      height="383.39999"
      x="0.16999988"
      y="0.18000004"
      id="rect3152"
      style="fill:#ffffff;fill-opacity:1;stroke:#000000;stroke-width:0.35800001;stroke-miterlimit:4;stroke-opacity:1;stroke-dasharray:none;"
  />
  <path
      d="m 273.2633,342.8272 -8.9186,-21.57426 -0.77855,0 -8.41833,21.57426 18.11548,0 z m -34.95215,19.61627 c 2.2429,-0.1524 4.04849,-1.16949 5.41344,-3.05127 0.88126,-1.18274 2.13689,-3.79339 3.78013,-7.82531 l 20.70957,-51.01357 2.59076,0 20.79902,48.96283 c 2.33566,5.49626 4.08161,9.04449 5.23454,10.64798 1.15292,1.5803 2.78954,2.33898 4.91649,2.27934 l 0,2.36549 -30.17812,0 0,-2.36549 c 3.03471,-0.12258 5.02251,-0.37768 5.9634,-0.77524 0.97071,-0.39425 1.45441,-1.39477 1.45441,-3.00489 0,-0.72886 -0.24185,-1.83209 -0.72555,-3.32294 -0.30479,-0.87463 -0.71229,-1.94142 -1.22912,-3.18379 l -2.36548,-5.64535 -20.93816,0 c -1.36496,3.70393 -2.2429,6.11579 -2.63715,7.2389 -0.82162,2.3953 -1.22912,4.14125 -1.22912,5.23454 0,1.33514 0.89451,2.30585 2.68353,2.91213 1.06016,0.3313 2.65702,0.51683 4.78066,0.54664 l 0,2.36549 -19.02325,0 0,-2.36549 z m -88.62275,-0.0696 c 3.54822,-0.0298 5.85738,-0.64935 6.91754,-1.86522 1.06016,-1.24237 1.59024,-3.09434 1.59356,-5.55259 l 0,-44.23186 c 0,-2.55101 -0.60628,-4.20751 -1.81884,-5.00263 -1.21918,-0.82825 -3.36932,-1.35833 -6.46698,-1.59024 l 0,-2.38536 23.48586,0 18.33083,43.15182 0.79512,0 18.2215,-43.15182 23.48917,0 0,2.38536 c -3.14735,0.23191 -5.3008,0.82825 -6.46035,1.75589 -1.12642,0.92764 -1.72276,3.18048 -1.72276,6.79165 l 0,41.1839 c 0,3.42896 0.59634,5.67517 1.72276,6.73533 1.15955,1.06347 3.313,1.65319 6.46035,1.77577 l 0,2.36548 -30.94342,0 0,-2.36548 c 2.78292,-0.0894 4.83698,-0.54665 6.22844,-1.36496 1.39146,-0.85144 2.12032,-2.68684 2.12032,-5.5062 l 0,-45.57363 -0.69573,0 -22.82657,54.81027 -2.51788,0 -23.07836,-53.71698 -0.41081,0 0,42.20099 c 0,3.09766 0.57646,5.35712 1.72939,6.78172 1.15292,1.4279 3.70393,2.21639 7.6464,2.36879 l 0,2.36548 -21.79954,0 0,-2.36548 z m -62.947,2.3191 0,-2.36548 c 2.673591,-0.0894 4.568627,-0.4572 5.691734,-1.09329 1.729386,-0.97071 2.594079,-2.78955 2.594079,-5.45983 l 0,-45.11643 c 0,-2.71666 -0.897823,-4.53881 -2.686843,-5.49958 -1.030343,-0.56321 -2.898875,-0.92764 -5.59897,-1.09329 l 0,-2.35223 53.70373,0 0,18.78471 -2.28597,0 c -1.15955,-5.99653 -3.18048,-10.10465 -6.02966,-12.32436 -2.81605,-2.21971 -7.98433,-3.313 -15.48827,-3.313 -2.84918,0 -4.67133,0.29817 -5.45983,0.89451 -0.75868,0.56321 -1.13636,1.75589 -1.13636,3.51178 l 0,21.56763 c 5.31074,0.0663 8.90535,-0.89451 10.78713,-2.88231 1.88841,-1.9878 3.313,-5.6321 4.34003,-10.89977 l 2.35223,0 0,31.48344 -2.35223,0 c -0.69573,-5.31074 -2.05406,-9.03787 -4.10812,-11.19463 -2.04081,-2.18327 -5.7083,-3.27656 -11.01904,-3.27656 l 0,22.57147 c 0,1.97455 0.50027,3.32294 1.50079,4.0518 1.03366,0.69905 3.12747,1.04691 6.28145,1.04691 5.95346,0 10.79044,-1.14961 14.56726,-3.45877 3.74369,-2.30585 7.08982,-6.62931 10.00526,-12.9704 l 2.58414,0 -3.77682,19.38768 -54.46572,0 z M 26.1135,310.3598 c 6.191997,-6.5233 14.093502,-9.78329 23.714454,-9.78329 3.849706,0 7.68616,0.72886 11.502736,2.18327 3.84308,1.4279 6.22844,2.1402 7.15608,2.1402 0.9939,0 1.82215,-0.35118 2.41849,-1.05022 0.59634,-0.69574 1.09329,-1.7559 1.49085,-3.1838 l 2.58414,0 0,21.79954 -2.35223,0 c -2.25284,-4.73096 -4.53881,-8.46471 -6.85791,-11.19794 -4.37316,-5.03245 -9.329408,-7.55032 -14.852179,-7.55364 -6.006469,0 -10.389568,2.61065 -13.149297,7.82862 -2.763042,5.22129 -4.14125,12.55958 -4.14125,22.02814 0,7.76898 1.268879,14.68984 3.819889,20.78576 2.577514,6.09592 7.540388,9.11075 14.881996,9.11075 3.972287,0 6.642565,-0.82825 8.007521,-2.48475 0.79512,-0.96077 1.19268,-2.38536 1.19268,-4.3069 l 0,-9.80648 c 0,-2.81605 -0.86138,-4.68127 -2.600705,-5.55921 -1.123107,-0.54665 -3.399138,-0.85144 -6.82478,-0.91439 l 0,-2.36548 31.953885,0 0,2.36548 c -3.21361,0.12258 -5.36706,0.77855 -6.42722,1.95798 -1.02703,1.16949 -1.55711,3.35607 -1.55711,6.56968 l 0,11.86054 c -2.05406,1.29207 -5.40019,2.55101 -10.00526,3.84308 -4.60507,1.25894 -9.766724,1.88841 -15.468397,1.88841 -10.346499,0 -18.615747,-3.24674 -24.804431,-9.77335 -5.76462,-6.09592 -8.64693,-13.74895 -8.64693,-22.94252 0,-9.28634 2.988326,-17.0984 8.964978,-23.43948"
      id="path2727"
      style="fill:#000000;fill-opacity:1;fill-rule:nonzero;stroke:none;"
  />
  <g
      transform="matrix(3.313,0,0,-3.313,-1085.398,2084.14)"
      clip-path="url(#clipPath2735)"
      id="g2733">
    <path
        d="m 333.4,633 85,0 0,-90 -85,0 0,90 z"
        id="path2741"
        style="fill:none;stroke:#d1d2d3;stroke-width:0.5;stroke-linecap:butt;stroke-linejoin:miter;stroke-miterlimit:3.86400008;stroke-opacity:1;stroke-dasharray:none;"
    />
  </g>
  <path
      d="m 20,18.53125 0,266.71875 142.09375,0 0,-48.375 c -1.80794,2.71568 -4.13782,5.18424 -6.875,7.3125 -6.84047,5.31872 -16.26073,8.5625 -26.625,8.5625 -10.38221,0 -19.7807,-3.24377 -26.625,-8.5625 -6.844295,-5.31873 -11.125,-12.73298 -11.125,-20.9375 0,-8.20452 4.280705,-15.61877 11.125,-20.9375 2.25013,-1.74858 4.7848,-3.2682 7.53125,-4.53125 l 0.90625,-67.09375 c -18.920543,5.82094 -27.661061,-1.08272 -33.46875,0.375 -5.83088,1.45441 -10.35591,5.08137 -16.75,10.53125 C 52.5676,148.14355 34,140.15625 34,140.15625 l 13.09375,-10.1875 -2.90625,-2.5625 -16,5.46875 c 0,0 3.64522,-9.45867 2.1875,-20.375 -0.69573,-5.20141 35.279342,-19.29141 48.75,-38.9375 4.190945,-6.12905 -1.09375,-24.75 -1.09375,-24.75 20.01052,2.55101 22.52378,9.36702 27.28125,8.40625 21.88646,-4.445182 41.36514,0.428507 56.78125,7.78125 l 0,-46.46875 -142.09375,0 z m 243.90625,36.0625 c 0,0 -61.73985,26.615045 -96.8125,58.0625 0.27244,6.9295 3.64256,16.07893 8.875,22.09375 7.00369,8.0539 19.16769,18.40567 24.96875,30.53125 7.52051,15.70362 3.71173,30.01847 0.53125,40.15625 -2.45162,7.71929 -9.65625,19.59375 -9.65625,19.59375 l -2.15625,0 c 0,0 1.50843,-4.01784 2.40625,-5.90625 3.10428,-6.52661 4.30356,-9.02181 5.5625,-13.59375 0.92764,-4.60507 2.50071,-9.77035 1.9375,-19.875 -1.62337,-28.75684 -29.59375,-33.84375 -29.59375,-33.84375 l 0,59.71875 0.125,0 c 11.4,19.6 28.79375,28.3 50.59375,27.5 24.7,-0.5 47.5,-25.40625 47.5,-25.40625 -27.1,0.3 -22.4875,-7.4875 -19.6875,-7.6875 35,-2.3 37.6875,-30.9375 37.6875,-30.9375 -15.1,0.68 -27.78125,-3.21 -26.28125,-3.75 34.3,-13.02 34.28125,-39.21875 34.28125,-39.21875 -18,4.97 -42.99375,0.54 -41.09375,0 32.6,-6.13 28.3125,-44.3125 28.3125,-44.3125 -11.2,9.549 -36.80625,9.816 -34.40625,8.5 26.7,-13.791 16.90625,-41.625 16.90625,-41.625 z M 85.625,88.21875 c -2.50219,0 -4.5625,2.026367 -4.5625,4.53125 0,2.504883 2.06031,4.5625 4.5625,4.5625 2.504883,0 4.5625,-2.056853 4.5625,-4.5625 0,-2.505647 -2.057617,-4.53125 -4.5625,-4.53125 z m 76.46875,29.1875 c -3.10139,3.07053 -5.96048,6.16117 -8.40625,9.28125 -20.4495,26.04722 -25.37848,50.80364 -26,67.03125 0.30171,-0.006 0.60282,0 0.90625,0 10.36427,0 19.78453,3.27503 26.625,8.59375 2.73718,2.12826 5.06706,4.59682 6.875,7.3125 l 0,-89.90625 0,-2.3125 z m -30.15625,82.375 c -14.10409,0 -25.90625,10.34275 -25.90625,23.46875 0,13.12323 11.80215,23.46875 25.90625,23.46875 14.11579,0 25.9375,-10.35035 25.9375,-23.46875 0,-13.12117 -11.82171,-23.46875 -25.9375,-23.46875 z"
      id="path2743"
      style="fill:#a6111e;fill-opacity:1;fill-rule:nonzero;stroke:none;"
  />
  <path
      d="m 19.502,18.03 281.605,0 0,267.48 -281.605,0 0,-267.48 z"
      id="path2787"
      style="fill:none;stroke:#d1d2d3;stroke-width:1.56893563;stroke-linecap:butt;stroke-linejoin:miter;stroke-miterlimit:3.86400008;stroke-opacity:1;stroke-dasharray:none;"
  />
</svg>
