<?xml version="1.0" encoding="UTF-8" standalone="no"?>
<!-- Created with Inkscape (http://www.inkscape.org/) -->

<svg
   width="1920px"
   height="1080px"
   viewBox="0 0 1920 1080"
   version="1.1"
   id="SVGRoot"
   sodipodi:docname="FLAG_SUKH.svg"
   inkscape:version="1.2.2 (732a01da63, 2022-12-09, custom)"
   xmlns:inkscape="http://www.inkscape.org/namespaces/inkscape"
   xmlns:sodipodi="http://sodipodi.sourceforge.net/DTD/sodipodi-0.dtd"
   xmlns="http://www.w3.org/2000/svg"
   xmlns:svg="http://www.w3.org/2000/svg">
  <sodipodi:namedview
     id="namedview21"
     pagecolor="#ffffff"
     bordercolor="#666666"
     borderopacity="1.0"
     inkscape:showpageshadow="2"
     inkscape:pageopacity="0.0"
     inkscape:pagecheckerboard="0"
     inkscape:deskcolor="#d1d1d1"
     inkscape:document-units="px"
     showgrid="false"
     inkscape:zoom="0.49638341"
     inkscape:cx="701.07098"
     inkscape:cy="519.75952"
     inkscape:window-width="1920"
     inkscape:window-height="967"
     inkscape:window-x="0"
     inkscape:window-y="0"
     inkscape:window-maximized="1"
     inkscape:current-layer="layer1" />
  <defs
     id="defs16" />
  <g
     inkscape:label="Layer 1"
     inkscape:groupmode="layer"
     id="layer1">
    <rect
       style="fill:#ff00ff"
       id="rect214"
       width="555.49457"
       height="143.49103"
       x="67.354378"
       y="67.11042" />
    <rect
       style="fill:#ff00ff"
       id="rect216"
       width="544.84723"
       height="128.96407"
       x="1297.943"
       y="81.243904" />
    <rect
       style="fill:#ff00ff"
       id="rect218"
       width="581.41644"
       height="145.96202"
       x="47.531303"
       y="812.30524" />
    <rect
       style="fill:#ff00ff"
       id="rect220"
       width="563.75745"
       height="136.87283"
       x="1290.3096"
       y="829.11432" />
    <ellipse
       style="fill:#ff00ff"
       id="path222"
       cx="964.08276"
       cy="536.30499"
       rx="277.89285"
       ry="259.82861" />
    <rect
       style="fill:#ff00ff"
       id="rect224"
       width="414.99393"
       height="61.814301"
       x="130.46713"
       y="260.38339" />
    <rect
       style="fill:#ff00ff"
       id="rect226"
       width="425.97961"
       height="69.557816"
       x="134.15788"
       y="697.38025" />
    <rect
       style="fill:#ff00ff"
       id="rect228"
       width="322.84299"
       height="274.59558"
       x="182.05119"
       y="361.97763" />
    <rect
       style="fill:#ff00ff"
       id="rect230"
       width="408.43082"
       height="78.875206"
       x="1349.4169"
       y="243.75531" />
    <rect
       style="fill:#ff00ff"
       id="rect232"
       width="312.81735"
       height="271.74686"
       x="1402.929"
       y="345.0033" />
    <rect
       style="fill:#ff00ff"
       id="rect234"
       width="487.69949"
       height="71.210388"
       x="1334.3154"
       y="672.85913" />
    <rect
       style="fill:#ff00ff"
       id="rect236"
       width="264.26303"
       height="323.27582"
       x="840.34399"
       y="754.83484" />
    <rect
       style="fill:#ff00ff"
       id="rect238"
       width="262.80719"
       height="379.46347"
       x="838.65204"
       y="-31.336035" />
    <rect
       style="fill:#ff00ff"
       id="rect240"
       width="705.09222"
       height="79.229332"
       x="0.11017189"
       y="3.4782841" />
    <rect
       style="fill:#ff00ff"
       id="rect242"
       width="721.41345"
       height="97.2267"
       x="1202.4633"
       y="-4.4777007" />
    <rect
       style="fill:#ff00ff"
       id="rect244"
       width="750.99457"
       height="163.73117"
       x="-25.142799"
       y="930.19702" />
    <rect
       style="fill:#ff00ff"
       id="rect246"
       width="729.23566"
       height="176.87311"
       x="1203.9585"
       y="917.16528" />
    <rect
       style="fill:#0000ff"
       id="rect354"
       width="173.00136"
       height="170.97104"
       x="249.5"
       y="409.43811" />
    <rect
       style="fill:#0000ff"
       id="rect356"
       width="195.8148"
       height="189.29892"
       x="1460.8007"
       y="381.42297" />
    <ellipse
       style="fill:#0000ff"
       id="path410"
       cx="969.53235"
       cy="526.2085"
       rx="150.11314"
       ry="144.47076" />
    <ellipse
       style="fill:#0000ff"
       id="path412"
       cx="981.05316"
       cy="942.38678"
       rx="63.085213"
       ry="55.518764" />
    <ellipse
       style="fill:#0000ff"
       id="path414"
       cx="974.85992"
       cy="165.18307"
       rx="54.948231"
       ry="48.896648" />
    <path
       sodipodi:type="star"
       style="fill:#0000ff"
       id="path470"
       inkscape:flatsided="false"
       sodipodi:sides="5"
       sodipodi:cx="278.0896"
       sodipodi:cy="103.28615"
       sodipodi:r1="89.611397"
       sodipodi:r2="44.805717"
       sodipodi:arg1="-0.32833215"
       sodipodi:arg2="0.29998638"
       inkscape:rounded="0"
       inkscape:randomized="0"
       d="m 362.91409,74.389634 -42.01977,42.136926 10.88971,58.50296 -53.05943,-26.94215 -52.27451,28.43513 9.22725,-58.78809 -43.19714,-40.929074 58.76217,-9.390888 25.57722,-53.730697 27.08977,52.984204 z"
       inkscape:transform-center-x="0.39245443"
       inkscape:transform-center-y="-8.1830212"
       transform="translate(54.432785)" />
    <path
       sodipodi:type="star"
       style="fill:#ff0000"
       id="path580"
       inkscape:flatsided="false"
       sodipodi:sides="5"
       sodipodi:cx="278.0896"
       sodipodi:cy="103.28615"
       sodipodi:r1="89.611397"
       sodipodi:r2="44.805717"
       sodipodi:arg1="-0.32833215"
       sodipodi:arg2="0.29998638"
       inkscape:rounded="0"
       inkscape:randomized="0"
       d="m 362.91409,74.389634 -42.01977,42.136926 10.88971,58.50296 -53.05943,-26.94215 -52.27451,28.43513 9.22725,-58.78809 -43.19714,-40.929074 58.76217,-9.390888 25.57722,-53.730697 27.08977,52.984204 z"
       inkscape:transform-center-x="0.39245443"
       inkscape:transform-center-y="-8.1830212"
       transform="translate(1295.3854,-8.8688375)" />
    <path
       sodipodi:type="star"
       style="fill:#00ffff"
       id="path582"
       inkscape:flatsided="false"
       sodipodi:sides="5"
       sodipodi:cx="278.0896"
       sodipodi:cy="103.28615"
       sodipodi:r1="89.611397"
       sodipodi:r2="44.805717"
       sodipodi:arg1="-0.32833215"
       sodipodi:arg2="0.29998638"
       inkscape:rounded="0"
       inkscape:randomized="0"
       d="m 362.91409,74.389634 -42.01977,42.136926 10.88971,58.50296 -53.05943,-26.94215 -52.27451,28.43513 9.22725,-58.78809 -43.19714,-40.929074 58.76217,-9.390888 25.57722,-53.730697 27.08977,52.984204 z"
       inkscape:transform-center-x="0.39245443"
       inkscape:transform-center-y="-8.1830212"
       transform="translate(1306.3632,853.40723)" />
    <path
       sodipodi:type="star"
       style="fill:#00ff00"
       id="path584"
       inkscape:flatsided="false"
       sodipodi:sides="5"
       sodipodi:cx="278.0896"
       sodipodi:cy="103.28615"
       sodipodi:r1="89.611397"
       sodipodi:r2="44.805717"
       sodipodi:arg1="-0.32833215"
       sodipodi:arg2="0.29998638"
       inkscape:rounded="0"
       inkscape:randomized="0"
       d="m 362.91409,74.389634 -42.01977,42.136926 10.88971,58.50296 -53.05943,-26.94215 -52.27451,28.43513 9.22725,-58.78809 -43.19714,-40.929074 58.76217,-9.390888 25.57722,-53.730697 27.08977,52.984204 z"
       inkscape:transform-center-x="0.39245443"
       inkscape:transform-center-y="-8.1830212"
       transform="translate(60.444987,870.61765)" />
    <path
       style="fill:#0000ff;stroke-width:2.01457"
       d="m 283.04734,171.1741 c 0,-1.5784 1.8735,-14.39662 4.16335,-28.48494 l 4.16336,-25.61513 -20.45185,-19.076572 c -14.18545,-13.231564 -19.62759,-19.51098 -17.76171,-20.494355 1.47957,-0.779779 13.56881,-3.001972 26.86499,-4.938209 13.29617,-1.936236 24.86258,-4.150365 25.70312,-4.920286 0.84054,-0.769921 6.86281,-12.44096 13.38282,-25.935645 13.73091,-28.419344 11.07811,-28.888821 28.06791,4.967291 11.46742,22.851505 7.97071,20.71732 40.62574,24.795533 30.27092,3.780469 29.65984,1.498678 6.65464,24.848605 l -20.22176,20.524768 4.63855,24.17486 c 2.5512,13.29618 4.69724,25.75675 4.76898,27.69015 0.10523,2.83575 -4.72478,1.09685 -24.98576,-8.9954 l -25.1162,-12.51069 -8.62787,4.36223 c -4.74534,2.39923 -16.10698,8.4382 -25.2481,13.41993 -11.48633,6.25982 -16.62021,8.17122 -16.62021,6.18786 z"
       id="path838" />
    <path
       style="fill:#ffff00;stroke-width:2.01457"
       d="m 283.04734,171.22996 c 0,-1.69393 1.84158,-14.5593 4.0924,-28.58972 l 4.09241,-25.50985 -20.38163,-19.104341 c -14.27109,-13.376728 -19.5749,-19.541798 -17.69077,-20.563471 1.47998,-0.802523 13.90606,-3.098067 27.61352,-5.101209 l 24.92265,-3.642075 12.6795,-25.706625 c 8.94506,-18.135377 13.25617,-24.991777 14.63748,-23.279503 1.07689,1.334918 7.05407,12.625893 13.28262,25.091056 6.22854,12.465163 11.73916,22.663933 12.24582,22.663933 2.55194,0 47.05285,6.255833 51.26386,7.206552 4.52246,1.021035 3.40861,2.590131 -15.3514,21.625685 l -20.22767,20.524768 4.68957,24.17486 c 2.57926,13.29618 4.72797,25.75675 4.77489,27.69015 0.0691,2.84529 -4.70175,1.13079 -25.03087,-8.9954 l -25.1162,-12.51069 -8.62787,4.35352 c -4.74534,2.39444 -16.10698,8.49324 -25.2481,13.55288 -12.2441,6.77715 -16.62021,8.38841 -16.62021,6.11948 z"
       id="path1189" />
    <path
       sodipodi:type="spiral"
       style="fill:none;fill-rule:evenodd;stroke:#000000"
       id="path1244"
       sodipodi:cx="653.98822"
       sodipodi:cy="350.34662"
       sodipodi:expansion="1"
       sodipodi:revolution="3"
       sodipodi:radius="82.202766"
       sodipodi:argument="-17.266027"
       sodipodi:t0="0"
       d="m 653.98822,350.34662 c -0.0525,4.12118 -5.58116,1.96251 -6.84968,-0.0872 -3.43759,-5.55463 1.69563,-11.99044 7.02411,-13.61213 9.5314,-2.90082 18.56898,4.88465 20.3746,13.961 2.64981,13.3199 -8.08906,25.26535 -20.89789,27.13705 -17.07216,2.49469 -32.0073,-11.29527 -33.89952,-27.83478 -2.38115,-20.81329 14.50145,-38.77189 34.77167,-40.66197 24.54996,-2.28915 45.54941,17.70744 47.42444,41.70856 2.20965,28.28449 -20.91328,52.33502 -48.64546,54.18689 -32.01789,2.13806 -59.12603,-24.11901 -60.94935,-55.58234 -2.07176,-35.75064 27.32469,-65.92084 62.51924,-67.71181 39.48296,-2.00921 72.71839,30.53032 74.47427,69.45612 1.94936,43.21502 -33.73594,79.51801 -76.39302,81.23673"
       transform="translate(71.045133,-117.74228)" />
    <path
       sodipodi:type="spiral"
       style="fill:none;fill-rule:evenodd;stroke:#000000"
       id="path1246"
       sodipodi:cx="653.98822"
       sodipodi:cy="350.34662"
       sodipodi:expansion="1"
       sodipodi:revolution="3"
       sodipodi:radius="82.202766"
       sodipodi:argument="-17.266027"
       sodipodi:t0="0"
       d="m 653.98822,350.34662 c -0.0525,4.12118 -5.58116,1.96251 -6.84968,-0.0872 -3.43759,-5.55463 1.69563,-11.99044 7.02411,-13.61213 9.5314,-2.90082 18.56898,4.88465 20.3746,13.961 2.64981,13.3199 -8.08906,25.26535 -20.89789,27.13705 -17.07216,2.49469 -32.0073,-11.29527 -33.89952,-27.83478 -2.38115,-20.81329 14.50145,-38.77189 34.77167,-40.66197 24.54996,-2.28915 45.54941,17.70744 47.42444,41.70856 2.20965,28.28449 -20.91328,52.33502 -48.64546,54.18689 -32.01789,2.13806 -59.12603,-24.11901 -60.94935,-55.58234 -2.07176,-35.75064 27.32469,-65.92084 62.51924,-67.71181 39.48296,-2.00921 72.71839,30.53032 74.47427,69.45612 1.94936,43.21502 -33.73594,79.51801 -76.39302,81.23673"
       transform="matrix(-0.99410149,0,0,0.92317309,1847.4888,-102.5364)" />
  </g>
</svg>
