<?xml version="1.0" standalone="no"?>
<!DOCTYPE svg PUBLIC "-//W3C//DTD SVG 20010904//EN"
 "http://www.w3.org/TR/2001/REC-SVG-20010904/DTD/svg10.dtd">
<svg version="1.0" xmlns="http://www.w3.org/2000/svg"
 width="1509.000000pt" height="1266.000000pt" viewBox="0 0 1509.000000 1266.000000"
 preserveAspectRatio="xMidYMid meet">

<g transform="translate(0.000000,1266.000000) scale(0.100000,-0.100000)"
fill="#000000" stroke="none">
<path d="M7015 12653 c-2620 -75 -4882 -683 -6120 -1645 -133 -103 -411 -374
-498 -484 -136 -173 -264 -403 -321 -574 -54 -164 -70 -271 -70 -470 0 -152 4
-203 22 -287 75 -347 255 -655 567 -969 1359 -1367 4768 -2131 8335 -1869
2056 152 3862 660 4980 1400 471 312 793 640 989 1007 206 386 242 815 101
1213 -558 1570 -3725 2702 -7510 2683 -212 -1 -425 -3 -475 -5z m835 -394
c317 -34 641 -131 940 -280 1060 -531 1675 -1679 1524 -2848 -42 -324 -149
-664 -300 -951 -74 -139 -223 -362 -322 -480 -170 -203 -418 -424 -632 -562
-331 -215 -725 -363 -1132 -424 -145 -22 -478 -29 -634 -15 -791 75 -1508 475
-1985 1108 -287 381 -470 832 -541 1333 -20 144 -17 564 5 715 65 437 210 817
447 1173 483 722 1255 1174 2124 1242 124 10 362 4 506 -11z m-2110 -153 c0
-2 -51 -42 -112 -89 -294 -223 -530 -474 -737 -787 -294 -443 -465 -937 -516
-1487 l-7 -73 -1039 0 -1039 0 0 34 c0 47 46 224 85 326 350 916 1544 1682
3180 2039 99 22 181 40 183 40 1 1 2 -1 2 -3z m3785 -36 c623 -136 1163 -322
1655 -571 406 -204 712 -416 983 -679 285 -276 468 -550 567 -849 35 -106 70
-248 70 -286 0 -13 -110 -15 -1040 -15 -824 0 -1041 3 -1044 13 -2 6 -9 66
-15 132 -53 581 -293 1168 -672 1646 -154 194 -404 435 -599 577 -96 71 -101
75 -70 68 14 -3 88 -20 165 -36z m-5855 -261 c-8 -5 -69 -40 -135 -76 -919
-507 -1502 -1207 -1623 -1948 l-18 -110 -734 -3 c-404 -1 -740 0 -747 2 -13 5
17 128 56 223 184 460 679 902 1427 1277 472 236 1041 446 1653 611 140 37
142 38 121 24z m8040 -75 c949 -271 1679 -605 2225 -1018 154 -116 418 -379
508 -506 37 -52 89 -138 117 -192 50 -96 120 -287 120 -327 l0 -21 -744 0
-745 0 -6 48 c-44 314 -164 621 -354 904 -288 428 -719 799 -1316 1132 -66 37
-106 64 -90 60 17 -4 145 -40 285 -80z m-9801 -2531 c48 -340 199 -678 448
-1006 94 -124 381 -414 518 -524 207 -165 435 -318 678 -453 63 -35 114 -66
112 -68 -9 -9 -468 125 -745 218 -723 242 -1291 521 -1743 858 -176 131 -440
391 -539 532 -105 148 -193 340 -232 503 l-6 27 748 0 748 0 13 -87z m2461 70
c0 -10 7 -79 15 -153 100 -873 554 -1658 1269 -2194 48 -36 83 -66 77 -66 -21
0 -258 52 -416 91 -910 227 -1685 588 -2219 1035 -304 255 -543 549 -673 831
-47 102 -107 289 -125 391 l-15 82 1043 0 c988 0 1044 -1 1044 -17z m8425 -30
c-28 -188 -124 -439 -238 -623 -434 -698 -1351 -1272 -2583 -1615 -202 -57
-598 -149 -615 -143 -5 2 40 40 100 86 681 515 1126 1281 1236 2125 8 65 15
137 15 161 0 23 3 46 7 49 3 4 474 7 1046 7 l1039 0 -7 -47z m1885 33 c0 -30
-51 -186 -84 -260 -311 -682 -1282 -1302 -2727 -1741 -159 -49 -437 -125 -454
-125 -5 0 42 29 105 63 747 411 1279 940 1520 1509 74 177 110 308 145 531 l6
37 744 0 c629 0 745 -2 745 -14z"/>
<path d="M7300 11839 c-136 -15 -306 -49 -430 -86 -63 -19 -119 -38 -123 -42
-4 -4 12 -13 35 -20 24 -7 75 -29 115 -47 298 -141 538 -434 612 -746 11 -46
24 -101 29 -123 9 -38 10 -38 11 -9 2 53 48 218 84 303 120 275 380 520 655
617 28 10 52 21 52 25 0 16 -284 89 -445 114 -120 19 -475 28 -595 14z"/>
<path d="M6285 11286 c-264 -52 -469 -242 -537 -500 -24 -94 -24 -239 1 -338
50 -196 175 -349 358 -442 97 -48 177 -66 304 -66 193 0 344 63 480 200 271
273 261 711 -22 975 -73 68 -193 135 -285 159 -88 23 -217 28 -299 12z"/>
<path d="M8555 11286 c-251 -49 -438 -213 -526 -463 -30 -84 -37 -256 -15
-357 32 -141 118 -281 229 -374 69 -57 190 -118 268 -137 83 -19 257 -19 334
0 228 57 420 246 491 480 14 45 18 92 18 185 0 110 -4 135 -28 205 -37 107
-77 174 -149 252 -67 72 -119 110 -205 153 -118 58 -287 81 -417 56z"/>
<path d="M5282 10188 c-110 -354 -135 -740 -72 -1114 20 -118 79 -346 98 -380
6 -10 18 11 40 69 128 337 426 598 783 688 46 11 98 24 114 29 l30 8 -30 1
c-16 1 -72 12 -124 26 -365 98 -650 359 -786 718 l-21 58 -32 -103z"/>
<path d="M9760 10265 c0 -28 -75 -190 -121 -261 -168 -259 -435 -442 -730
-502 l-94 -19 60 -12 c244 -50 437 -152 606 -320 119 -120 212 -263 264 -406
10 -27 21 -54 25 -58 10 -11 66 184 95 328 77 384 55 795 -61 1178 -25 79 -44
111 -44 72z"/>
<path d="M7423 9875 c-146 -45 -255 -171 -284 -327 -30 -166 58 -346 210 -426
208 -111 463 -27 564 186 30 63 32 74 32 177 0 100 -3 115 -28 166 -53 110
-147 191 -256 223 -65 19 -180 20 -238 1z"/>
<path d="M6315 9024 c-261 -42 -472 -219 -556 -464 -31 -91 -38 -260 -14 -364
28 -127 85 -227 184 -327 148 -147 300 -206 514 -197 185 8 312 64 447 198 84
84 145 188 176 300 27 100 25 274 -5 370 -68 222 -238 393 -456 460 -69 21
-226 34 -290 24z"/>
<path d="M8585 9024 c-230 -37 -426 -180 -520 -380 -44 -93 -56 -144 -62 -260
-11 -212 48 -367 196 -515 148 -147 300 -206 514 -197 185 8 312 64 448 198
358 355 206 973 -278 1127 -77 24 -229 38 -298 27z"/>
<path d="M7531 8155 c-68 -391 -349 -732 -716 -870 -38 -15 -72 -28 -73 -30
-8 -7 189 -65 303 -88 393 -82 804 -67 1175 43 141 43 143 44 79 65 -261 86
-510 306 -642 570 -44 89 -85 213 -101 307 l-13 73 -12 -70z"/>
<path d="M1445 4048 c-2 -7 -171 -913 -375 -2013 -204 -1100 -373 -2008 -376
-2017 -5 -17 19 -18 400 -18 l404 0 6 27 c3 16 96 575 206 1242 110 668 202
1216 203 1217 1 2 235 -556 519 -1239 l517 -1242 142 0 143 0 541 1241 c297
683 541 1241 543 1239 3 -3 362 -2453 362 -2472 0 -10 88 -13 406 -13 l407 0
-6 28 c-3 15 -154 916 -336 2002 -182 1086 -334 1987 -337 2003 l-6 27 -289
-2 -290 -3 -562 -1288 -562 -1288 -26 58 c-14 32 -257 613 -539 1291 l-515
1232 -288 0 c-221 0 -289 -3 -292 -12z"/>
<path d="M6960 2030 l0 -2030 395 0 395 0 0 749 0 750 543 4 c517 3 547 5 642
26 428 96 766 337 934 666 82 160 121 316 128 520 6 152 -5 265 -38 392 -109
420 -494 781 -955 897 -211 54 -264 56 -1190 56 l-854 0 0 -2030z m1715 1339
c289 -29 454 -120 552 -304 65 -123 84 -298 48 -434 -44 -171 -165 -321 -305
-378 -152 -63 -176 -65 -722 -70 l-498 -5 0 601 0 601 408 0 c225 0 458 -5
517 -11z"/>
<path d="M12066 4008 c-18 -41 -1533 -3560 -1692 -3930 l-33 -78 432 0 432 0
176 418 176 417 824 0 824 0 175 -417 175 -418 429 0 c404 0 428 1 422 18 -4
9 -385 923 -848 2030 l-841 2012 -314 0 -314 0 -23 -52z m615 -1790 l286 -723
-288 -3 c-159 -1 -419 -1 -578 0 l-288 3 285 723 c158 397 289 722 292 722 3
0 134 -325 291 -722z"/>
</g>
</svg>
