<?xml version="1.0" encoding="UTF-8" standalone="no"?>
<!-- Created with Inkscape (http://www.inkscape.org/) -->

<svg
   width="1920"
   height="1080"
   viewBox="0 0 1920 1080"
   version="1.1"
   id="svg1"
   xml:space="preserve"
   inkscape:version="1.4.4 (dcaf3e7d9e, 2026-05-05)"
   sodipodi:docname="Windows-2.x-Flag_V1_2026.09.14.svg"
   xmlns:inkscape="http://www.inkscape.org/namespaces/inkscape"
   xmlns:sodipodi="http://sodipodi.sourceforge.net/DTD/sodipodi-0.dtd"
   xmlns="http://www.w3.org/2000/svg"
   xmlns:svg="http://www.w3.org/2000/svg"><sodipodi:namedview
     id="namedview1"
     pagecolor="#ffffff"
     bordercolor="#111111"
     borderopacity="1"
     inkscape:showpageshadow="0"
     inkscape:pageopacity="0"
     inkscape:pagecheckerboard="1"
     inkscape:deskcolor="#d1d1d1"
     inkscape:document-units="px"
     inkscape:zoom="0.39212963"
     inkscape:cx="961.41676"
     inkscape:cy="539.36246"
     inkscape:window-width="1920"
     inkscape:window-height="1097"
     inkscape:window-x="0"
     inkscape:window-y="0"
     inkscape:window-maximized="1"
     inkscape:current-layer="layer1" /><defs
     id="defs1" /><g
     inkscape:label="Layer 1"
     inkscape:groupmode="layer"
     id="layer1"><rect
       style="opacity:0.872478;fill:#0000ff;stroke-width:0"
       id="rect1"
       width="1996.7887"
       height="1167.9811"
       x="-28.051949"
       y="-33.152302" /><g
       fill-opacity="1"
       fill-rule="nonzero"
       stroke="none"
       id="g2"
       transform="matrix(2.4129427,0,0,3.9622829,80.205364,316.45882)">
        <path
   fill="#96c4eb"
   d="m 0,15.602 v 28.45 H 67.158 V 0.601 H 15 c -8.284,0 -15,6.717 -15,15 z M 73.629,117.08 h 80.54 c 8.285,0 15,-6.716 15,-15 V 71.783 H 73.63 V 117.08 Z M 0,102.08 c 0,8.284 6.716,15 15,15 H 67.158 V 50.522 H 0 Z M 154.17,0.602 H 73.629 v 65.172 h 95.54 V 15.602 c 0,-8.283 -6.715,-15 -15,-15"
   id="path1" />
        <path
   fill="#231f20"
   d="m 364.159,10.376 a 1.852,1.852 0 0 0 -0.284,-0.427 c -0.101,-0.109 -0.189,-0.164 -0.261,-0.164 -0.16,0 -0.284,0.431 -0.372,1.291 -0.087,0.861 -0.175,2.496 -0.262,4.904 l -0.221,5.975 c -0.015,0.511 -0.027,1.044 -0.034,1.597 -0.008,0.555 -0.01,1.314 -0.01,2.275 0,1.474 0.119,2.505 0.36,3.097 0.24,0.591 0.674,1.082 1.3,1.476 0.276,0.176 0.684,0.321 1.224,0.437 a 0.165,0.165 0 0 0 0.065,0.023 h 0.045 c 0.655,0.16 0.983,0.401 0.983,0.72 0,0.176 -0.086,0.315 -0.252,0.416 -0.168,0.101 -0.399,0.153 -0.69,0.153 -0.118,0 -0.388,-0.023 -0.811,-0.069 a 43.546,43.546 0 0 0 -4.074,-0.205 c -0.585,0 -1.191,0.046 -1.819,0.137 a 22.89,22.89 0 0 1 -1.007,0.137 0.728,0.728 0 0 1 -0.493,-0.207 c -0.154,-0.138 -0.23,-0.293 -0.23,-0.468 0,-0.117 0.036,-0.232 0.11,-0.348 0.073,-0.116 0.153,-0.189 0.24,-0.217 l 0.131,-0.045 a 0.7,0.7 0 0 1 0.198,-0.043 c 0.772,-0.277 1.291,-0.547 1.554,-0.81 0.262,-0.262 0.458,-0.62 0.59,-1.072 0.307,-0.949 0.61,-3.283 0.908,-7.005 0.3,-3.722 0.45,-7.757 0.45,-12.105 0,-1.999 -0.183,-3.587 -0.548,-4.76 -0.365,-1.175 -0.95,-2.054 -1.752,-2.639 -0.19,-0.16 -0.525,-0.299 -1.007,-0.415 a 0.165,0.165 0 0 0 -0.065,-0.023 l -0.066,-0.02 c -0.525,-0.163 -0.788,-0.398 -0.788,-0.707 0,-0.22 0.073,-0.381 0.219,-0.485 0.146,-0.103 0.372,-0.155 0.679,-0.155 0.13,0 0.48,0.026 1.05,0.079 0.57,0.052 1.073,0.077 1.51,0.077 h 0.35 c 0.06,-0.014 0.133,-0.025 0.22,-0.034 0.09,-0.006 0.228,-0.01 0.42,-0.01 1.026,0 1.708,0.37 2.047,1.107 l 0.021,0.043 10.988,23.243 c 0.087,0.19 0.182,0.332 0.286,0.426 0.103,0.095 0.203,0.143 0.305,0.143 0.103,0 0.2,-0.052 0.295,-0.153 0.095,-0.102 0.203,-0.27 0.32,-0.504 L 387.602,1.577 c 0.014,-0.028 0.044,-0.08 0.088,-0.155 0.202,-0.397 0.545,-0.596 1.025,-0.596 h 0.937 c 0.423,0 0.91,-0.034 1.463,-0.101 0.552,-0.066 0.889,-0.1 1.004,-0.1 0.29,0 0.52,0.052 0.688,0.156 0.167,0.103 0.252,0.25 0.252,0.441 0,0.325 -0.28,0.57 -0.83,0.732 h -0.023 a 2.945,2.945 0 0 0 -0.644,0.142 1.67,1.67 0 0 0 -0.468,0.251 c -0.467,0.307 -0.794,0.675 -0.984,1.104 -0.189,0.43 -0.284,1.083 -0.284,1.956 v 0.57 l 0.459,20.094 v 0.284 c 0.044,2.214 0.576,3.576 1.597,4.085 0.203,0.102 0.51,0.212 0.918,0.329 l 0.131,0.043 h 0.023 c 0.537,0.147 0.807,0.35 0.807,0.612 a 0.524,0.524 0 0 1 -0.262,0.471 c -0.174,0.107 -0.43,0.162 -0.765,0.162 -0.334,0 -1.023,-0.03 -2.063,-0.09 a 45.718,45.718 0 0 0 -2.589,-0.092 c -0.668,0 -1.368,0.046 -2.096,0.137 a 34.01,34.01 0 0 1 -1.157,0.137 c -0.233,0 -0.403,-0.04 -0.513,-0.12 -0.11,-0.08 -0.164,-0.2 -0.164,-0.362 0,-0.203 0.054,-0.363 0.164,-0.48 0.11,-0.117 0.369,-0.24 0.776,-0.372 0.057,-0.014 0.123,-0.036 0.195,-0.065 0.074,-0.029 0.182,-0.08 0.328,-0.154 0.481,-0.232 0.82,-0.569 1.015,-1.005 0.199,-0.437 0.296,-1.137 0.296,-2.1 0,-0.16 -0.007,-0.447 -0.022,-0.864 a 28.02,28.02 0 0 1 -0.022,-0.972 l -0.26,-14.184 c -0.03,-0.789 -0.09,-1.346 -0.177,-1.675 -0.088,-0.329 -0.21,-0.492 -0.371,-0.492 -0.147,0 -0.32,0.125 -0.525,0.372 -0.203,0.248 -0.43,0.628 -0.677,1.138 l -9.506,19.285 c -0.176,0.376 -0.34,0.641 -0.494,0.792 -0.15,0.153 -0.317,0.229 -0.49,0.229 -0.19,0 -0.366,-0.084 -0.527,-0.25 -0.161,-0.166 -0.313,-0.424 -0.46,-0.771 l -9.236,-19.723 m 47.872,15.615 V 6.57 c 0,-1.267 -0.097,-2.163 -0.296,-2.688 -0.198,-0.524 -0.546,-0.969 -1.043,-1.332 -0.35,-0.293 -0.878,-0.503 -1.578,-0.634 h -0.044 c -0.396,-0.074 -0.653,-0.163 -0.77,-0.266 -0.116,-0.103 -0.175,-0.258 -0.175,-0.465 0,-0.22 0.065,-0.377 0.197,-0.464 0.132,-0.089 0.364,-0.134 0.7,-0.134 0.103,0 0.653,0.046 1.654,0.136 0.999,0.093 1.936,0.138 2.813,0.138 1.545,0 3.056,-0.076 4.53,-0.231 0.262,-0.029 0.416,-0.043 0.46,-0.043 0.205,0 0.37,0.059 0.502,0.176 a 0.537,0.537 0 0 1 0.198,0.418 c 0,0.175 -0.06,0.322 -0.185,0.439 -0.123,0.117 -0.418,0.242 -0.882,0.373 -0.393,0.118 -0.698,0.23 -0.916,0.34 a 3.047,3.047 0 0 0 -0.587,0.383 2.57,2.57 0 0 0 -0.794,1.182 c -0.154,0.468 -0.23,1.36 -0.23,2.672 v 19.466 c 0,1.281 0.102,2.205 0.306,2.772 a 3.01,3.01 0 0 0 1.071,1.42 c 0.382,0.29 0.907,0.495 1.575,0.61 a 0.346,0.346 0 0 0 0.088,0.023 c 0.394,0.059 0.656,0.139 0.786,0.24 a 0.522,0.522 0 0 1 0.198,0.437 c 0,0.233 -0.062,0.393 -0.185,0.48 -0.125,0.088 -0.377,0.132 -0.758,0.132 -0.451,0 -1.21,-0.045 -2.275,-0.137 -1.067,-0.09 -1.921,-0.137 -2.564,-0.137 a 39.39,39.39 0 0 0 -4.182,0.229 c -0.29,0.03 -0.466,0.045 -0.524,0.045 -0.235,0 -0.414,-0.05 -0.537,-0.152 a 0.498,0.498 0 0 1 -0.187,-0.41 c 0,-0.317 0.287,-0.592 0.855,-0.823 a 0.4,0.4 0 0 1 0.088,-0.022 c 0.305,-0.1 0.579,-0.217 0.821,-0.35 a 3.97,3.97 0 0 0 0.666,-0.46 3.35,3.35 0 0 0 0.93,-1.346 c 0.183,-0.504 0.274,-1.367 0.274,-2.595 m 48.459,3.087 a 17.435,17.435 0 0 1 -5.323,2.683 c -1.94,0.597 -4.08,0.894 -6.417,0.894 -4.718,0 -8.44,-1.414 -11.17,-4.245 -2.731,-2.831 -4.096,-6.69 -4.096,-11.577 0,-2.467 0.39,-4.743 1.17,-6.829 a 16.287,16.287 0 0 1 3.45,-5.536 13.047,13.047 0 0 1 4.732,-3.239 c 1.798,-0.715 3.84,-1.074 6.133,-1.074 1.343,0 2.632,0.133 3.867,0.396 1.234,0.264 2.456,0.673 3.67,1.23 0.525,0.233 1.128,0.584 1.806,1.053 0.68,0.469 1.122,0.702 1.327,0.702 0.128,0 0.312,-0.068 0.546,-0.208 0.232,-0.139 0.394,-0.209 0.481,-0.209 0.131,0 0.234,0.074 0.308,0.22 0.073,0.146 0.125,0.372 0.153,0.679 l 0.438,4.667 a 6.194,6.194 0 0 1 0.044,0.899 c 0,0.292 -0.038,0.492 -0.11,0.602 -0.074,0.11 -0.198,0.165 -0.372,0.165 -0.35,0 -0.717,-0.446 -1.096,-1.337 -0.264,-0.628 -0.497,-1.11 -0.7,-1.446 -1.257,-1.987 -2.781,-3.517 -4.571,-4.59 -1.789,-1.074 -3.709,-1.612 -5.751,-1.612 -3.494,0 -6.337,1.26 -8.527,3.777 -2.192,2.517 -3.287,5.805 -3.287,9.861 0,4.714 1.154,8.574 3.461,11.58 2.31,3.006 5.239,4.509 8.789,4.509 1.606,0 3.194,-0.313 4.756,-0.942 a 12.98,12.98 0 0 0 4.143,-2.65 c 0.57,-0.54 1.113,-1.248 1.63,-2.125 0.52,-0.876 0.905,-1.315 1.153,-1.315 0.115,0 0.21,0.06 0.284,0.177 a 0.814,0.814 0 0 1 0.109,0.437 c 0,0.059 -0.009,0.154 -0.031,0.285 a 4.313,4.313 0 0 1 -0.1,0.438 l -0.9,3.68 M 482.705,3.77 v 10.882 c 0,0.41 0.139,0.687 0.417,0.833 0.278,0.146 0.964,0.219 2.06,0.219 h 0.44 c 2.827,0 4.87,-0.497 6.13,-1.489 1.26,-0.993 1.89,-2.591 1.89,-4.796 0,-2.278 -0.75,-4.058 -2.25,-5.343 -1.502,-1.284 -3.585,-1.927 -6.248,-1.927 -0.997,0 -1.653,0.113 -1.968,0.34 -0.315,0.226 -0.471,0.653 -0.471,1.281 z m -3.478,22.221 V 6.55 c 0,-1.263 -0.097,-2.154 -0.295,-2.678 -0.197,-0.522 -0.537,-0.97 -1.017,-1.348 a 2.73,2.73 0 0 0 -0.645,-0.359 5.502,5.502 0 0 0 -0.91,-0.25 c -0.379,-0.06 -0.623,-0.138 -0.733,-0.234 -0.11,-0.096 -0.163,-0.232 -0.163,-0.411 0,-0.251 0.053,-0.421 0.163,-0.511 0.11,-0.089 0.332,-0.134 0.67,-0.134 0.128,0 0.68,0.04 1.65,0.117 0.97,0.08 1.872,0.118 2.707,0.118 0.32,0 1.237,-0.039 2.748,-0.118 a 79.648,79.648 0 0 1 4.022,-0.117 c 3.01,0 5.358,0.671 7.046,2.015 1.686,1.342 2.53,3.202 2.53,5.581 a 7.65,7.65 0 0 1 -1.465,4.564 c -0.979,1.365 -2.355,2.44 -4.135,3.229 l 5.141,7.853 c 0.133,0.204 0.323,0.488 0.572,0.852 2.116,3.25 3.737,5.157 4.863,5.725 0.308,0.161 0.72,0.292 1.238,0.393 0.52,0.103 0.779,0.27 0.779,0.503 0,0.307 -0.157,0.517 -0.472,0.635 -0.312,0.115 -0.98,0.174 -2.002,0.174 -1.445,0 -2.7,-0.374 -3.764,-1.124 -1.065,-0.75 -2.334,-2.283 -3.809,-4.596 l -4.68,-7.402 c -0.455,-0.7 -0.947,-1.182 -1.482,-1.445 -0.533,-0.262 -1.501,-0.395 -2.908,-0.395 -0.906,0 -1.496,0.11 -1.767,0.33 -0.271,0.218 -0.405,0.634 -0.405,1.248 v 7.27 c 0,1.295 0.112,2.222 0.339,2.784 0.227,0.56 0.625,1.028 1.196,1.407 0.381,0.278 0.957,0.481 1.734,0.611 a 0.644,0.644 0 0 0 0.11,0.023 c 0.436,0.059 0.727,0.139 0.866,0.24 0.14,0.102 0.207,0.247 0.207,0.437 0,0.233 -0.058,0.393 -0.175,0.48 -0.117,0.088 -0.342,0.132 -0.678,0.132 -0.192,0 -0.84,-0.045 -1.95,-0.137 a 37.658,37.658 0 0 0 -3.065,-0.137 c -1.548,0 -3.052,0.077 -4.512,0.229 a 6.36,6.36 0 0 1 -0.48,0.045 c -0.22,0 -0.392,-0.05 -0.516,-0.152 a 0.498,0.498 0 0 1 -0.186,-0.41 c 0,-0.318 0.3,-0.592 0.899,-0.823 l 0.066,-0.022 c 0.305,-0.1 0.584,-0.217 0.83,-0.35 a 3.09,3.09 0 0 0 0.656,-0.46 c 0.438,-0.378 0.745,-0.81 0.921,-1.292 0.173,-0.481 0.26,-1.364 0.26,-2.649 m 39.826,-10.924 c 0,1.78 0.244,3.52 0.733,5.22 a 20.622,20.622 0 0 0 2.18,4.957 c 1.196,2 2.664,3.513 4.399,4.541 1.738,1.03 3.695,1.544 5.87,1.544 3.84,0 6.88,-1.24 9.12,-3.722 2.242,-2.48 3.362,-5.857 3.362,-10.132 0,-1.781 -0.292,-3.594 -0.876,-5.439 a 19.31,19.31 0 0 0 -2.498,-5.132 c -1.18,-1.752 -2.61,-3.08 -4.28,-3.984 -1.672,-0.905 -3.552,-1.358 -5.64,-1.358 -3.722,0 -6.713,1.234 -8.976,3.7 -2.264,2.465 -3.394,5.734 -3.394,9.805 z m -3.36,1.37 c 0,-2.203 0.407,-4.308 1.217,-6.315 a 16.352,16.352 0 0 1 3.537,-5.372 15.385,15.385 0 0 1 5.181,-3.535 C 527.575,0.406 529.66,0 531.882,0 c 2.44,0 4.645,0.395 6.625,1.182 a 14.793,14.793 0 0 1 5.225,3.524 c 1.402,1.46 2.483,3.17 3.243,5.133 0.759,1.962 1.14,4.045 1.14,6.248 0,2.13 -0.351,4.17 -1.053,6.118 -0.7,1.948 -1.693,3.659 -2.978,5.133 -1.577,1.793 -3.397,3.162 -5.457,4.102 -2.057,0.941 -4.277,1.412 -6.657,1.412 -4.849,0 -8.775,-1.513 -11.775,-4.54 -3.003,-3.028 -4.503,-6.986 -4.503,-11.875 m 47.648,13.053 -0.978,-5.024 a 2.142,2.142 0 0 1 -0.065,-0.33 4.091,4.091 0 0 1 -0.02,-0.482 c 0,-0.248 0.042,-0.431 0.13,-0.548 0.085,-0.117 0.217,-0.176 0.39,-0.176 0.32,0 0.645,0.461 0.98,1.383 0.288,0.833 0.57,1.528 0.847,2.083 0.7,1.405 1.742,2.513 3.132,3.324 1.386,0.813 2.949,1.218 4.685,1.218 2.263,0 4.078,-0.624 5.444,-1.874 1.365,-1.25 2.049,-2.898 2.049,-4.945 0,-1.696 -0.508,-3.03 -1.524,-4.001 -1.015,-0.973 -2.993,-1.89 -5.928,-2.753 -3.486,-1.021 -5.893,-2.2 -7.228,-3.536 -1.334,-1.335 -2,-3.155 -2,-5.463 0,-2.422 0.908,-4.396 2.725,-5.921 1.816,-1.525 4.19,-2.289 7.123,-2.289 1.634,0 3.372,0.364 5.21,1.089 0.497,0.19 0.81,0.284 0.94,0.284 0.203,0 0.44,-0.079 0.705,-0.239 0.27,-0.16 0.43,-0.24 0.49,-0.24 0.07,0 0.135,0.059 0.194,0.175 0.056,0.115 0.094,0.26 0.108,0.435 l 0.625,5.474 c 0.015,0.074 0.025,0.154 0.032,0.241 0.008,0.088 0.011,0.204 0.011,0.35 0,0.219 -0.043,0.38 -0.13,0.481 -0.086,0.103 -0.216,0.154 -0.39,0.154 -0.33,0 -0.62,-0.342 -0.866,-1.029 -0.244,-0.686 -0.502,-1.24 -0.779,-1.663 -0.935,-1.49 -1.952,-2.56 -3.056,-3.208 -1.104,-0.65 -2.437,-0.975 -4,-0.975 -1.914,0 -3.497,0.53 -4.755,1.589 -1.255,1.057 -1.882,2.382 -1.882,3.974 0,1.43 0.397,2.55 1.193,3.362 0.797,0.81 2.595,1.668 5.4,2.573 2.35,0.73 3.998,1.317 4.944,1.763 0.948,0.445 1.708,0.93 2.276,1.457 0.977,0.89 1.7,1.905 2.165,3.043 0.467,1.139 0.702,2.445 0.702,3.92 0,2.877 -0.987,5.158 -2.955,6.844 -1.968,1.686 -4.658,2.53 -8.072,2.53 -2.098,0 -3.896,-0.295 -5.39,-0.882 -1.493,-0.59 -2.322,-1.31 -2.482,-2.168 m 37.221,-14.423 c 0,1.78 0.244,3.52 0.733,5.22 a 20.622,20.622 0 0 0 2.18,4.957 c 1.196,2 2.663,3.513 4.4,4.541 1.737,1.03 3.693,1.544 5.868,1.544 3.84,0 6.88,-1.24 9.122,-3.722 2.24,-2.48 3.36,-5.857 3.36,-10.132 0,-1.781 -0.292,-3.594 -0.875,-5.439 a 19.31,19.31 0 0 0 -2.498,-5.132 c -1.181,-1.752 -2.61,-3.08 -4.28,-3.984 -1.672,-0.905 -3.552,-1.358 -5.64,-1.358 -3.722,0 -6.714,1.234 -8.976,3.7 -2.264,2.465 -3.394,5.734 -3.394,9.805 z m -3.36,1.37 c 0,-2.203 0.406,-4.308 1.216,-6.315 a 16.352,16.352 0 0 1 3.538,-5.372 15.385,15.385 0 0 1 5.181,-3.535 C 609.084,0.406 611.17,0 613.391,0 c 2.439,0 4.645,0.395 6.625,1.182 a 14.793,14.793 0 0 1 5.225,3.524 c 1.401,1.46 2.483,3.17 3.243,5.133 0.758,1.962 1.14,4.045 1.14,6.248 0,2.13 -0.352,4.17 -1.053,6.118 -0.7,1.948 -1.694,3.659 -2.979,5.133 -1.576,1.793 -3.396,3.162 -5.456,4.102 -2.057,0.941 -4.277,1.412 -6.657,1.412 -4.85,0 -8.775,-1.513 -11.775,-4.54 -3.003,-3.028 -4.503,-6.986 -4.503,-11.875 m 50.218,9.559 V 6.562 c 0,-1.265 -0.1,-2.16 -0.295,-2.683 -0.198,-0.524 -0.538,-0.975 -1.02,-1.353 a 3.108,3.108 0 0 0 -0.665,-0.36 5.33,5.33 0 0 0 -0.93,-0.251 c -0.382,-0.059 -0.628,-0.136 -0.745,-0.233 -0.117,-0.096 -0.173,-0.232 -0.173,-0.41 0.014,-0.266 0.075,-0.442 0.185,-0.53 0.11,-0.09 0.333,-0.14 0.666,-0.156 0.06,0 0.264,0.014 0.614,0.043 2.304,0.155 4.734,0.231 7.288,0.231 h 2.108 c 1.84,0 3.778,-0.068 5.82,-0.203 2.044,-0.135 3.168,-0.202 3.373,-0.202 0.305,0 0.51,0.06 0.612,0.177 0.103,0.118 0.154,0.347 0.154,0.685 0,0.06 -0.01,0.155 -0.025,0.288 -0.014,0.132 -0.021,0.25 -0.021,0.352 l -0.345,3.668 c -0.029,0.349 -0.088,0.592 -0.173,0.73 a 0.425,0.425 0 0 1 -0.386,0.207 c -0.185,0 -0.322,-0.068 -0.407,-0.207 -0.085,-0.138 -0.128,-0.338 -0.128,-0.6 0,-0.058 0.005,-0.145 0.02,-0.263 0.015,-0.115 0.023,-0.195 0.023,-0.238 0,-1.093 -0.392,-1.857 -1.173,-2.294 -0.781,-0.436 -2.214,-0.655 -4.301,-0.655 h -3.13 c -1.48,0 -2.428,0.124 -2.845,0.371 -0.418,0.248 -0.625,0.721 -0.625,1.419 v 9.231 c 0,0.805 0.091,1.293 0.274,1.461 0.183,0.168 0.603,0.253 1.262,0.253 h 3.686 c 1.383,0 2.383,-0.11 3.002,-0.33 0.62,-0.22 1.11,-0.594 1.473,-1.121 0.147,-0.219 0.305,-0.618 0.482,-1.197 0.173,-0.578 0.415,-0.868 0.72,-0.868 0.176,0 0.29,0.062 0.35,0.187 0.057,0.124 0.087,0.406 0.087,0.845 0,0.249 -0.03,0.845 -0.086,1.79 a 41.14,41.14 0 0 0 -0.088,2.449 c 0,0.644 0.047,1.292 0.142,1.944 0.093,0.651 0.142,0.991 0.142,1.021 0,0.262 -0.064,0.486 -0.186,0.669 -0.121,0.183 -0.271,0.275 -0.444,0.275 -0.361,0 -0.594,-0.359 -0.696,-1.075 -0.07,-0.513 -0.151,-0.887 -0.236,-1.12 a 2.288,2.288 0 0 0 -1.314,-1.328 c -0.628,-0.255 -1.626,-0.384 -2.998,-0.384 h -4.256 c -0.556,0 -0.912,0.084 -1.074,0.253 -0.16,0.169 -0.242,0.575 -0.242,1.217 v 7.773 c 0,1.28 0.105,2.204 0.317,2.77 0.213,0.567 0.574,1.04 1.088,1.417 0.38,0.29 0.907,0.495 1.581,0.61 a 0.359,0.359 0 0 0 0.088,0.023 c 0.396,0.059 0.655,0.135 0.78,0.229 0.123,0.096 0.195,0.245 0.208,0.448 0,0.233 -0.062,0.393 -0.187,0.48 -0.123,0.088 -0.374,0.132 -0.754,0.132 -0.422,0 -1.19,-0.045 -2.297,-0.137 a 34.372,34.372 0 0 0 -2.692,-0.137 c -1.137,0 -2.31,0.077 -3.522,0.229 -0.249,0.03 -0.403,0.045 -0.459,0.045 -0.205,0 -0.361,-0.054 -0.471,-0.163 -0.11,-0.107 -0.164,-0.255 -0.164,-0.442 0,-0.144 0.049,-0.274 0.151,-0.39 0.103,-0.115 0.32,-0.253 0.655,-0.412 0.247,-0.1 0.47,-0.217 0.664,-0.35 0.198,-0.13 0.374,-0.283 0.534,-0.458 0.365,-0.423 0.621,-0.905 0.775,-1.444 0.151,-0.54 0.229,-1.37 0.229,-2.494 m 42.605,0.413 V 3.775 c 0,-0.425 -0.09,-0.716 -0.274,-0.878 -0.18,-0.16 -0.505,-0.24 -0.971,-0.24 h -6.23 c -0.804,0 -1.463,0.198 -1.98,0.592 -0.518,0.393 -0.982,1.052 -1.39,1.972 -0.103,0.25 -0.217,0.616 -0.347,1.101 -0.187,0.72 -0.44,1.085 -0.758,1.1 -0.174,-0.015 -0.29,-0.058 -0.345,-0.132 -0.06,-0.074 -0.088,-0.228 -0.088,-0.464 0,-0.176 0.003,-0.322 0.01,-0.44 a 5.82,5.82 0 0 1 0.031,-0.332 l 0.467,-4.515 c 0.043,-0.389 0.14,-0.645 0.296,-0.768 0.154,-0.124 0.551,-0.185 1.194,-0.185 0.187,0 0.87,0.046 2.045,0.136 1.175,0.093 2.25,0.138 3.227,0.138 h 14.004 c 1.09,0 2.266,-0.045 3.536,-0.138 1.266,-0.09 1.996,-0.136 2.185,-0.136 0.305,0 0.529,0.061 0.674,0.184 0.146,0.122 0.231,0.321 0.261,0.594 l 0.313,4.076 v 0.307 c 0,0.293 -0.044,0.508 -0.13,0.647 -0.088,0.14 -0.227,0.208 -0.415,0.208 -0.32,0 -0.53,-0.292 -0.633,-0.877 -0.1,-0.584 -0.217,-0.993 -0.346,-1.228 -0.29,-0.583 -0.758,-1.037 -1.396,-1.358 -0.638,-0.322 -1.38,-0.483 -2.223,-0.483 h -5.815 c -0.544,0 -0.91,0.081 -1.101,0.241 -0.19,0.162 -0.285,0.47 -0.285,0.922 v 22.766 c 0,1.359 0.115,2.262 0.341,2.707 0.228,0.447 0.676,0.815 1.353,1.108 0.337,0.161 0.79,0.299 1.365,0.416 0.073,0.014 0.13,0.029 0.176,0.044 0.395,0.057 0.651,0.134 0.769,0.227 0.117,0.094 0.175,0.235 0.175,0.422 0,0.231 -0.08,0.4 -0.242,0.508 -0.16,0.108 -0.41,0.163 -0.745,0.163 -0.366,0 -1.117,-0.051 -2.257,-0.153 a 33.378,33.378 0 0 0 -2.851,-0.152 c -1.012,0 -2.072,0.066 -3.182,0.196 -1.11,0.13 -1.718,0.195 -1.82,0.195 -0.262,0 -0.472,-0.054 -0.626,-0.162 a 0.514,0.514 0 0 1 -0.23,-0.444 c 0,-0.23 0.08,-0.404 0.239,-0.519 0.161,-0.115 0.511,-0.209 1.05,-0.281 0.059,-0.015 0.13,-0.03 0.217,-0.044 0.51,-0.117 0.89,-0.227 1.135,-0.33 0.628,-0.276 1.053,-0.635 1.278,-1.072 0.226,-0.439 0.339,-1.44 0.339,-3.005 m -354.322,73.62 V 53.743 c 0,-3.033 -0.235,-5.178 -0.705,-6.433 -0.47,-1.255 -1.296,-2.317 -2.48,-3.19 -0.837,-0.696 -2.09,-1.202 -3.76,-1.517 h -0.105 c -0.94,-0.173 -1.55,-0.38 -1.828,-0.625 -0.28,-0.243 -0.418,-0.608 -0.418,-1.094 0,-0.52 0.156,-0.884 0.469,-1.094 0.312,-0.207 0.869,-0.312 1.669,-0.312 0.242,0 1.555,0.117 3.935,0.352 2.38,0.234 4.613,0.351 6.7,0.351 3.685,0 7.28,-0.197 10.79,-0.593 0.626,-0.073 0.99,-0.11 1.096,-0.11 0.486,0 0.886,0.14 1.199,0.42 0.312,0.28 0.47,0.613 0.47,0.997 0,0.42 -0.148,0.77 -0.443,1.05 -0.296,0.281 -0.999,0.578 -2.11,0.893 -0.937,0.278 -1.667,0.548 -2.187,0.81 -0.522,0.26 -0.99,0.565 -1.407,0.912 a 6.12,6.12 0 0 0 -1.9,2.817 c -0.365,1.114 -0.547,3.236 -0.547,6.366 v 46.39 c 0,3.082 0.244,5.307 0.731,6.673 0.488,1.365 1.34,2.503 2.559,3.414 0.906,0.7 2.16,1.191 3.761,1.471 a 0.842,0.842 0 0 0 0.209,0.053 c 0.94,0.138 1.566,0.326 1.88,0.569 0.312,0.24 0.47,0.584 0.47,1.032 0,0.552 -0.149,0.93 -0.445,1.135 -0.295,0.208 -0.896,0.31 -1.799,0.31 -1.08,0 -2.889,-0.105 -5.427,-0.313 -2.54,-0.207 -4.575,-0.312 -6.107,-0.312 -3.27,0 -6.592,0.176 -9.966,0.522 -0.696,0.07 -1.114,0.103 -1.252,0.103 -0.558,0 -0.985,-0.125 -1.28,-0.369 -0.295,-0.246 -0.443,-0.584 -0.443,-1.006 0,-0.776 0.679,-1.445 2.038,-2.009 a 0.916,0.916 0 0 1 0.208,-0.054 11.71,11.71 0 0 0 1.96,-0.834 9.227,9.227 0 0 0 1.592,-1.097 c 1.045,-0.937 1.785,-2.006 2.22,-3.207 0.435,-1.199 0.653,-3.263 0.653,-6.185 m 32.689,-3.379 0.886,-27.885 c 0.034,-0.662 0.06,-1.377 0.078,-2.146 0.017,-0.767 0.025,-1.866 0.025,-3.296 0,-4.883 -0.358,-8.66 -1.068,-11.328 -0.712,-2.668 -1.883,-4.822 -3.516,-6.461 -1.189,-1.143 -2.78,-2.018 -4.771,-2.624 -1.993,-0.608 -2.989,-1.293 -2.989,-2.054 0,-0.45 0.131,-0.771 0.394,-0.961 0.261,-0.191 0.779,-0.304 1.549,-0.339 0.173,0 0.787,0.043 1.837,0.126 a 34.87,34.87 0 0 0 2.783,0.127 h 2.865 c 1.042,0 1.756,0.086 2.138,0.256 0.382,0.171 0.782,0.497 1.2,0.975 l 51.082,57.336 c 0.348,0.349 0.602,0.577 0.758,0.682 0.157,0.104 0.29,0.156 0.394,0.156 0.103,0 0.18,-0.15 0.234,-0.444 0.051,-0.299 0.079,-0.76 0.079,-1.388 V 60.864 c 0,-5.441 -0.29,-9.304 -0.863,-11.589 -0.576,-2.285 -1.562,-3.88 -2.956,-4.788 -1.186,-0.726 -2.774,-1.322 -4.761,-1.79 -1.99,-0.466 -2.983,-1.046 -2.983,-1.74 0,-0.38 0.121,-0.708 0.366,-0.986 0.244,-0.276 0.523,-0.415 0.837,-0.415 0.207,0 1.262,0.144 3.162,0.43 1.899,0.286 3.735,0.429 5.513,0.429 1.987,0 4.137,-0.143 6.455,-0.429 2.317,-0.286 3.616,-0.43 3.893,-0.43 0.663,0.034 1.168,0.164 1.517,0.388 0.348,0.223 0.522,0.525 0.522,0.902 0,0.379 -0.095,0.68 -0.287,0.904 -0.192,0.225 -0.635,0.456 -1.334,0.696 l -0.105,0.054 c -0.871,0.279 -1.533,0.61 -1.985,0.992 -0.976,0.874 -1.709,2.155 -2.196,3.847 -0.49,1.692 -0.733,3.81 -0.733,6.357 v 58.875 c 0,1.15 -0.096,1.897 -0.286,2.245 -0.19,0.347 -0.513,0.521 -0.964,0.521 -0.245,0 -0.52,-0.105 -0.832,-0.317 -0.313,-0.212 -0.68,-0.567 -1.094,-1.06 L 375.27,59.66 a 7.377,7.377 0 0 0 -0.731,-0.732 c -0.245,-0.21 -0.384,-0.314 -0.418,-0.314 -0.174,0 -0.322,0.105 -0.445,0.314 -0.122,0.21 -0.2,0.506 -0.234,0.889 l -0.95,37.775 c 0,0.591 -0.017,1.358 -0.05,2.298 -0.037,0.94 -0.055,1.601 -0.055,1.985 0,2.925 0.305,5.022 0.915,6.292 0.612,1.272 1.737,2.324 3.374,3.16 0.696,0.348 1.708,0.59 3.033,0.73 h 0.105 c 0.8,0.07 1.333,0.2 1.595,0.39 0.26,0.192 0.392,0.494 0.392,0.912 0,0.52 -0.149,0.877 -0.444,1.067 -0.296,0.19 -0.967,0.286 -2.012,0.286 -0.593,0 -2.249,-0.091 -4.965,-0.273 -2.718,-0.182 -5.123,-0.274 -7.211,-0.274 -1.222,0 -2.563,0.092 -4.025,0.274 -1.464,0.182 -2.3,0.273 -2.51,0.273 -0.522,0 -0.888,-0.086 -1.097,-0.257 -0.21,-0.172 -0.313,-0.431 -0.313,-0.776 0,-0.825 0.695,-1.496 2.083,-2.014 h 0.052 a 0.407,0.407 0 0 1 0.156,-0.051 c 1.041,-0.315 1.822,-0.628 2.344,-0.943 2.812,-1.742 4.322,-6.26 4.532,-13.55 V 96.65 m 83.82,6.334 c 0,1.29 0.086,2.26 0.261,2.905 0.174,0.645 0.453,1.108 0.835,1.386 1.324,1.011 3.482,1.865 6.475,2.564 2.995,0.698 6.148,1.045 9.455,1.045 9.575,0 16.957,-2.685 22.144,-8.056 5.189,-5.372 7.784,-13.048 7.784,-23.023 0,-11.44 -3.301,-20.527 -9.898,-27.26 -6.6,-6.731 -15.522,-10.099 -26.767,-10.099 -4.214,0 -6.98,0.438 -8.304,1.309 -1.322,0.872 -1.985,2.721 -1.985,5.546 z m -8.437,-0.994 V 51.76 c 0,-2.608 -0.254,-4.46 -0.762,-5.556 -0.505,-1.097 -1.406,-2.027 -2.697,-2.792 -0.665,-0.382 -1.641,-0.712 -2.933,-0.99 a 1.798,1.798 0 0 0 -0.263,-0.053 c -0.943,-0.174 -1.553,-0.364 -1.834,-0.573 -0.278,-0.207 -0.418,-0.52 -0.418,-0.937 0,-0.347 0.208,-0.652 0.628,-0.913 0.417,-0.259 0.957,-0.39 1.621,-0.39 0.034,0 1.228,0.078 3.581,0.234 2.354,0.156 4.68,0.235 6.98,0.235 1.778,0 4.698,-0.079 8.76,-0.235 4.06,-0.156 7.224,-0.234 9.49,-0.234 12.83,0 22.903,3.234 30.225,9.699 7.32,6.466 10.982,15.381 10.982,26.744 0,11.71 -3.732,21.076 -11.188,28.1 -7.457,7.023 -17.46,10.535 -30.006,10.535 -3.45,0 -7.205,-0.105 -11.265,-0.313 -4.06,-0.207 -6.421,-0.312 -7.083,-0.312 -2.126,0 -4.252,0.21 -6.38,0.625 -2.126,0.417 -3.205,0.625 -3.238,0.625 -0.49,0 -0.934,-0.15 -1.334,-0.444 -0.4,-0.301 -0.6,-0.606 -0.6,-0.922 0,-0.487 0.172,-0.89 0.522,-1.206 0.347,-0.315 1.028,-0.63 2.04,-0.943 0.138,-0.07 0.345,-0.157 0.624,-0.262 0.976,-0.416 1.655,-0.799 2.038,-1.147 a 6.262,6.262 0 0 0 1.933,-2.894 c 0.384,-1.165 0.577,-2.984 0.577,-5.45 m 75.637,-28.029 c 0,4.248 0.584,8.4 1.753,12.455 1.167,4.054 2.903,7.997 5.205,11.826 2.86,4.77 6.367,8.383 10.517,10.837 4.154,2.454 8.829,3.679 14.026,3.679 9.175,0 16.44,-2.96 21.795,-8.878 5.354,-5.917 8.032,-13.976 8.032,-24.176 0,-4.246 -0.698,-8.57 -2.094,-12.974 A 46.114,46.114 0 0 0 572.68,54.484 c -2.828,-4.177 -6.235,-7.345 -10.229,-9.503 -3.995,-2.158 -8.486,-3.237 -13.475,-3.237 -8.896,0 -16.047,2.941 -21.455,8.824 -5.407,5.884 -8.11,13.683 -8.11,23.394 z m -7.969,3.277 c 0,-5.261 0.967,-10.286 2.903,-15.076 1.936,-4.79 4.751,-9.067 8.447,-12.829 3.592,-3.693 7.718,-6.506 12.373,-8.44 4.656,-1.934 9.635,-2.9 14.935,-2.9 5.825,0 11.099,0.941 15.825,2.822 4.724,1.882 8.884,4.685 12.475,8.413 3.347,3.484 5.929,7.57 7.742,12.255 1.814,4.685 2.722,9.659 2.722,14.917 0,5.088 -0.837,9.956 -2.512,14.608 -1.675,4.65 -4.046,8.735 -7.115,12.252 -3.766,4.288 -8.107,7.554 -13.025,9.8 -4.916,2.247 -10.218,3.37 -15.902,3.37 -11.58,0 -20.953,-3.614 -28.118,-10.842 -7.168,-7.23 -10.75,-16.68 -10.75,-28.35 m 104.327,37.473 -26.555,-64.16 c -0.804,-1.876 -1.64,-3.423 -2.51,-4.638 -0.872,-1.217 -1.778,-2.119 -2.718,-2.71 -0.349,-0.174 -0.905,-0.383 -1.672,-0.627 a 4.086,4.086 0 0 1 -0.367,-0.103 l -0.053,-0.052 c -1.323,-0.346 -1.985,-0.867 -1.985,-1.563 0,-0.417 0.163,-0.729 0.496,-0.938 0.332,-0.207 0.881,-0.33 1.647,-0.365 a 12,12 0 0 1 0.94,0.099 c 2.718,0.299 5.367,0.447 7.948,0.447 1.74,0 3.517,-0.09 5.331,-0.272 1.811,-0.183 2.751,-0.274 2.823,-0.274 0.59,0 1.045,0.114 1.357,0.339 0.315,0.226 0.471,0.547 0.471,0.965 0,0.312 -0.715,0.877 -2.143,1.694 -1.428,0.817 -2.144,1.99 -2.144,3.518 0,0.627 0.149,1.435 0.445,2.424 0.295,0.992 0.759,2.216 1.386,3.676 l 20.01,47.8 c 0.21,0.523 0.444,0.934 0.705,1.23 0.261,0.296 0.514,0.443 0.758,0.443 0.243,0 0.505,-0.156 0.783,-0.469 0.278,-0.315 0.523,-0.715 0.733,-1.203 l 8.364,-20.386 c 0.138,-0.312 0.243,-0.634 0.315,-0.967 a 5.263,5.263 0 0 0 0.027,-1.96 5.982,5.982 0 0 0 -0.237,-0.994 L 619.519,50.551 c -0.767,-1.84 -1.593,-3.386 -2.48,-4.637 -0.887,-1.25 -1.8,-2.154 -2.74,-2.71 -0.94,-0.52 -2.142,-0.842 -3.604,-0.963 -1.463,-0.122 -2.193,-0.547 -2.193,-1.277 0.035,-0.487 0.218,-0.834 0.548,-1.043 0.332,-0.207 0.861,-0.33 1.594,-0.365 0.173,0 1.446,0.091 3.813,0.274 2.37,0.182 4.634,0.272 6.795,0.272 1.635,0 3.35,-0.09 5.144,-0.272 1.794,-0.183 2.779,-0.274 2.954,-0.274 0.556,0 0.967,0.088 1.229,0.261 0.26,0.174 0.39,0.452 0.39,0.834 0,0.384 -0.733,0.914 -2.195,1.59 -1.465,0.679 -2.198,1.676 -2.198,2.998 0,0.765 0.133,1.626 0.394,2.58 0.261,0.956 0.776,2.407 1.542,4.353 l 5.438,12.83 c 0.174,0.454 0.339,0.784 0.497,0.994 0.157,0.21 0.287,0.312 0.392,0.312 0.105,0 0.2,-0.068 0.287,-0.207 0.089,-0.14 0.235,-0.454 0.445,-0.942 l 2.249,-5.25 c 1.566,-3.826 2.675,-6.8 3.32,-8.923 0.644,-2.122 0.966,-3.792 0.966,-5.01 0,-1.009 -0.322,-1.817 -0.966,-2.427 -0.645,-0.609 -1.716,-1.07 -3.215,-1.383 -0.978,-0.209 -1.649,-0.426 -2.015,-0.652 -0.366,-0.227 -0.549,-0.514 -0.549,-0.862 0,-0.382 0.156,-0.66 0.471,-0.835 0.313,-0.173 0.838,-0.26 1.57,-0.26 0.488,0 1.41,0.067 2.773,0.198 0.14,0 0.242,0.017 0.312,0.05 0.28,0 0.768,0.034 1.465,0.099 1.71,0.133 3.053,0.198 4.03,0.198 1.464,0 3.14,-0.115 5.02,-0.347 a 5.61,5.61 0 0 0 0.733,-0.1 c 0.14,0 0.289,-0.016 0.445,-0.049 0.156,-0.032 0.305,-0.05 0.444,-0.05 0.56,0 0.97,0.105 1.23,0.314 0.262,0.209 0.393,0.539 0.393,0.99 0,0.661 -0.532,1.192 -1.596,1.592 -1.065,0.402 -1.77,0.74 -2.12,1.017 -0.836,0.731 -1.719,1.922 -2.644,3.574 -0.925,1.653 -2.38,4.896 -4.37,9.73 L 637.61,70.7 a 3.606,3.606 0 0 0 -0.235,0.81 c -0.054,0.295 -0.078,0.6 -0.078,0.913 0,0.281 0.034,0.57 0.105,0.864 0.068,0.296 0.173,0.584 0.313,0.862 l 10.835,25.823 c 0.207,0.522 0.444,0.933 0.705,1.228 0.261,0.297 0.532,0.444 0.81,0.444 0.21,0 0.437,-0.147 0.681,-0.444 0.245,-0.295 0.469,-0.706 0.679,-1.228 l 14.89,-36.328 c 1.67,-4.083 2.96,-7.695 3.865,-10.835 0.906,-3.14 1.357,-5.46 1.357,-6.961 0,-0.698 -0.278,-1.353 -0.835,-1.963 -0.556,-0.61 -1.27,-1.02 -2.14,-1.23 a 4.568,4.568 0 0 0 -0.603,-0.156 3.32,3.32 0 0 0 -0.602,-0.054 c -1.045,-0.24 -1.713,-0.48 -2.008,-0.722 -0.298,-0.24 -0.444,-0.568 -0.444,-0.98 0,-0.413 0.129,-0.705 0.39,-0.878 0.261,-0.172 0.845,-0.276 1.75,-0.31 0.174,0 0.532,0.018 1.072,0.05 a 23.52,23.52 0 0 0 1.384,0.049 c 1.045,0.166 2.046,0.284 3.004,0.349 0.956,0.066 1.924,0.098 2.9,0.098 1.462,0 3.097,-0.115 4.91,-0.347 0.349,-0.033 0.61,-0.065 0.784,-0.1 0.105,0 0.233,-0.016 0.392,-0.049 0.156,-0.032 0.34,-0.05 0.548,-0.05 0.556,0 0.966,0.105 1.227,0.314 0.261,0.209 0.393,0.539 0.393,0.99 0,0.556 -0.462,1.087 -1.384,1.591 -0.923,0.506 -1.543,0.896 -1.855,1.175 -1.36,1.391 -3.468,5.495 -6.321,12.312 l -0.315,0.73 -24.5,58.253 c -0.21,0.52 -0.457,0.902 -0.734,1.145 a 1.415,1.415 0 0 1 -0.948,0.365 c -0.245,0 -0.508,-0.147 -0.786,-0.442 -0.281,-0.295 -0.525,-0.72 -0.735,-1.277 L 633.637,84.66 c -0.21,-0.49 -0.366,-0.811 -0.47,-0.968 -0.106,-0.156 -0.228,-0.236 -0.367,-0.236 -0.139,0 -0.295,0.105 -0.471,0.315 -0.174,0.21 -0.33,0.487 -0.47,0.835 l -12.653,30.316 c -0.244,0.52 -0.505,0.902 -0.781,1.145 a 1.395,1.395 0 0 1 -0.938,0.365 c -0.348,0 -0.668,-0.147 -0.965,-0.442 -0.295,-0.295 -0.546,-0.72 -0.753,-1.277 m 71.826,-6.339 -2.344,-11.958 a 5.239,5.239 0 0 1 -0.156,-0.784 10.067,10.067 0 0 1 -0.051,-1.15 c 0,-0.59 0.102,-1.025 0.312,-1.303 0.208,-0.28 0.523,-0.42 0.94,-0.42 0.766,0 1.55,1.098 2.351,3.29 0.695,1.986 1.374,3.638 2.037,4.962 1.67,3.341 4.165,5.982 7.477,7.913 3.31,1.933 7.041,2.897 11.189,2.897 5.402,0 9.731,-1.486 12.991,-4.465 3.259,-2.979 4.89,-6.907 4.89,-11.782 0,-4.04 -1.214,-7.219 -3.635,-9.537 -2.422,-2.316 -7.136,-4.502 -14.141,-6.557 -8.333,-2.439 -14.094,-5.254 -17.283,-8.443 -3.19,-3.19 -4.785,-7.539 -4.785,-13.046 0,-5.786 2.168,-10.5 6.51,-14.144 4.34,-3.642 10.014,-5.463 17.02,-5.463 3.904,0 8.052,0.876 12.444,2.626 1.184,0.455 1.934,0.682 2.249,0.682 0.486,0 1.05,-0.19 1.694,-0.577 0.645,-0.385 1.036,-0.578 1.175,-0.578 0.173,0 0.33,0.142 0.468,0.42 0.14,0.28 0.228,0.63 0.262,1.048 l 1.51,13.063 c 0.035,0.174 0.062,0.366 0.078,0.574 0.018,0.21 0.028,0.489 0.028,0.837 0,0.522 -0.105,0.906 -0.315,1.15 -0.208,0.244 -0.52,0.365 -0.938,0.365 -0.8,0 -1.493,-0.818 -2.085,-2.455 -0.59,-1.637 -1.218,-2.961 -1.877,-3.972 -2.231,-3.552 -4.664,-6.103 -7.295,-7.655 -2.631,-1.55 -5.81,-2.325 -9.541,-2.325 -4.565,0 -8.348,1.264 -11.345,3.79 -2.998,2.526 -4.495,5.688 -4.495,9.486 0,3.414 0.95,6.09 2.85,8.023 1.898,1.933 6.196,3.98 12.887,6.14 5.613,1.742 9.551,3.146 11.816,4.209 2.267,1.064 4.08,2.224 5.44,3.479 2.334,2.126 4.06,4.549 5.175,7.268 1.117,2.72 1.675,5.842 1.675,9.363 0,6.867 -2.352,12.316 -7.06,16.342 -4.707,4.03 -11.14,6.04 -19.297,6.04 -5.019,0 -9.316,-0.707 -12.89,-2.126 -3.574,-1.418 -5.553,-3.16 -5.935,-5.227 M 232.214,111.767 193.277,17.72 c -1.175,-2.759 -2.402,-5.033 -3.678,-6.823 -1.278,-1.788 -2.605,-3.117 -3.985,-3.986 -0.512,-0.255 -1.33,-0.561 -2.454,-0.92 a 7.093,7.093 0 0 1 -0.535,-0.154 l -0.078,-0.076 c -1.94,-0.51 -2.912,-1.277 -2.912,-2.3 0,-0.612 0.242,-1.072 0.727,-1.379 0.487,-0.307 1.29,-0.486 2.415,-0.537 0.154,0 0.613,0.052 1.38,0.156 3.985,0.469 7.868,0.703 11.65,0.703 2.554,0 5.16,-0.143 7.818,-0.429 2.656,-0.286 4.035,-0.43 4.137,-0.43 0.87,0 1.534,0.166 1.994,0.497 0.459,0.333 0.69,0.807 0.69,1.42 0,0.46 -1.047,1.29 -3.142,2.49 -2.095,1.202 -3.143,2.927 -3.143,5.175 0,0.92 0.216,2.108 0.651,3.564 0.434,1.459 1.11,3.259 2.032,5.405 l 29.37,70.058 c 0.307,0.766 0.652,1.367 1.036,1.801 0.384,0.435 0.754,0.652 1.112,0.652 0.357,0 0.74,-0.23 1.15,-0.688 0.408,-0.462 0.765,-1.05 1.073,-1.765 l 12.257,-29.893 a 7.1,7.1 0 0 0 0.613,-2.99 c 0,-0.358 -0.039,-0.792 -0.115,-1.304 a 8.71,8.71 0 0 0 -0.344,-1.456 L 237.751,17.72 c -1.125,-2.708 -2.341,-4.981 -3.645,-6.823 -1.305,-1.84 -2.647,-3.168 -4.027,-3.986 -1.383,-0.766 -3.148,-1.24 -5.297,-1.419 -2.147,-0.177 -3.222,-0.805 -3.222,-1.877 0.051,-0.715 0.319,-1.226 0.805,-1.533 0.485,-0.307 1.264,-0.486 2.339,-0.537 0.255,0 2.12,0.144 5.596,0.43 3.476,0.286 6.799,0.429 9.967,0.429 2.403,0 4.92,-0.143 7.552,-0.429 2.632,-0.286 4.076,-0.43 4.332,-0.43 0.818,0 1.419,0.127 1.801,0.384 0.384,0.256 0.575,0.665 0.575,1.226 0,0.562 -1.072,1.342 -3.217,2.339 -2.146,0.996 -3.218,2.466 -3.218,4.406 0,1.125 0.19,2.39 0.574,3.794 0.383,1.406 1.136,3.54 2.26,6.402 l 7.968,18.779 c 0.255,0.664 0.498,1.15 0.727,1.456 0.23,0.308 0.421,0.46 0.575,0.46 0.153,0 0.294,-0.101 0.421,-0.306 0.128,-0.205 0.345,-0.665 0.652,-1.38 l 3.295,-7.668 c 2.296,-5.62 3.918,-9.988 4.863,-13.107 0.945,-3.116 1.418,-5.569 1.418,-7.358 0,-1.482 -0.473,-2.67 -1.418,-3.563 -0.945,-0.894 -2.516,-1.572 -4.71,-2.033 -1.432,-0.305 -2.415,-0.625 -2.95,-0.956 -0.537,-0.333 -0.805,-0.755 -0.805,-1.265 0,-0.561 0.23,-0.97 0.69,-1.226 0.46,-0.257 1.225,-0.384 2.3,-0.384 0.715,0 2.07,0.105 4.06,0.312 0.204,0 0.358,0.027 0.46,0.078 0.41,0 1.124,0.052 2.147,0.156 2.502,0.209 4.47,0.313 5.9,0.313 2.147,0 4.6,-0.182 7.358,-0.547 0.51,-0.05 0.868,-0.103 1.073,-0.156 0.205,0 0.422,-0.026 0.652,-0.079 0.23,-0.05 0.447,-0.077 0.652,-0.077 0.816,0 1.417,0.154 1.8,0.46 0.383,0.306 0.575,0.792 0.575,1.456 0,0.971 -0.78,1.751 -2.34,2.338 -1.558,0.588 -2.593,1.086 -3.103,1.493 -1.226,1.075 -2.517,2.825 -3.872,5.253 -1.355,2.426 -3.49,7.191 -6.402,14.294 l -8.656,20.39 a 5.43,5.43 0 0 0 -0.345,1.19 7.743,7.743 0 0 0 -0.115,1.34 c 0,0.409 0.05,0.83 0.153,1.264 0.102,0.435 0.255,0.857 0.46,1.265 l 15.87,37.866 c 0.306,0.766 0.65,1.368 1.033,1.801 0.384,0.435 0.78,0.652 1.19,0.652 0.304,0 0.637,-0.217 0.994,-0.652 0.358,-0.433 0.69,-1.035 0.998,-1.801 L 306.32,36.88 c 2.45,-5.977 4.339,-11.265 5.666,-15.864 1.328,-4.598 1.991,-7.997 1.991,-10.193 0,-1.023 -0.408,-1.98 -1.226,-2.874 -0.816,-0.894 -1.862,-1.495 -3.139,-1.803 A 6.645,6.645 0 0 0 308.732,5.918 4.912,4.912 0 0 0 307.85,5.84 c -1.531,-0.357 -2.514,-0.715 -2.948,-1.074 -0.435,-0.357 -0.65,-0.843 -0.65,-1.457 0,-0.614 0.19,-1.049 0.574,-1.305 0.383,-0.255 1.238,-0.409 2.565,-0.46 0.255,0 0.779,0.026 1.57,0.077 a 31.37,31.37 0 0 0 2.03,0.08 c 1.531,0.26 3,0.442 4.404,0.545 1.404,0.106 2.819,0.157 4.25,0.157 2.144,0 4.544,-0.181 7.199,-0.546 0.51,-0.052 0.892,-0.104 1.148,-0.157 0.153,0 0.344,-0.026 0.574,-0.079 0.229,-0.05 0.498,-0.077 0.804,-0.077 0.817,0 1.416,0.154 1.8,0.46 0.382,0.307 0.575,0.792 0.575,1.456 0,0.818 -0.678,1.598 -2.03,2.339 -1.353,0.741 -2.26,1.316 -2.719,1.724 -1.992,2.045 -5.081,8.075 -9.266,18.09 l -0.459,1.072 -35.917,85.387 c -0.308,0.76 -0.667,1.318 -1.077,1.675 -0.41,0.353 -0.87,0.532 -1.382,0.532 -0.359,0 -0.743,-0.217 -1.153,-0.648 -0.41,-0.43 -0.768,-1.054 -1.076,-1.864 L 258.434,67.694 c -0.307,-0.715 -0.535,-1.186 -0.69,-1.416 -0.154,-0.23 -0.332,-0.346 -0.535,-0.346 -0.205,0 -0.435,0.153 -0.69,0.461 -0.255,0.305 -0.485,0.715 -0.69,1.226 l -18.538,44.453 c -0.359,0.76 -0.745,1.318 -1.155,1.675 -0.41,0.353 -0.871,0.532 -1.384,0.532 -0.512,0 -0.987,-0.217 -1.423,-0.648 -0.437,-0.43 -0.808,-1.054 -1.115,-1.864 M 707.631,25.625 h 0.701 c 0.815,0 1.443,-0.158 1.883,-0.471 0.439,-0.314 0.659,-0.764 0.659,-1.35 0,-0.51 -0.19,-0.918 -0.572,-1.22 -0.38,-0.304 -0.9,-0.455 -1.557,-0.455 -0.359,0 -0.633,0.065 -0.825,0.196 a 0.644,0.644 0 0 0 -0.289,0.569 z m -2.62,-3.849 h 4.051 c 1.01,0 1.807,0.186 2.385,0.558 0.582,0.37 0.872,0.867 0.872,1.492 0,0.515 -0.234,0.935 -0.705,1.261 -0.472,0.327 -1.23,0.59 -2.274,0.79 0.645,0.212 1.131,0.483 1.457,0.813 0.325,0.331 0.565,0.791 0.717,1.381 0.04,0.159 0.085,0.379 0.133,0.661 0.095,0.584 0.295,0.877 0.6,0.877 0.253,0 0.438,-0.11 0.558,-0.329 0.121,-0.22 0.18,-0.558 0.18,-1.016 h 0.42 v 0.123 c 0,0.592 -0.136,1.044 -0.41,1.357 -0.276,0.313 -0.674,0.47 -1.194,0.47 -0.31,0 -0.581,-0.063 -0.812,-0.19 a 1.06,1.06 0 0 1 -0.497,-0.529 c -0.11,-0.263 -0.168,-0.648 -0.175,-1.154 -0.005,-0.507 -0.037,-0.85 -0.09,-1.03 -0.145,-0.455 -0.398,-0.792 -0.757,-1.01 -0.361,-0.216 -0.848,-0.325 -1.458,-0.325 -0.04,0 -0.105,0.004 -0.19,0.01 a 2.97,2.97 0 0 1 -0.19,0.01 v 2.546 c 0,0.387 0.1,0.658 0.297,0.813 0.2,0.156 0.55,0.24 1.05,0.254 v 0.41 h -3.968 v -0.41 c 0.516,-0.022 0.87,-0.107 1.063,-0.259 0.192,-0.151 0.288,-0.421 0.288,-0.808 v -5.307 c 0,-0.386 -0.096,-0.654 -0.288,-0.801 -0.193,-0.149 -0.547,-0.23 -1.063,-0.244 z m 3.858,-2.167 a 6.2,6.2 0 0 0 -2.432,0.495 c -0.78,0.33 -1.47,0.797 -2.057,1.402 a 6.369,6.369 0 0 0 -1.866,4.514 c 0,0.859 0.16,1.675 0.483,2.449 a 6.36,6.36 0 0 0 1.402,2.066 6.34,6.34 0 0 0 2.043,1.407 6.096,6.096 0 0 0 2.405,0.48 c 0.86,0 1.673,-0.162 2.442,-0.486 a 5.96,5.96 0 0 0 2.028,-1.401 6.735,6.735 0 0 0 1.39,-2.103 6.232,6.232 0 0 0 0.483,-2.412 c 0,-0.838 -0.166,-1.661 -0.498,-2.469 a 6.37,6.37 0 0 0 -1.375,-2.087 6.298,6.298 0 0 0 -2.05,-1.37 6.165,6.165 0 0 0 -2.398,-0.485 z m 0.01,-0.782 c 0.94,0 1.85,0.184 2.73,0.552 a 7.15,7.15 0 0 1 2.328,1.562 7.032,7.032 0 0 1 1.54,2.326 7.14,7.14 0 0 1 0,5.507 7.205,7.205 0 0 1 -1.58,2.346 6.958,6.958 0 0 1 -2.323,1.551 7.247,7.247 0 0 1 -2.76,0.531 c -0.945,0 -1.85,-0.18 -2.71,-0.54 a 7.28,7.28 0 0 1 -2.315,-1.563 7.054,7.054 0 0 1 -1.573,-2.32 7.08,7.08 0 0 1 -0.541,-2.754 7.163,7.163 0 0 1 2.091,-5.084 7.194,7.194 0 0 1 5.113,-2.114"
   id="path2" />
    </g></g></svg>
