<?xml version="1.0" encoding="UTF-8" standalone="no"?>
<svg
   viewBox="0 0 5.1930048 3.0222192"
   width="1038.601"
   height="604.44385"
   id="svg2"
   version="1.1"
   xmlns="http://www.w3.org/2000/svg"
   xmlns:svg="http://www.w3.org/2000/svg"
   xmlns:rdf="http://www.w3.org/1999/02/22-rdf-syntax-ns#"
   xmlns:cc="http://creativecommons.org/ns#"
   xmlns:dc="http://purl.org/dc/elements/1.1/">
  <metadata
     id="metadata14">
    <rdf:RDF>
      <cc:Work
         rdf:about="">
        <dc:format>image/svg+xml</dc:format>
        <dc:type
           rdf:resource="http://purl.org/dc/dcmitype/StillImage" />
      </cc:Work>
    </rdf:RDF>
  </metadata>
  <defs
     id="defs12" />
  <path
     style="fill:#ffffff;stroke:#0083d6;stroke-width:0.0105;stroke-miterlimit:4;stroke-opacity:1;stroke-dasharray:none"
     d="m 4.5725957,0.00525601 c -3.5e-4,-4.5e-5 -7.813e-4,1.56e-4 -0.00141,7.8125e-4 -0.005,0.005 -0.019219,0.00921875 -0.019219,0.00921875 l -0.015,0.02078125 -0.00578,0 -0.02,0.0075 -0.011719,0.01171875 -0.00828,0.0115625 -0.00172,0.015 -0.00922,-7.8125e-4 0,0.0075 0.013438,0.0032812 -0.015937,0.0109375 -0.005,0.015 0.015,0.004063 0.023437,0.001719 0.02,-0.004219 0,0.01 -0.02,0.0109375 -0.01125,0.01125 -0.017187,-0.0129688 -0.019063,0.005781 -0.013438,-0.0132813 -0.011562,0.006719 -0.018438,0.008281 -0.015,0.0157812 -0.028281,0.008438 -0.015,0.0215625 -0.020781,0.008438 -0.017188,0.0170312 -0.016563,0.0167188 -0.017969,0.0103125 -0.025,0.0109375 -0.012969,0.0128125 -0.028281,0.0284375 -0.025469,0.0245313 -0.00656,0.0242187 -0.014219,0.0207813 -0.005,0.015 0.005,0.0142187 -0.011719,0 -0.013281,0.0075 -0.00172,0.0175 -0.015,0.0075 -0.00406,0.0157813 0,0.009219 0.016563,0 0.005,0.0117188 0.020937,-0.003438 0.028281,0.0125 0.00922,0.001719 0.005,0.0132813 -0.00422,0.0134375 -0.016719,0.004062 -0.018281,0.008437 -0.013281,0.005 -0.019219,0 -0.0125,-0.0125 0.012031,-0.0121875 -0.015781,-0.0157812 -0.00875,0.00875 -0.00922,0.0167188 0.011719,0.0165625 -0.00328,0.01 0.00828,0.008437 -0.005,0.02 -0.020781,0.015 0,0.0165625 -0.010937,0.0109375 -0.0125,0 -0.0075,0.0140625 0,0.0275 -0.015781,0.0157812 0,0.0117188 0.00797,0.007969 -0.01625,0 -0.015,0.0120313 -0.020937,0.009219 -0.023281,-0.0232812 -0.01125,-0.01125 -0.022969,0.00125 -0.0275,0.004062 -0.015781,0.0192187 -0.0175,0.0175 -0.020781,0.0307812 0,0.0242187 -0.016719,0.0207813 -0.015781,0.0159375 -0.0175,7.8125e-4 -0.015938,-0.008438 -0.0225,0.0125 c 0,0 0.005,0.0217188 0.0025,0.0192187 -0.0025,-0.0025 -0.015781,-0.0167188 -0.015781,-0.0167188 l -0.011719,0.0134375 -0.018281,0 c 0,0 -0.011045,-0.003809 -0.00563,-0.009219 0.00541,-0.00542 0.0125,-0.015 0.0125,-0.015 l -0.015,-0.0107812 -0.025,0.0107812 -0.0175,0.008281 -0.0075,0.0209375 -0.00359,0.0115625 0.005,0.0267188 0,0.0157812 -0.014063,0.0134375 0.00406,-0.0325 -0.015781,-0.005 -0.0125,0.0125 -0.014219,0.006719 0.00594,-0.0225 c 0,0 0.015781,-0.005937 0.015781,-0.0109375 0,-0.005 -0.00328,-0.008281 -0.00328,-0.008281 l -0.024219,0.0107812 -0.030625,0.0117188 -0.00687,0.0190625 -0.023281,0.0117188 -0.015937,0 -0.010781,0.0107813 0.0175,0.0109375 0.0025,0.0115625 -0.018281,0.0167188 0,0.0175 0.01,0.006719 0.00828,-0.0217188 0.00578,0.005 0,0.0182813 0.014219,0.0075 0.0125,0.0125 0.00578,0.003437 -0.0125,0.0125 -0.015781,-9.375e-4 -0.00922,0.01 -0.00703,0.00734 0.019531,0.00875 0,0.0125 -0.018281,-0.005 -0.015781,7.813e-4 -0.021719,0.005 -0.011719,0.021719 0.00375,0.019375 0.96375,0 0.00672,-0.00781 0.0075,-0.0275 0,-0.013437 0.0225,0 0.00672,-0.02 -0.00672,-0.0182812 0.023281,0.0217187 0.00672,0.014063 0.00828,0.00844 0.0125,0.0125 0,-0.020937 0.015,0.0075 0.00672,0.016719 0.00578,-0.019219 -0.00156,-0.0317187 -0.00844,-0.02 0,-0.0265625 -0.010312,-0.0104688 0.00781,-0.01125 0.0075,7.8125e-4 0.00172,-0.0107812 -0.016719,0 -0.01375,-0.01375 -0.014531,-0.0145312 -0.01,-0.009219 0.005,-0.0132813 0,-0.0175 0.018281,-0.01 0.012969,-0.0129687 0.00547,0.005469 -0.015938,0.015 0,0.0190625 0.0175,0.0109375 0.011719,0.015 0.00953,0.009531 0.010469,0.00375 0.010781,0 0.010937,0.0207812 0.01,0.01 0,0.0142187 0,0.0117188 -0.00594,0.02 9.375e-4,0.0165625 0.01,0.00844 0.01,0.030781 0.00828,0.020781 0.00453,0.015469 0.1054688,0 -0.016719,-0.00875 -0.0025,-0.018281 -0.00328,-0.023437 -0.015781,-0.015781 -0.011719,-0.0117187 -0.01,-0.01 -0.0125,-0.0207812 0.00922,-0.009219 0,-0.0215625 0.01,0 0.015313,-0.0154688 -0.015313,-0.007031 0,-0.0159375 -0.00922,-0.0240625 0.01,-9.375e-4 0.011719,0.0117188 0.015781,0.0075 0,-0.0132813 -0.014219,-0.0217188 0,-0.0125 0.00672,-0.0232813 -0.00922,-0.009219 0.0175,-0.025 0.010937,-0.025 0.020781,-0.006719 0.015,0.0075 0.014219,-0.0125 -0.00922,-0.009062 -0.014219,-0.0159375 -0.00828,-0.0332813 0,-0.0242187 -0.015781,-0.0140625 -0.00844,-0.0259375 -0.00406,-0.0265625 -0.00844,-0.02 -0.005,-0.0234375 0,-0.03 -0.00578,-0.0265625 -0.014219,-0.0217187 0.00625,-0.00625 -0.019531,-0.0129688 0.005,-0.0075 0.0175,0 0.010781,-0.0232812 0.016719,-0.006563 0,-0.0175 -0.012031,-0.0120312 -0.00625,-0.0145313 -0.013438,0.01 -0.00906,-0.0075 -0.010938,0.001719 -0.00875,0.00875 -0.014531,0 -0.00422,0.007656 -0.015,0 0,-0.0115625 -0.018281,9.375e-4 -0.01,0.001719 -0.0125,-9.375e-4 -0.005,0.008437 -0.010469,0.0103125 -0.017812,4.685e-4 -0.01,0.0075 0,0.0157812 -0.010937,0.004219 -0.00828,-0.008281 0.013281,-0.0159375 -0.00906,0 -0.014219,0.005781 0.00578,-0.0132812 0.0175,-0.0075 0.0125,0 0.013438,-0.0215625 -0.00344,-0.0192188 -0.00656,-0.0242188 -0.01375,-0.01375 -0.012969,-0.0128125 -0.0075,0.0075 -7.813e-4,-0.0159375 -0.0125,0 -0.018438,0.005 -0.01125,-0.01125 0,-0.01125 -0.014531,-0.0025 0.005,-0.005 0.0075,-0.003281 -0.00625,-0.00625 0.00125,-0.007969 0.00828,0.005 0.00922,0.0075 0.015781,0 0.010937,-0.008281 0.010781,0.008281 0.01375,-0.01375 0,-0.02125 -0.00625,-0.0125 0.014219,-0.0207813 0.015781,0 0.0125,0.005 0.0175,-0.005938 0.00922,-0.02 0.0175,-0.0190625 0.019062,-0.001719 0.0075,-0.0215625 -0.014063,-0.004219 0,-0.006875 0.0175,0 -0.00594,-0.0132813 0,-0.0107813 -0.00906,0.0115625 -0.00922,0.0025 -0.010781,-0.01671875 -0.015469,-0.0153125 0,0.00875 -0.019531,-0.0075 -0.00922,0.0090625 -0.015,-0.0025 0.019219,-0.0125 0,-0.0175 c 0,0 0.005,-0.015 0,-0.01 -0.005,0.005 -0.0175,0.005 -0.0175,0.005 l 0.00906,-0.0190625 -0.00828,-0.0084375 -0.010781,-0.0090625 c 0,0 0.0038,-0.0146815 0.00141,-0.015 z m -0.4335938,0.13328125 0,1.56e-4 -0.00578,0.005937 -0.012656,0.006562 -0.010469,0.0104687 0.00109,0.0176563 -0.00453,0.004531 0.00219,0.0142187 0.00828,0.0121875 0.00859,0.0198437 0.013281,0.002812 0.00891,-0.009063 0.00672,-0.0121875 -0.00734,-0.007969 0.010937,-0.0160937 -0.00188,-0.0173437 0,-0.020625 -0.010781,-0.008594 -0.00656,-0.0025 z m -2.2257812,0.33734375 -0.00563,0.01125 0.00719,0.007188 0.00281,0.008437 0.01625,-0.005625 0.00562,0.005625 0.010625,-0.004375 0.00437,0.004375 0,-0.009375 -0.00719,-0.007187 -0.00656,0 -0.00562,-0.002188 -0.01375,0 -0.00812,-0.008125 z m 0.081875,0.01 0,0.008281 0.00625,0 0.00625,-0.00625 -0.0125,-0.002031 z m -0.018125,0.009375 -0.00625,0.004375 -0.00625,0.00625 0,0.006875 -0.00719,0.007188 -0.012812,-0.009062 -0.010625,0.005625 0,0.0075 -0.013125,-0.009375 -0.01,0.00375 0.00313,0.015 0.00937,-0.003125 0,0.01 0.01,0.0025 0.00906,-0.009062 0.012812,-0.005156 0.010625,0.003125 0.015625,0 0.01125,-0.01125 -0.010625,-0.010625 0.00719,-0.007188 -0.012188,-0.007187 0,-1.56e-4 z m 0.11125,0.006406 0,0.01125 0.010625,0.010625 0,0.00875 0.00937,-0.004375 -0.00562,-0.011875 -0.00438,-0.014375 -0.01,0 z m -0.0225,0.005625 0.00438,0.008125 0.00406,-0.004062 -0.00406,-0.004062 -0.00438,0 z m 0.094375,0.008125 -0.00625,0.001875 0.005,0.006875 0,0.00625 0.00875,0 0,-0.011875 -0.0075,-0.003125 z m -0.104375,0.004375 -0.00687,0.00125 0,0.008125 0.00875,0 -0.00187,-0.009375 z m 0.02125,0.005 0,0.00875 0.0075,6.25e-4 0,-0.009375 -0.0075,0 z m -0.05,0.009375 -0.00188,0.001719 0.00719,0.007188 0.00344,-0.008906 -0.00875,0 z m 0.034062,0.007188 0,0.007031 0.00719,0 -0.00562,-0.005469 -0.00156,-0.001562 z m -0.017812,0.007188 -0.00594,0.005937 0.00594,0.006563 0.00687,-6.25e-4 -0.00687,-0.011875 z m -0.051875,0.00125 -0.00625,0.01 -0.00469,0.004687 0.00812,0.008125 0.00906,3.125e-4 0,-0.015 -0.00625,-0.008125 z m 0.014375,0 0.00313,0.00875 0.00625,0 0,-0.0075 -0.00937,-0.00125 z m -0.06375,3.125e-4 0.00188,0.007813 0.01125,6.25e-4 -0.00781,-0.008437 -0.00531,0 z m 0.1725,0.002812 -0.00813,0.004375 -0.00344,0.003437 0.00656,0.006563 0.011875,-0.004375 0,-0.01 -0.00687,0 z m -0.0375,0.0025 -0.00875,0.0025 0.00313,0.002969 0.00562,-0.005469 z m 1.3665625,0.002188 -0.00453,0.008281 0.00484,0.004844 0.00563,-0.004844 -0.00594,-0.008281 z m -1.4940625,0.009062 -0.00562,0.005625 0.00438,0.004375 0.010625,0.0025 -0.00687,-0.006875 -0.0025,-0.005625 z m 0.13875,0 -0.00687,0.006875 -0.005,0.01 0,0.0125 0.010625,0.001875 0.0025,0.0075 0.013125,-0.003125 0.00844,-0.008437 0.00625,-0.00625 0.00344,-0.0103125 -0.00937,0 -0.014063,-3.125e-4 -0.00906,-0.0103125 z m 0.08,4.685e-4 -0.01,0.00125 -0.00438,0.006875 -0.01625,0.003125 -0.010625,0.005625 0.00812,0.00375 -0.00375,0.00875 0.00688,0.001875 0.01375,0 0.010937,-0.0109375 0.00813,-0.007969 -0.00281,-0.0121875 0,-1.56e-4 z m -0.1134375,0.0123437 -0.012188,0.009063 -0.00438,-0.004531 -0.01375,0 0,0.009531 -0.0075,0.0075 0.00438,0.004375 0.015,-0.003125 0.00562,0.005469 0.013125,-0.002969 0.00375,-0.00875 0.00937,0.003125 -0.005,-0.01125 -0.00844,-0.008437 z m 0.4990625,0.0359375 -0.00188,0.0123437 -0.01125,0.005 -0.016875,0.01125 0,0.015625 0.00687,0.006875 -0.00906,0.009062 -0.00594,0.0115625 0.00812,0.01125 0.00313,0.01125 0.014375,0.0125 0.013125,-0.0125 0.00875,0 0.013125,-0.0075 0.015625,-0.005 -0.00438,-0.015 0,-0.01875 0.00937,-0.007969 -0.00781,-0.007813 -0.015938,-0.0159375 -0.00562,-0.0125 -0.01375,-0.00375 z m -0.49375,0.005 -0.00406,0.004062 0,0.007656 0.00844,0 0.00312,-0.01 -0.0075,-0.001719 z m 1.5035937,7.8125e-4 -0.016563,0.007656 -0.00875,0.0101562 -0.00937,0.009531 -0.00375,0 -0.00719,-0.00875 -0.011719,0.0117188 -0.00797,0.007969 -0.00578,0.005625 -0.01125,-0.005313 0.00141,0.006094 0.00391,0.005313 0.00828,0.0120312 0.01625,0.005781 0.010156,-0.0103125 0.013594,0 0.01375,-0.005312 0.012344,-0.005625 0.00797,-0.007969 0,-0.010625 0.00687,-0.0189063 -0.012188,-0.009062 z m -1.0567187,0.001563 -0.013125,6.25e-4 -0.00563,0.005781 0.00438,0.004219 0.00469,0.004844 0.00969,-0.009062 0,-0.00625 0,-1.56e-4 z m -0.15625,0.0132812 -0.00625,0.00125 -0.00406,0.004062 0.00625,0.00625 0.00844,-0.002812 0.005,-0.005 -0.00937,-0.00375 z m 1.1139062,0.0426563 -0.00984,0.003125 -0.024062,0 -0.00797,0.007813 -0.0125,0.00875 -0.00906,-0.009062 -0.022031,0.006719 0.00156,0.01375 0.00563,0.005625 0.00844,0.008281 0.00563,0.005625 -0.00828,0.006875 -0.011406,-0.009844 -0.00609,0.006094 -0.00828,-0.008281 -0.018906,0.00375 -0.00828,-0.004531 -0.00375,0.009844 0.00594,0.005938 -0.01125,0.006094 0,0.014375 0.00906,0.008906 -0.00234,0.010625 0.00844,0 0.010469,0.010625 -0.00297,0.0120312 0.013594,0.007031 0.018125,7.8125e-4 0.00766,0.0075 0.013594,0 0.015781,-0.004688 0,-0.0121875 -0.00969,-0.009063 0.00516,-0.005312 0.00797,0.008125 0.014063,-0.0253125 0.013125,-0.0132813 0.00578,0.005625 0.012031,-0.0121875 0.00375,-0.01125 -0.013594,-0.004375 -0.00906,0.008906 -0.01125,-0.008281 -0.01375,-0.008438 -0.013594,-0.009687 0.00453,-0.009844 0.00719,-0.007187 0.00578,0.019375 0.00859,0.00875 0.014844,0.0025 0.00906,-0.00375 0.0075,0 0.00766,-0.0075 -0.00391,-0.0159375 -0.012031,0 0.00297,-0.0135938 0,-0.009844 z m -0.8621875,0.025 -0.016563,0.005312 c 0,0 -0.00992,0.002214 -0.012188,0.002969 -0.00227,7.5e-4 -0.013594,0.004531 -0.013594,0.004531 l -0.00531,0.0114062 -0.00297,0.009844 -0.00672,0.008281 0.00219,0.009844 -0.012812,0.009844 0.00609,0.005312 0.00906,-0.003125 0.0075,0.010625 7.813e-4,0.009844 0.00672,0.008281 0.0175,0.001563 0.00219,0.009844 0.012188,-0.007656 0.00594,0.009844 0.016719,0.005937 0.015937,-0.0075 0.0075,-0.010625 -0.00609,-0.0121875 -0.00984,-0.0135938 0.00766,-0.005156 0.00297,-0.0128125 -0.00375,-0.014375 0.00156,-0.014375 -0.018281,-0.009844 -0.00672,0.008437 -0.00609,0.01125 -0.00531,-0.002188 0.00375,-0.014375 0,-0.0151562 z m -0.096094,0.0142187 0.00188,0.01375 0,0.00875 0.01375,0.00375 0.00563,0.005625 0.00844,-0.008437 0.00469,-0.0121875 -0.00813,-0.00625 -0.015625,-0.00375 -0.010625,-0.00125 z m -0.2192188,0.0160938 -0.00453,0.004531 0.00531,0.002969 0.00828,0.006094 0.00234,-0.007656 -0.011406,-0.005938 z m 0.3932813,0.0225 -0.0075,7.8125e-4 -0.010625,0.0128125 7.812e-4,0.01125 -0.00453,0.007656 0.00297,0.0204688 -0.00906,0.009062 7.813e-4,0.0203125 -0.00453,0.0175 -0.00391,0.0173437 0.00687,0.00375 0.014375,-0.01125 0.00828,-0.005313 0.018906,-0.009844 0.015156,-0.001406 0.018906,-0.014375 0.00906,-0.0175 -0.00609,-0.015 -0.00672,-0.0114062 -0.00906,0.003906 -0.00906,-0.0159375 -0.00687,-0.006875 -0.00828,0.009844 -0.00531,0.014375 0,-0.010625 7.813e-4,-0.0189063 -0.00531,-0.0104688 0,-1.56e-4 z m 0.6292187,0.031875 0.00797,0.007969 0.00484,0.0178125 0.00984,0 0,-0.009844 -0.00375,-0.008437 -0.00672,-0.006719 -0.012188,-7.8125e-4 z m 0.2071875,0.0226563 -0.00937,0.00875 -0.00875,0.00875 -0.00875,0.008594 0.005,0.0117188 0.00828,0.008281 -0.00531,0.0121875 0.00453,0.004531 0.00687,-0.014375 0.017344,-0.00375 0.015156,-0.006094 0.020469,-0.0120312 -0.010625,-0.0196875 -0.014375,0 -0.020469,-0.006875 z m -0.04,0.003125 -0.00906,6.25e-4 -0.00687,0.006094 0.00531,0.0151562 0.00875,0.00875 0.00719,-0.0140625 0,-0.0114062 -0.00531,-0.005156 z m -0.7178125,0.0195313 -0.0075,0.004531 0.010625,0.005312 0.0075,0.005313 0.00828,-0.002188 -0.00219,-0.009844 -0.00828,0.002188 -0.00844,-0.005312 z m -0.026094,0.05 -0.013281,0.0142188 -0.015,0.0107812 -0.0125,0.0307812 -0.00422,0.0134375 0,0.02 0.00672,0.005 0.00172,0.0140625 -0.00594,0 -0.019062,0.005938 -0.018437,0 0.005,0.009062 0.01,0.0075 0.0075,0.01 -0.016563,-0.00328 -0.016719,0.00328 -0.0025,0.013437 -0.025781,-7.812e-4 -0.010469,0.010313 0,-0.012031 0.00797,-0.015 -0.015,0.0025 -0.00422,0.00906 -0.018281,0.0025 -0.021719,0.005 -0.00828,0.00844 0.015,0.005 -0.005,0.00578 -0.0225,0.00672 -0.00797,0.00781 -0.027031,0.00406 0.4340625,0 0.00578,-0.011875 0.00828,-0.011719 0,-0.016719 0.00953,-0.00953 -0.010313,-0.017813 -0.016719,-0.00922 -0.00672,-0.006719 0.016719,0.003437 0.00172,-0.0175 -0.01125,-0.01125 -0.00875,-0.00875 -0.00594,0.006563 -0.01,-0.008281 -0.00828,-0.0167188 -0.00953,-0.009531 -0.012969,0.00625 -0.00953,-0.009531 -0.017187,0.0120313 -0.016563,0 -0.018438,0.01 0.0075,0.0075 -0.00406,0.0142188 c 0,0 -0.013437,-0.005938 -0.018438,-0.005938 -0.005,0 -0.00406,-0.0107812 -0.00406,-0.0107812 l 0.010781,-0.0109375 -0.012031,-0.0120313 -0.01625,0 -0.00516,0.005156 -0.026406,-0.001406 0.010781,-0.0142187 0.012969,-0.0128125 -0.00375,-0.0171875 -0.0125,0.001719 -0.016719,-0.01 z m 0.6539062,0.001563 -0.00453,0.00375 0.00828,0.00375 0.010625,0.008281 0.00453,-0.006094 -0.00453,-0.006719 -0.014375,-0.002969 z m -0.5953125,0.0157812 -0.00297,0.004531 0.00687,0.004531 0.00297,-0.005312 -0.00687,-0.00375 z m -1.7237502,9.375e-4 -0.035,0.0175 -0.026562,0.0134375 0,0.045 -0.013438,0.0232813 -0.0425,0 -0.025156,0.025469 -0.002344,0.015313 -0.018906,0.035312 0.10375,0 0.00109,-0.00281 0.00281,0.00281 0.18875,0 -0.00562,-0.019375 -0.01375,-0.01375 0,-0.019688 -0.012031,-0.00578 0,-0.0175 -0.011094,-0.0107813 -0.013906,-0.0075 0,-0.0159375 -0.00438,-0.0157812 0.00875,-0.00875 0.00953,0.009531 0.00922,0.005938 -0.00422,-0.015 0,-0.0134375 -0.02,-7.8125e-4 -0.014062,0.001719 0.00344,-0.0175 -0.014375,0.01 -0.011406,-0.0117188 -0.014219,0 -0.024375,-0.009219 z m 1.014375,4.685e-4 -0.019531,0.0075 -0.014844,0.007969 -0.0125,0.0125 -0.018906,0 -0.013594,0.00375 -0.0075,-0.0075 -0.015937,0 -0.00672,-0.009687 -0.014844,-0.001094 -0.0125,0.0123437 -0.018906,0 -0.012812,-0.004531 -0.018125,0.008437 -0.010625,0 -0.00828,0.009844 -0.00828,0.009062 -0.016719,-0.006094 0,0.01125 -0.01125,0 -0.00906,-0.009062 -0.00531,0.008437 0.00828,0.009844 -0.00766,0.0075 7.815e-4,0.0151562 -0.00594,-0.006094 -0.015937,7.8125e-4 0.00984,0.009844 -0.018125,7.8125e-4 0,0.009062 -0.012968,0 -0.00969,0.00984 -0.019687,0.00531 -0.018907,0.00516 0,0.00609 0.01625,0.00562 0.00641,0.00656 -0.018906,0.00375 -0.00188,0.00797 -0.00875,0.00859 -0.00828,-0.00828 -0.017344,0 0,0.011406 -0.00391,0.01125 -0.013594,-0.00531 -0.010781,0.00687 0.115781,0 4.7e-4,-4.685e-4 0.00859,-0.00844 0.00656,0.00641 0,-0.01125 0,-0.00719 0.00641,0.00641 0.00906,0 -0.00219,-0.015156 0.00906,-0.00812 0,0.012812 0.011406,-0.00828 0.013594,-0.00984 0,-0.013594 0.013594,0.00375 0.00156,-0.00828 0.012813,0 0.014375,0.00156 0.012031,-0.00469 -0.00531,-0.012031 0.0175,-0.009844 0.023437,0 0.01125,-0.0120312 0.030313,0 0.023437,7.8125e-4 0.00984,-0.009844 0.020468,0.0075 0.022657,-0.010625 0.018906,-0.001406 0.014375,-0.01375 0.015781,-0.014375 0,-0.018125 -0.010468,-0.0165625 -0.018282,0 0,-1.56e-4 z m 0.394844,0.0417188 -0.00375,0.006094 0.00531,0.004531 0.00672,-0.009844 -0.00828,-7.81e-4 z m 0.12625,0.002969 -0.0075,0.009062 -0.00984,0.002344 0.00906,0.006875 0.00906,-0.009219 -7.812e-4,-0.009062 z m 2.1634375,0.018125 -0.00859,0.005 0,0.0157812 -0.00156,0.014375 0.00875,0.00578 0.00578,0.00734 6.25e-4,0.012969 0.011563,0.00438 -0.00281,-0.012969 -0.00516,-0.010156 0.00516,-0.0165625 0,-0.0201562 -0.01375,-0.005781 z m 0.3425,0.0409375 -0.00938,0.00219 -0.00938,0.00641 0.005,0.00516 0.00687,-0.00672 0.00688,-0.00688 0,-1.56e-4 z m -1.8328125,0.015938 c 0,0 -0.00187,0.00781 -0.00812,0.00781 -0.00625,0 -0.00547,0.015469 -0.00547,0.015469 l -0.00641,0.005 -0.00687,-0.0075 -0.00672,0.00172 -0.00328,0.01 -0.013281,-0.00922 -0.00875,-0.00875 -0.010469,0.00797 -0.01,-0.01 -0.0025,0.01 -0.00313,0.019062 0.00891,0.013594 0.1325,0 0,-0.010312 -0.00953,-0.00953 -0.00937,0 0.00641,-0.020469 -0.02,-0.00656 -0.00578,0.00578 -0.018125,-0.014062 z m -0.92625,0.017031 -0.00406,0.00406 0.00531,0.00469 0.00875,-0.0025 -0.01,-0.00625 z m 2.7151562,0.00609 -0.01375,0.00578 -0.012969,-0.005 -0.010156,0.00359 0.005,0.010781 0.017344,0 0.017344,0 0.010781,-0.010781 -0.013594,-0.00438 z m -0.2475,0.0075 -0.00578,0.0125 -0.00797,0.00781 0,0.00422 0.036094,0 -6.25e-4,-0.00297 -0.021719,-0.021562 z m -1.3825,0.0175 0,0.00703 0.025469,0 -0.00453,-0.00453 -0.020938,-0.0025 z m -0.086562,0.00266 -0.00703,0.00438 0.011563,0 -0.00453,-0.00438 z"
     id="rect4" />
  <path
     style="fill:#ffffff;fill-opacity:1;stroke:#0083d6;stroke-width:0.0105;stroke-linejoin:bevel;stroke-miterlimit:4;stroke-dasharray:none;stroke-opacity:1"
     d="m 0.24245,1.9705644 -0.00548,0.012347 -0.010781,0.0125 0.00406,0.011562 0.0125,0.01 0.00594,0.019219 0.018281,0.014219 0.015781,0.011563 0.005,0.025937 -0.005,0.0175 0.013438,0.015 0.0125,0.0075 0.005,0.019062 0.013281,0.015 v 0.0175 l 0.014219,0.00672 -0.00672,0.00828 -0.00578,0.014219 -0.030938,0.00422 9.38e-4,0.013281 -0.011719,-0.00172 -0.011719,0.011719 0.00328,0.018281 -0.0125,0.0075 -0.018438,0.018438 -0.02,-0.021719 -0.013281,-0.014219 -0.014219,0.00594 -0.015781,-0.00672 -0.018282,0.00828 -0.0125,0.013437 0.01,0.00328 0.00922,0.00922 0.014219,0.00328 0.01,0.0075 -0.00328,0.015 -0.014219,-0.00578 -0.019219,-0.0025 -0.011562,-0.005 -0.0075,0.0075 -0.01,-0.00922 -0.00922,-0.00672 -0.01,-0.00156 -0.00328,0.010781 0.00656,0.0125 -0.0025,0.020781 -0.0125,-0.00406 h -0.01 l -0.019062,7.812e-4 -0.014219,0.00578 -0.00578,0.0125 -0.0125,-0.00406 -0.013438,-0.016719 -0.01,0.00172 -0.00922,0.00906 0.00422,0.016719 -0.005,0.015 0.00672,0.013281 0.01,0.00922 -0.00172,0.025 0.00828,0.0125 0.00672,0.014219 0.00328,0.028281 -0.0025,0.038281 0.00672,0.02 0.010938,-0.00156 0.00828,0.011562 0.00672,0.00844 0.00906,0.00156 0.00422,0.016719 0.0125,0.019219 0.00578,0.02 0.018438,0.0125 0.0125,0.00578 0.0075,0.019219 0.014062,0.011562 -0.00328,0.016719 0.011719,0.010781 0.00328,0.026719 0.011719,0.011719 0.018281,0.0025 0.010469,0.010312 0.00281,0.00875 0.014219,0.00172 0.00422,0.015 0.0125,0.013281 -0.005,0.014219 -0.0075,0.0125 0.011562,0.015 0.00672,0.0175 v 0.010781 l 0.013281,0.00922 0.00172,0.02 0.00906,0.0275 0.0025,0.015781 0.018281,0.00422 0.019219,-0.00672 0.013282,0.00594 0.02,-0.00922 -0.00156,-0.026719 0.00328,-0.021562 -0.005,-0.028437 v -0.023281 l 0.018281,-0.03 0.00828,-0.0075 v -0.00578 l 0.00969,-0.00969 0.00391,-0.014531 0.00406,-0.015781 -0.005,-0.015938 -0.00875,-0.00875 v -0.01375 l 0.00859,-0.00844 0.010156,0.00266 0.0175,-0.005 h 0.015938 l 0.014062,-0.016719 0.011719,-0.005 v -0.011562 l 0.015,0.0025 0.00578,0.00578 0.0125,0.00328 c 0,0 -0.00167,0.00625 0.00625,0.00625 0.00792,0 0.017969,-0.00125 0.017969,-0.00125 h 0.0075 0.00922 0.011562 l 0.014219,-0.00156 0.00828,-0.00844 -0.010312,-0.010312 -0.00719,-0.014687 -0.00156,-0.015 0.0125,0.00172 0.00828,0.00922 0.00875,-0.00875 v -0.022969 l -0.00453,-0.028281 0.00406,-0.021719 -0.01,-0.01 -0.015781,-0.015 -0.010781,-0.00672 0.010781,-0.010781 0.005,-0.021719 -0.01203,-0.01203 -0.00547,-0.01625 0.013281,-0.00922 0.010938,-0.010781 0.015,7.813e-4 0.014062,-0.00578 v -0.015 l 0.010938,-0.010781 0.012812,-0.012969 h 0.01625 l 0.010938,-0.00797 0.00578,-0.013281 h 0.014219 l 0.00875,0.00875 -0.00547,0.01625 v 0.016719 l 0.012031,0.012031 0.020469,0.00375 0.00172,-0.015781 0.010781,-0.010937 0.00422,-0.00906 h 0.019062 0.0175 l 0.00844,-0.0125 h 0.0175 l 0.016562,0.00906 0.019219,-0.00656 0.010469,-0.010469 0.020312,0.00375 0.00594,0.016719 v 0.015781 h 0.011562 l 0.02,-0.00328 0.010938,0.010781 0.00578,0.014219 0.02,0.0075 0.0125,0.015 0.00328,0.0225 0.00844,0.021563 0.00656,0.014219 -0.01,0.01 v 0.013281 h 0.010938 l 0.01,-0.016563 0.014062,0.0125 0.01,0.019062 0.014219,0.00422 0.0175,-0.0025 0.019219,-0.00922 0.014062,0.0075 0.015938,0.0125 0.00578,0.0125 0.015781,-0.00578 h 0.019219 l 0.010469,0.010469 v 0.02125 l 0.012187,0.012188 0.00313,0.00937 0.01625,0.01625 h 0.014688 l 0.00891,-0.00891 h 0.00859 l 0.00656,0.013594 0.00969,0.00953 0.01875,-0.00125 h 0.018281 l 0.010777,-0.010781 0.011719,-0.015938 -0.011719,-0.011563 -0.00328,-0.014219 -0.00797,-0.00797 -0.011562,-0.011563 -0.00547,-0.012188 0.00672,-0.0175 0.016562,0.00422 0.014219,-0.00422 0.00578,-0.015 -0.00578,-0.020781 0.014219,-0.00578 0.021562,-9.375e-4 0.014219,0.014219 h 0.011719 l 0.010312,-0.010469 -0.01125,-0.01125 -0.00906,-0.00906 -0.00922,-0.00594 0.011719,-0.011563 -0.00594,-0.0125 0.00594,-0.018438 h 0.0175 l 0.019062,0.01 0.013438,0.011719 0.015,-0.00422 0.020781,0.00422 0.028281,-7.812e-4 0.019219,0.00578 h 0.014219 l 0.015781,0.00828 0.016719,-0.00328 0.00953,-0.00953 h 0.00875 l 0.021719,0.01125 h 0.0225 l 0.018281,-0.00344 0.015,0.00844 0.018281,-0.005 h 0.020938 l 0.01,-0.014219 0.018281,0.00172 0.016719,0.01 h 0.020781 l 0.0075,0.015 h 0.015 l 0.0125,0.00578 0.00672,0.020781 -0.00422,0.011719 v 0.015781 l -0.010469,0.010468 0.00469,0.014531 0.018281,0.005 0.016719,-0.01 0.012031,0.012188 -0.00547,0.019531 0.016719,0.005 0.00922,-0.00922 0.015,0.00922 h 0.016562 v 0.011719 l -0.02,0.00906 -0.005,0.0225 h 0.014219 l 0.0175,-0.00828 0.00922,0.013281 0.02,-0.010781 0.023281,-0.00672 0.01375,-0.01375 0.012969,-3.125e-4 0.0175,-9.375e-4 0.0125,-0.0125 h 0.015 l 0.00406,0.011719 -0.01,0.013281 H 1.921185 v 0.015 l 0.014062,0.00594 0.010469,0.010312 0.00953,0.020469 0.00922,0.00922 0.014219,0.014063 0.01,0.033437 v 0.0275 l 0.013281,0.0125 v 0.02 l 0.014219,0.025 0.00406,0.021562 0.00594,0.019219 0.010781,0.021719 0.018281,-0.00344 0.00922,-0.019062 0.013281,-0.00422 0.00922,0.010781 v 0.0125 l 0.00922,0.00922 0.01,0.01 0.018281,-0.00328 0.00828,0.00828 0.020937,-0.00328 0.010313,-0.010469 h 0.02125 l 0.010312,0.010156 0.015625,0.00688 0.011563,0.010937 0.00344,0.02 0.014063,0.00906 0.00672,0.015 0.0175,0.010937 v 0.02 l 0.0225,0.00578 0.02,0.00672 0.021719,-0.00844 0.012812,-0.012813 0.00469,0.017031 0.00906,0.016719 0.0075,0.0125 0.024219,0.00406 0.010781,-0.010781 0.020938,-0.011719 0.025,9.375e-4 0.01375,-0.01375 0.019531,-0.00469 0.00328,-0.0175 h 0.016719 l 0.016719,-0.016563 0.0275,-0.0175 h 0.021562 l 0.00594,-0.0175 h 0.018281 l 0.014531,-0.014687 0.017969,0.00797 0.014219,0.014219 0.0225,-0.00922 0.019062,0.00578 0.015937,0.015938 0.013281,0.013281 0.024219,0.00828 0.016563,0.005 0.023437,-0.00406 0.0225,0.00578 h 0.024062 0.015938 l 0.01875,-0.01875 0.019531,-0.012969 v -0.02 L 2.854941,2.8899347 v -0.01875 l -0.010469,-0.0125 0.00328,-0.021719 0.01125,-0.01125 0.010469,-0.02125 0.012969,-0.012813 0.00953,-0.00969 0.019219,0.014219 h 0.0325 l 0.01625,0.01625 0.02375,-0.00625 H 3.00447 l 0.021719,0.00828 0.015313,0.015469 0.012188,0.025469 0.012812,0.012812 0.020469,0.00875 0.03,0.0025 0.020781,-0.00578 0.021719,-0.005 0.019531,-0.019531 h 0.02375 l 0.038438,-0.00547 0.011562,0.0075 0.029219,0.00422 H 3.31369 l 0.011563,0.011562 0.00672,0.0125 0.0225,0.0075 0.025,-0.00328 h 0.034219 l 0.024062,-0.0075 h 0.026719 l 0.010469,-0.010469 0.020313,-0.020312 0.026719,-0.0125 0.019219,-0.013437 0.014531,-0.014531 0.00703,-0.024531 0.0125,-0.0125 0.0175,-0.0175 0.020938,-0.00922 0.015781,0.00578 0.0175,0.00922 0.023281,-0.013281 0.016719,-0.01 0.0225,0.00406 0.030781,0.0025 0.0275,-0.01 0.01625,-0.01625 0.01125,-0.02625 0.0175,-0.005 v -0.023281 l -0.0075,-0.0075 -0.0125,-0.024219 0.00922,-0.023281 v -0.0225 l 0.005,-0.035781 0.00672,-0.014219 -0.00672,-0.026719 -0.011719,-0.011562 -0.010312,-0.010469 -0.012969,0.010469 -0.00922,-0.011719 0.00672,-0.016719 0.00922,-0.0275 0.012813,-0.012812 0.02625,-0.015469 0.013438,-0.013281 0.028281,-0.020938 h 0.020781 l 0.019219,-0.00656 0.025,0.00406 0.02,-0.010781 h 0.0175 l 0.033281,0.00328 0.01,0.01 0.016719,0.0075 0.00672,0.0175 0.018281,0.005 0.013281,0.013438 0.019219,0.015 0.00828,0.02 0.02,0.00328 c 0,0 0.015937,0.012441 0.015937,0.015781 0,0.00334 0.014063,0.011719 0.014063,0.011719 l 0.012187,0.012031 0.010313,0.020469 0.025,0.005 0.025,-0.00937 0.00922,-0.00891 h 0.0225 l 0.024219,-0.00359 0.015781,0.00438 0.019219,0.005 0.00953,-0.00953 0.017969,0.00453 0.010781,0.010781 0.013281,0.011719 v 0.019219 l 0.011719,0.00391 0.015781,0.00937 h 0.015937 l 0.00406,-0.015 0.015,-0.005 0.0175,-0.01 0.0175,-0.014219 -0.00656,-0.020781 0.015,-0.019219 0.013281,-0.021562 0.005,-0.016719 0.02,-0.010781 h 0.014219 l 0.00328,0.010781 0.012031,0.012031 0.010469,0.010469 v 0.018281 l -0.0125,0.0125 0.016719,0.0175 0.00406,0.018281 0.00922,0.015781 -0.00329,0.013287 0.011562,0.015938 0.00172,0.019062 0.00828,0.018437 -0.00656,0.0175 0.013281,0.020781 -0.0075,0.015 -0.012031,0.012031 -0.01375,-0.00453 -0.013438,0.00672 -0.011563,0.011563 v 0.016719 l -0.00922,0.00922 -0.010469,0.010313 4.685e-4,0.01625 0.015,0.005 0.015781,0.015938 0.0075,0.019062 0.00922,0.00922 0.017969,0.017969 0.00875,0.019531 v 0.016719 l -0.01,0.02 -0.00594,0.019061 0.00672,0.00672 0.015781,7.813e-4 V 2.876042 2.867762 l 0.00719,-0.00719 0.00453,-0.01625 -0.00328,-0.014063 0.00328,-0.020938 v -0.00828 l 0.010781,0.010781 0.00719,0.00719 V 2.803543 l 0.00625,-0.014219 0.00625,0.00625 v 0.01125 l 0.012031,0.005 0.0175,-0.01 0.020781,-0.00828 h 0.010937 l 0.0125,-0.023281 0.010781,-0.023281 0.016719,-0.0275 V 2.700263 l 0.00156,-0.04 -0.005,-0.030781 0.005,-0.03 v -0.04 -0.0325 l 0.005,-0.016719 V 2.478544 l -0.005,-0.0325 -0.005,-0.024062 -0.00656,-0.026719 -0.00922,-0.024219 7.813e-4,-0.030781 -0.00906,-0.03 0.005,-0.03 v -0.035 l -0.012969,-0.012969 -0.015469,-0.02375 -0.00406,-0.011562 -0.011719,-0.02 -0.016724,-0.016719 -0.00406,-0.014219 -0.00844,-0.00828 -0.02125,-0.02125 -0.017031,-0.024531 -0.010781,-0.033437 -0.0025,-0.031563 -0.00844,-0.015937 -0.00781,-0.00781 -0.015469,0.00203 -0.0125,-0.0125 -0.00328,-0.010781 h -0.015 -0.014219 l 0.005,-0.00922 0.00219,-0.00219 h -0.126875 l 0.00797,0.014687 0.0075,0.014219 0.00797,0.00781 -0.00281,0.02 0.00594,-0.00359 -0.023436,3.125e-4 -0.00594,0.00797 v 0.00828 l -0.016719,0.00656 v -0.010781 l -0.00156,-0.013281 -0.019844,3.125e-4 0.011406,-0.00531 -0.01,-0.0075 v -0.00844 l -0.00906,0.01 v 0.0125 l 0.011563,0.005 v 0.013438 l -0.00875,0.00875 -0.01,-0.01 -0.00797,-0.013906 -0.01375,-0.00766 0.00391,-0.00891 -0.00844,-0.00828 -0.012031,0.012031 -0.010781,0.010781 h -0.01375 l -0.00984,0.00984 h -0.012656 l -0.0075,-0.016875 0.00656,-0.018281 V 1.979314 l 0.00531,-0.00875 H 0.2424471 Z m 4.058428,4.2e-6 v 0.00703 l 0.012344,-0.00516 0.00641,0.00656 0.00719,-0.00719 3.126e-4,-0.00125 h -0.02625 z m 0.2534374,0 0.011875,0.011875 v 0.010781 l 0.017344,0.023906 0.012969,0.00141 0.021719,0.00938 0.027344,0.012188 0.01,0.016562 0.015937,0.021719 0.017969,0.017969 0.021719,0.021719 0.026719,0.036719 0.012187,0.025937 0.014375,0.00438 0.015156,0.00859 0.014375,0.01375 0.011562,0.022344 0.00938,0.012188 0.01375,0.01375 0.014375,0.014375 v 0.01375 l 0.021719,0.020156 0.012187,0.012188 v 1.56e-4 l 0.00938,0.011406 0.011563,-0.00938 -0.00859,-0.01875 -0.011562,-0.011406 v -1.56e-4 l -0.00359,-0.014375 0.00578,-0.014687 h 0.018281 l 0.00828,-0.00828 c 0,0 0.00483,0.00235 0.010156,0.00469 6.5e-5,3e-5 9.15e-5,-3e-5 1.56e-4,0 0.00396,0.00174 0.00817,0.00346 0.010781,0.00422 8.8e-4,2.56e-4 0.00158,4.685e-4 0.00203,4.685e-4 5.025e-4,0 8.438e-4,-1.735e-4 0.00109,-4.685e-4 0.00173,-0.00165 -0.00109,-0.00828 -0.00109,-0.00828 l -0.010156,-0.012969 -0.016875,-0.00969 -0.00969,0.00969 -0.015937,-7.812e-4 -0.00641,-0.013594 h -0.012344 l -0.010781,-0.010781 h -0.01875 l -0.012188,-0.00797 -0.014531,-0.014375 -0.00938,-0.00937 c 0,0 -6.388e-4,-0.00515 -0.00109,-0.010469 -3.05e-4,-0.00387 -4.96e-4,-0.00782 -1.56e-4,-0.010156 5e-6,-4.5e-5 -5e-6,-1.11e-4 0,-1.56e-4 v -1.56e-4 c 1.2e-4,-7.012e-4 3.9e-4,-0.00111 6.25e-4,-0.00141 5e-5,-3e-5 0,-1.215e-4 0,-1.56e-4 5e-5,-3e-5 0,-1.215e-4 0,-1.56e-4 2.05e-4,-2.69e-4 2.515e-4,-6.003e-4 1.56e-4,-0.00109 -1.13e-4,-5.9e-4 -3.61e-4,-0.00123 -7.813e-4,-0.00203 -3.899e-4,-7.5e-4 -8.357e-4,-0.00133 -0.00141,-0.00219 -0.00285,-0.00433 -0.00734,-0.00953 -0.00734,-0.00953 l -0.012344,-0.01875 v -0.00875 l 0.00297,-0.010781 -0.00297,-0.015156 h 0.010781 l 0.01375,-0.00422 v -1.56e-4 l 0.00719,-0.00719 0.00297,-0.00937 -0.020322,-0.00766 -0.011406,-0.00937 -0.018125,-0.010938 -0.020938,-0.010781 -0.0044,-0.00745 -0.035911,-0.019892 -0.017969,-0.015938 -0.01875,-0.00719 -0.01375,-0.00359 -0.00609,-0.00625 h -0.082969 l -3.7e-6,-2.08e-5 z m 0.6251563,0.039063 -0.00969,0.00969 -0.00297,0.012344 0.005,0.011563 -0.00359,0.01875 0.00938,0.00203 0.00516,-0.011406 -0.00297,-0.015938 0.00219,-0.01375 -0.0025,-0.013281 z m -0.019844,0.096252 -0.00359,0.0036 0.00281,0.012344 0.00578,-0.00875 -0.005,-0.00719 z"
     id="rect6" />
  <path
     style="fill:#0083d6;fill-opacity:1;stroke:#0083d6;stroke-width:0.0105;stroke-linejoin:miter;stroke-miterlimit:4;stroke-opacity:1;stroke-dasharray:none"
     d="m 0.9422832,1.0091629 -0.017343,0.0175 -0.00219,0.015312 -0.030781,0.0575 -0.014219,-0.00656 -0.029062,0.023281 -0.013438,7.812e-4 0,0.028437 -0.015,0.00578 0,0.021719 -0.02,0.015781 -0.023281,0 -0.00578,0.055 0,0.021719 -0.035,0.0125 -0.186719,7.813e-4 0.010781,0.0125 0.018438,0.0075 -0.00422,0.00422 -0.013281,0.00328 0,0.028281 0.015,0.013437 0.00156,0.024062 -0.01,0.01 -0.00656,-0.016563 -0.00672,-0.015 -0.018281,-0.00578 -0.011719,-0.0125 -0.014219,-0.00672 -0.0075,0.0075 -0.00328,0.0125 -0.0225,-0.005 -0.016719,0.01 -0.019062,-7.813e-4 -0.014219,0.019062 -0.0175,0.00672 -7.81e-4,0.0125 -0.00906,0.010781 -0.020781,9.375e-4 -0.00844,0.01 0,0.0175 -0.02,0.0125 -0.013282,0.00328 0.00422,0.015 -0.00922,0.016719 -0.015781,0.015781 -0.0025,0.011719 0.0075,0.016563 0.011563,0.011719 -0.00406,0.013281 -0.005,0.0125 0.015781,0.00422 0.014219,0.013281 0,0.028281 -0.015937,0.013437 -0.00594,0.0125 -0.016719,0.005 -0.00656,0.018281 -0.00922,0.021719 -0.005,0.02 7.81e-4,0.014063 -0.00828,0.00594 0.0125,0.0125 -0.005,0.018281 -0.00422,0.016719 -0.015781,0.005 -0.016719,-0.00594 -0.005,-0.0125 -0.00906,-0.01 -0.0125,9.375e-4 -0.00422,0.015 -0.010781,0.0125 -0.015938,0.015781 -0.0075,0.013281 0.0075,0.0125 0.00875,0.00875 0.01125,-0.00953 0.0075,0.010937 0.00922,0.01 0.0125,0.00156 0.00922,0.00922 0.00656,0.016719 -0.00156,0.013281 -0.00594,0.0225 -0.0075,0.00672 -0.01,0 -0.005,0.0125 -0.00828,0.00656 0.00922,0.014219 0.00906,0.016563 0,0.0175 -0.00828,0.018438 -0.010781,0.0125 0.00406,0.011563 0.00766,0.00609 3.9978125,0 0.00453,-0.012812 0,-0.020938 0.0125,-0.020781 0,-0.023281 0.0075,-0.028437 0,-0.0225 0,-0.02 -0.00828,-0.00906 0,-0.028437 0.005,-0.020781 0,-0.03 0,-0.0225 0.01,-0.016719 -0.011719,-0.011563 -0.0075,-0.019219 0.00422,-0.026719 0.0125,-0.0125 -0.013281,-0.026562 0.0025,-0.0275 0.014062,-0.028438 0.014219,-0.014062 0.013281,-0.0225 0.012188,-0.012188 0.01875,-0.01875 0.019062,0 0.014219,-0.00906 -0.005,-0.005 -0.00672,-0.010937 0.01,-0.00906 0.01,0 0.011719,-0.010937 0.012969,-0.012813 -0.00547,-0.017969 0.0175,0.00672 0.010781,-0.011719 -0.00906,-0.00906 -0.00422,-0.015938 0.00422,-0.0125 0.010781,-0.010781 0.013281,-0.00344 0.011719,-0.014063 0.023281,-0.010938 0,-0.0075 0.015938,-0.0025 0.015,-0.00578 0.00625,0.00625 -0.01375,0.00453 -0.00344,0.010938 0,0.010781 c 0,0 0.01125,0.00375 0.0075,0.0075 -0.00375,0.00375 0.015938,-7.812e-4 0.015938,-7.812e-4 l 0.00578,-0.015937 0,-0.0175 0.015781,-0.00656 0.0025,-0.0125 -0.00578,-0.029219 0.025,-0.00406 0,-0.0225 0.013281,-0.00422 9.375e-4,-0.015781 -0.0125,0 -0.00719,0.00703 -0.00953,0.00875 -0.010781,0.00172 -0.011719,-0.011719 0,-0.015 -0.01375,-0.01375 -0.00453,-0.032969 0,-0.025 -0.015,-0.023281 0.0025,-0.023281 -0.015,-0.01 -9.375e-4,-0.036719 0.00922,-0.010781 0.0075,-0.0275 0,-0.013437 0.0225,0 0.00656,-0.019375 -0.9579687,0 -0.00484,0.005 0.019531,0.00875 0,0.0125 -0.018281,-0.005 -0.015781,7.812e-4 -0.021719,0.005 -0.011721,0.02172 0.00422,0.021406 -0.020781,0 -0.018438,0.005 -0.011563,-0.011563 -0.020938,-0.0025 0,0.015 0.010938,0.010781 0,0.011719 0.005,0.0125 0.00828,0.0275 -0.00172,0.015781 -0.019063,-0.01 -0.0075,0.0075 -0.0175,-0.00312 -0.0125,-0.00859 -0.01625,-0.01625 -0.017187,4.685e-4 0,-0.013281 c 0,0 -0.0075,-0.01167 -0.0075,-0.0075 0,0.00417 -0.00906,0.00828 -0.00906,0.00828 l -0.011719,-0.011719 0.00672,-0.00656 0.010781,-0.00312 0,-0.018594 -0.00828,-0.00813 -0.015937,0.01 0,-0.015938 -0.00953,-0.00953 -0.00937,0 0.00641,-0.020469 -0.02,-0.00656 -0.00578,0.00578 -0.018281,-0.014062 c 0,0 -0.00172,0.00781 -0.00797,0.00781 -0.00625,0 -0.00547,0.015469 -0.00547,0.015469 l -0.00656,0.005 -0.00672,-0.0075 -0.00672,0.00172 -0.00328,0.01 -0.013281,-0.00922 -0.00875,-0.00875 -0.010469,0.00797 -0.01,-0.01 -0.0025,0.01 -0.00328,0.019063 0.0125,0.019219 0.0025,0.016719 c 0,0 0.00416,0.015 0,0.015 -0.00416,0 -0.0225,0.00328 -0.0225,0.00328 l -0.0175,0.015 -0.0175,0.00672 -0.01,-0.015937 -0.0025,0.00922 -9.376e-4,0.00672 -0.025625,0 -0.01375,-0.01375 0.00563,-0.00594 -0.00625,-0.00953 -0.025,0.0075 -0.031563,0.00578 -0.020938,0.010938 -0.015312,0.015312 -0.00797,0.00797 0.011719,0.010781 -0.011719,0 -0.01,-0.014219 0,-0.016563 -0.00875,-0.00875 -0.010469,0.014531 -0.00328,0.01 -0.016719,-0.00672 -0.014063,-0.00328 -0.01,0 -0.0125,7.813e-4 7.813e-4,0.013437 -7.813e-4,0.00672 0.01,7.812e-4 0.00625,0.00625 -0.00797,0.015469 -0.013281,0.005 -0.014219,0.011562 c 0,0 -0.0025,0.015 -0.01,0.015 -0.0075,0 -0.020781,0.00422 -0.020781,0.00422 l -0.015,0.00922 0.00328,0.016563 -0.015,0.00672 0.00422,-0.015 0.00328,-0.021719 0.01375,-0.01375 0.00625,-0.01875 0.02,-0.005 0.005,-0.025781 0.0125,-0.0125 0.005,-0.023437 0,-0.00828 0.016719,-0.02 0.00953,-0.00953 0.00797,-0.01625 0.00828,-0.011719 0,-0.016719 0.00953,-0.00953 -0.010312,-0.017813 -7.813e-4,-4.685e-4 -0.2820313,0 0.00703,0.00531 0.0075,0.01 -0.016563,-0.00328 -0.016719,0.00328 -0.0025,0.013437 -0.025781,-7.812e-4 -0.010469,0.010312 0,-0.012031 0.00797,-0.015 -0.015,0.0025 -0.00422,0.00906 -0.018281,0.0025 -0.021719,0.005 -0.00828,0.00844 0.015,0.005 -0.005,0.00578 -0.0225,0.00672 -0.00797,0.00781 -0.03125,0.00469 -0.00875,0.00875 -0.022969,0.00875 -0.00906,0.019062 -0.023437,-7.812e-4 9.375e-4,0.0125 0.011562,7.812e-4 -0.011562,0.00922 -0.00844,0.011719 0.00719,0.00703 -0.00469,0.010469 0.00672,0.0075 -0.01,0.0025 c 0,0 0,-0.0125 -0.00625,-0.00625 l -0.00953,0.00953 0.00828,0.00828 0.01,0.00344 0.00828,0.0125 -0.00828,0.00828 -0.015781,0 -0.021719,0.00922 -0.0325,0 0,0.005 -0.02,-0.0075 -0.039219,0 -0.016563,0.015 0.00406,0.020781 0.00672,0.00672 -0.0075,0.016563 -0.005,0.02 0.00672,0.00672 0.01155,0.019216 0.015938,0.00578 -9.375e-4,0.011719 0.00922,0.0125 -0.00328,0.013281 -0.0225,0 -0.01469,-0.014531 -0.00531,-0.00547 0.00578,-0.016719 -0.021719,-0.011563 -0.01125,-0.01125 -0.01375,0.00203 -0.016563,-0.00328 -0.00969,0.00953 0.00125,0.00969 0.00344,0.010781 -0.01,0.00922 -0.013438,-0.013438 -0.00828,-0.00828 -0.0175,0.011562 0.00578,0.018438 0.0125,0.0125 0,0.00672 0.015,0.0075 0.00969,0.00953 0.00531,0.012969 0,0.01 -0.014063,-0.013437 -0.012969,-0.012813 -0.012969,0.00781 -0.01,-0.00828 -0.0175,-0.013438 0,-0.015 0,-0.020781 0.015,-0.015 0.00344,-0.021719 0,-0.024062 0.00406,-0.0175 -0.013281,0 -0.00578,0.0125 0.00578,0.014063 -0.00672,0.0175 -0.01,0.015938 -0.0175,0 -0.020782,0.020781 -0.013281,0.013437 0.012031,0.012031 -0.00203,0.017031 0.005,0.015937 0.00578,0.018281 -0.016719,0.016719 -0.0075,0.021562 -0.011563,0.018438 0.0025,0.026562 -0.01,0.01 0.0025,0.015937 0.015,0 0.00656,0.00906 0.0125,-0.00578 0.00969,-0.00969 0.011562,0.011719 0.020469,0.00703 0.00672,0.00672 0.010781,0.01 0.00828,0.016719 -0.00578,0.013281 0.005,0.015781 -0.005,0.010937 -0.013281,0.00406 0.00156,0.015 0,0.01 0.00719,0.00719 0.01875,0.00531 0,0.011719 -0.019219,-0.00438 -0.016719,-0.016563 0,-0.0125 -7.812e-4,-0.02 0.013281,-0.013281 -0.01,-0.025937 -0.00781,-0.00766 -0.00547,-0.01625 -0.019219,0.0025 -0.0175,0 -0.01125,0.01125 -0.01125,0.01125 0.00172,0.015781 0.00422,0.0175 -0.005,0.02 -0.010469,0.010469 -0.012968,0.012812 -0.0075,0.0075 0,0.0175 -0.016563,0.00922 -0.020938,0.00578 -0.005,0.005 -0.010782,0 c 0,0 -0.01209,0.00541 -0.00875,0.00875 0.00333,0.00333 -0.00297,0.014687 -0.00297,0.014687 l -0.015,0 -0.01,-0.014219 -0.014062,7.813e-4 -0.016719,-0.011563 -0.0125,-0.00609 -0.0125,-0.019062 0,-0.015781 0.0125,0.00422 0.00875,0.00875 0.01375,0.00875 0.0125,-0.00828 0.020782,0.00406 0.011719,-0.00656 0.0125,-0.018438 0.021719,-0.021562 0.018281,-0.005 0.00328,-0.030937 0.018438,-0.014063 0.0025,-0.013438 -0.014687,-0.014531 -0.00625,-0.022031 0.00672,-0.015937 0.00922,-0.031563 0.00578,-0.035938 0.016719,-0.025 0.00406,-0.0225 0.005,-0.028281 -0.014063,-0.0125 0.00656,-0.021719 0.02375,-0.02375 0.00375,-0.030313 0.00844,-0.00844 -0.0075,-0.028281 -0.0175,0 -0.01,-0.01 -0.02,0 -0.01,-0.014219 -0.015938,0.00844 -0.00906,0.02 -0.00844,0.02 -0.010782,0.024062 -0.014214,0.014219 -0.00625,0.00625 -0.017812,0.00875 -0.016719,0.00578 -0.00922,0.011719 -0.00578,0.016563 0.010782,0.00344 0,0.0125 -0.0075,0.01 -0.00406,0.02 0,0.013281 -0.016719,0.00844 -0.00797,0.00781 0.00875,0.017969 0.015938,0.010781 -0.00344,0.023437 0.00922,0.021563 0.013282,0.00422 -0.019062,0.0175 0,0.0175 -0.016719,0.01 -0.01172,-0.018439 0,-0.016563 -0.014062,-0.019219 -0.013438,-0.020781 -0.019532,-0.019688 -0.010468,-0.02125 -0.015782,-0.015781 -0.019531,-0.019531 -0.017187,-0.02125 -0.00656,0.00656 -0.015469,-0.015313 -0.012968,0.00375 -0.015,0.0075 0.0025,0.024062 -0.00328,0.02 -0.015781,0.0025 0,0.013437 -0.016719,-0.00422 -0.00703,0.00703 -0.00125,0.015469 -0.01594,-0.013281 0,-0.014219 0.013437,-0.00922 0.0025,-0.011563 -0.00875,-0.00875 -0.022188,0.00703 -0.0175,0 -0.00875,0.00875 -0.025781,-0.025781 -0.02375,-0.00469 -0.025,0.010937 -0.013281,0 -0.019219,-0.0175 0.0125,-0.00422 0.005,-0.015 0.015781,0 -0.00578,-0.021719 -0.014219,0 -0.026562,0.00844 0,0.015 -0.00844,0 -0.00906,-0.016719 -0.018438,0 -0.031562,-0.00422 -0.0175,0.00344 -0.0325,-0.00594 0.00328,0.013438 -0.020781,-0.01 -0.021719,0.005 0,0.015 -0.020781,0.01 -0.018437,-0.00844 -0.019062,-0.005 0,-0.016563 -0.00672,-0.02 0,-0.021719 0.026719,-0.00922 0.0175,0.00422 0.0125,0.0125 0.0075,-0.0075 0.005,-0.015 0,-0.029219 -0.014218,-0.021563 -0.01875,-0.01875 -0.00453,-0.010469 -0.014219,0 0.00328,0.02 0,0.020781 -0.020781,0.0125 0,0.013437 -0.021719,0.010781 -0.00656,0.014219 0,0.020781 -0.016719,0.024219 -0.02,0.00406 -0.014531,0.014687 -0.010469,0.012813 0,-0.018281 0.011719,-0.011719 -0.014219,-0.021719 -0.00953,-0.00938 -0.015469,0 -0.0225,0.00687 -0.02,-0.010781 -0.024218,0.00906 -0.025782,-0.00406 -7.81e-4,0.029219 -0.014219,0.011719 0.00578,0.014219 -0.00703,0.00687 -0.02375,-0.00687 -0.00922,-0.019218 -0.014532,-0.014531 -0.00453,-0.024688 -0.005,-0.0375 -0.014219,0 -0.014219,0.015 0,0.014219 -0.00156,0.018281 0.010781,0.010937 -0.00422,0.020781 -0.020782,0.015 -0.018281,-0.018281 -0.017188,-0.017187 0.012188,-0.02125 -0.0075,-0.021562 -0.005,-0.0175 0.015313,-0.015469 0.00625,-0.029531 0.01625,-0.01625 0.020468,-0.00625 0.011719,-0.025937 0.00328,-0.018281 -0.012187,-0.012188 0.00906,-0.00906 -3.1e-4,-0.02125 -0.00344,-0.018438 0.00797,-0.00781 0.00547,-0.014687 0.011562,0.011719 -0.00938,0.00953 -0.00375,0.01875 0.011563,0.005 0.00578,0.030938 0.010781,0.018281 0.00609,0.016719 0.0075,0.0175 0.015781,0.015781 0,0.0225 0.015469,0.015469 0.024531,0.01375 0.0225,0.00828 0.025625,-0.005 0.023438,0 0.022031,-0.022031 0.014531,-0.025469 0.00359,-0.03 7.95e-4,-0.018281 -0.014531,-0.014687 -4.7e-4,-0.025313 -0.005,-0.011719 0.00422,-0.020781 0,-0.024219 -0.00672,-0.023281 -0.01375,-0.01375 0,-0.019687 -0.012187,-0.00578 0,-0.00953 -0.2264065,0 z m 0.8353125,0 -0.00313,0.00313 -0.019688,0.00516 -0.018906,0.00531 0,0.00594 0.01625,0.00578 0.00641,0.00656 -0.018907,0.00375 -0.00187,0.00797 -0.00875,0.00844 -0.00828,-0.00813 -0.017344,0 0,0.011406 -0.00391,0.01125 -0.013594,-0.00531 -0.012031,0.00766 0.00906,0.00984 -0.013594,0.014375 -0.0175,0.00516 -0.00219,0.00984 -0.00531,-0.00219 -0.00453,-0.00531 -0.014375,-0.00156 -0.012031,0.016719 -0.00312,0.016563 0.00906,0.012969 0.011406,6.25e-4 0.00531,0.01375 0.00531,0.00141 -7.81e-4,0.018125 0.00828,0.00687 -0.00453,0.0075 -0.012031,0.00391 -0.00453,0.013594 0.012031,0.012812 0.015938,0.015156 0.00531,-0.00313 0.00906,0.01375 0.00828,0 0.012031,0.00672 0,0.00984 0.012968,-0.00609 0.00453,-0.00453 -0.00391,-0.013594 -0.00828,-0.012812 0.00609,-0.019688 -0.00687,-0.019687 0.00531,-0.013594 0,-0.018906 0.010625,-0.010625 0.00453,-0.015156 0.012813,-0.00516 0,-0.014375 0.012969,-0.010625 0.015781,0 0.00984,-0.016719 0.00766,-0.00984 0.00969,0 0.00719,-0.00719 0.00859,-0.00844 0.00656,0.00641 0,-0.01125 0,-0.00719 0.00641,0.00641 0.00906,0 -0.00219,-0.015156 0.00906,-0.00812 0,0.012812 0.011406,-0.00828 0.013594,-0.00984 0,-0.013594 0.013594,0.00375 0.00156,-0.00828 0.012813,0 0.014375,0.00156 0.012031,-0.00469 -0.00172,-0.00375 -0.128906,0 z m 2.7496875,0 0.00297,0.00281 0.00672,0.014062 0.00828,0.00844 0.0125,0.0125 0,-0.020938 0.015,0.0075 0.00672,0.016719 0.00578,-0.019219 -0.00109,-0.021875 -0.056875,0 z m 0.1101562,0 0.00125,0.00109 0.01,0.030781 0.00828,0.020781 0.0075,0.025937 0.00672,0.0275 0.015781,0.020781 0.01,0.030781 0.00422,0.026719 0.00828,0.025 -0.00625,0.00625 -0.0075,0.0075 0.00797,0.01375 -0.00594,0.0125 -0.00703,0.00703 0,0.00719 0.015469,0.00328 0.014062,0.02 0.0025,0.019219 0.011719,0.011563 0,0.0175 0.016719,0.0175 0.024063,0.024219 0.010937,0.02 0.0225,0.015 0.023281,0.0125 0.035781,0.010781 0.016719,0.00359 0.015,0.01 0.00922,0.0125 0.031563,0.016563 0.0275,0.011719 0.029219,0.013281 0.015,0.015 0.016719,0 0.012031,0.012188 0.015468,0.00766 0.024063,0 0.00922,0.0125 0,-0.016562 -0.00422,-0.0225 -0.00828,-0.035 -0.00328,-0.026719 -0.015937,-0.015 -0.021562,-0.021563 -0.014219,-0.00594 -0.00828,-0.03 0.00656,-0.015 0,-0.015 0.018438,-0.0025 0,-0.01 -0.024218,-0.00578 -0.00703,-0.00719 -0.014687,-0.00531 -0.016563,-0.025937 -0.00594,-0.033281 0.00844,-0.018281 0.014062,-0.00922 0.01,-0.00672 -0.00578,-0.015 -0.016719,-0.013281 -0.028281,0.00328 -0.012031,-0.012031 -0.015469,-0.00375 -0.0175,-0.029219 -0.005,-0.02 0.016719,-0.005 0.00656,-0.015781 -0.01625,-0.01625 -0.01375,0 -0.00844,0.00859 -0.021562,-0.00484 -0.021562,-0.015 -0.00422,-0.019219 -0.021719,-0.021562 -0.00578,0.0125 -0.00797,0.00781 0,0.00719 0.00625,0.014063 -0.023281,0 -0.01375,-0.01375 -0.022971,-0.012031 -0.0025,-0.018281 -0.00328,-0.023437 -0.015781,-0.015781 -0.00188,-0.00188 -0.089375,0 z m 0.1301563,0 0.00344,0.00438 6.25e-4,0.012969 0.011563,0.00438 -0.00282,-0.012969 -0.00438,-0.00875 -0.00844,0 z m 0.3310935,0 -0.00828,0.00562 0.005,0.00516 0.00687,-0.00672 0.00406,-0.00406 -0.00766,0 z m -2.7485935,0.03 -0.00406,0.00406 0.00531,0.00469 0.00875,-0.0025 -0.01,-0.00625 z m 2.715156,0.00609 -0.01375,0.00578 -0.012968,-0.005 -0.010156,0.00359 0.005,0.010781 0.017344,0 0.017343,0 0.010782,-0.010781 -0.013594,-0.00438 z m -2.7312498,0.038125 -0.00828,0.00672 0.00453,0.00906 0.0075,-0.00141 -0.00375,-0.014375 z m 0.6246875,0.00516 -0.00828,0.00156 -0.013906,0.014063 0,0.00937 0.011719,0 0.00375,0.00906 0.00984,-0.00453 0.01125,-0.01125 0,-0.018281 -0.014375,0 z m -0.5596875,0.062812 -0.00906,0.00453 c 0,0 0.00303,0.00868 0.00375,0.00984 5e-6,-2.5e-5 1.56e-4,4.5e-5 1.56e-4,0 0,-0.00152 0.00672,-0.00297 0.00672,-0.00297 l -0.00157,-0.011406 z m -0.3281252,0.030312 -0.00828,0.00297 -0.00313,-7.812e-4 -0.00828,0.00609 0.00297,0.00687 -0.00594,0.00828 0.00141,0.00531 0.01375,0.00375 0.012813,-0.00609 0.0075,7.812e-4 0,-0.0075 -0.012031,-0.00313 0.00594,-0.00672 -0.00672,-0.00984 z m 0.2601565,7.813e-4 -0.00156,0.00828 0.012812,0 0.00687,0.00672 7.813e-4,-0.01125 -0.00766,-0.00156 -0.01125,-0.00219 z m -0.1557812,0.020312 -0.00687,0.00609 0.00453,0.00687 0.00906,-0.00609 0.011406,0.00297 -0.00297,-0.00672 -0.015156,-0.00313 z m -0.034844,0.030312 -0.00375,0.00984 0.00609,0.00531 0.00672,-0.00844 -0.00906,-0.00672 z m -0.676875,0.00453 -0.016562,0.00453 -0.00984,0.012812 -0.0075,0.00984 0.00516,0.014375 0.012188,0.00453 0.01125,0.00453 0.010625,-0.0075 0.012804,0.00219 0.00687,-0.015781 -0.010625,-0.013594 -7.815e-4,-0.011406 -0.013593,-0.00453 z m -0.49,0.010625 -0.00297,0.00453 0.00531,0.00672 0.00672,-0.00672 -0.00906,-0.00453 z m 1.2742188,0.010469 -0.00672,0.00234 -0.00531,0.00672 0.00297,0.00906 0.00531,0.00672 0.00766,-0.00828 0.00297,-0.00969 -0.00688,-0.00687 z m -2.2070313,0.018281 -0.00438,0.00812 -0.010937,0.00313 -0.013125,-0.00297 0.024532,0.055938 0.042187,0.05 0.027656,-0.014063 0.00578,-0.012187 -0.0025,-0.016094 -0.00656,-0.00453 -0.00656,-0.010781 0.00156,-0.0125 0,-0.014219 -0.011406,-0.00953 -0.00359,-0.00344 -0.00547,0.00547 0.00641,0.00656 -0.00266,0.00953 -0.011875,-0.00234 -0.00172,-0.01 -0.00766,-0.00219 -4.7e-4,-0.012812 -0.00938,-0.00953 -0.00984,-0.00156 z m 2.1707813,0.0075 -0.00906,0.00234 -0.00828,0.00828 -0.00906,0.0075 0.00828,0.00594 0.00687,-0.00594 0.010469,0 0.00984,-0.00906 -0.00906,-0.00906 z m -0.4801563,0.018906 -0.012188,0.00609 -0.00906,0.00297 0.00234,0.019687 0.00141,0.010625 0.00844,0.00219 0.00297,0.015938 0.015938,0.00156 0.00531,-0.012969 -0.00766,-0.012812 7.81e-4,-0.014375 -0.00828,-0.018906 z m 3.356875,0.2740625 -0.00422,0.012969 -0.00688,0.00687 0.00781,0.00781 0.00469,0.00984 -0.00141,0.012969 -6.25e-4,0.016563 0.0075,0.0075 0.00828,-0.00469 0,-0.017344 0.00766,-0.0075 -0.00625,-0.014844 -0.01,-0.01 6.25e-4,-0.012969 -0.00719,-0.00719 z m 0.031093,0.1123437 0,0.010938 0.00719,0.00359 0.005,-0.00656 -0.012189,-0.00797 z m -0.6207805,0.162969 0,0.010781 0.00422,0.012188 0.00578,-0.00141 0.013906,0.00484 0.00953,0.00953 0,0.00547 0.00969,0.00969 -0.00281,0.014375 -0.016563,-0.005 0,0.010781 -0.00516,0.014531 0.020313,0.00641 0.01,0.01875 0.01875,0.01875 0,0.010781 0.014375,0.019844 0.1304688,0 -0.017187,-0.00953 -0.017969,-0.015937 -0.01875,-0.00719 -0.01375,-0.00359 -0.02125,-0.022031 -0.01125,-0.011094 -0.00719,-0.019531 -0.00859,-0.012188 -0.010781,0 -0.020313,-0.012969 -0.00422,-0.011563 -0.018125,-0.00359 -0.01,-0.010156 -0.00516,-0.011562 -0.00937,-0.00422 -0.018594,-0.00516 z m 0.686406,0.047656 -0.00734,7.813e-4 0,0.015781 0,0.012969 0.010156,0 -0.00281,-0.012188 0,-0.00797 0,-0.00937 z m -0.8631248,0.045469 -0.01375,0.00281 -0.00719,0.00797 0,0.010156 0,0.010781 0.012344,-0.00516 0.00641,0.00656 0.00719,-0.00719 0.00297,-0.014375 -0.00797,-0.011563 z m 0.1018751,0.00109 -0.018437,0.00406 -0.00906,0.00922 -0.015,0.00828 0.00906,0.016719 0.0075,0.014219 0.00797,0.00781 -7.813e-4,0.00578 0.1664063,0 -0.00109,-0.00203 -0.00781,-0.00781 -0.015469,0.00203 -0.0125,-0.0125 -0.00328,-0.010781 -0.015,0 -0.014219,0 0.005,-0.00922 0.00578,-0.00578 0.00797,-0.00797 -0.010469,-0.010469 c 0,0 -0.011611,0.005 -0.015781,0.005 -0.00417,0 -0.023281,0.00344 -0.023281,0.00344 l -0.00797,-0.00797 -0.017969,-0.00203 -0.021562,0 z m -0.080937,0.054844 -0.00906,0.01 0,0.00125 0.012813,0 -0.00375,-0.00281 0,-0.00844 z m -0.0425,9.375e-4 -0.010313,0.010312 0.022813,0 -0.00406,-0.00203 -0.00844,-0.00828 z m 0.8792187,0.00687 -0.00344,0.00344 0.00406,0 -6.25e-4,-0.00344 z"
     id="rect8" />
</svg>
