<?xml version="1.0" encoding="UTF-8"?>
<svg width="105.83mm" height="31.341mm" version="1.1" viewBox="0 0 105.83 31.341" xmlns="http://www.w3.org/2000/svg">
 <g transform="translate(-19.496,-36.76)">
  <path d="m59.517 56.28c0 1.3327 0.7053 3.0363 2.2537 3.0363 1.419 0 2.047-1.4448 2.047-2.675-0.02582-1.522-0.91144-2.968-2.2274-2.968-1.4801 0-2.0734 1.446-2.0734 2.6067m5.299 0.21513c0 1.8492-1.3423 3.0279-3.1484 3.0279-1.8151 0-3.1484-1.1787-3.1484-3.0363 0-1.8325 1.3423-3.019 3.14-3.019 2.2022 0 3.1568 1.4957 3.1568 3.0273"/>
  <path d="m67.549 56.883c0.71249-7e-3 1.5424-0.33317 1.5424-1.1565 0-0.86769-0.76343-1.2164-1.5424-1.2086zm-0.65256-0.97795c0-1.1349-0.0372-1.3057-0.8683-1.38v-0.10361l1.8103-0.06c1.8696-0.0588 2.017 0.85271 2.017 1.2093 0 0.6232-0.3853 0.97915-0.91982 1.2164l0.0372 0.0515c0.57108 1.0013 1.2836 2.2771 2.5072 2.5294l-0.02157 0.11092c-0.78619-0.0365-1.3651-0.0136-1.7959-0.45961-0.48898-0.51174-0.87489-1.1649-1.0301-1.4831-0.29722-0.61542-0.56447-0.43804-1.0834-0.52672v1.1937c0 0.81615 0.01529 0.96476 1.0307 1.1062v0.11092h-2.6031v-0.11092c0.88987-0.11924 0.89765-0.34217 0.91984-1.1062z"/>
  <path d="m76.82 58.848v0.11211c-0.79339 0.33316-1.4022 0.54829-2.2405 0.54829-1.528 0-2.826-0.92702-2.826-2.5515 0-1.6461 1.4388-2.6702 2.989-2.6702 0.58665 0 1.1805 0.1043 1.736 0.29002l-0.02939 1.2902h-0.09648c-0.18515-0.8605-0.77839-1.4016-1.6767-1.4016-1.2824 0-2.062 0.97856-2.062 2.2178 0 1.4687 1.0463 2.5737 2.5216 2.5737 0.67534 0 0.66875-0.17797 0.66875-0.66095v-0.44404c0-0.82395-0.21572-0.91263-1.0019-1.0091v-0.11143h2.1956v0.11143c-0.51952 0.10429-0.54171 0.31161-0.54171 0.77122v0.93421z"/>
  <path d="m79.823 55.036-0.6975 1.9283h1.4681zm-0.82395 2.2693c-0.12519 0.37092-0.45243 1.1427-0.45243 1.4981 0 0.45302 0.51235 0.45302 0.84493 0.50516v0.11092h-2.0314v-0.11092c0.65917-0.17857 0.72748-0.32659 0.95698-0.90485l0.83713-2.1884 0.44522-1.2093c0.06659-0.19235 0.16307-0.37093 0.08204-0.51115 0.20015-0.082 0.38591-0.21513 0.54111-0.40028l1.6323 4.3456c0.19954 0.54171 0.32598 0.75625 0.91922 0.8683v0.11092h-2.1806v-0.11092c0.26008-0.06 0.57167-0.14149 0.57167-0.4752 0-0.311-0.28224-1.0085-0.47519-1.528z"/>
  <path d="m88.004 58.255-0.0372-2.7068c-0.0068-0.7053-0.20074-0.91263-1.0391-1.0606v-0.11092h2.0254v0.11092c-0.51235 0.0666-0.60822 0.34874-0.66754 0.83054-0.1043 0.81615-0.06659 2.6037-0.0299 4.2204l-0.09648 0.0223c-1.1865-1.4022-2.5072-2.7001-3.7602-4.049v1.3645c0 1.8384-0.04382 2.2172 1.0307 2.4323v0.11143h-2.2172v-0.11143c1.0013-0.1043 0.96358-0.7856 0.96358-2.47v-1.1128c0-0.74126-0.11856-1.0301-1.0601-1.238v-0.11092h1.223z"/>
  <path d="m91.296 58.203c0.02208 0.76402 0.02871 0.98693 0.91922 1.1056v0.11143h-2.4916v-0.11143c0.88926-0.11873 0.89706-0.34156 0.91922-1.1056v-2.6103c-0.02208-0.76402-0.0299-0.98633-0.91922-1.105v-0.11092h2.4916v0.11092c-0.89047 0.11873-0.89706 0.34096-0.91922 1.105z"/>
  <path d="m93.482 54.377h3.9382l0.03771 0.051-3.2856 4.7693h0.70409c0.57887 0 1.3722 0 1.914-0.22232 0.60822-0.25228 0.83113-0.85271 0.96417-1.446l0.11092 0.0223c-0.05877 0.6376-0.18517 1.2752-0.42965 1.869h-4.2726l-0.02939-0.0522 0.48896-0.66756 2.826-4.1012h-0.6975c-0.40748 0-1.2458-8e-3 -1.6089 0.15526-0.3931 0.17857-0.57826 0.68313-0.66036 1.084h-0.11805z"/>
  <path d="m100.74 55.036-0.6975 1.9283h1.4687zm-0.82336 2.2693c-0.12587 0.37092-0.45302 1.1427-0.45302 1.4981 0 0.45302 0.51235 0.45302 0.84614 0.50516v0.11092h-2.0326v-0.11092c0.66036-0.17857 0.72748-0.32659 0.95698-0.90485l0.83834-2.1884 0.44522-1.2093c0.0666-0.19235 0.16307-0.37093 0.0808-0.51115 0.20015-0.082 0.38591-0.21513 0.54173-0.40028l1.6317 4.3456c0.20074 0.54171 0.32598 0.75625 0.91982 0.8683v0.11092h-2.1806v-0.11092c0.25887-0.06 0.57107-0.14149 0.57107-0.4752 0-0.311-0.28224-1.0085-0.47459-1.528z"/>
  <path d="m108.66 54.147h0.06l0.10311 1.3866-0.10311 0.0223c-0.26008-0.91982-0.66756-0.95698-1.5209-0.95698h-0.44463v3.4264c0 0.91982 0.0443 1.1649 1.0385 1.2836v0.11143h-2.7301v-0.11143c0.99411-0.11856 1.0385-0.36374 1.0385-1.2836v-3.4264h-0.44522c-0.85273 0-1.2608 0.0372-1.5203 0.95698l-0.10429-0.0223 0.10429-1.3866h0.0588l0.0749 0.0666c0.18517 0.17019 0.21512 0.16358 0.45962 0.16358h3.3971c0.24508 0 0.27504 7e-3 0.46021-0.16358z"/>
  <path d="m111.17 58.203c0.0222 0.76402 0.0294 0.98693 0.91923 1.1056v0.11143h-2.4916v-0.11143c0.88926-0.11873 0.89765-0.34156 0.91984-1.1056v-2.6103c-0.0222-0.76402-0.0306-0.98633-0.91984-1.105v-0.11092h2.4916v0.11092c-0.88986 0.11873-0.89706 0.34096-0.91923 1.105z"/>
  <path d="m114 56.713c0 1.1493 0.60822 2.6181 1.9433 2.6181 1.2236 0 1.7653-1.247 1.7653-2.3071-0.0222-1.3123-0.78619-2.5581-1.9211-2.5581-1.2758 0-1.7875 1.2458-1.7875 2.2471m4.5692 0.18517c0 1.5946-1.1571 2.6109-2.7145 2.6109-1.5646 0-2.7151-1.0163-2.7151-2.6187 0-1.5796 1.1571-2.6037 2.7068-2.6037 1.899 0 2.7229 1.2914 2.7229 2.6115"/>
  <path d="m124.38 58.255-0.0377-2.7068c-7e-3 -0.7053-0.20015-0.91263-1.0385-1.0606v-0.11092h2.0254v0.11092c-0.51174 0.0666-0.60822 0.34874-0.66754 0.83054-0.10429 0.81615-0.0671 2.6037-0.0294 4.2204l-0.097 0.0223c-1.1865-1.4022-2.5072-2.7001-3.7608-4.049v1.3645c0 1.8384-0.0443 2.2172 1.0319 2.4323v0.11143h-2.2172v-0.11143c1.0001-0.1043 0.96357-0.7856 0.96357-2.47v-1.1128c0-0.74126-0.11924-1.0301-1.0606-1.238v-0.11092h1.2236z"/>
  <path d="m60.059 50.841h-0.08578l-1.4022-4.8089c-0.21511-0.6274-0.24088-0.91144-0.95517-1.1098v-0.12824h2.4341v0.12824c-1.0493 0.15525-0.83414 0.59445-0.6274 1.2992l0.90305 3.0537 1.3501-3.5954c-0.17197-0.52435-0.45542-0.66277-0.97135-0.75745v-0.12824h2.5114v0.12824c-0.93779 0.12944-0.82573 0.53333-0.67055 1.0325l1.0924 3.4066 0.67894-1.9355c0.14676-0.42965 0.53332-1.5059 0.53332-1.9182 0-0.42187-0.3865-0.48179-0.85991-0.58546v-0.12824h2.2447v0.12824c-0.51594 0.0348-0.77362 0.32778-0.95459 0.7832l-0.60223 1.6431-1.2644 3.4923h-0.09461l-1.531-4.7825z"/>
  <path d="m67.67 47.936c0 1.1493 0.60822 2.6181 1.9433 2.6181 1.2236 0 1.7653-1.2464 1.7653-2.3071-0.02225-1.3123-0.78619-2.5581-1.9205-2.5581-1.2764 0-1.7881 1.2458-1.7881 2.2471m4.5692 0.18517c0 1.5946-1.1571 2.6109-2.7151 2.6109-1.5646 0-2.7145-1.0163-2.7145-2.6181 0-1.5802 1.1571-2.6037 2.7073-2.6037 1.899 0 2.7223 1.2907 2.7223 2.6109"/>
  <path d="m74.841 48.106c0.7131-7e-3 1.543-0.33317 1.543-1.1571 0-0.86709-0.76343-1.2158-1.543-1.2087zm-0.65196-0.97856c0-1.1343-0.0372-1.3057-0.8683-1.38v-0.10311l1.8103-0.06c1.869-0.0588 2.017 0.85332 2.017 1.2093 0 0.6226-0.38589 0.97915-0.91982 1.2164l0.0372 0.0515c0.57108 1.0013 1.283 2.2771 2.5078 2.5294l-0.02225 0.11092c-0.78619-0.0365-1.365-0.0136-1.7953-0.45961-0.49017-0.51175-0.87548-1.1649-1.0307-1.4831-0.29782-0.61543-0.56447-0.43804-1.084-0.52673v1.1937c0 0.81616 0.01529 0.96477 1.0313 1.1062v0.11092h-2.6031v-0.11092c0.88987-0.11924 0.89767-0.34216 0.91984-1.1062z"/>
  <path d="m78.876 50.532c0.89047-0.11873 0.89765-0.34217 0.91982-1.1056v-2.6109c-0.02208-0.76402-0.02939-0.98633-0.91982-1.105v-0.11092h2.4922v0.11092c-0.88986 0.11873-0.91982 0.34096-0.91982 1.105v2.4329c0 0.37093 0 0.76402 0.11143 1.1206l0.90484 0.0666c1.1272 0.0808 1.3123-0.26786 1.884-1.217l0.09699 0.0443-0.42365 1.38h-4.1461z"/>
  <path d="m85.603 49.5c0 0.49737 0.08935 0.97135 1.0085 0.97135 0.85272 0 2.0027-0.53391 2.0027-2.225 0-1.7797-1.4022-2.5216-3.0112-2.5138zm-1.528-3.8567 1.7947-0.06c3.2634-0.10311 3.605 1.7809 3.605 2.5522 0 1.06-0.68254 2.5437-3.2341 2.5216l-2.21-0.0136v-0.11143c0.88926-0.11873 0.89765-0.34156 0.91984-1.1056v-2.5731c-0.02225-0.76403-0.03058-0.98695-0.87548-1.1056z"/>
  <path d="m97.438 44.357h0.07015l0.12468 1.6563-0.12468 0.027c-0.30979-1.099-0.79757-1.1433-1.8169-1.1433h-0.53092v4.094c0 1.099 0.05334 1.3908 1.2404 1.5328v0.133h-3.261v-0.133c1.1883-0.142 1.2416-0.43386 1.2416-1.5328v-4.094h-0.53213c-1.0193 0-1.5071 0.0443-1.8169 1.1433l-0.12349-0.027 0.12349-1.6563h0.07134l0.08816 0.0791c0.22172 0.20374 0.25768 0.19534 0.5495 0.19534h4.0586c0.29182 0 0.32838 8e-3 0.54891-0.19534z"/>
  <path d="m99.989 48.102c0.71129-8e-3 1.5424-0.33437 1.5424-1.1571 0-0.8683-0.76402-1.2164-1.5424-1.2093zm-0.65317-0.97915c0-1.135-0.03652-1.3051-0.86709-1.3794v-0.1043l1.8091-0.0588c1.8696-0.06 2.0176 0.85271 2.0176 1.2093 0 0.6226-0.3853 0.97795-0.91982 1.2158l0.0372 0.0522c0.57167 1.0013 1.283 2.2765 2.5072 2.5294l-0.0228 0.11092c-0.7862-0.0372-1.3645-0.0153-1.7941-0.45962-0.48958-0.51174-0.87608-1.1649-1.0319-1.4837-0.29603-0.61601-0.56268-0.43743-1.0822-0.52673v1.1943c0 0.81615 0.01359 0.96417 1.0307 1.105v0.11092h-2.6031v-0.11092c0.88926-0.11874 0.89765-0.34097 0.91922-1.105z"/>
  <path d="m106.07 46.255-0.69751 1.9277h1.4687zm-0.82275 2.2699c-0.12637 0.37033-0.45302 1.1415-0.45302 1.4975 0 0.45243 0.51175 0.45243 0.84552 0.50456v0.11092h-2.0326v-0.11092c0.66035-0.17797 0.72748-0.32658 0.95698-0.90543l0.83834-2.1872 0.44522-1.2093c0.0666-0.19295 0.16307-0.37093 0.0809-0.51175 0.20136-0.0815 0.38652-0.21572 0.54173-0.40089l1.6317 4.3468c0.20075 0.54111 0.32599 0.75624 0.91982 0.86769v0.11092h-2.1806v-0.11092c0.26007-0.0593 0.57107-0.14133 0.57107-0.4746 0-0.31159-0.28224-1.0091-0.47459-1.5274z"/>
  <path d="m111.05 49.496c0 0.49617 0.0893 0.97136 1.0085 0.97136 0.85272 0 2.0026-0.53391 2.0026-2.225 0-1.7797-1.4022-2.5216-3.0112-2.5144zm-1.528-3.8573 1.7947-0.0593c3.2634-0.1043 3.605 1.7803 3.605 2.5522 0 1.06-0.68254 2.5438-3.2341 2.5216l-2.21-0.0153v-0.11092c0.88926-0.11924 0.89765-0.34096 0.91983-1.105v-2.5737c-0.0222-0.76404-0.0306-0.98635-0.87548-1.105z"/>
  <path d="m115.96 50.527c0.89047-0.11873 0.89825-0.34096 0.92103-1.105v-2.6103c-0.0228-0.76402-0.0306-0.98695-0.92103-1.1062v-0.11092h3.9831l-0.0893 1.1427h-0.11024c-0.0527-0.95758-0.74185-0.96477-1.4915-0.96477h-0.71849v2.1141h0.77063c0.55669 0 0.97915-0.045 1.0606-0.68192h0.11211v1.6533h-0.11211c-0.0958-0.65256-0.50395-0.65975-1.0606-0.65975h-0.77063v1.2158c0 0.43745-0.10429 1.0463 1.1128 1.0463 0.93361 0 1.3932-0.35654 1.5784-1.2902h0.11142c-7e-3 0.56269-0.1031 1.0235-0.25227 1.4675h-4.1239z"/>
 </g>
 <path d="m17.348 2.86s-3.9598 4.0538-9.5536 4.0538c-1.603 0-3.0489-0.9432-2.3574-3.0801-0.87968 1.1002-1.0684 2.5455-1.0684 2.7661 0 0.2193-0.18816 2.2939 3.614 2.2939 3.8021 0 9.0826-2.3256 10.78-4.5572z" fill="#e63329"/>
 <path d="m9.962 11.135v2.1998c3.5822-0.28345 15.376-4.7861 15.376-9.6261 0-1.854-1.7905-3.0483-3.2988-3.7087 0 0 1.9475 1.0373 1.9475 2.7972 0 1.76-2.6492 5.8863-14.025 8.3378" fill="#243588"/>
 <path d="m21.496 11.889c-2.3574 2.0739-8.2652 4.9653-14.614 4.9653-5.8138 0-6.3165-1.9799-6.8822-2.7031 0 0-0.06285 4.4625 7.5737 4.4625 7.6366 0 14.519-3.9909 15.461-5.2481z" fill="#007d32"/>
 <path d="m11.817 20.845c5.2481-0.31401 21.065-5.468 19.148-14.424 0 0 0.87968 1.0996 0.87968 2.7655 0 7.6366-13.303 13.891-20.028 13.891z" fill="#e63329"/>
 <path d="m33.059 17.703c-3.7404 9.837-11.626 11.312-14.423 11.312v2.3256c8.7992 0 14.423-8.0435 14.423-13.637" fill="#007d32"/>
 <path d="m25.047 21.651c-3.3311 2.168-10.403 4.1575-16.719 4.1575-2.7972 0-4.84-0.91143-5.4998-1.5083 0 0 1.4454 3.3425 8.3282 3.3425 9.0814 0 15.336-3.886 15.744-4.4829z" fill="#243588"/>
</svg>
