<?xml version="1.0" encoding="UTF-8" standalone="no"?>
<svg
   xmlns:dc="http://purl.org/dc/elements/1.1/"
   xmlns:cc="http://creativecommons.org/ns#"
   xmlns:rdf="http://www.w3.org/1999/02/22-rdf-syntax-ns#"
   xmlns:svg="http://www.w3.org/2000/svg"
   xmlns="http://www.w3.org/2000/svg"
   xmlns:sodipodi="http://sodipodi.sourceforge.net/DTD/sodipodi-0.dtd"
   xmlns:inkscape="http://www.inkscape.org/namespaces/inkscape"
   width="78.084778"
   height="47.602005"
   viewBox="0 0 260.2826 158.67335"
   version="1.2"
   id="svg2"
   inkscape:version="0.48.2 r9819"
   sodipodi:docname="treble a.svg">
  <metadata
     id="metadata804">
    <rdf:RDF>
      <cc:Work
         rdf:about="">
        <dc:format>image/svg+xml</dc:format>
        <dc:type
           rdf:resource="http://purl.org/dc/dcmitype/StillImage" />
      </cc:Work>
    </rdf:RDF>
  </metadata>
  <sodipodi:namedview
     pagecolor="#ffffff"
     bordercolor="#666666"
     borderopacity="1"
     objecttolerance="10"
     gridtolerance="1"
     guidetolerance="10"
     inkscape:pageopacity="0"
     inkscape:pageshadow="2"
     inkscape:window-width="1366"
     inkscape:window-height="716"
     id="namedview802"
     showgrid="false"
     inkscape:zoom="2.8284271"
     inkscape:cx="63.892082"
     inkscape:cy="-42.338844"
     inkscape:window-x="-8"
     inkscape:window-y="-8"
     inkscape:window-maximized="1"
     inkscape:current-layer="svg2"
     fit-margin-top="0"
     fit-margin-left="0"
     fit-margin-right="0"
     fit-margin-bottom="0" />
  <title
     id="title4">Qt Svg Document</title>
  <desc
     id="desc6">Generated with Qt</desc>
  <defs
     id="defs8" />
  <g
     style="font-size:34.375px;font-style:normal;font-weight:400;fill:none;stroke:#000000;stroke-width:0.61192942;stroke-linecap:butt;stroke-linejoin:bevel;stroke-opacity:1;font-family:MS Shell Dlg 2"
     id="g12"
     font-style="normal"
     font-weight="400"
     font-size="34.375"
     transform="matrix(2.3741034,0,0,3.125,0.83338592,41.609451)">
    <polyline
       style="fill:none;stroke-width:0.61192942"
       id="polyline14"
       points="0,0 108.932,0 "
       vector-effect="none" />
    <polyline
       style="fill:none;stroke-width:0.61192942"
       id="polyline16"
       points="0,6.66709 108.932,6.66709 "
       vector-effect="none" />
    <polyline
       style="fill:none;stroke-width:0.61192942"
       id="polyline18"
       points="0,13.3342 108.932,13.3342 "
       vector-effect="none" />
    <polyline
       style="fill:none;stroke-width:0.61192942"
       id="polyline20"
       points="0,20.0013 108.932,20.0013 "
       vector-effect="none" />
    <polyline
       style="fill:none;stroke-width:0.61192942"
       id="polyline22"
       points="0,26.6683 108.932,26.6683 "
       vector-effect="none" />
  </g>
  <g
     style="font-size:83.33329773px;font-style:normal;font-weight:400;fill:none;stroke:#000000;stroke-width:1;stroke-linecap:square;stroke-linejoin:bevel;stroke-opacity:1;font-family:MScore"
     id="g24"
     font-style="normal"
     font-weight="400"
     font-size="83.3333"
     transform="matrix(3.1252,0,0,3.1252,17.500386,104.11345)" />
  <g
     style="font-size:83.33329773px;font-style:normal;font-weight:400;fill:#000000;fill-opacity:1;fill-rule:evenodd;stroke:none;font-family:MScore"
     id="g26"
     font-style="normal"
     font-weight="400"
     font-size="83.3333"
     transform="matrix(1.000064,0,0,1.000064,19.768726,104.01563)">
    <path
       style="fill-rule:nonzero"
       inkscape:connector-curvature="0"
       id="path28"
       d="M 53.106,0.316559 C 53.1052,-5.54258 51.0953,-10.6693 47.0764,-15.0637 43.096,-19.458 37.8972,-21.6823 31.48,-21.7366 c -1.539,-5.3709 -3.4627,-11.5013 -5.7712,-18.3912 4.8985,-6.0761 8.6227,-11.6233 11.1728,-16.6416 2.5366,-5.0182 3.805,-10.3755 3.8049,-16.0719 10e-5,-4.2316 -0.9849,-8.8972 -2.9549,-13.9969 -1.9695,-5.0996 -4.0534,-9.2362 -6.2516,-12.4099 -2.1985,-3.1739 -3.7375,-4.7609 -4.617,-4.7609 -0.3297,0 -0.9618,0.394 -1.8962,1.18 -0.9344,0.787 -2.02,1.98 -3.2567,3.5809 -1.2381,1.6004 -2.4307,3.4313 -3.5777,5.4929 -1.0942,2.0615 -2.0191,4.5571 -2.7746,7.4867 -0.7556,2.9296 -1.1333,5.9134 -1.1333,8.9514 0,5.4252 0.4299,10.3214 1.2896,14.6886 0.8469,4.3672 2.2664,9.616 4.2586,15.7464 -0.2374,0.3255 -1.3704,1.8174 -3.3989,4.4758 -2.0178,2.6583 -3.2224,4.2451 -3.6139,4.7605 l -3.17358,4.313 c -1.73597,2.3599 -2.8345,4.0281 -3.29562,5.0047 -0.45993,0.9765 -1.24299,2.5227 -2.34918,4.6385 -1.10643,2.1158 -1.84855,3.8789 -2.22635,5.2895 -0.3778,1.4105 -0.755607,3.0923 -1.133412,5.0453 -0.377806,1.9531 -0.5667081,3.879 -0.5667056,5.77779 C 0.012916,0.572269 2.85072,7.50684 8.52847,13.2267 c 2.84023,2.8922 5.96223,5.0609 9.36583,6.506 3.4036,1.4452 7.1352,2.1677 11.1948,2.1676 1.8158,0 3.9005,-0.1899 6.2543,-0.5697 0.0674,0.873 0.0999,2.1888 0.0974,3.9475 -1e-4,2.8553 -0.1369,6.0444 -0.4105,9.5673 -0.383,4.4463 -1.8191,8.2788 -4.3084,11.4974 -2.4893,3.1539 -5.6214,4.7308 -9.3963,4.7308 -2.2286,0 -4.2927,-0.5035 -6.1924,-1.5107 -1.9003,-1.0053 -3.4476,-2.3606 -4.6421,-4.0658 0.8687,0.3253 1.7102,0.4879 2.5246,0.4879 2.1717,0 4.0313,-0.7725 5.5786,-2.3174 1.5473,-1.5449 2.321,-3.4015 2.321,-5.5698 0,-2.3851 -0.7601,-4.4314 -2.2802,-6.1389 -1.5203,-1.7077 -3.3934,-2.5615 -5.6194,-2.5616 -2.4974,10e-5 -4.68274,0.8539 -6.55585,2.5616 -1.8731,1.7075 -2.80966,3.7538 -2.80965,6.1389 0,4.6684 1.73737,8.5697 5.21212,11.7037 3.47428,3.2251 7.62868,4.8427 12.46328,4.8527 4.705,-0.0172 8.6304,-1.9396 11.7762,-5.7671 3.1488,-3.7668 4.9705,-8.3119 5.465,-13.6352 0.2742,-3.7393 0.4113,-7.0364 0.4113,-9.8914 0,-2.2522 -0.0274,-3.8939 -0.0823,-4.925 3.9567,-1.3563 7.307,-3.8543 10.051,-7.494 C 51.7196,9.34589 53.106,5.13757 53.106,0.316559 M 38.7313,16.9344 c -0.6039,-9.06238 -2.2205,-18.94176 -4.8499,-29.6382 4.2097,0.6511 7.5667,2.5227 10.0712,5.61506 2.514,3.09232 3.7709,6.564404 3.7709,10.41625 10e-5,3.19389 -0.8691,6.0047 -2.6075,8.43239 -1.7374,2.4718 -3.8656,4.1966 -6.3847,5.1745 M 25.1005,10.8227 c 0.4924,0 0.9301,-0.1856 1.3131,-0.5566 0.3829,-0.37102 0.5744,-0.7818 0.5744,-1.23234 0,-0.45053 -0.2188,-0.88783 -0.6565,-1.3119 -4.9733,-2.49556 -7.4574,-5.96764 -7.4521,-10.41625 -0.0013,-2.65831 1.0192,-4.96399 3.0617,-6.91704 2.0516,-1.95307 4.8007,-3.03807 8.2474,-3.25507 2.7355,11.01577 4.4041,21.24819 5.0059,30.6972 -1.9148,0.326 -3.9391,0.489 -6.0727,0.489 -5.8524,0 -11.1804,-1.9286 -15.9838,-5.7856 C 8.38701,8.72907 6.00968,4.22256 6.00589,-0.985472 c 0,-3.363578 0.4177,-6.591538 1.25309,-9.683828 0.83539,-3.0924 2.23668,-6.2796 4.20392,-9.5618 1.9698,-3.2822 3.7037,-5.9405 5.2015,-7.975 l 6.4757,-8.5852 4.64,15.2988 c -4.3953,0.7053 -7.8695,2.6448 -10.4225,5.8185 -2.5554,3.1737 -3.8331,6.74071 -3.8331,10.70106 0,2.5498 0.5301,4.9232982 1.5903,7.12048 1.0602,2.19718 2.2971,3.87897 3.7107,5.04537 1.4112,1.14976 2.7002,2.04164 3.8669,2.67567 1.1668,0.63602 1.9672,0.95412 2.4014,0.95412 l 0.0067,0 m 6.2613,-102.7062 c 1.3567,2.387 2.2385,4.3672 2.6456,5.9405 0.4704,1.5733 0.6998,3.7162 0.6883,6.4288 -1e-4,5.0996 -1.072,9.9822 -3.2157,14.6478 -2.1436,4.6656 -5.1941,9.5482 -9.1515,14.6479 -2.6933,-8.5175 -4.0399,-14.5665 -4.0399,-18.1471 0,-4.7741 1.168,-9.2498 3.504,-13.4272 2.336,-4.1773 5.5376,-7.5409 9.605,-10.0907 l -0.0358,0"
       vector-effect="non-scaling-stroke" />
  </g>
  <g
     style="font-size:83.33329773px;font-style:normal;font-weight:400;fill:none;stroke:#000000;stroke-width:1;stroke-linecap:square;stroke-linejoin:bevel;stroke-opacity:1;font-family:MScore"
     id="g30"
     font-style="normal"
     font-weight="400"
     font-size="83.3333"
     transform="matrix(3.1252,0,0,3.1252,179.61939,26.237451)" />
  <g
     style="font-size:83.33329773px;font-style:normal;font-weight:400;fill:#000000;fill-opacity:1;fill-rule:evenodd;stroke:none;font-family:MScore"
     id="g32"
     font-style="normal"
     font-weight="400"
     font-size="83.3333"
     transform="matrix(1.000064,0,0,1.000064,146.2603,25.270511)">
    <path
       style="fill-rule:nonzero"
       inkscape:connector-curvature="0"
       id="path34"
       d="m -1.18914,20.8475 1.1740876,0 C 2.66343,23.6144 4.84995,25.9879 6.54449,27.968 c 1.69455,1.9802 3.36177,4.5571 5.00161,7.7308 1.64,3.1737 2.46,6.0897 2.4601,8.7481 -10e-5,5.1538 -1.1754,10.4705 -3.526,15.9498 -0.1093,0.6511 0.0547,1.1936 0.492,1.6276 0.4373,0.434 0.9293,0.651 1.4759,0.651 0.6559,0 1.1753,-0.3255 1.5581,-0.9765 2.3582,-5.9677 3.5373,-11.7183 3.5373,-17.2519 0,-3.0381 -0.6032,-6.1304 -1.8098,-9.277 -1.2065,-3.1466 -2.6843,-6.1033 -4.4335,-8.8701 L 6.13452,18.0807 C 4.43997,15.3682 2.99141,12.425 1.78882,9.25133 0.586237,6.07763 -0.0150548,2.99887 -0.0150524,0.0150487 l -1.1740876,0 0,20.8324513"
       vector-effect="non-scaling-stroke" />
  </g>
  <g
     style="font-size:83.33329773px;font-style:normal;font-weight:400;fill:none;stroke:#000000;stroke-width:0.86672097;stroke-linecap:round;stroke-linejoin:bevel;stroke-opacity:1;font-family:MScore"
     id="g36"
     font-style="normal"
     font-weight="400"
     font-size="83.3333"
     transform="matrix(3.125,0,0,3.125,144.93204,89.782451)">
    <polyline
       style="fill:none"
       id="polyline38"
       points="0,0 0,-20.3346 "
       vector-effect="none" />
  </g>
  <g
     style="font-size:83.33329773px;font-style:normal;font-weight:400;fill:none;stroke:#000000;stroke-width:1;stroke-linecap:square;stroke-linejoin:bevel;stroke-opacity:1;font-family:MScore"
     id="g40"
     font-style="normal"
     font-weight="400"
     font-size="83.3333"
     transform="matrix(3.1252,0,0,3.1252,152.19739,93.695451)" />
  <g
     style="font-size:83.33329773px;font-style:normal;font-weight:400;fill:#000000;fill-opacity:1;fill-rule:evenodd;stroke:none;font-family:MScore"
     id="g42"
     font-style="normal"
     font-weight="400"
     font-size="83.3333"
     transform="matrix(1.000064,0,0,1.000064,118.79213,93.781841)">
    <path
       style="fill-rule:nonzero"
       inkscape:connector-curvature="0"
       id="path44"
       d="m 18.3256,-11.4413 c -4.4487,0 -8.61244,1.62868 -12.49141,4.88596 C 1.95522,-3.29805 0.0157347,0.203527 0.0157396,3.9494 0.0157371,6.2295 0.856632,8.06172 2.53843,9.44607 c 1.68179,1.38433 3.87896,2.07653 6.59153,2.07653 4.44864,0 8.61234,-1.62866 12.49134,-4.88594 3.879,-3.25728 5.8185,-6.758861 5.8185,-10.50474 0,-2.2801 -0.8409,-4.11232 -2.5227,-5.49666 -1.6818,-1.38436 -3.879,-2.07656 -6.5915,-2.07656"
       vector-effect="non-scaling-stroke" />
  </g>
  <g
     style="font-size:83.33329773px;font-style:normal;font-weight:400;fill:none;stroke:#000000;stroke-width:1;stroke-linecap:square;stroke-linejoin:bevel;stroke-opacity:1;font-family:MScore"
     id="g46"
     font-style="normal"
     font-weight="400"
     font-size="83.3333"
     transform="matrix(3.1252,0,0,3.1252,208.80939,83.278451)" />
  <g
     style="font-size:83.33329773px;font-style:normal;font-weight:400;fill:none;stroke:#000000;stroke-width:1;stroke-linecap:square;stroke-linejoin:bevel;stroke-opacity:1;font-family:MScore"
     id="g52"
     font-style="normal"
     font-weight="400"
     font-size="83.3333"
     transform="matrix(3.1252,0,0,3.1252,235.70539,83.278451)" />
  <g
     style="font-size:83.33329773px;font-style:normal;font-weight:400;fill:none;stroke:#000000;stroke-width:1;stroke-linecap:square;stroke-linejoin:bevel;stroke-opacity:1;font-family:MScore"
     id="g58"
     font-style="normal"
     font-weight="400"
     font-size="83.3333"
     transform="matrix(3.1252,0,0,3.1252,278.73939,83.278451)" />
  <g
     style="font-size:83.33329773px;font-style:normal;font-weight:400;fill:none;stroke:#000000;stroke-width:1.06673002;stroke-linecap:butt;stroke-linejoin:bevel;stroke-opacity:1;font-family:MScore"
     id="g64"
     font-style="normal"
     font-weight="400"
     font-size="83.3333"
     transform="matrix(3.125,0,0,3.125,256.12233,41.609451)">
    <polyline
       style="fill:none"
       id="polyline66"
       points="0.533367,0 0.533367,26.6683 "
       vector-effect="none" />
  </g>
  <g
     style="font-size:83.33329773px;font-style:normal;font-weight:400;fill:none;stroke:#000000;stroke-width:1;stroke-linecap:square;stroke-linejoin:bevel;stroke-opacity:1;font-family:MScore"
     id="g80"
     font-style="normal"
     font-weight="400"
     font-size="83.3333"
     transform="matrix(3.1252,0,0,3.1252,385.90039,62.443451)" />
  <g
     style="font-size:83.33329773px;font-style:normal;font-weight:400;fill:none;stroke:#000000;stroke-width:1;stroke-linecap:square;stroke-linejoin:bevel;stroke-opacity:1;font-family:MScore"
     id="g102"
     font-style="normal"
     font-weight="400"
     font-size="83.3333"
     transform="matrix(3.1252,0,0,3.1252,509.79439,62.443451)" />
  <g
     style="font-size:83.33329773px;font-style:normal;font-weight:400;fill:none;stroke:#000000;stroke-width:1;stroke-linecap:square;stroke-linejoin:bevel;stroke-opacity:1;font-family:MScore"
     id="g124"
     font-style="normal"
     font-weight="400"
     font-size="83.3333"
     transform="matrix(3.1252,0,0,3.1252,633.68939,62.443451)" />
  <g
     style="font-size:83.33329773px;font-style:normal;font-weight:400;fill:none;stroke:#000000;stroke-width:1;stroke-linecap:square;stroke-linejoin:bevel;stroke-opacity:1;font-family:MScore"
     id="g146"
     font-style="normal"
     font-weight="400"
     font-size="83.3333"
     transform="matrix(3.1252,0,0,3.1252,757.58439,62.443451)" />
  <g
     style="font-size:83.33329773px;font-style:normal;font-weight:400;fill:none;stroke:#000000;stroke-width:1;stroke-linecap:square;stroke-linejoin:bevel;stroke-opacity:1;font-family:MScore"
     id="g168"
     font-style="normal"
     font-weight="400"
     font-size="83.3333"
     transform="matrix(3.1252,0,0,3.1252,881.47439,62.443451)" />
  <g
     style="font-size:83.33329773px;font-style:normal;font-weight:400;fill:none;stroke:#000000;stroke-width:1;stroke-linecap:square;stroke-linejoin:bevel;stroke-opacity:1;font-family:MScore"
     id="g190"
     font-style="normal"
     font-weight="400"
     font-size="83.3333"
     transform="matrix(3.1252,0,0,3.1252,1005.3744,62.443451)" />
  <g
     style="font-size:83.33329773px;font-style:normal;font-weight:400;fill:none;stroke:#000000;stroke-width:1;stroke-linecap:square;stroke-linejoin:bevel;stroke-opacity:1;font-family:MScore"
     id="g212"
     font-style="normal"
     font-weight="400"
     font-size="83.3333"
     transform="matrix(3.1252,0,0,3.1252,1129.2644,62.443451)" />
  <g
     style="font-size:83.33329773px;font-style:normal;font-weight:400;fill:none;stroke:#000000;stroke-width:1;stroke-linecap:square;stroke-linejoin:bevel;stroke-opacity:1;font-family:MScore"
     id="g234"
     font-style="normal"
     font-weight="400"
     font-size="83.3333"
     transform="matrix(3.1252,0,0,3.1252,1253.1644,62.443451)" />
  <g
     style="font-size:83.33329773px;font-style:normal;font-weight:400;fill:none;stroke:#000000;stroke-width:1;stroke-linecap:square;stroke-linejoin:bevel;stroke-opacity:1;font-family:MScore"
     id="g256"
     font-style="normal"
     font-weight="400"
     font-size="83.3333"
     transform="matrix(3.1252,0,0,3.1252,1377.0544,62.443451)" />
  <g
     style="font-size:83.33329773px;font-style:normal;font-weight:400;fill:none;stroke:#000000;stroke-width:1;stroke-linecap:square;stroke-linejoin:bevel;stroke-opacity:1;font-family:MScore"
     id="g278"
     font-style="normal"
     font-weight="400"
     font-size="83.3333"
     transform="matrix(3.1252,0,0,3.1252,1500.9544,62.443451)" />
  <g
     style="font-size:83.33329773px;font-style:normal;font-weight:400;fill:none;stroke:#000000;stroke-width:1;stroke-linecap:square;stroke-linejoin:bevel;stroke-opacity:1;font-family:MScore"
     id="g300"
     font-style="normal"
     font-weight="400"
     font-size="83.3333"
     transform="matrix(3.1252,0,0,3.1252,1624.8444,62.443451)" />
  <g
     style="font-size:83.33329773px;font-style:normal;font-weight:400;fill:none;stroke:#000000;stroke-width:1;stroke-linecap:square;stroke-linejoin:bevel;stroke-opacity:1;font-family:MScore"
     id="g322"
     font-style="normal"
     font-weight="400"
     font-size="83.3333"
     transform="matrix(3.1252,0,0,3.1252,1748.7444,62.443451)" />
  <g
     style="font-size:83.33329773px;font-style:normal;font-weight:400;fill:none;stroke:#000000;stroke-width:1;stroke-linecap:square;stroke-linejoin:bevel;stroke-opacity:1;font-family:MScore"
     id="g344"
     font-style="normal"
     font-weight="400"
     font-size="83.3333"
     transform="matrix(3.1252,0,0,3.1252,1872.6344,62.443451)" />
  <g
     style="font-size:83.33329773px;font-style:normal;font-weight:400;fill:none;stroke:#000000;stroke-width:1;stroke-linecap:square;stroke-linejoin:bevel;stroke-opacity:1;font-family:MScore"
     id="g366"
     font-style="normal"
     font-weight="400"
     font-size="83.3333"
     transform="matrix(3.1252,0,0,3.1252,1996.5244,62.443451)" />
  <g
     style="font-size:83.33329773px;font-style:normal;font-weight:400;fill:none;stroke:#000000;stroke-width:1;stroke-linecap:square;stroke-linejoin:bevel;stroke-opacity:1;font-family:MScore"
     id="g388"
     font-style="normal"
     font-weight="400"
     font-size="83.3333"
     transform="matrix(3.1252,0,0,3.1252,-29.764614,380.17245)" />
  <g
     style="font-size:83.33329773px;font-style:normal;font-weight:400;fill:none;stroke:#000000;stroke-width:1;stroke-linecap:square;stroke-linejoin:bevel;stroke-opacity:1;font-family:MScore"
     id="g394"
     font-style="normal"
     font-weight="400"
     font-size="83.3333"
     transform="matrix(3.1252,0,0,3.1252,67.679386,338.50245)" />
  <g
     style="font-size:11px;font-style:normal;font-weight:400;fill:none;stroke:#000000;stroke-width:1;stroke-linecap:square;stroke-linejoin:bevel;stroke-opacity:1;font-family:FreeSerifMscore"
     id="g404"
     font-style="normal"
     font-weight="400"
     font-size="11"
     transform="matrix(3.125,0,0,3.125,-46.432614,317.66845)" />
  <g
     style="font-size:83.33329773px;font-style:normal;font-weight:400;fill:none;stroke:#000000;stroke-width:1;stroke-linecap:square;stroke-linejoin:bevel;stroke-opacity:1;font-family:MScore"
     id="g422"
     font-style="normal"
     font-weight="400"
     font-size="83.3333"
     transform="matrix(3.1252,0,0,3.1252,193.29139,338.50245)" />
  <g
     style="font-size:83.33329773px;font-style:normal;font-weight:400;fill:none;stroke:#000000;stroke-width:1;stroke-linecap:square;stroke-linejoin:bevel;stroke-opacity:1;font-family:MScore"
     id="g444"
     font-style="normal"
     font-weight="400"
     font-size="83.3333"
     transform="matrix(3.1252,0,0,3.1252,321.92539,338.50245)" />
  <g
     style="font-size:83.33329773px;font-style:normal;font-weight:400;fill:none;stroke:#000000;stroke-width:1;stroke-linecap:square;stroke-linejoin:bevel;stroke-opacity:1;font-family:MScore"
     id="g466"
     font-style="normal"
     font-weight="400"
     font-size="83.3333"
     transform="matrix(3.1252,0,0,3.1252,450.55839,338.50245)" />
  <g
     style="font-size:83.33329773px;font-style:normal;font-weight:400;fill:none;stroke:#000000;stroke-width:1;stroke-linecap:square;stroke-linejoin:bevel;stroke-opacity:1;font-family:MScore"
     id="g488"
     font-style="normal"
     font-weight="400"
     font-size="83.3333"
     transform="matrix(3.1252,0,0,3.1252,579.19239,338.50245)" />
  <g
     style="font-size:83.33329773px;font-style:normal;font-weight:400;fill:none;stroke:#000000;stroke-width:1;stroke-linecap:square;stroke-linejoin:bevel;stroke-opacity:1;font-family:MScore"
     id="g510"
     font-style="normal"
     font-weight="400"
     font-size="83.3333"
     transform="matrix(3.1252,0,0,3.1252,707.82539,338.50245)" />
  <g
     style="font-size:83.33329773px;font-style:normal;font-weight:400;fill:none;stroke:#000000;stroke-width:1;stroke-linecap:square;stroke-linejoin:bevel;stroke-opacity:1;font-family:MScore"
     id="g532"
     font-style="normal"
     font-weight="400"
     font-size="83.3333"
     transform="matrix(3.1252,0,0,3.1252,836.45439,338.50245)" />
  <g
     style="font-size:83.33329773px;font-style:normal;font-weight:400;fill:none;stroke:#000000;stroke-width:1;stroke-linecap:square;stroke-linejoin:bevel;stroke-opacity:1;font-family:MScore"
     id="g554"
     font-style="normal"
     font-weight="400"
     font-size="83.3333"
     transform="matrix(3.1252,0,0,3.1252,965.09439,338.50245)" />
  <g
     style="font-size:83.33329773px;font-style:normal;font-weight:400;fill:none;stroke:#000000;stroke-width:1;stroke-linecap:square;stroke-linejoin:bevel;stroke-opacity:1;font-family:MScore"
     id="g576"
     font-style="normal"
     font-weight="400"
     font-size="83.3333"
     transform="matrix(3.1252,0,0,3.1252,1093.7244,338.50245)" />
  <g
     style="font-size:83.33329773px;font-style:normal;font-weight:400;fill:none;stroke:#000000;stroke-width:1;stroke-linecap:square;stroke-linejoin:bevel;stroke-opacity:1;font-family:MScore"
     id="g598"
     font-style="normal"
     font-weight="400"
     font-size="83.3333"
     transform="matrix(3.1252,0,0,3.1252,1222.3544,338.50245)" />
  <g
     style="font-size:83.33329773px;font-style:normal;font-weight:400;fill:none;stroke:#000000;stroke-width:1;stroke-linecap:square;stroke-linejoin:bevel;stroke-opacity:1;font-family:MScore"
     id="g620"
     font-style="normal"
     font-weight="400"
     font-size="83.3333"
     transform="matrix(3.1252,0,0,3.1252,1350.9944,338.50245)" />
  <g
     style="font-size:83.33329773px;font-style:normal;font-weight:400;fill:none;stroke:#000000;stroke-width:1;stroke-linecap:square;stroke-linejoin:bevel;stroke-opacity:1;font-family:MScore"
     id="g642"
     font-style="normal"
     font-weight="400"
     font-size="83.3333"
     transform="matrix(3.1252,0,0,3.1252,1479.6244,338.50245)" />
  <g
     style="font-size:83.33329773px;font-style:normal;font-weight:400;fill:none;stroke:#000000;stroke-width:1;stroke-linecap:square;stroke-linejoin:bevel;stroke-opacity:1;font-family:MScore"
     id="g664"
     font-style="normal"
     font-weight="400"
     font-size="83.3333"
     transform="matrix(3.1252,0,0,3.1252,1608.2644,338.50245)" />
  <g
     style="font-size:83.33329773px;font-style:normal;font-weight:400;fill:none;stroke:#000000;stroke-width:1;stroke-linecap:square;stroke-linejoin:bevel;stroke-opacity:1;font-family:MScore"
     id="g686"
     font-style="normal"
     font-weight="400"
     font-size="83.3333"
     transform="matrix(3.1252,0,0,3.1252,1736.8944,338.50245)" />
  <g
     style="font-size:83.33329773px;font-style:normal;font-weight:400;fill:none;stroke:#000000;stroke-width:1;stroke-linecap:square;stroke-linejoin:bevel;stroke-opacity:1;font-family:MScore"
     id="g708"
     font-style="normal"
     font-weight="400"
     font-size="83.3333"
     transform="matrix(3.1252,0,0,3.1252,1865.5244,338.50245)" />
  <g
     style="font-size:83.33329773px;font-style:normal;font-weight:400;fill:none;stroke:#000000;stroke-width:1;stroke-linecap:square;stroke-linejoin:bevel;stroke-opacity:1;font-family:MScore"
     id="g730"
     font-style="normal"
     font-weight="400"
     font-size="83.3333"
     transform="matrix(3.1252,0,0,3.1252,1994.1644,338.50245)" />
  <g
     style="font-size:83.33329773px;font-style:normal;font-weight:400;fill:none;stroke:#000000;stroke-width:1;stroke-linecap:square;stroke-linejoin:bevel;stroke-opacity:1;font-family:MScore"
     id="g752"
     font-style="normal"
     font-weight="400"
     font-size="83.3333"
     transform="matrix(3.1252,0,0,3.1252,-29.764614,656.23145)" />
  <g
     style="font-size:83.33329773px;font-style:normal;font-weight:400;fill:none;stroke:#000000;stroke-width:1;stroke-linecap:square;stroke-linejoin:bevel;stroke-opacity:1;font-family:MScore"
     id="g758"
     font-style="normal"
     font-weight="400"
     font-size="83.3333"
     transform="matrix(3.1252,0,0,3.1252,201.55739,614.56245)" />
  <g
     style="font-size:11px;font-style:normal;font-weight:400;fill:none;stroke:#000000;stroke-width:1;stroke-linecap:square;stroke-linejoin:bevel;stroke-opacity:1;font-family:FreeSerifMscore"
     id="g772"
     font-style="normal"
     font-weight="400"
     font-size="11"
     transform="matrix(3.125,0,0,3.125,-46.432614,593.72745)" />
  <g
     style="font-size:11px;font-style:normal;font-weight:400;fill:none;stroke:#000000;stroke-width:1;stroke-linecap:square;stroke-linejoin:bevel;stroke-opacity:1;font-family:FreeSerifMscore"
     id="g778"
     font-style="normal"
     font-weight="400"
     font-size="11"
     transform="matrix(3.125,0,0,3.125,-168.32561,52.028451)" />
  <g
     style="font-size:11px;font-style:normal;font-weight:400;fill:none;stroke:#000000;stroke-width:1;stroke-linecap:square;stroke-linejoin:bevel;stroke-opacity:1;font-family:FreeSerifMscore"
     id="g784"
     font-style="normal"
     font-weight="400"
     font-size="11"
     transform="matrix(3.125,0,0,3.125,-168.32561,328.08745)" />
  <g
     style="font-size:11px;font-style:normal;font-weight:400;fill:none;stroke:#000000;stroke-width:1;stroke-linecap:square;stroke-linejoin:bevel;stroke-opacity:1;font-family:FreeSerifMscore"
     id="g790"
     font-style="normal"
     font-weight="400"
     font-size="11"
     transform="matrix(3.125,0,0,3.125,-168.32561,604.14645)" />
  <g
     style="font-size:11px;font-style:normal;font-weight:400;fill:none;stroke:#000000;stroke-width:1;stroke-linecap:square;stroke-linejoin:bevel;stroke-opacity:1;font-family:FreeSerifMscore"
     id="g796"
     font-style="normal"
     font-weight="400"
     font-size="11"
     transform="matrix(3.125,0,0,3.125,-168.32561,-104.23355)" />
</svg>
