<?xml version="1.0" encoding="UTF-8" standalone="no"?>
<!-- Created with Inkscape (http://www.inkscape.org/) -->

<svg
   width="1920"
   height="1080"
   viewBox="0 0 1920 1080"
   version="1.1"
   id="svg1"
   xml:space="preserve"
   inkscape:version="1.4.4 (dcaf3e7d9e, 2026-05-05)"
   sodipodi:docname="PBS-Flag_V1_2026.09.19.svg"
   xmlns:inkscape="http://www.inkscape.org/namespaces/inkscape"
   xmlns:sodipodi="http://sodipodi.sourceforge.net/DTD/sodipodi-0.dtd"
   xmlns="http://www.w3.org/2000/svg"
   xmlns:svg="http://www.w3.org/2000/svg"><sodipodi:namedview
     id="namedview1"
     pagecolor="#ffffff"
     bordercolor="#111111"
     borderopacity="1"
     inkscape:showpageshadow="0"
     inkscape:pageopacity="0"
     inkscape:pagecheckerboard="1"
     inkscape:deskcolor="#d1d1d1"
     inkscape:document-units="px"
     inkscape:zoom="0.4037037"
     inkscape:cx="959.86238"
     inkscape:cy="540"
     inkscape:window-width="1920"
     inkscape:window-height="1097"
     inkscape:window-x="0"
     inkscape:window-y="0"
     inkscape:window-maximized="1"
     inkscape:current-layer="layer1" /><defs
     id="defs1" /><g
     inkscape:label="Layer 1"
     inkscape:groupmode="layer"
     id="layer1"><rect
       style="fill:#00aa00;fill-rule:evenodd;stroke-width:0"
       id="rect1"
       width="2048.5322"
       height="1233.578"
       x="-69.357796"
       y="-86.69725" /><g
       id="g1"
       transform="matrix(4.1633748,0,0,4.1901919,416.11009,69.154437)"><path
         d="m 183.78587,-6.9532424e-5 h 31.97516 L 264.58334,111.34812 H 242.8523 l -0.006,32.89246 c -0.16821,14.64858 -12.74832,22.1747 -22.00482,21.90278 H 210.3678 v 57.0348 h -31.7014 v -57.0348 c 24.34385,0.33922 31.8727,-7.32301 31.80542,-25.2265 v -29.56874 h 22.30594 z"
         style="opacity:0.992;fill:#062fe4;stroke-width:0.4021"
         id="path1" /><path
         d="M 89.26758,-6.93e-5 H 148.9691 L 198.40466,111.34812 H 176.6736 v 32.99105 c -0.13735,12.03845 -8.88383,20.57637 -21.83507,21.79872 h -11.08729 v 57.0348 H 64.010498 V 163.83265 C 25.697809,158.00406 6e-6,127.55381 6e-6,84.900524 6e-6,34.175831 40.310752,-6.93e-5 89.26758,-6.93e-5 Z m 44.03701,55.4687443 c -11.35899,0 -20.5758,9.190289 -20.5758,20.550281 0,11.39366 9.21681,20.583128 20.5758,20.583128 11.35896,0 20.54838,-9.189468 20.54838,-20.583128 0,-11.35719 -9.18942,-20.550281 -20.54838,-20.550281 z"
         style="opacity:0.975;fill:#072ee4;stroke-width:0.4021"
         id="path2" /></g></g></svg>
