<svg height="262.071209" viewBox="0 0 728.26667 500" width="381.575681" xmlns="http://www.w3.org/2000/svg"><g fill="#000a3b" transform="matrix(2.35072874015 0 0 2.35072874015 -320.39345144618 -357.31076363292)"><g><path d="m289.9 257.4c-.8-.3-2.1-1.8.1-6l5.1-10.7c.2-.3-.2-.7-.5-.5l-4.5 4.5c-2.1 2.2-5.7 8.4-6.4 9.6l-5.4 9c.6 0 .9.6.7 1.1l-5 8.4c-1.2 2.1 1 3.5 1.3 3 7.8-12.6 12.4-11.6 12.4-11.6l2.6-6.1c.1-.2-.1-.6-.4-.7"/><path d="m307.7 152c-44.8 0-81 36.3-81 81 0 18 5.9 34.7 15.8 48.1 3.4-1.5 5.3-3.7 6.6-5.3l15.1-19.3c.3-.4.7-.7 1.2-.9l2.3-1 24.8-31.5 3.6-2.8 7.4-10.3c.2-.3.4-.5.7-.7l3.2-2.3c.8-.6 1.9-.6 2.7 0l3.9 2.7c2.1 1.5 3.8 3.4 4.9 5.7l15.7 27.5c.3.6.6.9 1.2 1.2 3.1 1.5 4.9 1.8 9 6.2 1.9 2 10.1 11.2 21.6 25.5 1.6 2.2 3.6 4 6.5 5.3 9.9-13.4 15.8-30.1 15.8-48.1.1-44.7-36.2-81-81-81m-59.2 85.5-5.3-1.7-3.2 4.5v-5.5l-5.3-1.7 5.3-1.7v-5.5l3.2 4.5 5.3-1.7-3.2 4.5zm-1.2 18.1-1.7 5.3-1.7-5.3h-5.5l4.5-3.2-1.7-5.3 4.5 3.2 4.5-3.2-1.7 5.3 4.5 3.2zm1-41.9 1.7 5.3-4.5-3.2-4.5 3.2 1.7-5.3-4.5-3.2h5.5l1.7-5.3 1.7 5.3h5.5zm8.9-11.9-3.2-4.5-5.3 1.7 3.2-4.5-3.2-4.5 5.3 1.7 3.2-4.5v5.5l5.3 1.7-5.3 1.7zm13.8-19.3-1.7 5.3-1.7-5.3h-5.5l4.5-3.2-1.7-5.3 4.5 3.2 4.5-3.2-1.7 5.3 4.5 3.2zm17.4-8.9-3.2 4.5v-5.5l-5.3-1.7 5.3-1.7v-5.5l3.2 4.5 5.3-1.7-3.2 4.5 3.2 4.5zm22.1-5 1.7 5.3-4.5-3.2-4.5 3.2 1.7-5.3-4.5-3.2h5.5l1.7-5.3 1.7 5.3h5.5zm19.8 4v5.5l-3.2-4.5-5.3 1.7 3.2-4.5-3.2-4.5 5.3 1.7 3.2-4.5v5.5l5.3 1.7zm36.6 56 5.3 1.7 3.2-4.5v5.5l5.3 1.7-5.3 1.7v5.5l-3.2-4.5-5.3 1.7 3.2-4.5zm-20.8-40.8-1.7-5.3h-5.5l4.5-3.2-1.7-5.3 4.5 3.2 4.5-3.2-1.7 5.3 4.5 3.2h-5.5zm12.1 14v-5.5l-5.3-1.7 5.3-1.7v-5.5l3.2 4.5 5.3-1.7-3.2 4.5 3.2 4.5-5.3-1.7zm10 8.7 1.7-5.3 1.7 5.3h5.5l-4.5 3.2 1.7 5.3-4.5-3.2-4.5 3.2 1.7-5.3-4.5-3.2zm3.4 45.1-1.7 5.3-1.7-5.3h-5.5l4.5-3.2-1.7-5.3 4.5 3.2 4.5-3.2-1.7 5.3 4.5 3.2z"/><path d="m337.1 279.9c.4-.6 1-2.1-.2-5l-3.6-9.6c-.5-1.2.6-2 1.3-1.2 0 0 6.8 7.8 8.5 11.1l3.3 5.5c2.9.2 10.8.4 18.5.4-.8-.8-1.5-1.6-2.1-2.5-13-16.2-21.3-25.2-21.4-25.2-2.6-2.9-3.9-3.4-5.9-4.3-.3-.1-.6-.3-.9-.4v2.5c0 .3-.4.5-.6.2l-19.2-33.7-.1-.1c-.8-1.6-2-3-3.4-4l-1.9-1.3-9.1 21.1c1.4 0 2.4 1.5 1.8 2.8l-8.4 19.5h7.8c3 0 6 .6 8.7 1.7l2 .8s-6.2 12.7-6.2 19.4c0 1.2.2 2.4.5 3.6h14.2l-.7-4c.2-.1 8.7 1.9 17.1 2.7"/></g><g><path d="m229 302.4c0-14.4-15.2-21.3-33.4-21.3-19.4 0-37.2 8.6-43.7 21.9-1.8 3.5-2.7 7.5-2.7 11.5-.1 3.5.9 6.9 2.7 9.7 2.8 4.1 7.8 6.7 15.1 6.7 9 0 16.1-4.9 16.1-13.5 0 0 .1-2.4-2.7-2.4-2.3 0-2.9 1.6-2.8 2.4.3 6.7-3.7 12.1-10.8 12.1-8 0-11.3-6.8-11.3-14 0-14.8 11.2-24.7 22.8-29 5.5-2.1 11.2-3.1 17-3 13.2 0 24 5.1 24 18.6 0 11.3-9.5 21-20.9 21.8l.5-1.5c2.3-8.3 5.2-17.4 9.9-24.2.3-.4.7-1.1 1.3-1.7l-.7-.8c-1 .6-1.9 1.3-2.9 2-21.8 17-22.5 65-51.6 65-1 0-2-.1-3-.2-6.1-1-9.3-5.1-9.3-10.7 0-1.1.4-2.7.4-3.5.1-1.6-1.3-3-2.9-3h-.1c-2.6 0-3.7 2.1-3.7 5-.2 8.5 6.1 13.4 15.7 14.3 1.1.1 2.1.1 3.3.1 22.7 0 36.6-17.2 42.5-38 3-.3 6-1 8.9-1.9 10.4-2.9 22.3-10 22.3-22.4"/><path d="m445.3 307.4h-8l-1.8 4.2-3.1 7.1h-3.7l-1.1 2.4h3.9l-4.7 10.3c-3.3 7.3-8.5 14.4-11.5 14.4-.7 0-1.1-.3-1.1-.9 0-.7.2-1.3.9-3.1.9-2.2 2.5-5.4 3.6-7.7 1.7-3.4 4.3-8.7 4.3-11.3s-1.7-4.7-4.9-4.7c-3.7 0-7 2.2-10.1 5.4l2-4.8h-7.5l-6.1 14c-2.5 4.9-7.5 13.1-10.6 13.1-.7 0-.9-.4-.9-1.1.1-.6.2-1.1.5-1.7s3.9-9.2 3.9-9.2l6.7-15.2h-8.1l-6.5 14.8c-2 4.6-7.1 12.4-10.3 12.4-.5.1-1.1-.3-1.1-.9v-.3c0-.8.6-2.3 1.1-3.3l3.4-7.5 7-15.2h-8.1l-1.6 3.5c-1.2 2.3-3.2 5.1-6.4 5.1-1.5 0-2.3-.6-2.6-1.2-.5-5.1-3.7-7.9-8.5-7.9-6.7 0-11.4 3.9-14.5 8.7-2.1 3.3-3.7 6.9-4.8 10.6-2.9 4.7-5.9 8.4-8.3 8.4-.6 0-1-.3-1-1.1s.8-2.6 1.1-3.3l5.3-11.2c1.5-3.5 2.5-5.7 2.5-8 0-2.4-1.7-4.1-4.4-4.1-3.8 0-7.9 2.2-11.2 5.8.1-.6.1-1.1.1-1.7 0-2.7-1.3-4.1-4.1-4.1-3.5 0-7.1 2.1-10.3 5.8l2.1-5.2h-7.3l-6.2 14c-2.9 6.6-7.7 13.1-10.3 13.1-.6 0-1-.3-1-1.1 0-1.3 1.4-4.4 1.9-5.7l8.2-18.6c.6-1.4-3.3-2.3-8.3-2.3-5.1 0-10.4 2.5-14.2 5.8-2.7 2.3-4.7 3.4-5.7 3.4-.5 0-.7-.3-.7-.6 0-1.1 2.7-4.3 2.7-6.8 0-1.1-.6-1.9-2.1-1.9-2.9 0-6.4 2.8-8.9 5.7l2.1-5.1h-7.2l-6.2 14c-2.9 6.6-7.8 13.5-10.5 13.5-.6 0-1-.3-1-1.1 0-1.3 1.3-4.3 2.1-5.9l8.2-18.6c.6-1.4-3.3-2.3-8.3-2.3-7.4 0-14.6 5-18.4 10.1-4.2 5.5-7.1 11.4-7.1 16.2-.1 3.9 1.9 6.3 5.9 6.3 4.5 0 8.1-3.5 10.1-6.2-.1.5-.2 1.1-.3 1.6 0 2.7 1.1 4.6 4.3 4.6 2.9 0 6.7-2.4 9.7-6.2l-2.5 5.7h7.8l7.7-17.4c2.5-5.7 5.4-8.6 6.2-8.6.3 0 .4.1.4.3 0 .6-1.2 2.2-1.2 3.7s.8 2.6 2.9 2.6c1.7 0 3.5-.8 5.2-1.9-3.9 5.3-6.6 10.9-6.6 15.5-.1 3.9 1.9 6.3 5.9 6.3 4.2 0 8.1-4 10.3-6.7-.1.6-.1 1.2-.1 1.9 0 2.6 1.5 4.8 4.5 4.8 3.3 0 6-2.1 9.3-6.1l-2.5 5.6h8l7.3-16.6c3.2-7.2 7.5-11.1 9.7-11.1.5-.1 1 .3 1.1.9v.2c-.1.8-.3 1.6-.7 2.3l-10.5 24.3h8.2l7.5-16.9c3.2-7.3 6.7-10.8 9.4-10.8.8 0 1.1.4 1.1 1.3-.1.9-.3 1.9-.7 2.7l-7.2 15.3c-.7 1.5-1.1 3.1-1.2 4.7 0 2.3 1.3 4.4 4.9 4.4 4.7 0 8.2-3.5 12.2-8.8v1.1c.3 4.2 2.7 7.9 8.9 7.9 7.3 0 13.2-5.1 16.8-13.1 1.3-2.9 2.3-5.9 2.6-9 .8.4 1.7.6 2.6.5 1.2 0 2.4-.3 3.5-.9l-1.3 2.7c-1.5 3.1-3.1 6.5-4.3 9.3-.8 1.7-1.3 3.5-1.4 5.4 0 2.9 1.6 4.9 4.9 4.9s7.7-3.1 10.9-7.4h.1c-.2.9-.3 1.8-.3 2.7 0 2.4.7 4.7 4.1 4.7 3.9 0 6.9-2.8 9.8-6.3l-2.5 5.6h8.1l6.5-14.6c3.7-8.3 7.3-13.2 10.7-13.2.6 0 1.1.4 1.1 1v.2c0 1.4-2 5.2-3.8 9-1.7 3.5-2.9 6.1-3.8 8.2-.8 1.7-1.3 3.6-1.4 5.5 0 2.5 1.4 4.5 4.5 4.5 4.7 0 9.4-4.5 11.9-7.9-.6 1.7-.9 3.3-.9 5.1 0 4.7 2.8 7 6.7 7 2.6 0 5.1-.9 7.3-2.4 3.1-2.1 5.5-5.3 7.6-8.3l-1.4-1.3c-1.9 2.7-4.1 5.3-6.3 6.9-1.2 1-2.6 1.5-4.1 1.6-1.7 0-2.7-.9-2.7-3s1-5 2.5-8.9c.1-.1 2.3-5 4.3-9.7 1.7-4 3.5-7.9 3.8-8.7h5.3l1.1-2.4h-5.2zm-227.2 38.4c-1.1 0-1.9-.4-1.9-1.9.1-3.9 3.3-10.9 7.4-16.5 2.9-3.9 6.6-6.7 10.6-6.7l-5.1 11.3c-3.8 8.5-7.9 13.8-11 13.8m49.8 0c-1.1 0-1.9-.4-2-1.9.1-3.9 3.3-10.9 7.4-16.5 2.9-3.9 6.6-6.7 10.6-6.7l-5.1 11.3c-3.8 8.7-7.7 13.8-10.9 13.8m88.5-22c-.2 4.3-4 14.8-8.5 21-1.8 2.5-3.3 3.3-4.7 3.3-1.9 0-2.4-1.5-2.1-3.8.4-3.9 3.7-13.1 8.2-19.4 2.1-2.9 3.5-4.1 5.1-4.1s2 1.3 2 3"/></g></g></svg>