<svg xmlns="http://www.w3.org/2000/svg" viewBox="0 0 192 192">
  <rect fill="none" height="192" width="192"/>
  <path d="M184 101c-2.41 46.45-40.96 83-88 83-48.59 0-88-39.4-88-88S47.41 8 96 8h74c7.67 0 14 6.33 14 14v79z" fill="#1A73E8"/>
  <path d="M170 8H96C47.4 8 8 47.38 8 95.95v-.02C8.27 47.59 47.57 9 96 9h74c7.68 0 14 6.33 14 14v-1c0-7.67-6.32-14-14-14z" fill="#FFFFFF" opacity=".2"/>
  <path d="M184 101v-2c-2.41 46.46-40.95 84-88 84-48.43 0-87.72-39.62-87.99-88 0 .17-.01.83-.01 1 0 48.61 39.4 88.09 88 88 47.79-.09 85.87-36.62 88-84" fill="#1A237E" fill-opacity=".2"/>
  <path d="M132 113c0 8.48-6.6 13.99-15 14H67c-8.39.01-14.99-5.46-15-13.93V118c.01 8.48 6.61 15.01 15 15h50c8.39-.01 15.01-6.52 15-15v-5zM156 117c-.03 2.47-3.31 3.82-5 2l-19-19v5l19 19c2 1.91 5 .71 5-2v-5z" fill="#185ABC"/>
  <path d="M151 69l-19 19v12.01L151 119c1.77 1.88 5 .58 5-2V71c0-2.52-3.19-3.78-5-2z" fill="#F1F3F4"/>
  <path d="M117 60H67c-8.39.01-15.01 6.74-15 15v38c.01 8.26 6.61 15.01 15 15h50c8.39-.01 15.01-6.74 15-15V75c-.01-8.26-6.61-15.01-15-15z" fill="#FFFFFF"/>
  <polygon fill="#BDC1C6" points="132,101.2 132.01,100 136,104 136,84 132,88"/>
</svg>
