<svg height="36" viewBox="0 0 36 36" width="36" xmlns="http://www.w3.org/2000/svg"><g fill="none" fill-rule="evenodd"><path d="m0 0h36v36h-36z"/><g fill-rule="nonzero" transform="translate(6 1.5)"><path d="m15.75 8.25 4.524375.855 3.725625-.855-8.25-8.25-1.138125 3.91125z" fill="#f29900"/><path d="m15.75 8.25v-8.25h-13.5c-1.243125 0-2.25 1.006875-2.25 2.25v28.5c0 1.243125 1.006875 2.25 2.25 2.25h19.5c1.243125 0 2.25-1.006875 2.25-2.25v-22.5z" fill="#fbbc04"/><path d="m14.625 24h-5.25v-1.875h5.25zm-.028125-3.75h-5.19375c-1.36875-.8625-2.278125-2.386875-2.278125-4.125 0-2.6925 2.1825-4.875 4.875-4.875s4.875 2.1825 4.875 4.875c0 1.738125-.909375 3.2625-2.278125 4.125z" fill="#fff"/></g></g></svg>