<?xml version="1.0" encoding="UTF-8" standalone="no"?>
<svg width="471px" height="86px" viewBox="0 0 471 86" version="1.1" xmlns="http://www.w3.org/2000/svg" xmlns:xlink="http://www.w3.org/1999/xlink">
    <!-- Generator: Sketch 40.3 (33839) - http://www.bohemiancoding.com/sketch -->
    <title>logos_stackdriver</title>
    <desc>Created with Sketch.</desc>
    <defs>
        <polygon id="path-1" points="0 86 470.461 86 470.461 0 0 0"></polygon>
    </defs>
    <g id="Page-1" stroke="none" stroke-width="1" fill="none" fill-rule="evenodd">
        <g id="logos_stackdriver">
            <g id="Group-20">
                <path d="M142.399,67.3105 C138.716,67.3105 135.115,66.1065 131.598,63.6995 C128.08,61.2905 125.778,57.9145 124.692,53.5705 L130.642,51.1625 C131.35,53.9495 132.802,56.2975 134.997,58.2095 C137.193,60.1225 139.66,61.0785 142.399,61.0785 C145.232,61.0785 147.651,60.3345 149.658,58.8475 C151.665,57.3595 152.669,55.3405 152.669,52.7905 C152.669,49.9575 151.665,47.7745 149.658,46.2395 C147.651,44.7055 144.476,43.2765 140.132,41.9545 C135.646,40.5385 132.246,38.7085 129.933,36.4655 C127.619,34.2235 126.463,31.3545 126.463,27.8595 C126.463,24.2245 127.902,21.0605 130.783,18.3695 C133.663,15.6775 137.417,14.3315 142.045,14.3315 C146.341,14.3315 149.836,15.4065 152.527,17.5545 C155.218,19.7045 156.965,22.0525 157.768,24.6025 L151.819,27.0815 C151.394,25.4765 150.342,23.9885 148.667,22.6185 C146.99,21.2495 144.83,20.5645 142.186,20.5645 C139.683,20.5645 137.547,21.2625 135.776,22.6545 C134.006,24.0475 133.121,25.7825 133.121,27.8595 C133.121,29.7485 133.935,31.3425 135.564,32.6405 C137.193,33.9395 139.589,35.1085 142.753,36.1465 C145.255,36.9505 147.344,37.7295 149.021,38.4835 C150.696,39.2395 152.397,40.2435 154.121,41.4945 C155.844,42.7455 157.142,44.3045 158.016,46.1685 C158.889,48.0345 159.326,50.1955 159.326,52.6495 C159.326,55.1055 158.818,57.3005 157.804,59.2365 C156.788,61.1735 155.442,62.7065 153.767,63.8405 C152.09,64.9735 150.284,65.8355 148.348,66.4255 C146.412,67.0155 144.428,67.3105 142.399,67.3105 L142.399,67.3105 Z" id="Fill-1" fill="#6F6F6F"></path>
                <path d="M179.3701,66.7441 C175.7341,66.7441 172.9601,65.7771 171.0481,63.8411 C169.1361,61.9051 168.1801,59.1661 168.1801,55.6251 L168.1801,37.4221 L162.0881,37.4221 L162.0881,31.4721 L168.1801,31.4721 L168.1801,20.8481 L174.6961,20.8481 L174.6961,31.4721 L183.1951,31.4721 L183.1951,37.4221 L174.6961,37.4221 L174.6961,55.1291 C174.6961,58.9071 176.2541,60.7951 179.3701,60.7951 C180.5501,60.7951 181.5411,60.6061 182.3451,60.2281 L184.6111,65.8231 C183.1951,66.4361 181.4471,66.7441 179.3701,66.7441" id="Fill-3" fill="#6F6F6F"></path>
                <path d="M200.7593,61.3613 C203.4503,61.3613 205.8943,60.3583 208.0903,58.3513 C210.2853,56.3443 211.3833,53.9723 211.3833,51.2333 C209.5423,49.7223 206.7793,48.9663 203.0963,48.9663 C199.9323,48.9663 197.5483,49.6513 195.9433,51.0203 C194.3373,52.3903 193.5353,53.9953 193.5353,55.8373 C193.5353,57.5373 194.2663,58.8823 195.7303,59.8743 C197.1933,60.8663 198.8703,61.3613 200.7593,61.3613 M199.6973,67.3103 C196.0133,67.3103 192.9333,66.2493 190.4543,64.1243 C187.9753,61.9993 186.7353,59.1903 186.7353,55.6953 C186.7353,51.9183 188.1983,48.9553 191.1273,46.8063 C194.0543,44.6583 197.6663,43.5833 201.9633,43.5833 C205.7883,43.5833 208.9273,44.2923 211.3833,45.7083 L211.3833,44.7163 C211.3833,42.1673 210.5093,40.1253 208.7623,38.5903 C207.0153,37.0563 204.8673,36.2883 202.3173,36.2883 C200.4283,36.2883 198.7163,36.7373 197.1823,37.6343 C195.6473,38.5313 194.5973,39.7583 194.0303,41.3173 L188.0813,38.7673 C188.8843,36.6903 190.4653,34.7653 192.8263,32.9953 C195.1873,31.2243 198.3033,30.3393 202.1763,30.3393 C206.6133,30.3393 210.2963,31.6383 213.2243,34.2343 C216.1523,36.8313 217.6163,40.4913 217.6163,45.2123 L217.6163,66.1773 L211.3833,66.1773 L211.3833,61.3613 L211.1003,61.3613 C208.5023,65.3283 204.7013,67.3103 199.6973,67.3103" id="Fill-5" fill="#6F6F6F"></path>
                <path d="M240.4932,67.3105 C235.2982,67.3105 231.0252,65.5525 227.6732,62.0345 C224.3202,58.5175 222.6442,54.1145 222.6442,48.8245 C222.6442,43.5375 224.3202,39.1335 227.6732,35.6155 C231.0252,32.0985 235.2982,30.3385 240.4932,30.3385 C244.3642,30.3385 247.5762,31.2845 250.1252,33.1715 C252.6762,35.0605 254.5402,37.4455 255.7212,40.3255 L249.7712,42.8045 C247.9762,38.4605 244.7422,36.2885 240.0682,36.2885 C237.1872,36.2885 234.6502,37.4695 232.4542,39.8295 C230.2592,42.1915 229.1602,45.1895 229.1602,48.8245 C229.1602,52.4615 230.2592,55.4595 232.4542,57.8205 C234.6502,60.1815 237.1872,61.3615 240.0682,61.3615 C244.9302,61.3615 248.2842,59.1905 250.1252,54.8455 L255.9332,57.3245 C254.7522,60.1575 252.8522,62.5305 250.2322,64.4425 C247.6112,66.3545 244.3642,67.3105 240.4932,67.3105" id="Fill-7" fill="#6F6F6F"></path>
                <polygon id="Fill-9" fill="#6F6F6F" points="268.1153 15.4653 268.1153 46.6993 283.1303 31.4723 291.4873 31.4723 291.4873 31.7553 277.9593 45.2833 292.1253 65.8943 292.1253 66.1773 284.2633 66.1773 273.3553 49.8163 268.1153 55.0573 268.1153 66.1773 261.5983 66.1773 261.5983 15.4653"></polygon>
                <path d="M310.3262,61.3613 C313.3942,61.3613 316.0042,60.2283 318.1522,57.9623 C320.3012,55.6953 321.3752,52.6493 321.3752,48.8243 C321.3752,45.0003 320.3012,41.9543 318.1522,39.6883 C316.0042,37.4223 313.3942,36.2883 310.3262,36.2883 C307.3032,36.2883 304.7072,37.4333 302.5352,39.7233 C300.3632,42.0143 299.2772,45.0483 299.2772,48.8243 C299.2772,52.6033 300.3632,55.6363 302.5352,57.9263 C304.7072,60.2163 307.3032,61.3613 310.3262,61.3613 M309.2642,67.3103 C304.7772,67.3103 300.9062,65.5403 297.6482,61.9993 C294.3902,58.4583 292.7622,54.0663 292.7622,48.8243 C292.7622,43.5833 294.3902,39.1923 297.6482,35.6513 C300.9062,32.1103 304.7772,30.3393 309.2642,30.3393 C311.9082,30.3393 314.2792,30.9053 316.3812,32.0383 C318.4822,33.1723 320.0532,34.5883 321.0922,36.2883 L321.3752,36.2883 L321.0922,31.4723 L321.0922,15.4653 L327.6072,15.4653 L327.6072,66.1773 L321.3752,66.1773 L321.3752,61.3613 L321.0922,61.3613 C320.0532,63.0613 318.4822,64.4773 316.3812,65.6113 C314.2792,66.7443 311.9082,67.3103 309.2642,67.3103" id="Fill-11" fill="#6F6F6F"></path>
                <path d="M342.0567,66.1777 L335.5387,66.1777 L335.5387,31.4717 L341.7737,31.4717 L341.7737,37.1377 L342.0567,37.1377 C342.7167,35.2507 344.0747,33.6927 346.1287,32.4637 C348.1817,31.2367 350.1777,30.6217 352.1137,30.6217 C354.0487,30.6217 355.6777,30.9057 356.9997,31.4717 L354.5217,37.5637 C353.6717,37.2337 352.5137,37.0677 351.0507,37.0677 C348.6897,37.0677 346.5997,38.0007 344.7837,39.8657 C342.9647,41.7307 342.0567,44.1747 342.0567,47.1957 L342.0567,66.1777 Z" id="Fill-13" fill="#6F6F6F"></path>
                <mask id="mask-2" fill="white">
                    <use xlink:href="#path-1"></use>
                </mask>
                <g id="Clip-16"></g>
                <path d="M361.816,66.178 L368.332,66.178 L368.332,31.472 L361.816,31.472 L361.816,66.178 Z M368.332,22.761 C367.434,23.658 366.348,24.106 365.074,24.106 C363.799,24.106 362.713,23.658 361.816,22.761 C360.918,21.864 360.471,20.777 360.471,19.502 C360.471,18.228 360.918,17.142 361.816,16.245 C362.713,15.348 363.799,14.899 365.074,14.899 C366.348,14.899 367.434,15.348 368.332,16.245 C369.229,17.142 369.678,18.228 369.678,19.502 C369.678,20.777 369.229,21.864 368.332,22.761 L368.332,22.761 Z" id="Fill-15" fill="#6F6F6F" mask="url(#mask-2)"></path>
                <polygon id="Fill-17" fill="#6F6F6F" mask="url(#mask-2)" points="387.17 66.1777 373.147 31.4717 380.231 31.4717 390.43 58.3867 390.57 58.3867 400.91 31.4717 407.852 31.4717 393.688 66.1777"></polygon>
                <path d="M436.1114,44.646 C435.9684,42.663 435.0584,40.775 433.3844,38.98 C431.7074,37.186 429.2164,36.289 425.9124,36.289 C423.5044,36.289 421.4144,37.044 419.6424,38.555 C417.8734,40.066 416.6564,42.096 415.9964,44.646 L436.1114,44.646 Z M426.7614,67.311 C421.5194,67.311 417.2574,65.564 413.9764,62.069 C410.6954,58.576 409.0544,54.161 409.0544,48.825 C409.0544,43.773 410.6484,39.429 413.8364,35.792 C417.0234,32.157 421.0954,30.339 426.0524,30.339 C431.1994,30.339 435.3204,32.016 438.4124,35.368 C441.5044,38.721 443.0504,43.206 443.0504,48.825 L442.9804,50.029 L415.5704,50.029 C415.7594,53.524 416.9274,56.286 419.0764,58.316 C421.2244,60.347 423.7404,61.361 426.6194,61.361 C431.2954,61.361 434.4574,59.378 436.1114,55.412 L441.9184,57.82 C440.7854,60.512 438.9204,62.767 436.3224,64.584 C433.7264,66.401 430.5394,67.311 426.7614,67.311 L426.7614,67.311 Z" id="Fill-18" fill="#6F6F6F" mask="url(#mask-2)"></path>
                <path d="M455.5176,66.1777 L448.9996,66.1777 L448.9996,31.4717 L455.2346,31.4717 L455.2346,37.1377 L455.5176,37.1377 C456.1776,35.2507 457.5356,33.6927 459.5896,32.4637 C461.6426,31.2367 463.6386,30.6217 465.5746,30.6217 C467.5096,30.6217 469.1386,30.9057 470.4606,31.4717 L467.9826,37.5637 C467.1326,37.2337 465.9746,37.0677 464.5116,37.0677 C462.1506,37.0677 460.0606,38.0007 458.2446,39.8657 C456.4256,41.7307 455.5176,44.1747 455.5176,47.1957 L455.5176,66.1777 Z" id="Fill-19" fill="#6F6F6F" mask="url(#mask-2)"></path>
            </g>
            <polygon id="Fill-21" fill="#8CC63F" points="25.0056 -0.0004 0.0056 42.9996 25.0056 85.9996 75.0046 85.9996 100.0056 42.9996 75.0046 -0.0004"></polygon>
            <polygon id="Fill-22" fill="#009245" points="25.0056 86 74.6726 86 49.8246 43"></polygon>
            <polygon id="Fill-23" fill="#006837" points="0 42.9998 25.006 85.9998 49.838 42.9998"></polygon>
            <polygon id="Fill-24" fill="#39B54A" points="25.002 -0.0004 0.002 42.9996 49.822 42.9996 49.832 42.9796 74.672 -0.0004"></polygon>
            <polygon id="Fill-25" fill="#8CC63F" points="74.8323 -0.0004 50.0023 42.9996 74.8323 85.9996 99.8413 42.9996"></polygon>
        </g>
    </g>
</svg>