<?xml version="1.0" encoding="utf-8"?>
<!-- Generator: Adobe Illustrator 23.0.1, SVG Export Plug-In . SVG Version: 6.00 Build 0)  -->
<!DOCTYPE svg PUBLIC "-//W3C//DTD SVG 1.1//EN" "http://www.w3.org/Graphics/SVG/1.1/DTD/svg11.dtd" [
	<!ENTITY ns_extend "http://ns.adobe.com/Extensibility/1.0/">
	<!ENTITY ns_ai "http://ns.adobe.com/AdobeIllustrator/10.0/">
	<!ENTITY ns_graphs "http://ns.adobe.com/Graphs/1.0/">
	<!ENTITY ns_vars "http://ns.adobe.com/Variables/1.0/">
	<!ENTITY ns_imrep "http://ns.adobe.com/ImageReplacement/1.0/">
	<!ENTITY ns_sfw "http://ns.adobe.com/SaveForWeb/1.0/">
	<!ENTITY ns_custom "http://ns.adobe.com/GenericCustomNamespace/1.0/">
	<!ENTITY ns_adobe_xpath "http://ns.adobe.com/XPath/1.0/">
]>
<svg version="1.1" id="Livello_1" xmlns:x="&ns_extend;" xmlns:i="&ns_ai;" xmlns:graph="&ns_graphs;"
	 xmlns="http://www.w3.org/2000/svg" xmlns:xlink="http://www.w3.org/1999/xlink" x="0px" y="0px" viewBox="0 0 1487 250"
	 enable-background="new 0 0 1487 250" xml:space="preserve">
<metadata>
	<sfw  xmlns="&ns_sfw;">
		<slices></slices>
		<sliceSourceBounds  bottomLeftOrigin="true" height="250" width="1487" x="-630.6" y="-105.5"></sliceSourceBounds>
	</sfw>
</metadata>
<g>
	<g>
		<path fill="#FBBC04" d="M119.3,0.4C122.9,0.1,126.4,0,130,0c65.1,2.4,117.4,54.6,120,119.7V218c-0.1,17.8-14.6,32.1-32.3,32
			c-16.2-2.5-28.6-15.7-30.1-32v-98.3c-2.7-34.3-32.7-60-67-57.3c-0.4,0-0.8,0.1-1.2,0.1"/>
		<path fill="#4285F4" d="M250,218.7c0,17.2-14,31.2-31.2,31.2s-31.2-14-31.2-31.2s14-31.2,31.2-31.2S250,201.5,250,218.7z"/>
		<path fill="#EA4335" d="M121.1,248.9c17.7,0.2,32.2-13.9,32.4-31.6c0-0.1,0-0.1,0-0.2c-0.5-17.2-14.9-30.8-32.1-30.3
			c-0.2,0-0.5,0-0.7,0c-34.1-2.6-59.8-32.2-57.4-66.4v-0.5c2.5-30.8,27-55.1,57.8-57.4c17.2,0.7,31.7-12.7,32.4-29.9
			c0-0.2,0-0.3,0-0.5c-0.2-17.7-14.7-32-32.4-31.8c0,0,0,0,0,0h-2.2C52.6,3.4,0.4,57.8,0,124.2v0.5c0,77.9,68.3,124.3,119.2,124.3
			H121.1z"/>
	</g>
	<path fill="#5F6368" d="M454.7,184.5c-37.6,0-68.3-30.2-68.7-67.8c0.5-37.6,31.1-67.8,68.7-67.8c17.4-0.3,34.1,6.5,46.5,18.7
		l-12.7,13c-9-8.6-21-13.3-33.4-13.2c-26.8,0-48.6,21.8-48.6,48.6c0,0.2,0,0.4,0,0.7c-0.4,26.8,21.1,48.9,47.9,49.2
		c0.2,0,0.4,0,0.7,0c12.8,0.5,25.2-4.4,34.3-13.5c5.9-6.4,9.4-14.7,10-23.3h-44.7v-18.5H517c0.7,3.8,1.1,7.7,1,11.6
		c0.5,16-5.3,31.5-16.1,43.3C489.7,178.3,472.4,185.2,454.7,184.5z M614.4,140.9c0.9,23.8-17.6,43.8-41.3,44.7
		c-23.8,0.9-43.8-17.6-44.7-41.3c0-1.1,0-2.3,0-3.4c-0.9-23.8,17.6-43.8,41.3-44.7c23.8-0.9,43.8,17.6,44.7,41.3
		C614.4,138.6,614.4,139.7,614.4,140.9z M595.6,140.9c1.3-13.4-8.6-25.2-21.9-26.5c-13.4-1.3-25.2,8.6-26.5,21.9
		c-0.1,1.5-0.1,3,0,4.6c-1.3,13.4,8.6,25.2,21.9,26.5c13.4,1.3,25.2-8.6,26.5-21.9C595.7,143.9,595.7,142.4,595.6,140.9z
		 M710.9,140.9c1,23.8-17.5,43.8-41.2,44.8c-23.8,1-43.8-17.5-44.8-41.2c0-1.2,0-2.4,0-3.6c-1-23.8,17.5-43.8,41.2-44.8
		c23.8-1,43.8,17.5,44.8,41.2C710.9,138.5,710.9,139.7,710.9,140.9z M692,140.9c1.3-13.4-8.5-25.2-21.9-26.5
		c-13.4-1.3-25.2,8.5-26.5,21.9c-0.1,1.5-0.1,3.1,0,4.6c-1.3,13.4,8.5,25.2,21.9,26.5c13.4,1.3,25.2-8.5,26.5-21.9
		C692.2,144,692.2,142.4,692,140.9z M804.8,99.8v78.6c0,32.3-19,45.5-41.5,45.5c-16.9,0.1-32.2-10.1-38.7-25.7l16.7-7.3
		c3.5,9.1,12.1,15.3,21.8,15.6c14.6,0,23.3-8.9,23.3-25.6v-6.3h-0.7c-5.8,6.5-14.2,10.2-23,10c-24.1,0-43.6-19.6-43.6-43.7
		c0-24.1,19.5-43.6,43.6-43.6c8.7-0.2,17.1,3.3,23,9.8h0.9v-7.3C786.7,99.7,804.8,99.8,804.8,99.8z M788,141
		c1.1-13.5-8.9-25.4-22.4-26.6c-0.2,0-0.5,0-0.7,0c-13.9,0.5-24.8,12.2-24.3,26.1c0,0.2,0,0.3,0,0.5c-0.7,13.8,9.9,25.6,23.7,26.2
		c0.2,0,0.4,0,0.5,0c13.4-0.6,23.8-12.1,23.2-25.5C788,141.5,788,141.3,788,141L788,141z M838.4,53.6v128.2h-19.2V53.6H838.4z
		 M913.9,155.3l14.6,9.9c-8.1,12.1-21.8,19.4-36.4,19.3c-23.3,0.3-42.4-18.4-42.7-41.7c0-0.7,0-1.3,0-2c0-26,18-43.7,40.6-43.7
		c17.1,0.5,32,11.6,37.3,27.8l2,4.9L871,154.1c3.7,8.3,12.1,13.5,21.2,13.2C901,167.4,909.3,162.8,913.9,155.3L913.9,155.3z
		 M868.1,139.6l39-16.2c-3-6-9.4-9.7-16.2-9.2c-13.2,0.6-23.4,11.7-22.9,24.9C868,139.2,868,139.4,868.1,139.6L868.1,139.6z"/>
	<path fill-rule="evenodd" clip-rule="evenodd" fill="#5F6368" d="M978.3,184l43.8-116.1h16.9l43.8,116.1h-16.5l-11.2-31.5h-48.8
		L994.8,184H978.3z M1011.2,138.6h38.6l-19-52.4h-0.6L1011.2,138.6L1011.2,138.6z M1123.8,186.6c-10.3,0-19.1-4.1-26.6-12.2
		c-7.5-8.1-11.2-18.2-11.2-30.2s3.7-22.1,11.2-30.2c7.5-8.1,16.3-12.2,26.6-12.2c6.1,0,11.5,1.3,16.3,3.9c4.8,2.6,8.4,5.8,10.8,9.7
		h0.6l-0.6-11V67.9h14.9V184h-14.3v-11h-0.6c-2.4,3.9-6,7.1-10.8,9.7C1135.3,185.3,1129.9,186.6,1123.8,186.6z M1126.3,172.9
		c7,0,13-2.6,17.9-7.8c4.9-5.2,7.4-12.2,7.4-20.9s-2.5-15.7-7.4-20.9s-10.9-7.8-17.9-7.8c-6.9,0-12.9,2.6-17.8,7.9
		c-5,5.2-7.5,12.2-7.5,20.8s2.5,15.6,7.5,20.8C1113.4,170.3,1119.4,172.9,1126.3,172.9z M1185.9,184V67.9h14.9l40.4,70.7h0.6
		l40.4-70.7h14.9V184h-14.9v-68.9l0.6-19.5h-0.6l-36.3,63.7h-8.8l-36.3-63.7h-0.6l0.6,19.5V184C1200.8,184,1185.9,184,1185.9,184z
		 M1324.1,114.1c7.7-8.1,17.5-12.2,29.4-12.2s21.7,4,29.4,12.1c7.7,8.1,11.5,18.1,11.5,30.2s-3.8,22.2-11.5,30.2
		c-7.7,8.1-17.5,12.1-29.4,12.1s-21.7-4-29.4-12.1c-7.7-8.1-11.5-18.1-11.5-30.2S1316.4,122.1,1324.1,114.1z M1335.1,165.2
		c5.2,5.2,11.3,7.8,18.3,7.8s13.1-2.6,18.2-7.9c5.1-5.2,7.7-12.2,7.7-20.8s-2.6-15.6-7.7-20.8s-11.2-7.9-18.2-7.9
		s-13.1,2.6-18.2,7.9c-5.1,5.2-7.7,12.2-7.7,20.8S1330.1,159.9,1335.1,165.2z M1449.2,186.6c-6.1,0-11.5-1.3-16.3-3.9
		c-4.8-2.6-8.4-5.8-10.8-9.7h-0.6v11h-14.3V67.9h14.9v36.6l-0.6,11h0.6c2.4-3.9,6-7.1,10.8-9.7c4.8-2.6,10.2-3.9,16.3-3.9
		c10.3,0,19.1,4.1,26.6,12.2s11.2,18.2,11.2,30.2c0,12-3.7,22.1-11.2,30.2C1468.3,182.5,1459.5,186.6,1449.2,186.6z M1446.8,172.9
		c6.9,0,12.9-2.6,17.8-7.9c5-5.2,7.5-12.2,7.5-20.8s-2.5-15.6-7.5-20.8c-5-5.2-10.9-7.9-17.8-7.9c-7,0-13,2.6-17.9,7.8
		c-4.9,5.2-7.4,12.2-7.4,20.9s2.5,15.7,7.4,20.9S1439.8,172.9,1446.8,172.9z"/>
</g>
</svg>
