<?xml version="1.0" encoding="UTF-8" standalone="no"?>
<svg id="Sphere_filled_blue"
  version="1.1"
  baseProfile="full"
  xmlns="http://www.w3.org/2000/svg"
  xmlns:xlink="http://www.w3.org/1999/xlink"
  width="400"
  height="400">

  <title>Sphere filled_blue</title>

  <desc>
     about: http://commons.wikimedia.org/wiki/Image:Sphere_filled_blue.svg
     rights: GNU Free Documentation license,
             Creative Commons Attribution ShareAlike license
  </desc>

  <defs>
    <radialGradient id="white_spot" cx="0.33" cy="0.67" r="0.75">
      <stop stop-color="white" offset="0" stop-opacity="0.7"/>
      <stop stop-color="white" offset="0.7" stop-opacity="0"/>
      <stop stop-color="black" offset="0.7" stop-opacity="0"/>
      <stop stop-color="black" offset="1" stop-opacity="0.3"/>
    </radialGradient>
  </defs>


  <g id="sphere" transform="scale(200, -200) translate(1, -1)">
    <g id="sphere_fill">
      <circle cx="0" cy="0" r="1" stroke="none" fill="#5599aa" />
    </g>

    <circle cx="0" cy="0" r="1"
       style="fill:url(#white_spot); stroke:none"/>

    <g id="sphere_front"
       style="stroke:none; fill:#000000; fill_rule:evenodd">
      <g id="meridians">
        <path id="meridian0"
           d="M -0.0309338,0.999521 A 0.99999,0.0346053 -88.4775 1 0 0.0222051,-0.999753 A 1,1 0 0 1 0.0309338,-0.999521 A 0.99999,0.0346053 -88.4775 0 1 -0.0222051,0.999753 A 1,1 0 0 1 -0.0309338,0.999521 Z " />
         <path id="meridian1"
           d="M -0.138135,0.990413 A 0.99999,0.171711 -82.3139 1 0 0.129356,-0.991598 A 1,1 0 0 1 0.138135,-0.990413 A 0.99999,0.171711 -82.3139 0 1 -0.129356,0.991598 A 1,1 0 0 1 -0.138135,0.990413 Z " />
        <path id="meridian2"
           d="M -0.248942,0.968518 A 0.99999,0.3036 -75.8475 1 0 0.240061,-0.970758 A 1,1 0 0 1 0.248942,-0.968518 A 0.99999,0.3036 -75.8475 0 1 -0.240061,0.970758 A 1,1 0 0 1 -0.248942,0.968518 Z " />
        <path id="meridian3"
           d="M -0.366076,0.930585 A 0.99999,0.426264 -68.8025 1 0 0.357082,-0.934073 A 1,1 0 0 1 0.366076,-0.930585 A 0.99999,0.426264 -68.8025 0 1 -0.357082,0.934073 A 1,1 0 0 1 -0.366076,0.930585 Z " />
        <path id="meridian4"
           d="M -0.491665,0.870784 A 0.99999,0.535977 -60.846 1 0 0.482638,-0.87582 A 1,1 0 0 1 0.491665,-0.870784 A 0.99999,0.535977 -60.846 0 1 -0.482638,0.87582 A 1,1 0 0 1 -0.491665,0.870784 Z " />
        <path id="meridian5"
           d="M -0.625904,0.7799 A 0.99999,0.629404 -51.5732 1 0 0.617106,-0.78688 A 1,1 0 0 1 0.625904,-0.7799 A 0.99999,0.629404 -51.5732 0 1 -0.617106,0.78688 A 1,1 0 0 1 -0.625904,0.7799 Z " />
        <path id="meridian6"
           d="M -0.763991,0.645227 A 0.99999,0.703706 -40.5346 1 0 0.756008,-0.654562 A 1,1 0 0 1 0.763991,-0.645227 A 0.99999,0.703706 -40.5346 0 1 -0.756008,0.654562 A 1,1 0 0 1 -0.763991,0.645227 Z " />
        <path id="meridian7"
           d="M -0.891016,0.453973 A 0.99999,0.756627 -27.3812 1 0 0.884877,-0.465824 A 1,1 0 0 1 0.891016,-0.453973 A 0.99999,0.756627 -27.3812 0 1 -0.884877,0.465824 A 1,1 0 0 1 -0.891016,0.453973 Z " />
        <path id="meridian8"
           d="M -0.978874,0.204465 A 0.99999,0.786559 -12.203 1 0 0.975887,-0.218277 A 1,1 0 0 1 0.978874,-0.204465 A 0.99999,0.786559 -12.203 0 1 -0.975887,0.218277 A 1,1 0 0 1 -0.978874,0.204465 Z " />
        <path id="meridian9"
           d="M -0.9969,-0.078673 A 0.99999,0.792591 4.10228 1 0 0.997924,0.0643977 A 1,1 0 0 1 0.9969,0.078673 A 0.99999,0.792591 4.10228 0 1 -0.997924,-0.0643977 A 1,1 0 0 1 -0.9969,-0.078673 Z " />
        <path id="meridian10"
           d="M -0.937248,-0.348662 A 0.99999,0.77454 20.0103 1 0 0.941969,0.335699 A 1,1 0 0 1 0.937248,0.348662 A 0.99999,0.77454 20.0103 0 1 -0.941969,-0.335699 A 1,1 0 0 1 -0.937248,-0.348662 Z " />
        <path id="meridian11"
           d="M -0.82314,-0.567839 A 0.99999,0.732956 34.2322 1 0 0.830356,0.557233 A 1,1 0 0 1 0.82314,0.567839 A 0.99999,0.732956 34.2322 0 1 -0.830356,-0.557233 A 1,1 0 0 1 -0.82314,-0.567839 Z " />
        <path id="meridian12"
           d="M -0.686604,-0.727031 A 0.99999,0.669101 46.3017 1 0 0.695094,0.718919 A 1,1 0 0 1 0.686604,0.727031 A 0.99999,0.669101 46.3017 0 1 -0.695094,-0.718919 A 1,1 0 0 1 -0.686604,-0.727031 Z " />
        <path id="meridian13"
           d="M -0.548873,-0.835906 A 0.99999,0.584916 56.4021 1 0 0.557834,0.829952 A 1,1 0 0 1 0.548873,0.835906 A 0.99999,0.584916 56.4021 0 1 -0.557834,-0.829952 A 1,1 0 0 1 -0.548873,-0.835906 Z " />
        <path id="meridian14"
           d="M -0.418702,-0.908124 A 0.99999,0.482958 64.9618 1 0 0.427731,0.903906 A 1,1 0 0 1 0.418702,0.908124 A 0.99999,0.482958 64.9618 0 1 -0.427731,-0.903906 A 1,1 0 0 1 -0.418702,-0.908124 Z " />
        <path id="meridian15"
           d="M -0.297621,-0.954684 A 0.99999,0.366326 72.4165 1 0 0.306562,0.951851 A 1,1 0 0 1 0.297621,0.954684 A 0.99999,0.366326 72.4165 0 1 -0.306562,-0.951851 A 1,1 0 0 1 -0.297621,-0.954684 Z " />
        <path id="meridian16"
           d="M -0.184086,-0.98291 A 0.99999,0.238564 79.1347 1 0 0.192911,0.981216 A 1,1 0 0 1 0.184086,0.98291 A 0.99999,0.238564 79.1347 0 1 -0.192911,-0.981216 A 1,1 0 0 1 -0.184086,-0.98291 Z " />
        <path id="meridian17"
           d="M -0.0755152,-0.997145 A 0.99999,0.103552 85.4178 1 0 0.0842609,0.996444 A 1,1 0 0 1 0.0755152,0.997145 A 0.99999,0.103552 85.4178 0 1 -0.0842609,-0.996444 A 1,1 0 0 1 -0.0755152,-0.997145 Z " />
      </g>

      <g id="circles_of_latitude">
        <path id="circle_of_latitude4"
           d="M -0.272931,-0.962033 A 0.646124,0.393335 0 0 1 0.272931,-0.962033 A 1,1 0 0 0 0.246653,-0.969104 A 0.639439,0.389266 0 0 0 -0.246653,-0.969104 A 1,1 0 0 0 -0.272931,-0.962033 Z " />
        <path id="circle_of_latitude5"
           d="M -0.591922,-0.805995 A 0.768842,0.468041 0 0 1 0.591922,-0.805995 A 1,1 0 0 0 0.580274,-0.814421 A 0.763232,0.464626 0 0 0 -0.580274,-0.814421 A 1,1 0 0 0 -0.591922,-0.805995 Z " />
        <path id="circle_of_latitude6"
           d="M -0.78025,-0.625467 A 0.868199,0.528526 0 0 1 0.78025,-0.625467 A 1,1 0 0 0 0.772518,-0.634993 A 0.863836,0.52587 0 0 0 -0.772518,-0.634993 A 1,1 0 0 0 -0.78025,-0.625467 Z " />
        <path id="circle_of_latitude7"
           d="M -0.904754,-0.425935 A 0.941176,0.572952 0 0 1 0.904754,-0.425935 A 1,1 0 0 0 0.899815,-0.436271 A 0.938191,0.571135 0 0 0 -0.899815,-0.436271 A 1,1 0 0 0 -0.904754,-0.425935 Z " />
        <path id="circle_of_latitude8"
           d="M -0.976952,-0.21346 A 0.985556,0.599969 0 0 1 0.976952,-0.21346 A 1,1 0 0 0 0.974522,-0.224293 A 0.984041,0.599046 0 0 0 -0.974522,-0.224293 A 1,1 0 0 0 -0.976952,-0.21346 Z " />
        <path id="circle_of_latitude9"
           d="M -0.999985,0.00549983 A 0.99999,0.608756 0 1 1 0.999985,0.00549983 A 1,1 0 0 0 0.999985,-0.00549983 A 0.99999,0.608756 0 0 0 -0.999985,-0.00549983 A 1,1 0 0 0 -0.999985,0.00549983 Z " />
        <path id="circle_of_latitude10"
           d="M -0.974522,0.224293 A 0.984041,0.599046 0 1 1 0.974522,0.224293 A 1,1 0 0 0 0.976952,0.21346 A 0.985556,0.599969 0 1 0 -0.976952,0.21346 A 1,1 0 0 0 -0.974522,0.224293 Z " />
        <path id="circle_of_latitude11"
           d="M -0.899815,0.436271 A 0.938191,0.571135 0 1 1 0.899815,0.436271 A 1,1 0 0 0 0.904754,0.425935 A 0.941176,0.572952 0 1 0 -0.904754,0.425935 A 1,1 0 0 0 -0.899815,0.436271 Z " />
        <path id="circle_of_latitude12"
           d="M -0.772518,0.634993 A 0.863836,0.52587 0 1 1 0.772518,0.634993 A 1,1 0 0 0 0.78025,0.625467 A 0.868199,0.528526 0 1 0 -0.78025,0.625467 A 1,1 0 0 0 -0.772518,0.634993 Z " />
        <path id="circle_of_latitude13"
           d="M -0.580274,0.814421 A 0.763232,0.464626 0 1 1 0.580274,0.814421 A 1,1 0 0 0 0.591922,0.805995 A 0.768842,0.468041 0 1 0 -0.591922,0.805995 A 1,1 0 0 0 -0.580274,0.814421 Z " />
        <path id="circle_of_latitude14"
           d="M -0.246653,0.969104 A 0.639439,0.389266 0 1 1 0.246653,0.969104 A 1,1 0 0 0 0.272931,0.962033 A 0.646124,0.393335 0 1 0 -0.272931,0.962033 A 1,1 0 0 0 -0.246653,0.969104 Z " />
        <path id="circle_of_latitude15"
           d="M -0.496217,0.688788 A 0.496217,0.302077 0 1 0 0.496217,0.688788 A 0.496217,0.302077 0 1 0 -0.496217,0.688788 Z M -0.503774,0.685327 A 0.503774,0.306678 0 1 1 0.503774,0.685327 A 0.503774,0.306678 0 1 1 -0.503774,0.685327 Z " />
        <path id="circle_of_latitude16"
           d="M -0.337917,0.746685 A 0.337917,0.205711 0 1 0 0.337917,0.746685 A 0.337917,0.205711 0 1 0 -0.337917,0.746685 Z M -0.346117,0.744317 A 0.346117,0.210703 0 1 1 0.346117,0.744317 A 0.346117,0.210703 0 1 1 -0.346117,0.744317 Z " />
        <path id="circle_of_latitude17"
           d="M -0.16935,0.781894 A 0.16935,0.103093 0 1 0 0.16935,0.781894 A 0.16935,0.103093 0 1 0 -0.16935,0.781894 Z M -0.177944,0.780692 A 0.177944,0.108325 0 1 1 0.177944,0.780692 A 0.177944,0.108325 0 1 1 -0.177944,0.780692 Z " />
      </g>
    </g>
  </g>
</svg>
