<?xml version="1.0" encoding="UTF-8" ?>
<!DOCTYPE svg PUBLIC "-//W3C//DTD SVG 1.1//EN" "http://www.w3.org/Graphics/SVG/1.1/DTD/svg11.dtd">
<svg width="237pt" height="237pt" viewBox="0 0 960 960" version="1.1" xmlns="http://www.w3.org/2000/svg">
<g id="#ffffffff">
</g>
<g id="#333399ff">
<path fill="#333399" opacity="1.00" d=" M 464.58 0.00 L 495.43 0.00 C 535.80 1.51 576.04 7.62 614.82 19.03 C 685.04 39.42 750.33 76.37 804.21 125.78 C 857.14 174.18 899.07 234.57 925.75 301.16 C 946.69 353.07 958.01 408.68 960.00 464.58 L 960.00 495.43 C 957.98 553.06 945.96 610.39 923.79 663.66 C 895.34 732.51 850.50 794.48 794.13 843.18 C 735.30 894.23 663.85 930.66 587.89 947.97 C 557.56 955.03 526.52 958.77 495.42 960.00 L 464.57 960.00 C 427.45 958.57 390.42 953.35 354.55 943.59 C 287.19 925.48 223.97 892.30 170.69 847.29 C 115.21 800.63 70.49 741.24 41.06 674.98 C 15.84 618.54 2.12 557.16 0.00 495.42 L 0.00 464.58 C 1.77 416.18 10.36 367.98 26.37 322.24 C 50.91 251.38 92.52 186.54 146.52 134.53 C 204.23 78.67 276.16 37.58 353.72 16.63 C 389.85 6.71 427.17 1.44 464.58 0.00 M 459.45 77.59 C 445.24 78.31 431.06 79.76 417.00 81.99 C 342.18 93.61 271.01 127.17 214.22 177.22 C 159.01 225.61 117.33 289.31 95.46 359.41 C 70.16 439.77 70.96 528.09 97.84 607.94 C 122.33 681.47 168.76 747.41 229.47 795.53 C 285.75 840.41 354.27 869.75 425.63 879.28 C 493.37 888.48 563.45 880.27 627.08 855.20 C 671.77 837.68 713.25 812.04 748.96 779.96 C 787.64 745.28 819.61 703.08 842.33 656.35 C 867.20 605.59 880.98 549.49 882.72 493.01 C 885.09 422.90 868.75 352.21 835.56 290.38 C 801.89 227.22 751.04 173.36 689.94 136.07 C 621.36 93.88 539.84 73.32 459.45 77.59 Z" />
<path fill="#333399" opacity="1.00" d=" M 268.68 182.67 C 326.55 141.27 396.83 117.58 467.96 115.50 C 512.36 114.00 557.07 120.60 599.07 135.16 C 669.59 159.30 732.10 205.92 775.68 266.37 C 797.81 296.95 815.23 330.98 826.84 366.92 C 852.37 444.60 850.42 530.82 821.88 607.41 C 801.95 607.53 782.00 607.60 762.07 607.38 C 747.51 502.77 732.50 398.22 717.96 293.60 C 702.24 293.37 686.52 293.57 670.80 293.50 C 655.49 398.15 640.61 502.87 625.22 607.51 C 619.53 607.46 613.85 607.62 608.17 607.33 C 595.06 513.02 581.59 418.74 568.36 324.44 C 566.80 314.12 565.62 303.73 563.85 293.44 C 548.25 293.54 532.65 293.51 517.05 293.45 C 509.51 342.78 502.69 392.22 495.41 441.58 C 487.34 496.89 479.50 552.24 471.28 607.53 C 460.26 607.38 449.23 607.68 438.21 607.36 C 438.29 502.58 438.27 397.80 438.22 293.01 C 423.15 292.98 408.08 293.00 393.01 293.01 C 393.00 397.82 393.00 502.63 393.01 607.44 C 381.01 607.54 369.01 607.53 357.01 607.44 C 347.53 557.57 338.05 507.71 328.49 457.86 C 343.71 441.37 350.39 418.89 353.00 397.04 C 355.17 376.30 354.74 354.84 348.26 334.84 C 343.59 320.31 334.66 306.57 321.35 298.63 C 316.65 295.84 311.46 293.68 306.00 293.09 C 280.94 292.58 255.86 292.74 230.79 292.79 C 230.71 397.65 230.72 502.50 230.79 607.36 C 199.90 607.62 169.01 607.52 138.12 607.41 C 109.39 530.34 107.61 443.49 133.65 365.43 C 157.61 292.17 205.83 227.22 268.68 182.67 Z" />
<path fill="#333399" opacity="1.00" d=" M 275.84 331.24 C 281.49 331.41 287.17 330.92 292.79 331.47 C 297.46 332.70 301.14 336.26 304.01 339.99 C 308.93 346.85 311.22 355.20 312.40 363.45 C 313.95 375.18 313.82 387.14 311.85 398.81 C 309.98 408.95 306.31 419.37 298.55 426.54 C 296.08 428.54 293.37 430.90 290.03 430.98 C 285.21 431.11 280.38 430.94 275.56 431.00 C 275.41 400.67 275.58 370.33 275.48 340.00 C 275.46 337.07 275.60 334.15 275.84 331.24 Z" />
<path fill="#333399" opacity="1.00" d=" M 534.84 378.55 C 537.55 378.52 540.26 378.53 542.98 378.57 C 546.68 417.79 550.62 456.98 554.26 496.21 C 544.23 496.24 534.19 496.37 524.17 496.13 C 527.69 456.93 531.23 417.74 534.84 378.55 Z" />
<path fill="#333399" opacity="1.00" d=" M 688.25 382.90 C 688.49 381.47 688.23 379.83 689.11 378.58 C 691.70 378.38 694.30 378.52 696.90 378.62 C 700.52 417.83 704.53 457.00 708.14 496.21 C 698.10 496.27 688.06 496.31 678.02 496.19 C 681.45 458.43 684.91 420.67 688.25 382.90 Z" />
<path fill="#333399" opacity="1.00" d=" M 275.56 469.56 C 279.82 469.49 284.08 469.49 288.34 469.49 C 296.58 515.43 304.50 561.43 312.42 607.43 C 300.14 607.54 287.85 607.53 275.56 607.44 C 275.47 561.48 275.47 515.52 275.56 469.56 Z" />
<path fill="#333399" opacity="1.00" d=" M 523.43 537.29 C 534.09 537.25 544.75 537.17 555.40 537.33 C 558.56 560.71 562.05 584.04 565.24 607.42 C 548.17 607.54 531.09 607.57 514.02 607.40 C 517.13 584.03 520.36 560.67 523.43 537.29 Z" />
<path fill="#333399" opacity="1.00" d=" M 677.35 537.26 C 688.00 537.32 698.65 537.10 709.29 537.38 C 712.41 560.74 715.97 584.04 719.09 607.40 C 702.04 607.56 684.99 607.56 667.95 607.40 C 670.99 584.00 674.21 560.64 677.35 537.26 Z" />
<path fill="#333399" opacity="1.00" d=" M 155.82 647.02 C 371.94 646.99 588.06 646.98 804.19 647.02 C 778.67 696.73 741.41 740.33 696.48 773.52 C 644.90 811.81 582.96 835.96 519.07 842.65 C 478.33 846.97 436.86 844.53 396.96 835.21 C 326.69 819.04 261.77 781.07 212.81 728.19 C 190.26 703.88 170.92 676.54 155.82 647.02 Z" />
</g>
</svg>
