<?xml version="1.0" encoding="UTF-8" standalone="no"?>
<svg
   xmlns:dc="http://purl.org/dc/elements/1.1/"
   xmlns:cc="http://creativecommons.org/ns#"
   xmlns:rdf="http://www.w3.org/1999/02/22-rdf-syntax-ns#"
   xmlns:svg="http://www.w3.org/2000/svg"
   xmlns="http://www.w3.org/2000/svg"
   xmlns:sodipodi="http://sodipodi.sourceforge.net/DTD/sodipodi-0.dtd"
   xmlns:inkscape="http://www.inkscape.org/namespaces/inkscape"
   version="1.0"
   width="119.96407pt"
   height="119.96586pt"
   viewBox="0 0 119.96405 119.96586"
   preserveAspectRatio="xMidYMid meet"
   id="svg10"
   sodipodi:docname="Google Discover.svg"
   inkscape:version="0.92.3 (2405546, 2018-03-11)"
   inkscape:export-filename="C:\Users\GioSal\Desktop\Google Discover (truT) 326.png"
   inkscape:export-xdpi="195.8"
   inkscape:export-ydpi="195.8">
  <defs
     id="defs14" />
  <sodipodi:namedview
     pagecolor="#ffffff"
     bordercolor="#666666"
     borderopacity="1"
     objecttolerance="10"
     gridtolerance="10"
     guidetolerance="10"
     inkscape:pageopacity="0"
     inkscape:pageshadow="2"
     inkscape:window-width="1920"
     inkscape:window-height="1057"
     id="namedview12"
     showgrid="false"
     inkscape:zoom="3.280264"
     inkscape:cx="10.573959"
     inkscape:cy="124.53611"
     inkscape:window-x="-8"
     inkscape:window-y="-8"
     inkscape:window-maximized="1"
     inkscape:current-layer="svg10"
     fit-margin-top="0"
     fit-margin-left="0"
     fit-margin-right="0"
     fit-margin-bottom="0" />
  <metadata
     id="metadata2">
Created by potrace 1.15, written by Peter Selinger 2001-2017
<rdf:RDF>
  <cc:Work
     rdf:about="">
    <dc:format>image/svg+xml</dc:format>
    <dc:type
       rdf:resource="http://purl.org/dc/dcmitype/StillImage" />
    <dc:title></dc:title>
  </cc:Work>
</rdf:RDF>
</metadata>
  <path
     style="fill:#fbbc01;fill-opacity:1;stroke:none;stroke-width:0.1"
     inkscape:connector-curvature="0"
     id="path6"
     d="m 17.485799,17.161672 -7.199999,7.3 12.699999,12.7 12.8,12.8 h -17.8 H 0 v 10 10 h 17.985799 17.8 l 7.2,-7.2 7.3,-7.2 v -10.1 -10 l -12.8,-12.8 -12.7,-12.7000001 z"
     sodipodi:nodetypes="ccccccccccccccccc" />
  <path
     style="fill:#eb4435;fill-opacity:1;stroke:none;stroke-width:0.09999999"
     inkscape:connector-curvature="0"
     id="path6-5"
     d="m 50.05716,27.699999 -0.01515,27.760627 2.815154,-2.760627 c 2.777219,-2.723427 2.9,-2.7 17.2,-2.7 h 14.499999 l 12.7,-12.7 L 110.05716,24.5 l -7.2,-7.2 -7.299997,-7.3000001 -12.7,12.6999991 -12.799999,12.8 v -17.8 V 0 h -10 -10 z"
     sodipodi:nodetypes="ccsscccccccccccc" />
  <path
     style="fill:#4886f4;fill-opacity:1;stroke:none;stroke-width:0.10002016"
     inkscape:connector-curvature="0"
     id="path6-2"
     d="m 52.636899,52.666772 c -1.087936,1.139283 -3.026919,2.966444 -3.435046,4.11722 -0.379981,1.071417 0.733956,1.44349 0.733956,3.08278 v 4.5 l 22.709161,22.699999 22.809202,22.799989 7.202908,-7.2 7.30294,-7.299989 -12.705122,-12.7 -12.805166,-12.799999 h 17.807188 17.70714 v -10 -10 H 87.651024 55.337988 Z"
     sodipodi:nodetypes="csscccccccccccccc" />
  <path
     style="fill:#38a752;fill-opacity:1;stroke:none;stroke-width:0.10003133"
     inkscape:connector-curvature="0"
     id="path6-7"
     d="m 29.872141,75.638078 -19.799999,19.812414 7.2,7.304568 7.3,7.20452 12.699999,-12.707959 12.8,-12.808026 v 17.811155 17.7111 h 10 10 V 102.15469 84.443595 l -10,-10.006268 c -9.2,-9.105706 -9.778745,-10.287283 -10.078745,-14.28979 l 0.04861,-4.686911 z"
     sodipodi:nodetypes="cccccccccccccccc" />
</svg>
