<?xml version="1.0" encoding="UTF-8" standalone="no"?>
<svg
   xmlns:svg="http://www.w3.org/2000/svg"
   xmlns="http://www.w3.org/2000/svg"
   xmlns:xlink="http://www.w3.org/1999/xlink"
   xmlns:inkscape="http://www.inkscape.org/namespaces/inkscape"
   version="1.0"
   width="394"
   height="68"
   id="svg3376">
  <defs
     id="defs3378">
    <filter
       id="filter3359">
      <feGaussianBlur
         inkscape:collect="always"
         stdDeviation="0.61804195"
         id="feGaussianBlur3361" />
    </filter>
    <linearGradient
       id="linearGradient3325">
      <stop
         id="stop3327"
         style="stop-color:#ffffff"
         offset="0" />
      <stop
         id="stop3333"
         style="stop-color:#bd904f"
         offset="0.5" />
      <stop
         id="stop3329"
         style="stop-color:#946a37"
         offset="1" />
    </linearGradient>
    <linearGradient
       id="linearGradient3337">
      <stop
         id="stop3339"
         style="stop-color:#ffffff;stop-opacity:0.7686"
         offset="0" />
      <stop
         id="stop3341"
         style="stop-color:#ffffff;stop-opacity:0"
         offset="1" />
    </linearGradient>
    <linearGradient
       x1="114.71819"
       y1="-147.01535"
       x2="114.71819"
       y2="-119.34906"
       id="linearGradient4167"
       xlink:href="#linearGradient3337"
       gradientUnits="userSpaceOnUse"
       gradientTransform="matrix(1.25,0,0,1.25,-109.45955,186.24878)" />
    <radialGradient
       cx="96.658066"
       cy="-100.595"
       r="31.151308"
       fx="96.658066"
       fy="-100.595"
       id="radialGradient4172"
       xlink:href="#linearGradient3325"
       gradientUnits="userSpaceOnUse"
       gradientTransform="matrix(2.0007923,0,0,1.9663796,-159.45453,260.40171)" />
  </defs>
  <path
     d="M 74.58645,12.36261 C 74.58645,12.36261 96.52733,12.36261 96.52733,12.36261 C 101.30564,12.36261 104.8845,13.49855 107.26438,15.77036 C 109.64371,18.04218 110.83368,21.27555 110.83368,25.46951 C 110.83368,29.78055 109.53673,33.14956 106.94385,35.57664 C 104.35044,38.0042 100.3928,39.21745 95.07033,39.21745 C 95.07033,39.21745 87.84433,39.21745 87.84433,39.21745 C 87.84433,39.21745 87.84433,55.08621 87.84433,55.08621 C 87.84433,55.08621 74.58645,55.08621 74.58645,55.08621 C 74.58645,55.08621 74.58645,12.36261 74.58645,12.36261 z M 87.84433,30.571 C 87.84433,30.571 91.07824,30.571 91.07824,30.571 C 93.6224,30.571 95.40891,30.12918 96.4383,29.24546 C 97.46774,28.36169 97.9827,27.23005 97.9827,25.85041 C 97.9827,24.51055 97.53555,23.37413 96.64229,22.44164 C 95.74903,21.50921 94.069,21.04296 91.60275,21.04296 C 91.60275,21.04296 87.84433,21.04296 87.84433,21.04296 C 87.84433,21.04296 87.84433,30.571 87.84433,30.571 z"
     id="P"
     style="fill:#ae9572" />
  <path
     d="M 121.9741,12.36139 C 121.9741,12.36139 121.9741,20.43164 121.9741,20.43164 C 121.9741,20.43164 121.9741,12.36139 121.9741,12.36139 z M 121.9741,24.12767 C 121.9741,24.12767 121.9741,55.08621 121.9741,55.08621 C 121.9741,55.08621 121.9741,24.12767 121.9741,24.12767 z"
     id="i"
     style="stroke:#ae9572;stroke-width:11.86800003" />
  <path
     d="M 134.20118,24.12856 C 134.20118,24.12856 145.28761,24.12856 145.28761,24.12856 C 145.28761,24.12856 145.28761,29.19989 145.28761,29.19989 C 146.35638,26.99959 147.45878,25.4854 148.59483,24.65784 C 149.7314,23.83028 151.13491,23.4165 152.80588,23.4165 C 154.55496,23.4165 156.46735,23.96488 158.54684,25.06105 C 158.54684,25.06105 154.87452,33.51408 154.87452,33.51408 C 153.47644,32.9313 152.3686,32.63938 151.55265,32.63938 C 149.99779,32.63938 148.79339,33.28095 147.93891,34.56364 C 146.71499,36.37133 146.10303,39.75254 146.10303,44.70836 C 146.10303,44.70836 146.10303,55.08621 146.10303,55.08621 C 146.10303,55.08621 134.20118,55.08621 134.20118,55.08621 C 134.20118,55.08621 134.20118,24.12856 134.20118,24.12856 z"
     id="r"
     style="fill:#ae9572" />
  <path
     d="M 171.05089,34.1313 C 171.05089,34.1313 159.72574,32.94454 159.72574,32.94454 C 160.1527,30.96309 160.76902,29.40436 161.57465,28.26795 C 162.3803,27.13201 163.54021,26.14609 165.05439,25.31055 C 166.1416,24.70868 167.63625,24.24249 169.53888,23.91188 C 171.44095,23.5818 173.49874,23.4165 175.71223,23.4165 C 179.26467,23.4165 182.11833,23.61625 184.27268,24.01463 C 186.42758,24.41306 188.22278,25.24436 189.65993,26.50741 C 190.66902,27.38266 191.46489,28.62184 192.04757,30.22558 C 192.63023,31.82981 192.92157,33.36098 192.92157,34.819 C 192.92157,34.819 192.92157,48.49544 192.92157,48.49544 C 192.92157,49.95395 193.01379,51.09623 193.1977,51.92223 C 193.38217,52.7487 193.78525,53.80304 194.40753,55.08621 C 194.40753,55.08621 183.27715,55.08621 183.27715,55.08621 C 182.83012,54.29255 182.53878,53.68808 182.40315,53.27164 C 182.26698,52.8552 182.1308,52.20194 181.99518,51.3108 C 180.44139,52.80696 178.89738,53.87508 177.36313,54.51613 C 175.26519,55.3707 172.82819,55.79826 170.05048,55.79826 C 166.36078,55.79826 163.5592,54.94211 161.64573,53.22975 C 159.73279,51.51745 158.77633,49.40563 158.77633,46.89543 C 158.77633,44.54094 159.46588,42.60506 160.84497,41.08714 C 162.22352,39.56921 164.76794,38.44078 168.4777,37.70115 C 172.92475,36.80578 175.80934,36.17845 177.12984,35.81823 C 178.45034,35.45848 179.84897,34.98643 181.32516,34.40256 C 181.32516,32.94611 181.02407,31.92628 180.42295,31.34345 C 179.82075,30.76068 178.76338,30.46929 177.25028,30.46929 C 175.31023,30.46929 173.85464,30.77923 172.8846,31.39911 C 172.12725,31.88385 171.51637,32.79459 171.05089,34.1313 z M 181.32516,40.3703 C 179.69597,40.95629 177.99896,41.4739 176.23414,41.92316 C 173.82914,42.56849 172.30737,43.20319 171.66719,43.82834 C 171.00748,44.47313 170.67818,45.20585 170.67818,46.02599 C 170.67818,46.96374 171.0026,47.73091 171.65254,48.32639 C 172.30194,48.92245 173.25732,49.22019 174.51814,49.22019 C 175.83593,49.22019 177.06257,48.8981 178.19753,48.25331 C 179.33248,47.60853 180.13704,46.8223 180.61229,45.89404 C 181.08699,44.96639 181.32516,43.76004 181.32516,42.27499 C 181.32516,42.27499 181.32516,40.3703 181.32516,40.3703 z"
     id="a"
     style="fill:#ae9572" />
  <path
     d="M 211.9554,12.36261 C 211.9554,12.36261 211.9554,24.12856 211.9554,24.12856 C 211.9554,24.12856 218.49929,24.12856 218.49929,24.12856 C 218.49929,24.12856 218.49929,32.80891 218.49929,32.80891 C 218.49929,32.80891 211.9554,32.80891 211.9554,32.80891 C 211.9554,32.80891 211.9554,43.78065 211.9554,43.78065 C 211.9554,45.0999 212.08127,45.97304 212.33354,46.39951 C 212.72144,47.05965 213.39959,47.38918 214.36908,47.38918 C 215.24145,47.38918 216.46322,47.13701 218.03382,46.63264 C 218.03382,46.63264 218.90619,54.83453 218.90619,54.83453 C 215.97277,55.47666 213.23358,55.79826 210.68915,55.79826 C 207.7362,55.79826 205.56069,55.41948 204.16208,54.66185 C 202.76345,53.90421 201.72887,52.75348 201.05885,51.20908 C 200.38829,49.66523 200.05355,47.16404 200.05355,43.70649 C 200.05355,43.70649 200.05355,32.80891 200.05355,32.80891 C 200.05355,32.80891 195.67974,32.80891 195.67974,32.80891 C 195.67974,32.80891 195.67974,24.12856 195.67974,24.12856 C 195.67974,24.12856 200.05355,24.12856 200.05355,24.12856 C 200.05355,24.12856 200.05355,18.44955 200.05355,18.44955 C 200.05355,18.44955 211.9554,12.36261 211.9554,12.36261 z"
     id="t"
     style="fill:#ae9572" />
  <path
     d="M 222.79553,12.36261 C 222.79553,12.36261 234.76518,12.36261 234.76518,12.36261 C 234.76518,12.36261 234.76518,27.14265 234.76518,27.14265 C 235.95059,25.90076 237.29713,24.96881 238.80425,24.3479 C 240.31084,23.72699 241.978,23.4165 243.80685,23.4165 C 247.57792,23.4165 250.69904,24.77335 253.16752,27.4865 C 255.63762,30.1996 256.87294,34.0942 256.87294,39.16976 C 256.87294,42.55418 256.30818,45.53435 255.18082,48.11133 C 254.05345,50.68831 252.49317,52.61415 250.49994,53.88778 C 248.50672,55.16091 246.29539,55.79826 243.86544,55.79826 C 241.78487,55.79826 239.87953,55.35113 238.14889,54.45683 C 236.84629,53.75746 235.42705,52.4451 233.89118,50.52034 C 233.89118,50.52034 233.89118,55.08621 233.89118,55.08621 C 233.89118,55.08621 222.79553,55.08621 222.79553,55.08621 C 222.79553,55.08621 222.79553,12.36261 222.79553,12.36261 z M 234.67675,39.51681 C 234.67675,42.18699 235.17804,44.12184 236.18008,45.32028 C 237.18158,46.5187 238.45053,47.11791 239.98695,47.11791 C 241.40673,47.11791 242.59757,46.52879 243.56,45.3494 C 244.52352,44.17008 245.00528,42.18699 245.00528,39.39968 C 245.00528,36.94406 244.5322,35.1411 243.58984,33.99144 C 242.64694,32.84179 241.5033,32.26639 240.16219,32.26639 C 238.54764,32.26639 237.22985,32.86614 236.20938,34.06458 C 235.1878,35.26295 234.67675,37.08073 234.67675,39.51681 z"
     id="b"
     style="fill:#ae9572" />
  <path
     d="M 257.76811,24.12856 C 257.76811,24.12856 270.28192,24.12856 270.28192,24.12856 C 270.28192,24.12856 276.67173,44.73804 276.67173,44.73804 C 276.67173,44.73804 282.59987,24.12856 282.59987,24.12856 C 282.59987,24.12856 294.28633,24.12856 294.28633,24.12856 C 294.28633,24.12856 282.00907,57.20704 282.00907,57.20704 C 280.60989,60.97279 279.18307,63.51613 277.72694,64.83608 C 275.66807,66.70019 272.53176,67.63224 268.31853,67.63224 C 266.60904,67.63224 263.96859,67.39841 260.39608,66.93185 C 260.39608,66.93185 259.46348,58.64916 259.46348,58.64916 C 261.17134,59.18958 263.07288,59.46029 265.16973,59.46029 C 266.56727,59.46029 267.69788,59.14134 268.56103,58.50344 C 269.42473,57.8656 270.15713,56.72489 270.75879,55.08198 C 270.75879,55.08198 257.76811,24.12856 257.76811,24.12856 z"
     id="y"
     style="fill:#ae9572" />
  <use
     transform="translate(162.27765,0)"
     id="r2"
     xlink:href="#r" />
  <use
     transform="translate(162.09247,0)"
     id="a2"
     xlink:href="#a" />
  <path
     d="M 338.66878,7.16239 C 334.79429,7.16239 331.66879,10.31914 331.66878,14.19364 C 331.66878,18.06812 334.79429,21.22489 338.66878,21.22489 C 342.54327,21.22489 345.70004,18.06812 345.70003,14.19364 C 345.70003,10.31914 342.54326,7.16239 338.66878,7.16239 z M 338.66878,11.19364 C 340.32477,11.19364 341.66878,12.53763 341.66878,14.19364 C 341.66877,15.84963 340.32478,17.19364 338.66878,17.19364 C 337.01277,17.19364 335.66878,15.84963 335.66878,14.19364 C 335.66877,12.53763 337.01278,11.19364 338.66878,11.19364 z"
     id="°"
     style="fill:#ae9572" />
  <path
     d="M 360.84071,24.12856 C 360.84071,24.12856 371.89187,24.12856 371.89187,24.12856 C 371.89187,24.12856 371.89187,29.15958 371.89187,29.15958 C 373.54222,27.09974 375.21211,25.62739 376.90152,24.74313 C 378.59039,23.85888 380.64872,23.4165 383.07651,23.4165 C 386.35767,23.4165 388.92597,24.39348 390.78031,26.34741 C 392.63464,28.30131 393.56182,31.31963 393.56182,35.40178 C 393.56182,35.40178 393.56182,55.08621 393.56182,55.08621 C 393.56182,55.08621 381.65998,55.08621 381.65998,55.08621 C 381.65998,55.08621 381.65998,38.04658 381.65998,38.04658 C 381.65998,36.10164 381.30028,34.72575 380.58091,33.91831 C 379.86152,33.11093 378.85079,32.70719 377.54874,32.70719 C 376.10998,32.70719 374.94356,33.25183 374.04948,34.3411 C 373.15487,35.43038 372.70837,37.3854 372.70837,40.20554 C 372.70837,40.20554 372.70837,55.08621 372.70837,55.08621 C 372.70837,55.08621 360.84071,55.08621 360.84071,55.08621 C 360.84071,55.08621 360.84071,24.12856 360.84071,24.12856 z"
     id="n"
     style="fill:#ae9572" />
  <path
     d="M 142.29918,-129.17889 C 142.30226,-112.24762 128.35444,-98.520511 111.14787,-98.520511 C 93.9413,-98.520511 79.993482,-112.24762 79.996565,-129.17889 C 79.993482,-146.11016 93.9413,-159.83727 111.14787,-159.83727 C 128.35444,-159.83727 142.30226,-146.11016 142.29918,-129.17889 z"
     transform="matrix(1.0753962,0,0,1.0753962,-85.58982,173.91849)"
     id="shadow"
     style="fill:#a8a8a8;filter:url(#filter3359)" />
  <path
     d="M 67.438177,33.000003 C 67.44149,51.207826 52.442057,65.969907 33.938177,65.969907 C 15.434297,65.969907 0.43486657,51.207826 0.43818201,33.000003 C 0.43486657,14.792179 15.434297,0.030097224 33.938177,0.030097224 C 52.442057,0.030097224 67.44149,14.792179 67.438177,33.000003 z"
     id="sphere"
     style="fill:url(#radialGradient4172)" />
  <path
     d="M 59.91738,43.38565 C 59.44023,42.79699 59.32145,42.89229 59.19742,42.2007 C 59.07177,41.50878 60.1602,40.82384 60.08807,39.60191 C 60.03422,38.66395 59.35735,37.60295 58.42297,37.49969 C 57.24807,37.36964 56.29411,38.06573 55.86723,38.75668 C 55.43905,39.44863 55.61952,41.44759 54.17701,41.65313 C 53.21162,41.79083 41.866,43.38344 34.45106,44.42404 C 27.21137,42.7017 15.28775,39.86454 14.30606,39.62835 C 12.88965,39.2886 13.25615,37.31611 12.89487,36.58689 C 12.53554,35.85799 11.65013,35.07525 10.47,35.09371 C 9.53041,35.10935 8.75562,36.10149 8.613,37.03088 C 8.42861,38.24131 9.44621,39.02344 9.25692,39.70165 C 9.06861,40.37891 8.95993,40.27216 8.42861,40.81428 C 7.89664,41.35545 7.33954,42.45438 7.55592,43.4424 C 7.76055,44.3743 9.82772,45.00408 10.88611,44.40171 C 11.87727,43.83728 12.3443,41.78064 13.71077,42.10923 C 14.09033,42.20038 20.97068,43.84524 27.53676,45.41445 C 23.47388,46.00679 19.16656,46.63406 18.43356,46.73883 C 16.99071,46.94378 16.60495,44.97413 16.00151,44.42945 C 15.39872,43.88476 14.2868,43.48288 13.1961,43.9345 C 12.327,44.29591 11.97388,45.50321 12.18242,46.41899 C 12.45591,47.61413 13.69184,47.96626 13.76528,48.66469 C 13.83936,49.3644 13.6987,49.30599 13.40399,50.00473 C 13.10961,50.70411 12.99604,51.93124 13.56097,52.76966 C 14.09457,53.5601 16.24856,53.38485 17.00996,52.43546 C 17.72437,51.54613 17.40192,49.46166 18.79287,49.26355 C 19.40317,49.17674 30.34347,47.60074 34.32051,47.02798 C 38.69473,48.08539 48.25288,50.39603 48.81782,50.53213 C 50.18495,50.85914 49.66701,52.90379 50.29461,53.85743 C 50.963,54.87371 53.09185,55.25229 53.69791,54.51374 C 54.33888,53.73243 54.34116,52.50009 54.1137,51.77654 C 53.88523,51.053 53.74066,51.09771 53.87936,50.4081 C 54.01905,49.71915 55.28206,49.48385 55.66587,48.32168 C 55.96025,47.4281 55.72102,46.19348 54.88978,45.75289 C 53.84706,45.20041 52.70283,45.49539 52.0524,45.98101 C 51.39967,46.46794 50.83147,48.39119 49.41343,48.05145 C 48.73851,47.88925 44.98111,46.97511 41.22828,46.0613 C 47.67131,45.14974 54.16461,44.23123 54.53567,44.17799 C 55.92761,43.98005 56.19848,46.07109 57.13417,46.72708 C 58.12957,47.42581 60.24798,46.99273 60.53877,46.08414 C 60.84686,45.12105 60.39582,43.97496 59.91738,43.38565 z"
     id="bones"
     style="fill:#ffffff" />
  <path
     d="M 53.08761,27.74864 C 53.08761,27.4242 53.08761,15.80779 53.08761,15.80779 C 53.08761,14.1747 51.759,12.84599 50.12587,12.84599 C 50.12587,12.84599 18.03931,12.84599 18.03931,12.84599 C 16.40652,12.84599 15.07855,14.1747 15.07855,15.80779 C 15.07855,15.80779 15.07855,27.42228 15.07855,27.74738 C 14.80017,28.2484 14.62295,28.80201 14.62295,29.39641 C 14.62295,29.39641 14.62295,34.90279 14.62295,34.90279 C 14.62295,36.55023 15.7316,37.9041 17.21296,38.08739 C 17.4969,38.17248 17.76973,38.22061 18.03931,38.22061 C 18.03931,38.22061 50.12587,38.22061 50.12587,38.22061 C 50.3948,38.22061 50.66666,38.17248 50.95092,38.08739 C 52.43227,37.9041 53.54223,36.55055 53.54223,34.90279 C 53.54223,34.90279 53.54223,29.39641 53.54223,29.39641 C 53.54223,28.80263 53.36502,28.24935 53.08761,27.74864 z M 30.19856,21.68358 C 30.19856,21.68358 37.96662,21.68358 37.96662,21.68358 C 37.96662,21.68358 37.96662,24.92774 37.96662,24.92774 C 37.96662,24.92774 30.19856,24.92774 30.19856,24.92774 C 30.19856,24.92774 30.19856,21.68358 30.19856,21.68358 z M 24.90465,36.53811 C 24.29175,36.53811 23.7947,36.04123 23.7947,35.42803 C 23.7947,34.81515 24.29175,34.31798 24.90465,34.31798 C 25.51853,34.31798 26.01461,34.81515 26.01461,35.42803 C 26.01461,36.04123 25.51853,36.53811 24.90465,36.53811 z M 25.16215,27.83024 C 23.46343,27.83024 22.08815,26.45406 22.08815,24.75659 C 22.08815,23.05945 23.46343,21.68358 25.16215,21.68358 C 26.85891,21.68358 28.23485,23.05945 28.23485,24.75659 C 28.23485,26.45406 26.85891,27.83024 25.16215,27.83024 z M 29.25897,36.28219 C 28.45677,36.28219 27.80763,35.63168 27.80763,34.83046 C 27.80763,34.02856 28.45677,33.37904 29.25897,33.37904 C 30.06083,33.37904 30.71062,34.02856 30.71062,34.83046 C 30.71062,35.63168 30.06083,36.28219 29.25897,36.28219 z M 38.90622,36.28219 C 38.10435,36.28219 37.45423,35.63168 37.45423,34.83046 C 37.45423,34.02856 38.10435,33.37904 38.90622,33.37904 C 39.70711,33.37904 40.35722,34.02856 40.35722,34.83046 C 40.35722,35.63168 39.70711,36.28219 38.90622,36.28219 z M 43.25956,36.53811 C 42.64665,36.53811 42.15058,36.04123 42.15058,35.42803 C 42.15058,34.81515 42.64665,34.31798 43.25956,34.31798 C 43.87345,34.31798 44.36983,34.81515 44.36983,35.42803 C 44.36983,36.04123 43.87345,36.53811 43.25956,36.53811 z M 43.00303,27.83024 C 41.30726,27.83024 39.93035,26.45406 39.93035,24.75659 C 39.93035,23.05945 41.30726,21.68358 43.00303,21.68358 C 44.70175,21.68358 46.07801,23.05945 46.07801,24.75659 C 46.07801,26.45406 44.70175,27.83024 43.00303,27.83024 z"
     id="cassette"
     style="fill:#ffffff" />
  <path
     d="M 58.168225,19.771017 C 58.168225,29.320818 47.320075,37.062455 33.938188,37.062455 C 20.556313,37.062455 9.7081588,29.320818 9.7081588,19.771017 C 9.7081588,10.221217 20.556313,2.47958 33.938188,2.47958 C 47.320075,2.47958 58.168225,10.221217 58.168225,19.771017 z"
     id="reflection"
     style="fill:url(#linearGradient4167)" />
</svg>