<?xml version="1.0" encoding="UTF-8" standalone="no"?>
<svg width="1120" height="965" viewBox="0 0 1120 965" version="1.1" id="svg9" sodipodi:docname="Google Gallery.svg" inkscape:version="1.1.1 (3bf5ae0d25, 2021-09-20)"
   xmlns:inkscape="http://www.inkscape.org/namespaces/inkscape" xmlns:sodipodi="http://sodipodi.sourceforge.net/DTD/sodipodi-0.dtd"
   xmlns="http://www.w3.org/2000/svg" xmlns:svg="http://www.w3.org/2000/svg">
	<defs id="defs11" />
	<sodipodi:namedview pagecolor="#000000" showborder="false" />
<g id="Google Gallery">
	<path id="G" style="fill:#34a853"
	   d="m 205,380 c 251.858,0 466.733,157.8669 551.387,380 H 915 V 380 Z m 0,205 V 760 H 527.617 C 458.916,654.6782 340.127,585 205,585 Z m 0,-205 H 915 V 760 H 205 Z" />
	<path id="Y" style="fill:#fbbc04"
	   d="m 915,0 v 760 h 205 V 55 C 1120,25 1095,0 1065,0 Z M 740,264 A 116,116 0 0 0 624,380 116,116 0 0 0 740,496 116,116 0 0 0 856,380 116,116 0 0 0 740,264 Z" />
	<path id="R" style="fill:#ea4335"
	   d="M 0,380 C 0,55 0,380 0,55 0,25 25,0 55,0 H 915 V 205 H 205 v 175 z" />
	<path id="B" style="fill:#4285f4"
	   d="m 0,380 c 0,530 0,0 0,530 0,30 25,55 55,55 h 1010 c 30,0 55,-25 55,-55 V 760 H 205 V 380 Z" />
</g></svg>
