<?xml version="1.0" encoding="UTF-8" standalone="no"?>
<svg
   viewBox="0 0 999.99998 187.17389"
   version="1.1"
   id="svg32"
   sodipodi:docname="Google Store_2015.svg"
   width="1000"
   height="187.17387"
   inkscape:version="1.1.1 (3bf5ae0d25, 2021-09-20)"
   xmlns:inkscape="http://www.inkscape.org/namespaces/inkscape"
   xmlns:sodipodi="http://sodipodi.sourceforge.net/DTD/sodipodi-0.dtd"
   xmlns="http://www.w3.org/2000/svg"
   xmlns:svg="http://www.w3.org/2000/svg"
   xmlns:rdf="http://www.w3.org/1999/02/22-rdf-syntax-ns#"
   xmlns:cc="http://creativecommons.org/ns#"
   xmlns:dc="http://purl.org/dc/elements/1.1/">
  <metadata
     id="metadata36">
    <rdf:RDF>
      <cc:Work
         rdf:about="">
        <dc:format>image/svg+xml</dc:format>
        <dc:type
           rdf:resource="http://purl.org/dc/dcmitype/StillImage" />
      </cc:Work>
    </rdf:RDF>
  </metadata>
  <sodipodi:namedview
     pagecolor="#ffffff"
     bordercolor="#666666"
     borderopacity="1"
     objecttolerance="10"
     gridtolerance="10"
     guidetolerance="10"
     inkscape:pageopacity="0"
     inkscape:pageshadow="2"
     inkscape:window-width="1366"
     inkscape:window-height="705"
     id="namedview34"
     showgrid="false"
     inkscape:zoom="0.5"
     inkscape:cx="531"
     inkscape:cy="107"
     inkscape:window-x="-8"
     inkscape:window-y="-8"
     inkscape:window-maximized="1"
     inkscape:current-layer="svg32"
     inkscape:document-rotation="0"
     showguides="false"
     inkscape:pagecheckerboard="0" />
  <defs
     id="defs4">
    <style
       id="style2">.cls-1{fill:#ff4370;}</style>
    <style
       id="style2-3">.cls-1{fill:#ff4370;}</style>
    <style
       id="style2-2">.cls-1{fill:#ff4370;}</style>
  </defs>
  <g
     id="g38311">
    <path
       fill="#ea4335"
       d="m 243.33028,98.50036 c 0,26.92891 -21.06656,46.77239 -46.92,46.77239 -25.85346,0 -46.92,-19.84348 -46.92,-46.77239 0,-27.11872 21.06654,-46.772386 46.92,-46.772386 25.85344,0 46.92,19.653666 46.92,46.772386 z m -20.53937,0 c 0,-16.82794 -12.20974,-28.341782 -26.38063,-28.341782 -14.17089,0 -26.38063,11.513842 -26.38063,28.341782 0,16.65922 12.20974,28.34178 26.38063,28.34178 14.17089,0 26.38063,-11.70362 26.38063,-28.34178 z"
       id="path1837"
       style="fill:#ea4335;fill-opacity:1;stroke:none;stroke-width:2.10877"
       sodipodi:nodetypes="cccccccccc" />
    <path
       fill="#fbbc05"
       d="m 344.55093,98.50036 c 0,26.92891 -21.06654,46.77239 -46.91998,46.77239 -25.85344,0 -46.92,-19.84348 -46.92,-46.77239 0,-27.097629 21.06656,-46.772386 46.92,-46.772386 25.85344,0 46.91998,19.653666 46.91998,46.772386 z m -20.53933,0 c 0,-16.82794 -12.20975,-28.341782 -26.38065,-28.341782 -14.17091,0 -26.38065,11.513842 -26.38065,28.341782 0,16.65922 12.20974,28.34178 26.38065,28.34178 14.1709,0 26.38065,-11.70362 26.38065,-28.34178 z"
       id="path1839"
       style="fill:#fbbc05;fill-opacity:1;stroke:none;stroke-width:2.10877"
       sodipodi:nodetypes="cccccccccc" />
    <path
       fill="#4285f4"
       d="m 441.55409,138.52472 c 0,34.54152 -20.37065,48.64915 -44.45274,48.64915 -22.66921,0 -36.31291,-15.162 -41.45828,-27.56152 l 17.8823,-7.44396 c 3.18423,7.61265 10.98664,16.59597 23.55489,16.59597 15.41506,0 24.96777,-9.51052 24.96777,-27.41393 v -6.72694 h -0.71699 c -4.59712,5.67257 -13.45393,10.62817 -24.63035,10.62817 -23.38619,0 -44.81125,-20.37066 -44.81125,-46.582608 0,-26.401734 21.42506,-46.941078 44.81125,-46.941078 11.15537,0 20.01217,4.95559 24.63035,10.459472 h 0.71699 v -7.612655 h 19.50606 z M 423.50308,98.669052 c 0,-16.469431 -10.98667,-28.510474 -24.96776,-28.510474 -14.17091,0 -26.04326,12.041043 -26.04326,28.510474 0,16.300738 11.87235,28.173088 26.04326,28.173088 13.98109,0 24.96776,-11.87235 24.96776,-28.173088 z"
       id="path1841"
       style="fill:#4285f4;fill-opacity:1;stroke:none;stroke-width:2.10877"
       sodipodi:nodetypes="ccccccccccccccccccccc" />
    <path
       fill="#34a853"
       d="M 473.71276,5.3351557 V 142.40481 H 453.6795 V 5.3351557 Z"
       id="path1843"
       style="fill:#34a853;fill-opacity:1;stroke:none;stroke-width:2.10877"
       sodipodi:nodetypes="ccccc" />
    <path
       fill="#ea4335"
       d="m 551.7792,113.89433 15.94223,10.62817 c -5.14538,7.61265 -17.5449,20.72916 -38.96995,20.72916 -26.57042,0 -46.41388,-20.53938 -46.41388,-46.772391 0,-27.814614 20.01215,-46.772385 44.11532,-46.772385 24.27187,0 36.14422,19.316281 40.02435,29.754662 l 2.12987,5.314065 -62.52487,25.895629 c 4.7869,9.38401 12.23083,14.1709 22.66921,14.1709 10.45947,0 17.71362,-5.14537 23.02772,-12.94781 z M 502.70825,97.06639 544.50396,79.711281 c -2.29856,-5.841301 -9.21532,-9.911213 -17.35514,-9.911213 -10.43839,0 -24.96776,9.21532 -24.44057,27.266322 z"
       id="path1845"
       style="fill:#ea4335;fill-opacity:1;stroke:none;stroke-width:2.10877"
       sodipodi:nodetypes="cccccccccccccc" />
    <path
       fill="#4285f4"
       d="M 73.659124,86.332772 V 66.489323 h 66.868906 c 0.65372,3.458381 0.99112,7.549384 0.99112,11.977771 0,14.887859 -4.20284,33.165776 -17.18642,46.413906 -12.89228,13.15495 -29.058775,20.37066 -50.652518,20.37066 C 33.655872,145.25166 0,112.65014 0,72.625827 0,32.601477 33.655872,0 73.680212,0 95.822234,0 111.59579,8.6880825 123.44704,20.012141 l -14.0022,14.002216 C 100.94653,26.043225 89.432682,19.843449 73.659124,19.843449 c -29.227466,0 -52.086471,23.554885 -52.086471,52.782378 0,29.227463 22.859005,52.782343 52.086471,52.782343 18.957788,0 29.754666,-7.61261 36.671406,-14.52937 5.60931,-5.60932 9.29965,-13.622627 10.75469,-24.567119 z"
       id="path1847"
       style="fill:#4285f4;fill-opacity:1;stroke:none;stroke-width:2.10877"
       sodipodi:nodetypes="cccccccccccccccc" />
    <path
       d="m 688.97056,109.19273 q 0,16.37431 -12.01945,26.30342 -12.19365,9.75492 -29.61314,9.75492 -15.50334,0 -27.34859,-9.05813 -11.84526,-9.05814 -16.37433,-24.73569 l 15.32915,-6.27101 q 1.56776,5.57424 4.35488,10.10331 2.78712,4.52906 6.4452,7.83877 3.8323,3.13551 8.36136,5.05165 4.52907,1.74195 9.58072,1.74195 10.97428,0 17.94208,-5.57424 6.96779,-5.74843 6.96779,-15.15495 0,-7.83878 -5.74843,-13.413023 -5.40004,-5.400036 -20.2066,-10.451694 -14.98077,-5.400038 -18.63886,-7.316182 -19.85822,-10.103304 -19.85822,-29.787329 0,-13.761397 10.97428,-23.516311 11.14847,-9.754914 27.3486,-9.754914 14.28398,0 24.73567,7.316185 10.4517,7.141991 13.93559,17.942075 l -14.98075,6.271016 q -2.09034,-6.967796 -8.36136,-11.496863 -6.09682,-4.703262 -14.98076,-4.703262 -9.40652,0 -15.85173,5.225847 -6.44522,4.877457 -6.44522,12.716227 0,6.445212 5.05166,11.148475 5.57423,4.703262 24.21308,11.148473 18.98725,6.445212 27.00021,15.851736 8.18717,9.232332 8.18717,22.819544 z"
       id="path13461"
       style="font-size:171.826px;line-height:1.25;font-family:'Product Sans';-inkscape-font-specification:'Product Sans';letter-spacing:0.9px;fill:#5e6166;fill-opacity:1;stroke-width:4.35487" />
    <path
       d="m 738.86701,143.85751 q -10.4517,0 -17.41949,-6.44521 -6.7936,-6.44521 -6.9678,-17.94208 V 71.740815 H 699.49897 V 57.108443 h 14.98075 V 30.979207 h 16.02594 v 26.129236 h 20.90339 v 14.632372 h -20.90339 v 42.503555 q 0,8.53556 3.3097,11.67106 3.3097,2.96132 7.49038,2.96132 1.91614,0 3.65809,-0.3484 1.91615,-0.52257 3.48391,-1.21936 l 5.05165,14.28398 q -6.27102,2.26454 -14.63238,2.26454 z"
       id="path13463"
       style="font-size:171.826px;line-height:1.25;font-family:'Product Sans';-inkscape-font-specification:'Product Sans';letter-spacing:0.9px;fill:#5e6166;fill-opacity:1;stroke-width:4.35487" />
    <path
       d="m 760.73472,99.786191 q 0,-19.684021 12.36784,-32.574444 12.54203,-12.890423 31.52928,-12.890423 18.98724,0 31.35509,12.890423 12.54203,12.890423 12.54203,32.574444 0,19.858229 -12.54203,32.574459 -12.36785,12.89042 -31.35509,12.89042 -18.98725,0 -31.52928,-12.89042 -12.36784,-12.89043 -12.36784,-32.574459 z m 16.02594,0 q 0,13.761409 8.01296,22.296949 8.01297,8.53556 19.85822,8.53556 11.84526,0 19.85822,-8.53556 8.01297,-8.53554 8.01297,-22.296949 0,-13.587204 -8.01297,-22.12275 -8.18716,-8.709745 -19.85822,-8.709745 -11.67105,0 -19.85822,8.709745 -8.01296,8.535546 -8.01296,22.12275 z"
       id="path13465"
       style="font-size:171.826px;line-height:1.25;font-family:'Product Sans';-inkscape-font-specification:'Product Sans';letter-spacing:0.9px;fill:#5e6166;fill-opacity:1;stroke-width:4.35487" />
    <path
       d="M 877.39288,142.46395 H 861.36695 V 57.108443 h 15.32915 v 13.935592 h 0.69678 q 2.43872,-6.793601 9.92911,-11.496863 7.66458,-4.877458 14.98076,-4.877458 6.9678,0 11.84526,2.090338 l -4.87746,15.503347 q -2.96131,-1.219364 -9.40653,-1.219364 -9.05813,0 -15.85173,7.316186 -6.61941,7.31619 -6.61941,17.071098 z"
       id="path13467"
       style="font-size:171.826px;line-height:1.25;font-family:'Product Sans';-inkscape-font-specification:'Product Sans';letter-spacing:0.9px;fill:#5e6166;fill-opacity:1;stroke-width:4.35487" />
    <path
       d="m 959.58679,145.25107 q -18.81306,0 -31.0067,-12.89042 -12.19364,-12.89043 -12.19364,-32.574459 0,-19.509826 11.84525,-32.400249 11.84526,-13.064618 30.30992,-13.064618 18.98724,0 30.13571,12.367839 Q 1000,78.882806 1000,101.00556 l -0.17419,1.74195 h -67.06503 q 0.34838,12.54204 8.36135,20.20661 8.01296,7.66458 19.16144,7.66458 15.32914,0 24.03889,-15.32915 l 14.28399,6.96779 q -5.74843,10.80009 -16.02594,16.89691 -10.1033,6.09682 -22.99372,6.09682 z M 933.98014,89.508696 h 48.94877 q -0.69679,-8.883941 -7.3162,-14.632373 -6.4452,-5.922627 -17.41949,-5.922627 -9.05813,0 -15.67754,5.574237 -6.44521,5.574237 -8.53554,14.980763 z"
       id="path13469"
       style="font-size:171.826px;line-height:1.25;font-family:'Product Sans';-inkscape-font-specification:'Product Sans';letter-spacing:0.9px;fill:#5e6166;fill-opacity:1;stroke-width:4.35487" />
  </g>
</svg>
