<?xml version="1.0" encoding="UTF-8" standalone="no"?>
<svg
   xmlns:dc="http://purl.org/dc/elements/1.1/"
   xmlns:cc="http://creativecommons.org/ns#"
   xmlns:rdf="http://www.w3.org/1999/02/22-rdf-syntax-ns#"
   xmlns:svg="http://www.w3.org/2000/svg"
   xmlns="http://www.w3.org/2000/svg"
   xmlns:sodipodi="http://sodipodi.sourceforge.net/DTD/sodipodi-0.dtd"
   xmlns:inkscape="http://www.inkscape.org/namespaces/inkscape"
   width="47.074932mm"
   height="18.796mm"
   viewBox="0 0 47.074932 18.796"
   version="1.1"
   id="svg8"
   inkscape:version="1.0 (4035a4f, 2020-05-01)"
   sodipodi:docname="Pixel wordmark.svg">
  <defs
     id="defs2" />
  <sodipodi:namedview
     id="base"
     pagecolor="#ffffff"
     bordercolor="#666666"
     borderopacity="1.0"
     inkscape:pageopacity="0.0"
     inkscape:pageshadow="2"
     inkscape:zoom="1.9437129"
     inkscape:cx="80.829054"
     inkscape:cy="121.01551"
     inkscape:document-units="mm"
     inkscape:current-layer="layer1"
     inkscape:document-rotation="0"
     showgrid="false"
     fit-margin-top="0"
     fit-margin-left="0"
     fit-margin-right="0"
     fit-margin-bottom="0"
     inkscape:window-width="1398"
     inkscape:window-height="790"
     inkscape:window-x="0"
     inkscape:window-y="25"
     inkscape:window-maximized="0" />
  <metadata
     id="metadata5">
    <rdf:RDF>
      <cc:Work
         rdf:about="">
        <dc:format>image/svg+xml</dc:format>
        <dc:type
           rdf:resource="http://purl.org/dc/dcmitype/StillImage" />
        <dc:title />
      </cc:Work>
    </rdf:RDF>
  </metadata>
  <g
     inkscape:label="Livello 1"
     inkscape:groupmode="layer"
     id="layer1"
     transform="translate(8.0964606,-94.555667)">
    <g
       style="font-style:normal;font-variant:normal;font-weight:normal;font-stretch:normal;font-size:25.4px;line-height:1.25;font-family:'Product Sans';-inkscape-font-specification:'Product Sans';fill:#888888;fill-opacity:1;stroke-width:0.581963"
       id="text849"
       aria-label="Pixel">
      <path
         id="path7259"
         style="font-style:normal;font-variant:normal;font-weight:normal;font-stretch:normal;font-size:25.4px;font-family:'Product Sans';-inkscape-font-specification:'Product Sans';fill:#888888;fill-opacity:1;stroke-width:0.581963"
         d="m -5.7596606,105.57927 v 7.366 h -2.3368 V 94.758867 h 6.1975999 q 2.3622,0 4.0132,1.5748 1.6764,1.5748 1.6764,3.835403 0,2.3114 -1.6764,3.8608 -1.6256,1.5494 -4.0132,1.5494 z m 0,-8.585203 v 6.350003 h 3.9115999 q 1.39700001,0 2.3114,-0.9398 0.9398,-0.9398 0.9398,-2.2352 0,-1.270003 -0.9398,-2.209803 -0.91439999,-0.9652 -2.3114,-0.9652 z" />
      <path
         id="path7261"
         style="font-style:normal;font-variant:normal;font-weight:normal;font-stretch:normal;font-size:25.4px;font-family:'Product Sans';-inkscape-font-specification:'Product Sans';fill:#888888;fill-opacity:1;stroke-width:0.581963"
         d="m 8.856849,96.206667 q 0,0.6858 -0.4826,1.1684 -0.4826,0.4826 -1.1684,0.4826 -0.6858,0 -1.1684,-0.4826 -0.4826,-0.4826 -0.4826,-1.1684 0,-0.6858 0.4826,-1.1684 0.4826,-0.4826 1.1684,-0.4826 0.6858,0 1.1684,0.4826 0.4826,0.4826 0.4826,1.1684 z m -0.4826,4.292603 v 12.446 h -2.3368 v -12.446 z" />
      <path
         id="path7263"
         style="font-style:normal;font-variant:normal;font-weight:normal;font-stretch:normal;font-size:25.4px;font-family:'Product Sans';-inkscape-font-specification:'Product Sans';fill:#888888;fill-opacity:1;stroke-width:0.581963"
         d="m 17.358308,106.62067 4.445,6.3246 h -2.7432 l -3.0734,-4.5974 -3.0226,4.5974 h -2.7432 l 4.3942,-6.3246 -4.2926,-6.1214 h 2.6416 l 3.0734,4.3942 2.921,-4.3942 h 2.7432 z" />
      <path
         id="path7265"
         style="font-style:normal;font-variant:normal;font-weight:normal;font-stretch:normal;font-size:25.4px;font-family:'Product Sans';-inkscape-font-specification:'Product Sans';fill:#888888;fill-opacity:1;stroke-width:0.581963"
         d="m 28.636703,113.35167 q -2.7432,0 -4.5212,-1.8796 -1.778,-1.8796 -1.778,-4.7498 0,-2.8448 1.7272,-4.7244 1.7272,-1.905 4.4196,-1.905 2.7686,0 4.3942,1.8034 1.651,1.778 1.651,5.0038 l -0.0254,0.254 h -9.779 q 0.0508,1.8288 1.2192,2.9464 1.1684,1.1176 2.794,1.1176 2.2352,0 3.5052,-2.2352 l 2.0828,1.016 q -0.8382,1.5748 -2.3368,2.4638 -1.4732,0.889 -3.3528,0.889 z m -3.7338,-8.128 h 7.1374 q -0.1016,-1.2954 -1.0668,-2.1336 -0.9398,-0.8636 -2.54,-0.8636 -1.3208,0 -2.286,0.8128 -0.9398,0.8128 -1.2446,2.1844 z" />
      <path
         id="path7267"
         style="font-style:normal;font-variant:normal;font-weight:normal;font-stretch:normal;font-size:25.4px;font-family:'Product Sans';-inkscape-font-specification:'Product Sans';fill:#888888;fill-opacity:1;stroke-width:0.581963"
         d="m 38.978471,94.758867 v 18.186403 h -2.3368 V 94.758867 Z" />
    </g>
  </g>
</svg>
