<?xml version="1.0" encoding="UTF-8" standalone="no"?>
<svg xmlns="http://www.w3.org/2000/svg" xmlns:xlink="http://www.w3.org/1999/xlink" width="60" height="60" viewBox="0 0 256 256">
  <defs>
    <linearGradient id="a" x1="50.963867" x2="142.48471" y1="126.85254" y2="126.85254" gradientTransform="matrix(.95 -.0774 .0605 .7427 -13.82317 55.97366)" gradientUnits="userSpaceOnUse">
      <stop offset="0" stop-color="#7d7d99"/>
      <stop offset=".1860196" stop-color="#7a7a95"/>
      <stop offset=".37826309" stop-color="#717188"/>
      <stop offset=".57334977" stop-color="#616174"/>
      <stop offset=".77042061" stop-color="#4c4c57"/>
      <stop offset=".96729457" stop-color="#303032"/>
      <stop offset="1" stop-color="#2b2b2b"/>
    </linearGradient>
    <linearGradient id="b" x1="50.47168" x2="141.89941" y1="126.80273" y2="126.80273" gradientTransform="matrix(.95 -.0774 .0605 .7427 -13.82317 55.97366)" gradientUnits="userSpaceOnUse">
      <stop offset="0" stop-color="#f0f0f0"/>
      <stop offset=".1038246" stop-color="#e4e4e7"/>
      <stop offset=".29119581" stop-color="#c4c4d0"/>
      <stop offset=".5" stop-color="#9a9ab1"/>
    </linearGradient>
    <linearGradient id="c" x1="74.606934" x2="149.69545" y1="162.51465" y2="87.426132" gradientTransform="matrix(.95 -.0774 .0605 .7427 -13.82317 55.97366)" gradientUnits="userSpaceOnUse">
      <stop offset="0" stop-color="#fff"/>
      <stop offset=".52150458" stop-color="#bdbdcb"/>
      <stop offset="1" stop-color="#7d7d99"/>
    </linearGradient>
    <linearGradient id="d" x1="68.17041" x2="139.83771" y1="151.35156" y2="79.684258" gradientTransform="matrix(.95 -.0774 .0605 .7427 -13.82317 55.97366)" gradientUnits="userSpaceOnUse">
      <stop offset="0" stop-color="#f0f0f0"/>
      <stop offset=".77637941" stop-color="#aeaec0"/>
      <stop offset="1" stop-color="#9a9ab1"/>
    </linearGradient>
    <linearGradient id="g" x1="186.28223" x2="50.734852" y1="139.66113" y2="4.1137614" gradientUnits="userSpaceOnUse">
      <stop offset="0" stop-color="#7d7d99"/>
      <stop offset=".1860196" stop-color="#7a7a95"/>
      <stop offset=".37826309" stop-color="#717188"/>
      <stop offset=".57334977" stop-color="#616174"/>
      <stop offset=".77042061" stop-color="#4c4c57"/>
      <stop offset=".96729457" stop-color="#303032"/>
      <stop offset="1" stop-color="#2b2b2b"/>
    </linearGradient>
    <linearGradient id="h" x1="186.28809" x2="50.743862" y1="139.66699" y2="4.1227713" gradientUnits="userSpaceOnUse">
      <stop offset="0" stop-color="#fff"/>
      <stop offset="1" stop-color="#9a9ab1"/>
    </linearGradient>
    <linearGradient id="i" x1="45.217773" x2="204.31836" y1="75.348633" y2="75.348633" gradientUnits="userSpaceOnUse">
      <stop offset="0" stop-color="#fff"/>
      <stop offset="1" stop-color="#cecedb"/>
    </linearGradient>
    <linearGradient id="j" x1="117.05518" x2="135.62952" y1="19.987305" y2="121.52731" gradientUnits="userSpaceOnUse">
      <stop offset="0" stop-color="#9a9ab1"/>
      <stop offset="1" stop-color="#fff"/>
    </linearGradient>
    <linearGradient id="k" x1="61.221191" x2="190.76367" y1="75.628906" y2="75.628906" gradientUnits="userSpaceOnUse">
      <stop offset=".005618"/>
      <stop offset="1" stop-color="#494949"/>
    </linearGradient>
    <linearGradient id="o" x1="132.28711" x2="126.78511" y1="222.0752" y2="162.55884" gradientUnits="userSpaceOnUse">
      <stop offset="0" stop-color="#7d7d99"/>
      <stop offset=".2817049" stop-color="#7a7a95"/>
      <stop offset=".57274002" stop-color="#717188"/>
      <stop offset=".86705232" stop-color="#616174"/>
      <stop offset="1" stop-color="#585868"/>
    </linearGradient>
    <linearGradient id="p" x1="123.96436" x2="118.27831" y1="223.97168" y2="162.46451" gradientTransform="rotate(-6.783 135.71785519 114.40850242)" gradientUnits="userSpaceOnUse">
      <stop offset="0" stop-color="#fff"/>
      <stop offset=".59550601" stop-color="#bdbdcf"/>
      <stop offset=".79192358" stop-color="#c1c1d2"/>
      <stop offset="1" stop-color="#cecedb"/>
    </linearGradient>
    <linearGradient id="q" x1="126.04541" x2="126.04541" y1="215.5293" y2="156.96384" gradientTransform="rotate(-6.783 135.71785519 114.40850242)" gradientUnits="userSpaceOnUse">
      <stop offset="0" stop-color="#9a9ab1"/>
      <stop offset="1" stop-color="#585868"/>
    </linearGradient>
    <linearGradient id="r" x1="61.144531" x2="190.94727" y1="185.00586" y2="185.00586" gradientTransform="rotate(-6.783 135.71785519 114.40850242)" gradientUnits="userSpaceOnUse">
      <stop offset="0" stop-color="#fff"/>
      <stop offset="1" stop-color="#b3caff"/>
    </linearGradient>
    <linearGradient id="s" x1="152.54297" x2="152.54297" y1="216.71582" y2="158.22943" gradientTransform="rotate(-6.783 135.71785519 114.40850242)" gradientUnits="userSpaceOnUse">
      <stop offset="0" stop-color="#9a9ab1"/>
      <stop offset="1" stop-color="#585868"/>
    </linearGradient>
    <linearGradient id="t" x1="133.99316" x2="171.08887" y1="201.95703" y2="201.95703" gradientTransform="rotate(-6.783 135.71785519 114.40850242)" gradientUnits="userSpaceOnUse">
      <stop offset="0" stop-color="#fff"/>
      <stop offset="1" stop-color="#b3b8ff"/>
    </linearGradient>
    <linearGradient id="u" x1="106.78662" x2="61.144531" y1="186.3291" y2="186.3291" gradientTransform="rotate(-6.783 135.71785519 114.40850242)" gradientUnits="userSpaceOnUse">
      <stop offset="0" stop-color="#fff"/>
      <stop offset="1" stop-color="#b3b8ff"/>
    </linearGradient>
    <linearGradient id="w" x1="74.471191" x2="45.358711" y1="245.2832" y2="216.17113" gradientUnits="userSpaceOnUse">
      <stop offset="0" stop-color="#7d7d99"/>
      <stop offset=".2190295" stop-color="#7a7a95"/>
      <stop offset=".4453755" stop-color="#727288"/>
      <stop offset=".67506588" stop-color="#656574"/>
      <stop offset=".9056651" stop-color="#525257"/>
      <stop offset="1" stop-color="#494949"/>
    </linearGradient>
    <linearGradient id="y" x1="35.677734" x2="85.148438" y1="228.07227" y2="228.07227" gradientTransform="rotate(12.427 146.12434783 247.74832193)" gradientUnits="userSpaceOnUse">
      <stop offset="0" stop-color="#fff"/>
      <stop offset="1" stop-color="#7d7d99"/>
    </linearGradient>
    <linearGradient id="z" x1="37.860352" x2="85.147461" y1="227.52344" y2="227.52344" gradientTransform="rotate(12.427 146.12434783 247.74832193)" gradientUnits="userSpaceOnUse">
      <stop offset="0" stop-color="#cecedb"/>
      <stop offset=".26190871" stop-color="#c9c9d7"/>
      <stop offset=".56319809" stop-color="#bbc"/>
      <stop offset=".88289398" stop-color="#a4a4b9"/>
      <stop offset="1" stop-color="#9a9ab1"/>
    </linearGradient>
    <linearGradient id="A" x1="60.818848" x2="60.818848" y1="224.21387" y2="228.43945" gradientTransform="rotate(12.427 146.12434783 247.74832193)" gradientUnits="userSpaceOnUse">
      <stop offset="0" stop-color="#828282"/>
      <stop offset="1"/>
    </linearGradient>
    <linearGradient id="C" x1="10.490234" x2="42.133301" y1="261.48535" y2="261.48535" gradientTransform="rotate(12.427 146.12434783 247.74832193)" gradientUnits="userSpaceOnUse">
      <stop offset="0" stop-color="#555"/>
      <stop offset="1"/>
    </linearGradient>
    <linearGradient id="D" x1="91.26416" x2="31.875" y1="245.79785" y2="245.79785" gradientTransform="matrix(1.0266 .2262 -.2308 1.0474 53.17882 -42.95969)" gradientUnits="userSpaceOnUse">
      <stop offset="0" stop-color="#cecedb"/>
      <stop offset="1" stop-color="#7d7d99"/>
    </linearGradient>
    <linearGradient id="E" x1="88.73291" x2="29.347168" y1="248.64844" y2="248.64844" gradientTransform="rotate(12.427 146.12434783 247.74832193)" gradientUnits="userSpaceOnUse">
      <stop offset="0" stop-color="#cecedb"/>
      <stop offset="1" stop-color="#9a9ab1"/>
    </linearGradient>
    <linearGradient id="v" x1="128.33496" x2="128.33496" y1="127.11475" y2="122.10547" gradientTransform="matrix(.9821 -.1208 .2077 .9927 -23.22731 18.08055)" gradientUnits="userSpaceOnUse">
      <stop offset="0" stop-color="#cecedb"/>
      <stop offset=".46629199" stop-color="#bdbdcf"/>
      <stop offset="1" stop-color="#fff"/>
    </linearGradient>
    <linearGradient id="e" x1="75.226074" x2="146.21484" y1="115.43359" y2="115.43359" gradientTransform="matrix(.95 -.0774 .0605 .7427 -13.82317 55.97366)" gradientUnits="userSpaceOnUse">
      <stop offset="0" stop-color="#fff"/>
      <stop offset="1"/>
    </linearGradient>
    <radialGradient id="l" cx="138.72363" cy="128.80811" r="103.00073" fx="138.72363" fy="128.80811" gradientUnits="userSpaceOnUse">
      <stop offset=".005618" stop-color="#3e9ade"/>
      <stop offset=".39887601" stop-color="#06c"/>
      <stop offset="1" stop-color="#00008d"/>
    </radialGradient>
    <radialGradient id="m" cx="138.71191" cy="128.80225" r="103.02309" fx="138.71191" fy="128.80225" gradientUnits="userSpaceOnUse">
      <stop offset=".005618" stop-color="#3e9ade"/>
      <stop offset=".39887601" stop-color="#06c"/>
      <stop offset="1" stop-color="#00008d"/>
    </radialGradient>
    <radialGradient id="n" cx="134.13086" cy="81.594727" r="95.281982" fx="134.13086" fy="81.594727" gradientUnits="userSpaceOnUse">
      <stop offset=".005618" stop-color="#09f"/>
      <stop offset=".39887601" stop-color="#06c"/>
      <stop offset="1" stop-color="#00008d"/>
    </radialGradient>
    <radialGradient id="x" cx="29.147461" cy="212.55957" r="67.433098" fx="29.147461" fy="212.55957" gradientTransform="rotate(12.427 146.12434783 247.74832193)" gradientUnits="userSpaceOnUse">
      <stop offset="0" stop-color="#fff"/>
      <stop offset=".264045" stop-color="#9cf"/>
      <stop offset=".43820199" stop-color="#06c"/>
      <stop offset=".66853899" stop-color="#039"/>
    </radialGradient>
    <radialGradient id="B" cx="68.760254" cy="225.0332" r="10.369115" fx="68.760254" fy="225.0332" gradientTransform="rotate(12.427 146.12434783 247.74832193)" gradientUnits="userSpaceOnUse">
      <stop offset="0" stop-color="#828282"/>
      <stop offset="1"/>
    </radialGradient>
  </defs>
  <path fill="url(#a)" d="m125.12109 101.06641-51.467281 4.0619c-.648438-.0347-1.313965.0703-1.92334.37842-1.508301.76367-34.861328 18.1582-31.358887 61.13964.09375 1.15528.977051 2.21094 2.219727 2.64649l34.98877 12.31055c.922851.32421 1.880371.30078 2.6875 0l51.484371-9.28809c.86329-.1084 1.67579-.37012 2.2461-.90137.62402-.58301.90625-1.33301.83789-2.09863-.0449-.51367-.25-1.03613-.61719-1.51856-.2334-.30273-15.16016-20.1289-16.71875-37.85644-.77295-8.80078 1.67627-17.3501 10.88867-23.39111 1.06348-.69678 1.58301-1.72217 1.49414-2.72364-.0508-.55468-.28515-1.10205-.7207-1.58056-.92969-1.0293-2.521-1.4209-4.04102-1.17871z"/>
  <path fill="url(#b)" d="m125.79932 104.13232-3.51368 1.96241-50.969234 3.58691 2.129883-1.66064s-33.41211 16.72607-29.981934 58.69287l35.102051 12.17773-.373047-.54785 51.158201-9.53516 1.3584.41504s-34.546386-45.47265-4.91064-65.09131z"/>
  <path fill="url(#c)" d="m125.79932 104.13232-3.51368 1.96241-50.186519 3.5332 2.138183-1.66602-2.920898 1.71973.986816-.80176c-25.97998 20.17188 2.207031 63.96485 5.890137 69.46387l1.161133.40234-.372559-.54785 50.369627-9.38965 1.3584.41504s-34.546386-45.47265-4.91064-65.09131z"/>
  <path fill="url(#d)" d="M71.48193 110.77217c-5.857422 5.39795-8.434082 12.72705-7.662598 21.95362 1.213867 14.51757 10.032715 29.97851 14.158691 36.52636l40.690437-8.17484c-4.61524-7.10645-12.38428-20.7832-13.54346-34.11328-.56494-6.49317.45801-12.98145 4.15625-18.78321z"/>
  <path id="f" fill="url(#e)" d="m130.0957 106.21973-3.51368 1.96387-50.493407 3.46436 2.151366-1.66773-2.923584 1.7102c-15.16333 12.65454-10.73999 33.01392-4.119873 48.52026l53.53016-6.09776c-7.48693-14.95302-13.00573-35.79823 5.36902-47.8932z" opacity=".3"/>
  <use xlink:href="#f" transform="translate(-4.29638 -2.08741)"/>
  <path fill="url(#g)" d="M185.84961 6.2329102 45.126953 9.6484375 37.69873 13.363281c-1.089355.02686-2.112304.529297-2.798339 1.376465s-.965332 1.952149-.764161 3.023438l23.9292 127.388186c.366211 1.95215 2.204589 3.27051 4.170898 2.99218L197.40918 129.0293l2.67578-1.33936 1.58496-.79199 3.16699-1.58447c.99024-.13916 1.88282-.67188 2.47559-1.47705.5918-.80616.83496-1.8169.67285-2.80469L189.60547 9.34375c-.30078-1.828125-1.9043-3.1557617-3.75586-3.1108398z"/>
  <path fill="url(#h)" d="m185.93848 9.9467773-10.92481.2651367-129.795897 3.150391.01074.05762-.122073.06102-7.196873 3.5349.01074.05713-.132812.0034L61.716206 144.46456l135.172364-19.11475-.007-.043 7.30513-3.6142-.007-.0425.12793-.0176z"/>
  <path fill="url(#i)" d="m69.146484 140.75 135.171876-19.11377L185.93848 9.9467773l-10.92481.2651367-129.795897 3.150391z"/>
  <path fill="#fff" d="m77.030273 128.83252 116.016607-16.40625-15.37305-93.427735-2.42481.059082-118.299313 2.871094z"/>
  <path fill="url(#j)" d="m77.030273 129.76074 116.016607-16.40576-15.37305-93.427734-2.42481.059082L56.949707 22.85791z"/>
  <path fill="url(#k)" d="M176.24707 23.700195 61.221191 26.492188 80.206055 127.55811l110.557615-15.63477z"/>
  <path fill="url(#l)" d="m168.21289 25.753418-96.027831 2.331055c-2.178711.05322-4.223633 1.05957-5.595215 2.753906-1.370606 1.693359-1.929199 3.903809-1.526856 6.045898l15.32959 81.607423c.733399 3.9043 4.40918 6.54053 8.342285 5.98486l92.361817-13.06152c1.98047-.27979 3.76465-1.34668 4.94824-2.95801 1.18262-1.61133 1.66699-3.63183 1.34375-5.60498l-11.66406-70.87744c-.60156-3.656739-3.80664-6.311036-7.51172-6.221192z"/>
  <path fill="url(#m)" d="m168.30371 29.467285-96.028319 2.331543c-1.091309.02637-2.111329.527832-2.797852 1.376953-.686523.848145-.965332 1.949707-.763184 3.021973l15.329102 81.608396c.368164 1.95557 2.200195 3.271 4.171387 2.99121l92.360356-13.06054c.98535-.13965 1.88671-.67823 2.47558-1.47901.58692-.80078.83203-1.82226.6709-2.80273l-11.66211-70.877443c-.29883-1.817383-1.91504-3.155274-3.75586-3.110352z"/>
  <path fill="url(#n)" d="M172.05957 32.577637c-.29883-1.817383-1.91504-3.155274-3.75586-3.110352l-96.028319 2.331543c-1.091309.02637-2.111329.527832-2.797852 1.376953-.686523.848145-.965332 1.949707-.763184 3.021973l5.937012 31.606934c13.619629 7.896484 33.634273 11.489257 55.218753 8.638183 18.76269-2.479004 35.12304-9.351074 46.37304-18.4375z"/>
  <path fill="url(#o)" d="M166.52734 159.56152 42.394043 176.87598c-1.223633.1709-2.30957.82714-2.977051 1.7998-.66748.97168-.852051 2.16602-.505371 3.27442l3.664063 11.73437c.351562 1.12598 1.214355 2.05078 2.360839 2.53125l63.014647 26.38867 12.07373 4.77246c.71631.28223 1.50098.37891 2.271.27735 14.20117-1.86426 85.55957-11.95606 95.70117-27.59668 1.62305-2.50293 1.95703-5.19434.96582-7.78125-6.99707-18.26953-45.99316-31.1377-50.41699-32.54492-.64746-.20606-1.33985-.26465-2.01856-.16993z"/>
  <path fill="url(#p)" d="m43.028809 180.83203 124.133301-17.31445s41.25977 13.125 47.76269 30.10449c6.50293 16.98047-93.22656 30.07129-93.22656 30.07129l-11.99121-4.73828-63.014159-26.38867z"/>
  <path fill="url(#q)" d="m163.6748 166.43457-95.260738 14.11231c-.72998.10839-1.288085.66503-1.355468 1.3496-.06787.6875.372558 1.32813 1.069336 1.5586 11.699707 3.85937 43.02393 14.88867 47.42236 19.5293.37989.40136.95996.58398 1.52198.48144l83.18164-15.30078c.61425-.11328 1.10254-.5459 1.25488-1.11426.14941-.56738-.0644-1.16406-.54883-1.53223-.76953-.58398-19.06738-14.36718-36.58789-19.04394-.22754-.0615-.46289-.0732-.69727-.04z"/>
  <path fill="url(#r)" d="M68.666992 182.03418s42.454098 14.00391 48.094238 19.95215l83.18018-15.29883s-18.6084-14.12012-36.01075-18.76465z"/>
  <path fill="url(#s)" d="m180.55371 192.8877-36.57715 6.58886c-.76758.13867-1.32226.77344-1.30664 1.50391.009.73242.58594 1.34863 1.3584 1.46289 33.50781 4.96777 37.98145-6.35352 38.38281-7.66113.1543-.50293.0166-1.0459-.36133-1.43164-.37988-.38575-.94531-.56153-1.49609-.46289z"/>
  <path fill="url(#t)" d="m144.28223 200.95508 36.57422-6.58692s-3.41016 11.50684-36.57422 6.58692z"/>
  <path fill="#fff" d="m147.85547 200.3125-3.57324.64258c20.13476 2.98535 29.29199-.0801 33.38672-2.95117-4.50782 2.43457-13.2129 4.50976-29.81348 2.30859zm49.72851-15.33008-81.43994 14.29199-1.97656.78614c1.15723.70312 2.04883 1.35351 2.59375 1.92578l83.18018-15.29883s-.8545-.64648-2.35743-1.70508z"/>
  <path fill="url(#u)" d="m72.339844 181.48926-3.672852.54492s42.454098 14.00391 48.094238 19.95215l.16699-.0313-.28125-2.98926z"/>
  <path fill="#494949" d="m153.43333667 120.2416692-1.06666668.13333334c-.176768.02133333-.30404267.15018667-.33335467.324992l-.8249984 5.10833498-.12501334-.5916672c-.04881067-.23534934-.28424534-.40430934-.51666774-.37499734l-2.04166401.249984-.7666688-3.6666667c-.049792-.23534933-.27494401-.403328-.50833068-.37499733l-.9916672.12501333c-.23338668.02901333-.38314668.23965867-.33335468.47499947l1.02499841 4.93333337c.049792.23534934.283264.403328.51666774.37499734l3.4583339-.42500267c.220032-.02730667.35229866-.229632.324992-.45000107.02176.07185067.01962666.15240533.075008.20834133.10350933.10692267.24465066.15876267.38331733.14165334l1.06666668-.13333334c.17873066-.02218666.31726933-.15658666.34167467-.333312l.11665066-.87500374 1.37500161-.166656.50000214.8083328c.09668267.15624534.27716267.246016.4499968.22498134l1.07500375-.13333333c.14062933-.01749334.25463467-.097536.308352-.22498134.05661867-.12842667.0384-.282368-.04181333-.40832l-3.0166699-4.72500057c-.09860266-.15479467-.27618133-.246016-.4499968-.22498134zm-10.45833395 1.20000002c-.44434347.05469866-.82676054.182144-1.15000321.37499733-.07330134.07031467-.59446187.56260267-.68333227.65000107-.049792.11473067-.39168.94166614-.39168.94166614-.06839467.34816-.058752.84437334.05832533 1.40833282.18944.90478934.6048896 1.60528214 1.2249984 2.07499948.62305281.47168 1.36900695.6540032 2.21666989.5500032.837888-.10304 1.45989121-.45628587 1.85833388-1.05833387.39650134-.5956992.50806614-1.36142081.316672-2.27499949-.19336533-.9213824-.6102912-1.63568641-1.2333312-2.10833495-.62696108-.47656107-1.37584642-.66185387-2.21666562-.55833173zm-2.6666667.41668267-1.05000107.13333333c-.184576.02261333-.32017066.15808-.34167466.34167467l-.29166934 2.56666882-1.34166614-2.36666882c-.09472-.16648533-.27669334-.26363733-.45833387-.241664l-1.07499948.13333333c-.136704.01706667-.25463467.094592-.308352.21666134-.02005334.043392.01152.093952.00853333.14165333-.089088-.16827733-.25053867-.290176-.44166827-.26666667l-.9916672.11665067c-.23338667.02901333-.38314668.24797867-.33335468.48333227l.57485228 2.75000749c.00399786.01962667.17501866 1.07499948.17501866 1.07499948l-.51666347.00853333h-.5750016l-.05000534-.4499968-.02517333-.150016-.091648-.39168-.5666688-2.7083307c-.04881067-.23534933-.283264-.40379733-.51666774-.37499733l-.9916672.11665066c-.23436801.02901334-.38314668.24797867-.33331201.48333227l.55833174 2.6500011s.349696 1.18047147.39168 1.32500054c.079104.105472.44491947.5920896.52500054.69999787.173824.087424.4328192.22997333.92500054.50000214.23829333.05960533.65306027.073728 1.18333014.00853333.44628907-.05418667.79713707-.156032 1.06666667-.316672.11746134-.130176.30545067-.31172267.6166656-.6166656.04010668-.16260268.21866668-.85904642.23334401-.91666775-.05469867-.27490133-.11946667-.68489387-.20834133-1.33333334l-.46666667-2.21666562 2.65000108 4.54166617c.09472.163072.27767467.25480533.4583296.233344l1.08333655-.13333333c.179712-.02218667.316288-.15658667.34167467-.333312l.69999787-5.18333445c.01962667-.136704-.02986667-.27882667-.13333333-.38331733-.10158934-.10205867-.245632-.15825067-.38331734-.14165334zm-10.2750038 1.26666667-.91666348.10833067c-.23338667.02901333-.38216533.24750933-.33335467.48333654l.38331734 1.83333121-1.67500375-1.89999788c-.10449066-.118144-.25156267-.185216-.4-.166656l-.95833174.12501333c-.23291734.02901334-.38263467.23965867-.33335467.47499947l1.0333312 4.97500164c.04928.23534934.28377601.403328.51666774.37499734l.91666775-.11665067c.23338666-.02944.38314667-.23965867.33335466-.47499947l-.36667733-1.76666881 1.62499841 1.84166828c.10154667.11669333.260864.17591467.40832.158336l.98333441-.12501334c.23338667-.02816.39048534-.23965866.34167467-.47499947l-1.04166827-4.97500164c-.049792-.23534933-.28228267-.40379733-.51666774-.37499733zm13.31666783.03328.72500054.19165867c.215808.17723734.37000534.49788587.46666667.958336.09770667.46679894.080384.82295041-.05832533 1.04999682.00098133-.0019968-.6.36667733-.6.36667733l-.71666348-.20834133c-.22852267-.18555734-.39594667-.50423467-.49166934-.95833601-.09668266-.4614272-.07645866-.80969387.05832534-1.0333312.00200107-.00200107.6166656-.36667734.6166656-.36667734z"/>
  <path fill="url(#v)" d="m153.525 120.675-1.06666.13333-.83334 5.2 1.05833-.13333.16666-1.175 1.96666-.24167.65834 1.075 1.06666-.13333zm-6.18333.8-1 .12501 1.03333 4.925 3.45833-.425-.17502-.83333-2.46666.29999zm-4.275.39168c-.40235.0493-.73835.16341-1.01667.33336-.21094.12403-.39129.2999-.54166.525-.14942.2251-.25908.46673-.31668.73333-.0791.36326-.0638.80199.0418 1.30833.16601.79297.51628 1.38393 1.04167 1.78333.5254.39838 1.15188.55647 1.88333.46667.7207-.0893 1.24544-.38485 1.58333-.89166.3369-.50734.42633-1.16296.25835-1.96667-.16896-.81153-.51973-1.42363-1.05-1.825-.53028-.40085-1.16068-.55557-1.88333-.46667zm10.175.0252 1.08333 1.76667-1.35833.16666zm-12.84167.4-1.05833.12502-.42501 3.83333-2-3.53333-1.07499.13333 2.76666 4.75833 1.08333-.13333zm2.85833.43334c.4082-.0498.76199.049 1.06667.29999.30665.24998.52155.66448.64167 1.23333.1201.57862.085 1.02282-.10834 1.34167-.19238.32081-.48782.51003-.88333.55833-.39355.0488-.74928-.0579-1.06666-.31667-.31838-.25929-.54115-.66938-.65834-1.23334-.1201-.57275-.0821-1.01887.10833-1.33333.19042-.31445.4918-.4997.9-.55zm-8.15833.21666-.99166.11665.57499 2.75833c.085.39501.12732.67715.13334.85.007.17285-.0505.32453-.16666.45834-.11819.13427-.32072.21581-.6.24998-.27443.0337-.5071.004-.69167-.10001-.18457-.10449-.31599-.25911-.4-.45833-.0508-.12258-.11942-.39825-.20834-.825l-.56666-2.69167-.99167.11665.55833 2.65834c.11716.55615.23526.97314.35831 1.25.084.18654.21394.35942.39168.51667.17677.15919.40201.27925.66667.35831.26368.0791.63125.0914 1.1.0333.38669-.0469.68763-.13632.90833-.26666.21974-.12988.38328-.28702.49167-.47501.10743-.18701.15633-.40589.15834-.65833.002-.25391-.0583-.68567-.18334-1.28333zm-4.975.60833-.91667.11665.70001 3.34167-2.725-3.09166-.96667.11665 1.04166 4.975.91667-.11665-.68333-3.275 2.68333 3.025.99167-.11665z"/>
  <path fill="url(#w)" d="M26.45459 200.33008c-15.631836 9.35547-18.07959 27.64648-18.1762697 28.4209-.125 1.00683.2470703 2.01269.9990234 2.69629 19.2880863 17.50293 50.9394533 17.12402 70.9277343 7.8789 10.327149-4.77734 16.120117-11.51465 15.893555-18.49023-.253418-7.76953-7.395996-14.41406-21.230469-19.75196-20.041992-7.73046-36.330078-7.98339-48.413574-.7539z"/>
  <path fill="url(#x)" d="M11.373535 229.13672s5.856445-46.94141 62.371582-25.1416c56.516603 21.7998-25.915527 58.22461-62.371582 25.1416z"/>
  <path fill="url(#y)" d="M84.682129 209.90039c-3.010254-2.08594-6.910645-4.10937-11.819824-6.01855-4.979981-1.93848-9.582032-3.3545-13.838379-4.3252-3.868164-.80176-7.421875-1.21484-10.694824-1.30957-21.982911 6.15625 31.88623 26.49023 39.172363 24.42773 4.812012-1.3623.955078-7.87207-2.819336-12.77441z"/>
  <path fill="url(#z)" d="M85.055664 209.68457c-2.883789-1.96582-6.615234-3.87793-11.310547-5.68945-8.680176-3.34668-16.160644-5.06836-22.613769-5.59473-23.137207 5.39746 29.628418 25.20215 36.665527 23.27148 4.589355-1.25683.881348-7.37499-2.741211-11.9873z"/>
  <path fill="url(#A)" d="M46.138184 202.02344s38.256835 10.48633 42.498046 13.29101l-1.489746-2.57129s-38.912109-11.75293-41.0083-10.71972z"/>
  <path fill="url(#B)" d="M63.809082 206.66602s8.310547-3.77735 12.144043 3.42382z"/>
  <path fill="url(#C)" d="m41.290527 237.59766-8.086425-4.02344s-14.705567-.89063-21.751465-4.9541c-.05664.33593-.0791.5166-.0791.5166 8.222656 7.46191 18.782715 11.38672 29.560547 12.74121.212891-2.45117.356445-4.28027.356445-4.28027z"/>
  <path fill="url(#D)" d="M93.416992 218c-3.687988 5.74023-10.210449 14.70898-43.389648 7.95508 0 0-38.636719-1.40918-15.946778 14.67969C62.711426 246.1377 94.838867 232.8291 93.416992 218Z"/>
  <path fill="url(#E)" d="M92.932617 220.30859c-3.481933 5.3418-9.645019 13.68653-41.20459 7.25098 0 0-36.724609-1.46777-15.097168 13.63574 27.232422 5.25 57.712403-7.04199 56.301758-20.88672z"/>
  <path fill="#fff" d="M11.593262 227.85156c-.160157.81543-.219727 1.28516-.219727 1.28516 27.990723 25.40039 83.080566 9.82715 81.578125-8.6416-1.430664 17.74804-54.055664 31.80468-81.358398 7.35644z" opacity=".3"/>
</svg>